<svg width="90" height="34" viewBox="0 0 90 34" fill="none" xmlns="http://www.w3.org/2000/svg">
<path fill-rule="evenodd" clip-rule="evenodd" d="M28.0985 10.9813C28.0695 10.6079 28.0166 10.2374 27.9568 9.86891C27.8879 9.4472 27.791 9.03336 27.6772 8.62249C25.0749 9.30728 22.5594 8.83137 21.1091 7.12283C19.7255 5.49311 19.6307 3.12243 20.6149 0.821713C20.595 0.814816 20.577 0.807919 20.558 0.802007C19.8833 0.58031 19.1905 0.425615 18.4928 0.30048C17.4486 0.112284 16.3925 0.0305021 15.3324 0.00488376C14.8683 -0.00694007 14.4051 0.00389844 13.9419 0.0245901C13.2422 0.055135 12.5434 0.108342 11.8547 0.22461C10.8116 0.399997 9.81235 0.718255 8.85907 1.18037C8.02057 1.58534 7.228 2.0573 6.50031 2.6347C5.86046 3.14214 5.30346 3.72348 4.84728 4.39842C4.60571 4.75412 4.40407 5.13051 4.23538 5.52366C4.0008 6.06952 3.79217 6.62426 3.61549 7.1918C3.37692 7.95641 3.13635 8.72003 2.90377 9.48563C2.76602 9.9369 2.67718 10.399 2.64623 10.872C2.61628 11.3203 2.78199 11.7322 2.89279 12.1529C3.00059 12.5608 3.02555 12.949 2.772 13.3126C2.63226 13.5126 2.47953 13.7038 2.33379 13.8989C1.92952 14.4408 1.52225 14.9817 1.17787 15.5641C0.958264 15.9336 0.699729 16.2774 0.433208 16.6134C0.132748 16.9918 -0.06889 17.3899 0.0219467 17.8865C0.0269378 17.914 0.0209485 17.9397 0.037918 17.9682C0.215599 18.2727 0.463154 18.5092 0.767607 18.6895C1.04511 18.854 1.35755 18.9289 1.66599 19.0117C1.93651 19.0836 2.02135 19.1969 2.01237 19.4738C2.00538 19.6797 1.95947 19.8778 1.85306 20.0581C1.57056 20.537 1.86204 21.1755 2.29426 21.337C2.38211 21.3696 2.49091 21.3853 2.56278 21.4661C2.15651 21.7923 2.11459 22.2642 2.45597 22.6426C2.58274 22.7835 2.67857 22.9451 2.78538 23.1008C2.87023 23.2249 2.89419 23.3678 2.85526 23.5195C2.75943 23.891 2.66859 24.2625 2.64364 24.6477C2.61968 25.0054 2.63066 25.3581 2.74845 25.6991C3.00299 26.4361 3.59892 26.8194 4.29068 27.0706C4.5532 27.1652 4.84767 27.1928 5.13516 27.2233C5.79198 27.2943 6.45479 27.2815 7.10961 27.3642C7.68558 27.4362 8.27552 27.4529 8.79858 27.7682C9.04513 27.916 9.24378 28.0963 9.3975 28.3338C9.57618 28.6097 9.60313 28.9181 9.58416 29.2304C9.55322 29.7251 9.63607 30.2098 9.72391 30.6907C9.86266 31.4504 9.72391 30.6907 10.0863 32.9776C17.6836 34.0437 18.9523 33.3244 25.0534 31.0011C24.4245 29.5881 24.7489 30.4256 24.5812 29.9379C24.3506 29.2649 24.1879 28.5752 24.0721 27.8736C23.9663 27.2361 23.8705 26.5977 23.8415 25.9523C23.7996 25.0349 23.8735 24.1285 24.0661 23.2279C24.2428 22.3992 24.4714 21.5873 24.7858 20.8C25.0334 20.1783 25.3069 19.5694 25.6683 18.9999C25.7751 18.8304 25.8519 18.6383 25.9547 18.4639C26.4389 17.6441 26.935 16.8312 27.3003 15.9503C27.5129 15.4379 27.6886 14.9137 27.8184 14.3738C28.027 13.4988 28.1298 12.614 28.1019 11.7144C28.0939 11.4612 28.0909 11.2089 28.0729 10.9567" fill="white"/>
<path d="M35.7188 16.3953V9.01846H38.5994C39.6276 9.01846 40.4397 9.36701 41.0358 10.0641C41.6318 10.7577 41.9298 11.6447 41.9298 12.7252C41.9298 13.7952 41.6318 14.6753 41.0358 15.3654C40.4397 16.052 39.6276 16.3953 38.5994 16.3953H35.7188ZM37.0885 15.1406H38.5994C39.2268 15.1406 39.7096 14.9123 40.0476 14.4557C40.3892 13.9991 40.56 13.4223 40.56 12.7252C40.56 12.0177 40.3892 11.4321 40.0476 10.9686C39.7096 10.505 39.2268 10.2732 38.5994 10.2732H37.0885V15.1406Z" fill="white"/>
<path d="M43.3623 16.3953V9.01846H47.9264V10.2366H44.7216V12.1553H47.5291V13.363H44.7216V15.1772H48.031V16.3953H43.3623Z" fill="white"/>
<path d="M49.4896 16.3953V9.01846H50.8594V15.1772H53.7087V16.3953H49.4896Z" fill="white"/>
<path d="M54.906 16.3953V9.01846H56.2653V16.3953H54.906Z" fill="white"/>
<path d="M57.656 12.7252C57.656 11.6691 58.015 10.7734 58.733 10.0379C59.451 9.30253 60.331 8.93481 61.3732 8.93481C61.9866 8.93481 62.5512 9.06552 63.0671 9.32692C63.5864 9.58484 64.0099 9.93861 64.3375 10.3882L63.2448 11.1725C62.7604 10.5451 62.1365 10.2296 61.3732 10.2262C60.7109 10.2262 60.1533 10.4701 59.7002 10.9581C59.2505 11.4426 59.0257 12.0316 59.0257 12.7252C59.0257 13.4153 59.2505 14.0026 59.7002 14.4871C60.1498 14.9681 60.7074 15.2086 61.3732 15.2086C61.76 15.2086 62.1208 15.1197 62.4554 14.9419C62.79 14.7607 63.0671 14.5167 63.2867 14.21L64.3689 15.0047C64.0412 15.4682 63.616 15.8342 63.0932 16.1026C62.5739 16.3675 62.0005 16.4999 61.3732 16.4999C60.331 16.4999 59.451 16.1322 58.733 15.3968C58.015 14.6579 57.656 13.7673 57.656 12.7252Z" fill="white"/>
<path d="M65.5295 16.3953V9.01846H66.8888V16.3953H65.5295Z" fill="white"/>
<path d="M68.2795 12.7252C68.2795 11.6761 68.6403 10.7821 69.3617 10.0432C70.0832 9.30427 70.9685 8.93481 72.0176 8.93481C73.0667 8.93481 73.9538 9.30427 74.6787 10.0432C75.4037 10.7786 75.7662 11.6726 75.7662 12.7252C75.7662 13.7673 75.402 14.6579 74.6735 15.3968C73.9451 16.1322 73.0598 16.4999 72.0176 16.4999C70.9755 16.4999 70.0919 16.1322 69.367 15.3968C68.642 14.6579 68.2795 13.7673 68.2795 12.7252ZM70.3289 10.9947C69.8689 11.4687 69.6388 12.0455 69.6388 12.7252C69.6388 13.4014 69.8689 13.9747 70.3289 14.4453C70.789 14.9158 71.3502 15.1511 72.0124 15.1511C72.6781 15.1511 73.241 14.9158 73.7011 14.4453C74.1646 13.9747 74.3964 13.4014 74.3964 12.7252C74.3964 12.0455 74.1646 11.4687 73.7011 10.9947C73.241 10.5207 72.6781 10.2837 72.0124 10.2837C71.3502 10.2837 70.789 10.5207 70.3289 10.9947Z" fill="white"/>
<path d="M77.0837 13.7917V9.01846H78.4744V13.7917C78.4744 14.2065 78.6138 14.5463 78.8926 14.8112C79.1714 15.0761 79.5026 15.2086 79.886 15.2086C80.2728 15.2086 80.6074 15.0761 80.8898 14.8112C81.1721 14.5463 81.3132 14.2065 81.3132 13.7917V9.01846H82.683V13.7917C82.683 14.5899 82.4094 15.2417 81.8622 15.7471C81.3185 16.249 80.6597 16.4999 79.886 16.4999C79.1087 16.4999 78.4465 16.249 77.8993 15.7471C77.3555 15.2452 77.0837 14.5934 77.0837 13.7917Z" fill="white"/>
<path d="M84.0162 14.2414H85.3859C85.3999 14.5272 85.5219 14.7729 85.7519 14.9785C85.9819 15.1807 86.2852 15.2818 86.6616 15.2818C87.0171 15.2818 87.3047 15.1981 87.5242 15.0308C87.7473 14.8635 87.8676 14.6509 87.885 14.393C87.885 14.3755 87.885 14.3564 87.885 14.3355C87.885 14.1159 87.8083 13.9312 87.6549 13.7813C87.4876 13.6175 87.2245 13.4868 86.8655 13.3892L85.9558 13.1487C84.715 12.7862 84.0946 12.1013 84.0946 11.094C84.0946 10.4597 84.3351 9.9421 84.8161 9.54128C85.2971 9.13697 85.8844 8.93481 86.5779 8.93481C87.2925 8.93481 87.8798 9.13697 88.3398 9.54128C88.7999 9.9421 89.0299 10.4823 89.0299 11.162H87.6602C87.6602 10.8692 87.5608 10.6357 87.3622 10.4614C87.167 10.2837 86.8986 10.1948 86.557 10.1948C86.2434 10.1948 85.9802 10.275 85.7676 10.4353C85.5585 10.5956 85.4539 10.8047 85.4539 11.0627C85.4539 11.4705 85.7467 11.7528 86.3322 11.9096L87.2419 12.1763C88.0052 12.3819 88.5402 12.6851 88.847 13.0859C89.1223 13.4449 89.26 13.8405 89.26 14.2727C89.26 14.3215 89.2582 14.3721 89.2547 14.4243C89.2269 15.0657 88.9637 15.5745 88.4653 15.951C87.9704 16.3274 87.3691 16.5156 86.6616 16.5156C85.8844 16.5156 85.2483 16.2978 84.7533 15.8621C84.2619 15.4229 84.0162 14.8827 84.0162 14.2414Z" fill="white"/>
<path d="M35.7188 25.4297V18.0528H38.6099C39.2582 18.0528 39.774 18.234 40.1574 18.5965C40.5408 18.9555 40.7325 19.4417 40.7325 20.0551C40.7325 20.3619 40.6558 20.6459 40.5025 20.9073C40.3491 21.1652 40.0999 21.3587 39.7549 21.4876C40.1836 21.5957 40.5182 21.8222 40.7587 22.1673C41.0026 22.5089 41.1246 22.8574 41.1246 23.2129C41.1246 23.8333 40.9155 24.3579 40.4973 24.7866C40.0825 25.2153 39.5283 25.4297 38.8347 25.4297H35.7188ZM37.0885 24.2115H38.7615C39.0473 24.2115 39.2739 24.1104 39.4412 23.9083C39.6085 23.7026 39.6921 23.4639 39.6921 23.192C39.6921 22.9271 39.6067 22.6901 39.4359 22.481C39.2652 22.2684 39.0299 22.1621 38.7301 22.1621H37.0885V24.2115ZM37.0885 21.0171H38.5158C38.7598 21.0171 38.9515 20.9335 39.0909 20.7662C39.2338 20.5989 39.3052 20.3863 39.3052 20.1283C39.3052 19.8634 39.232 19.6543 39.0857 19.501C38.9393 19.3476 38.7336 19.2709 38.4687 19.2709H37.0885V21.0171Z" fill="white"/>
<path d="M42.5049 25.4297V18.0528H45.4587C46.2221 18.0528 46.8059 18.2863 47.2102 18.7533C47.6145 19.2204 47.8166 19.7833 47.8166 20.442C47.8166 21.0136 47.658 21.5173 47.3409 21.9529C47.0237 22.3851 46.5584 22.6518 45.945 22.7529L47.8271 25.4297H46.1802L44.4445 22.8051H43.8746V25.4297H42.5049ZM43.8746 21.587H45.3542C45.6888 21.587 45.945 21.4737 46.1227 21.2472C46.304 21.0171 46.3946 20.7487 46.3946 20.442C46.3946 20.1423 46.3074 19.8722 46.1332 19.6317C45.9624 19.3912 45.7167 19.2709 45.396 19.2709H43.8746V21.587Z" fill="white"/>
<path d="M48.3394 25.4297L51.0999 18.0528H52.5795L55.3399 25.4297H53.8969L53.2225 23.6416H50.4725L49.7981 25.4297H48.3394ZM50.9326 22.4444H52.7729L51.8423 19.6264L50.9326 22.4444Z" fill="white"/>
<path d="M56.2653 25.4297V18.0528H57.6246V25.4297H56.2653Z" fill="white"/>
<path d="M59.4649 25.4297V18.0528H60.7406L63.5533 22.847V18.0528H64.9283V25.4297H63.6735L60.8242 20.578V25.4297H59.4649Z" fill="white"/>
<path d="M66.3347 23.2757H67.7044C67.7184 23.5615 67.8404 23.8072 68.0704 24.0128C68.3004 24.215 68.6037 24.3161 68.9801 24.3161C69.3356 24.3161 69.6231 24.2324 69.8427 24.0651C70.0658 23.8978 70.186 23.6852 70.2035 23.4273C70.2035 23.4099 70.2035 23.3907 70.2035 23.3698C70.2035 23.1502 70.1268 22.9655 69.9734 22.8156C69.8061 22.6518 69.543 22.5211 69.184 22.4235L68.2743 22.183C67.0335 21.8205 66.4131 21.1356 66.4131 20.1283C66.4131 19.494 66.6536 18.9764 67.1346 18.5756C67.6155 18.1713 68.2028 17.9691 68.8964 17.9691C69.6109 17.9691 70.1982 18.1713 70.6583 18.5756C71.1184 18.9764 71.3484 19.5166 71.3484 20.1963H69.9787C69.9787 19.9035 69.8793 19.67 69.6806 19.4957C69.4855 19.318 69.2171 19.2291 68.8755 19.2291C68.5618 19.2291 68.2987 19.3093 68.0861 19.4696C67.8769 19.6299 67.7724 19.839 67.7724 20.097C67.7724 20.5048 68.0652 20.7871 68.6507 20.9439L69.5604 21.2106C70.3237 21.4162 70.8587 21.7194 71.1654 22.1202C71.4408 22.4792 71.5785 22.8748 71.5785 23.307C71.5785 23.3558 71.5767 23.4064 71.5732 23.4586C71.5453 24.1 71.2822 24.6088 70.7838 24.9853C70.2889 25.3617 69.6876 25.5499 68.9801 25.5499C68.2028 25.5499 67.5667 25.3321 67.0718 24.8964C66.5804 24.4572 66.3347 23.917 66.3347 23.2757Z" fill="white"/>
</svg>
