<svg width="115" height="15" viewBox="0 0 115 15" fill="none" xmlns="http://www.w3.org/2000/svg">
<path d="M101.238 6.44911C101.4 6.45844 101.515 6.47126 101.63 6.47126C103.04 6.47243 104.45 6.47126 105.859 6.47243C106.258 6.47243 106.29 6.50857 106.222 6.89101C106.124 7.44425 106.013 7.99575 105.919 8.55016C105.878 8.79735 105.751 8.88712 105.498 8.88596C104.039 8.87838 102.58 8.88829 101.121 8.87663C100.862 8.87488 100.767 8.94834 100.727 9.20601C100.596 10.0583 100.432 10.906 100.281 11.7554C100.267 11.8405 100.253 11.9256 100.232 12.0509H114.285C114.285 12.8228 114.29 13.5579 114.276 14.2919C114.275 14.3619 114.156 14.4511 114.072 14.4907C113.999 14.5251 113.898 14.503 113.809 14.503C108.337 14.503 102.866 14.503 97.395 14.503C96.9363 14.503 96.9298 14.5012 97.0068 14.0721C97.3317 12.2597 97.6607 10.4472 97.988 8.63528C98.4289 6.19318 98.8728 3.75167 99.3054 1.30782C99.3516 1.04607 99.4617 0.956289 99.7327 0.956872C102.434 0.965033 105.135 0.961536 107.836 0.962119C108.193 0.962119 108.211 0.983106 108.153 1.32765C108.059 1.89139 107.954 2.45396 107.867 3.01945C107.822 3.30802 107.694 3.41995 107.377 3.41704C105.662 3.4013 103.947 3.40829 102.231 3.41063C101.787 3.41063 101.788 3.34708 101.708 3.82454C101.565 4.68327 101.401 5.53908 101.237 6.44853L101.238 6.44911Z" fill="white"/>
<path d="M13.9207 10.2746C14.1124 9.86536 14.2734 9.52723 14.4302 9.18736C15.2967 7.30959 16.1613 5.43123 17.0278 3.55404C17.3852 2.77868 17.7468 2.00507 18.1049 1.23029C18.1919 1.0414 18.3268 0.956872 18.5446 0.959204C19.3329 0.967365 20.1218 0.960953 20.9107 0.963285C21.2161 0.96445 21.2694 1.03907 21.1356 1.31191C20.7717 2.05287 20.3994 2.78976 20.0283 3.52722C19.2637 5.0453 18.4961 6.56279 17.732 8.08086C16.8017 9.92891 15.8329 11.76 14.9658 13.6361C14.6456 14.3286 14.2657 14.6201 13.5064 14.514C13.0814 14.4546 12.6399 14.4936 12.2067 14.507C11.9546 14.5152 11.8422 14.4412 11.8055 14.1736C11.4397 11.5035 11.0598 8.83466 10.6834 6.16636C10.5656 5.33096 10.4372 4.4973 10.3342 3.66014C10.3028 3.40596 10.159 3.40771 9.96962 3.40771C7.01226 3.41004 4.0543 3.40946 1.09694 3.40946H0.69864C0.69864 3.15178 0.69864 2.91335 0.69864 2.67549C0.69864 2.2196 0.707517 1.76313 0.695089 1.30782C0.688579 1.06764 0.80221 0.972029 1.02533 0.962702C1.08451 0.96037 1.14369 0.961536 1.20288 0.961536C4.91955 0.961536 8.63623 0.961536 12.3529 0.961536C12.798 0.961536 12.8098 0.960953 12.8625 1.39644C13.0459 2.91743 13.2229 4.439 13.3987 5.96116C13.5496 7.27111 13.6952 8.58164 13.8455 9.89159C13.8573 9.99245 13.8846 10.0921 13.9207 10.274V10.2746Z" fill="white"/>
<path d="M52.6795 4.94328C52.6061 6.4013 52.3628 7.82552 52.0278 9.23166C51.8444 10.0018 51.6574 10.7871 51.3354 11.507C50.4187 13.5562 48.7556 14.5939 46.5008 14.7128C45.7042 14.7548 44.9111 14.7262 44.1376 14.4563C42.6651 13.9421 41.8934 12.8922 41.6472 11.4178C41.4773 10.4035 41.6513 9.40248 41.8301 8.412C42.0431 7.23088 42.2941 6.05385 42.5912 4.89022C42.9551 3.46309 43.7624 2.31463 45.0461 1.52994C45.7947 1.0723 46.6316 0.839693 47.5045 0.772651C48.3905 0.704442 49.2687 0.724846 50.1328 1.014C51.6272 1.51362 52.4753 2.73087 52.6386 4.1994C52.6664 4.44949 52.667 4.70251 52.68 4.94386L52.6795 4.94328ZM44.4341 10.165C44.4785 10.7089 44.5412 11.2284 44.9218 11.6452C45.4811 12.2579 46.2031 12.3372 46.9583 12.1471C48.0188 11.8801 48.5947 11.1188 48.8953 10.137C49.0681 9.57271 49.2161 8.99614 49.3131 8.41491C49.496 7.31658 49.7298 6.21359 49.7682 5.10709C49.8209 3.59485 48.6248 3.02644 47.3601 3.31152C46.2605 3.55929 45.6947 4.35855 45.3775 5.34961C45.2064 5.88362 45.0774 6.43395 44.975 6.98545C44.778 8.04239 44.6128 9.10516 44.4347 10.1656L44.4341 10.165Z" fill="white"/>
<path d="M24.5688 6.47185H24.9506C26.3508 6.47185 27.7505 6.47185 29.1508 6.47185C29.5615 6.47185 29.584 6.49516 29.5153 6.88051C29.4171 7.43376 29.3064 7.98526 29.217 8.54025C29.175 8.80317 29.046 8.88887 28.7779 8.88654C27.3285 8.87605 25.8791 8.88829 24.4297 8.87546C24.167 8.87313 24.0652 8.95825 24.0243 9.2066C23.8805 10.0869 23.7184 10.9643 23.5645 11.8428C23.555 11.8982 23.5556 11.9548 23.5485 12.0544C23.6787 12.0544 23.7941 12.0544 23.9089 12.0544C25.6542 12.0544 27.3989 12.0544 29.1442 12.0544C29.51 12.0544 29.5384 12.0906 29.4739 12.4404C29.368 13.0123 29.2561 13.5836 29.1614 14.1572C29.1188 14.4138 29.0028 14.5082 28.7294 14.507C26.0277 14.4983 23.3266 14.5018 20.6249 14.5012C20.2757 14.5012 20.2408 14.4616 20.3006 14.131C20.6805 12.0323 21.064 9.93415 21.441 7.83485C21.8298 5.66908 22.2163 3.50274 22.5933 1.33464C22.6401 1.06472 22.7472 0.95454 23.0348 0.955706C25.7365 0.963285 28.4376 0.959787 31.1393 0.960953C31.5068 0.960953 31.5269 0.987187 31.4636 1.34747C31.3618 1.92986 31.2547 2.51167 31.1594 3.09524C31.1174 3.35291 30.9671 3.41296 30.7232 3.41179C28.9584 3.4048 27.1936 3.41296 25.4288 3.40305C25.1612 3.40188 25.0512 3.47534 25.0103 3.74992C24.886 4.58358 24.7274 5.41257 24.5836 6.24332C24.5742 6.29928 24.5753 6.35758 24.5682 6.4701L24.5688 6.47185Z" fill="white"/>
<path d="M89.5142 12.0107H89.9131C91.5696 12.0107 93.2262 12.0107 94.8821 12.0107C95.2757 12.0107 95.2952 12.0212 95.2307 12.4066C95.1253 13.0373 95.0076 13.667 94.875 14.2925C94.8578 14.3747 94.7288 14.4458 94.6371 14.496C94.5844 14.5251 94.5021 14.503 94.4329 14.503C91.672 14.503 88.9117 14.503 86.1509 14.503C85.7307 14.503 85.7076 14.475 85.7756 14.075C85.862 13.5684 85.9248 13.0572 86.0396 12.557C86.0958 12.311 86.2018 12.0492 86.3621 11.8574C88.1986 9.65665 90.0492 7.46641 91.8981 5.27557C92.3875 4.69551 92.8853 4.12186 93.4274 3.48933C93.2605 3.48233 93.1599 3.47417 93.0593 3.47417C91.4915 3.47359 89.9238 3.47417 88.356 3.47359C87.9163 3.47359 87.8932 3.46135 87.9648 3.02528C88.0654 2.41315 88.1808 1.80277 88.3152 1.19706C88.3359 1.10378 88.4809 1.014 88.5886 0.97028C88.6809 0.932387 88.8022 0.961536 88.9105 0.961536C91.5531 0.961536 94.195 0.961536 96.8375 0.961536C97.2589 0.961536 97.2896 1.00701 97.2068 1.42267C97.1139 1.88847 97.0168 2.35485 96.9511 2.82473C96.9056 3.15295 96.7866 3.42812 96.5688 3.68288C94.7063 5.86322 92.8515 8.04997 90.9938 10.2344C90.5706 10.7322 90.1427 11.226 89.7196 11.7233C89.6592 11.7944 89.6101 11.8749 89.5136 12.0096L89.5142 12.0107Z" fill="white"/>
<path d="M57.9988 14.7187C57.2803 14.7606 56.5109 14.612 55.7972 14.2511C54.4401 13.5655 53.8631 12.3879 53.7844 10.9573C53.7116 9.63159 53.9744 8.32863 54.2519 7.04083C54.468 6.03986 54.6917 5.02373 55.0781 4.07989C55.8209 2.26449 57.2016 1.12885 59.2044 0.824536C60.2264 0.668881 61.2467 0.670629 62.2286 1.07114C63.414 1.55501 64.0858 2.45862 64.4083 3.64732C64.4592 3.83445 64.4184 3.9767 64.2017 4.06065C63.5525 4.31308 62.908 4.57833 62.2665 4.84942C62.0114 4.95727 61.8966 4.88906 61.8226 4.62847C61.6267 3.93939 61.229 3.40771 60.472 3.28121C59.5825 3.13196 58.7936 3.37798 58.2361 4.09213C57.9538 4.45357 57.7129 4.87973 57.5792 5.31405C57.0832 6.9219 56.7779 8.57231 56.6832 10.2507C56.6625 10.6215 56.7477 11.0342 56.9075 11.3718C57.2442 12.0848 58.1917 12.4002 59.0203 12.1559C59.7471 11.9419 60.2661 11.4761 60.6679 10.864C60.9082 10.4985 60.9485 10.4868 61.3515 10.6984C61.8634 10.9678 62.3754 11.2377 62.8855 11.5099C63.1761 11.665 63.1903 11.7227 63.0098 12.0043C61.8688 13.7876 60.2691 14.7665 57.9994 14.7187H57.9988Z" fill="white"/>
<path d="M74.6037 3.47359C74.3125 3.47359 74.0681 3.47359 73.8243 3.47359C72.9862 3.47359 72.1488 3.47475 71.3108 3.47301C70.9681 3.47242 70.9273 3.43744 70.9835 3.09932C71.09 2.45862 71.206 1.81968 71.3439 1.18482C71.3635 1.09504 71.5191 0.988936 71.625 0.972029C71.8363 0.938216 72.0571 0.961536 72.2737 0.961536C75.2305 0.961536 78.1872 0.961536 81.144 0.961536C81.5772 0.961536 81.5944 0.977859 81.5234 1.38419C81.4233 1.95726 81.3097 2.52741 81.2174 3.10165C81.1718 3.38323 81.0381 3.48467 80.7416 3.48C79.7562 3.46309 78.7702 3.48292 77.7848 3.46718C77.5327 3.46309 77.4427 3.54646 77.4019 3.78024C77.0781 5.63236 76.7443 7.48215 76.4123 9.3331C76.12 10.9643 75.8252 12.5943 75.5358 14.226C75.5009 14.4213 75.4086 14.5082 75.1997 14.5065C74.4901 14.4989 73.7805 14.5041 73.0709 14.5035C72.6744 14.5035 72.6353 14.4651 72.7016 14.0908C72.8904 13.0222 73.0857 11.9542 73.2768 10.8862C73.6012 9.07368 73.9237 7.2612 74.248 5.44872C74.3622 4.81036 74.4777 4.17258 74.6031 3.47417L74.6037 3.47359Z" fill="white"/>
<path d="M34.5393 11.9851C34.6837 11.9938 34.8187 12.0096 34.9536 12.0096C36.6291 12.0113 38.3046 12.0107 39.9794 12.0107C40.4263 12.0107 40.431 12.0148 40.3511 12.459C40.2446 13.0502 40.1297 13.6401 40.0274 14.2325C39.993 14.4318 39.893 14.5064 39.6877 14.5064C36.9676 14.5024 34.2476 14.5018 31.5275 14.5064C31.2677 14.5064 31.1991 14.4085 31.2429 14.1712C31.6565 11.9116 32.0673 9.65199 32.4774 7.39178C32.8479 5.35136 33.2202 3.31152 33.5806 1.26935C33.6214 1.03849 33.7185 0.956872 33.9475 0.959204C34.6766 0.966782 35.4064 0.970863 36.1355 0.957455C36.4166 0.952208 36.4746 1.06647 36.4296 1.31191C36.1823 2.66558 35.9396 4.01984 35.6976 5.37468C35.3158 7.51188 34.9359 9.64908 34.5559 11.7863C34.5459 11.8422 34.5459 11.9 34.5393 11.9851Z" fill="white"/>
<path d="M65.9423 14.503C65.5777 14.503 65.2126 14.4907 64.8486 14.507C64.5657 14.5193 64.5083 14.3928 64.5527 14.1514C64.8267 12.6555 65.0984 11.159 65.3682 9.6619C65.6452 8.1275 65.918 6.59194 66.1944 5.05696C66.4211 3.79831 66.6531 2.54082 66.8738 1.28101C66.9153 1.04607 67.0242 0.953957 67.2686 0.957455C67.9877 0.967948 68.7073 0.968531 69.4264 0.957455C69.6898 0.953374 69.7791 1.03674 69.7306 1.30141C69.2447 3.96038 68.7653 6.61992 68.2865 9.28005C67.9948 10.9007 67.703 12.5214 67.4237 14.1438C67.3769 14.4161 67.2645 14.5269 66.9774 14.5076C66.6341 14.4849 66.2879 14.5024 65.9435 14.5024L65.9423 14.503Z" fill="white"/>
<path d="M82.1898 14.503C81.8447 14.503 81.5003 14.5041 81.1552 14.503C80.8179 14.5018 80.7688 14.4499 80.8256 14.1316C80.9747 13.302 81.1316 12.4736 81.2807 11.644C81.5772 9.99478 81.869 8.34495 82.1667 6.69571C82.4655 5.03714 82.7686 3.37856 83.0704 1.72057C83.0722 1.71125 83.0763 1.70192 83.0781 1.69259C83.1771 1.20561 83.4835 0.962119 83.9972 0.962119C84.5689 0.962119 85.14 0.97028 85.7111 0.958621C85.9692 0.953374 86.0402 1.04898 85.9958 1.2915C85.6318 3.28354 85.2726 5.27616 84.9139 7.26878C84.621 8.89878 84.3316 10.53 84.0404 12.1605C83.9214 12.8281 83.7936 13.4944 83.6859 14.1637C83.6439 14.4254 83.5267 14.5263 83.2527 14.5094C82.8994 14.4872 82.5437 14.5041 82.1892 14.5041L82.1898 14.503Z" fill="white"/>
</svg>
