<svg width="99" height="19" viewBox="0 0 99 19" fill="none" xmlns="http://www.w3.org/2000/svg">
<path d="M0.285645 3.51273H2.92895V14.7295H5.76706V3.51273H8.41037V0.906411H0.285645V3.51273Z" fill="white"/>
<path d="M19.9258 0.728543C18.5205 0.724639 17.1457 1.13792 15.9755 1.91602C14.8053 2.69412 13.8923 3.80204 13.3523 5.09944C12.8122 6.39683 12.6694 7.82532 12.9419 9.20395C13.2144 10.5826 13.8899 11.8493 14.8829 12.8437C15.8759 13.8381 17.1417 14.5154 18.52 14.7898C19.8982 15.0642 21.3269 14.9234 22.625 14.3851C23.9232 13.8469 25.0324 12.9355 25.8121 11.7663C26.5918 10.5972 27.007 9.22294 27.0051 7.81764C27.0005 5.9406 26.2535 4.14159 24.9272 2.81339C23.6008 1.4852 21.8029 0.735702 19.9258 0.728543ZM19.9258 12.2807C17.5217 12.2807 15.734 10.4437 15.734 7.81764C15.734 5.23105 17.5094 3.37925 19.9258 3.37925C22.3423 3.37925 24.0881 5.21625 24.0881 7.81764C24.0881 10.419 22.3127 12.2807 19.9258 12.2807Z" fill="white"/>
<path d="M42.8015 5.44866C42.8015 2.6648 41.0754 0.906706 38.3458 0.906706H33.328V14.7298H36.1266V9.97089H38.2595L40.1927 14.7298H43.2675L40.9028 9.30513C42.0913 8.54814 42.8015 7.22648 42.8015 5.44866ZM37.9118 7.40402H36.1168V3.47358H37.9118C39.2927 3.47358 40.1015 4.18372 40.1015 5.4462C40.1015 6.70867 39.273 7.40402 37.9118 7.40402Z" fill="white"/>
<path d="M75.6734 9.99062C75.6734 11.4504 74.8473 12.3208 73.7229 12.3208C72.5985 12.3208 71.7898 11.4504 71.7898 9.99062V0.906706H68.9517V9.81308C68.9517 13.4057 71.2374 14.9271 73.7229 14.9271C76.2084 14.9271 78.5139 13.4057 78.5139 9.81308V0.906706H75.6734V9.99062Z" fill="white"/>
<path d="M93.8953 12.2221H88.2956V8.6665H92.2186V6.17853H88.2956V3.4144H93.8953V0.906706H85.4969V14.7298H93.8953V12.2221Z" fill="white"/>
<path d="M51.2174 2.86866C49.8923 4.19953 49.1484 6.00109 49.1484 7.87911C49.1484 9.75713 49.8923 11.5587 51.2174 12.8896L51.247 12.9192L57.1451 18.7285V14.8794C57.345 14.8597 57.5435 14.8276 57.7394 14.7833C59.0629 14.4999 60.2757 13.8386 61.2309 12.8797C61.8972 12.2244 62.4272 11.4436 62.7904 10.5825C63.1536 9.72139 63.3427 8.79689 63.3469 7.86233C63.351 6.92776 63.1702 6.00162 62.8147 5.13727C62.4593 4.27293 61.9363 3.4875 61.2758 2.82625C60.6154 2.165 59.8306 1.64101 58.9667 1.2845C58.1028 0.927985 57.1769 0.745995 56.2423 0.749021C55.3077 0.752046 54.383 0.940027 53.5214 1.30213C52.6598 1.66423 51.8785 2.19328 51.2223 2.85879L51.2174 2.86866ZM59.2879 10.9515C58.6962 11.5424 57.9459 11.9492 57.1278 12.1227V14.8203C57.1278 14.8203 53.2738 11.0698 53.1555 10.949C52.5479 10.3424 52.1338 9.56909 51.9658 8.72707C51.7978 7.88505 51.8833 7.01211 52.2116 6.21871C52.5398 5.42531 53.0961 4.74712 53.8099 4.26995C54.5237 3.79278 55.3631 3.53808 56.2217 3.53808C57.0803 3.53808 57.9196 3.79278 58.6335 4.26995C59.3473 4.74712 59.9035 5.42531 60.2318 6.21871C60.56 7.01211 60.6456 7.88505 60.4775 8.72707C60.3095 9.56909 59.8955 10.3424 59.2879 10.949V10.9515Z" fill="white"/>
<path d="M96.403 2.16178C96.4035 1.91327 96.4776 1.67048 96.6159 1.46406C96.7543 1.25763 96.9507 1.09683 97.1804 1.00196C97.4101 0.907084 97.6627 0.88239 97.9064 0.930991C98.1502 0.979592 98.374 1.09931 98.5497 1.27503C98.7254 1.45076 98.8452 1.6746 98.8938 1.91831C98.9424 2.16202 98.9177 2.41467 98.8228 2.64435C98.7279 2.87404 98.5671 3.07046 98.3607 3.20883C98.1543 3.3472 97.9115 3.42131 97.663 3.42179C97.4965 3.4255 97.331 3.39544 97.1764 3.33343C97.0219 3.27142 96.8815 3.17874 96.7638 3.06099C96.646 2.94325 96.5533 2.80286 96.4913 2.64832C96.4293 2.49377 96.3993 2.32826 96.403 2.16178ZM98.7208 2.16178C98.7184 1.95252 98.6541 1.74865 98.536 1.57586C98.4179 1.40308 98.2513 1.2691 98.0572 1.19081C97.8631 1.11253 97.6502 1.09342 97.4453 1.13592C97.2404 1.17841 97.0526 1.2806 96.9057 1.42961C96.7587 1.57861 96.6591 1.76778 96.6195 1.97327C96.5798 2.17876 96.6019 2.39139 96.6829 2.58437C96.7639 2.77735 96.9001 2.94205 97.0745 3.05772C97.249 3.1734 97.4537 3.23487 97.663 3.2344C97.804 3.23751 97.9442 3.21178 98.0749 3.15879C98.2056 3.10579 98.3242 3.02665 98.4232 2.92622C98.5223 2.82578 98.5997 2.70617 98.6509 2.57472C98.7021 2.44327 98.7259 2.30275 98.7208 2.16178ZM97.2413 2.86206C97.2333 2.86333 97.225 2.86267 97.2173 2.86014C97.2095 2.85762 97.2025 2.85329 97.1967 2.84752C97.1909 2.84175 97.1866 2.8347 97.1841 2.82695C97.1815 2.81919 97.1809 2.81095 97.1822 2.80289V1.50835C97.1809 1.50029 97.1815 1.49205 97.1841 1.48429C97.1866 1.47653 97.1909 1.46948 97.1967 1.46372C97.2025 1.45795 97.2095 1.45362 97.2173 1.4511C97.225 1.44857 97.2333 1.44791 97.2413 1.44917H97.7567C97.8138 1.44275 97.8716 1.44872 97.9262 1.46669C97.9808 1.48466 98.0309 1.5142 98.073 1.55329C98.1152 1.59238 98.1484 1.64011 98.1704 1.6932C98.1924 1.7463 98.2027 1.80352 98.2005 1.86096C98.2066 1.94682 98.183 2.03217 98.1336 2.10267C98.0842 2.17317 98.0121 2.22452 97.9293 2.24809L98.2055 2.79549C98.2301 2.84234 98.2054 2.86206 98.166 2.86206H98.055C98.0408 2.86079 98.0272 2.85579 98.0155 2.84756C98.0038 2.83934 97.9945 2.82818 97.9885 2.81521L97.7148 2.27274H97.4213C97.409 2.27274 97.4016 2.27274 97.4016 2.27274V2.79056C97.4019 2.79842 97.4007 2.80627 97.3978 2.81361C97.395 2.82095 97.3906 2.82761 97.3851 2.83318C97.3795 2.83875 97.3728 2.84309 97.3655 2.84594C97.3581 2.84879 97.3503 2.85008 97.3424 2.84973L97.2413 2.86206ZM97.9959 1.86096C97.9959 1.72534 97.9244 1.63904 97.7493 1.63904H97.4164C97.4041 1.63904 97.3967 1.63904 97.3967 1.63904V2.05082C97.3967 2.06562 97.3967 2.06562 97.4164 2.06562H97.7493C97.9293 2.07795 98.0008 1.99904 98.0008 1.86096H97.9959Z" fill="white"/>
<path d="M0.285645 3.51273H2.92895V14.7295H5.76706V3.51273H8.41037V0.906411H0.285645V3.51273Z" fill="white"/>
<path d="M19.9258 0.728543C18.5205 0.724639 17.1457 1.13792 15.9755 1.91602C14.8053 2.69412 13.8923 3.80204 13.3523 5.09944C12.8122 6.39683 12.6694 7.82532 12.9419 9.20395C13.2144 10.5826 13.8899 11.8493 14.8829 12.8437C15.8759 13.8381 17.1417 14.5154 18.52 14.7898C19.8982 15.0642 21.3269 14.9234 22.625 14.3851C23.9232 13.8469 25.0324 12.9355 25.8121 11.7663C26.5918 10.5972 27.007 9.22294 27.0051 7.81764C27.0005 5.9406 26.2535 4.14159 24.9272 2.81339C23.6008 1.4852 21.8029 0.735702 19.9258 0.728543ZM19.9258 12.2807C17.5217 12.2807 15.734 10.4437 15.734 7.81764C15.734 5.23105 17.5094 3.37925 19.9258 3.37925C22.3423 3.37925 24.0881 5.21625 24.0881 7.81764C24.0881 10.419 22.3127 12.2807 19.9258 12.2807Z" fill="white"/>
<path d="M42.8015 5.44866C42.8015 2.6648 41.0754 0.906706 38.3458 0.906706H33.328V14.7298H36.1266V9.97089H38.2595L40.1927 14.7298H43.2675L40.9028 9.30513C42.0913 8.54814 42.8015 7.22648 42.8015 5.44866ZM37.9118 7.40402H36.1168V3.47358H37.9118C39.2927 3.47358 40.1015 4.18372 40.1015 5.4462C40.1015 6.70867 39.273 7.40402 37.9118 7.40402Z" fill="white"/>
<path d="M75.6734 9.99062C75.6734 11.4504 74.8473 12.3208 73.7229 12.3208C72.5985 12.3208 71.7898 11.4504 71.7898 9.99062V0.906706H68.9517V9.81308C68.9517 13.4057 71.2374 14.9271 73.7229 14.9271C76.2084 14.9271 78.5139 13.4057 78.5139 9.81308V0.906706H75.6734V9.99062Z" fill="white"/>
<path d="M93.8953 12.2221H88.2956V8.6665H92.2186V6.17853H88.2956V3.4144H93.8953V0.906706H85.4969V14.7298H93.8953V12.2221Z" fill="white"/>
<path d="M51.2174 2.86866C49.8923 4.19953 49.1484 6.00109 49.1484 7.87911C49.1484 9.75713 49.8923 11.5587 51.2174 12.8896L51.247 12.9192L57.1451 18.7285V14.8794C57.345 14.8597 57.5435 14.8276 57.7394 14.7833C59.0629 14.4999 60.2757 13.8386 61.2309 12.8797C61.8972 12.2244 62.4272 11.4436 62.7904 10.5825C63.1536 9.72139 63.3427 8.79689 63.3469 7.86233C63.351 6.92776 63.1702 6.00162 62.8147 5.13727C62.4593 4.27293 61.9363 3.4875 61.2758 2.82625C60.6154 2.165 59.8306 1.64101 58.9667 1.2845C58.1028 0.927985 57.1769 0.745995 56.2423 0.749021C55.3077 0.752046 54.383 0.940027 53.5214 1.30213C52.6598 1.66423 51.8785 2.19328 51.2223 2.85879L51.2174 2.86866ZM59.2879 10.9515C58.6962 11.5424 57.9459 11.9492 57.1278 12.1227V14.8203C57.1278 14.8203 53.2738 11.0698 53.1555 10.949C52.5479 10.3424 52.1338 9.56909 51.9658 8.72707C51.7978 7.88505 51.8833 7.01211 52.2116 6.21871C52.5398 5.42531 53.0961 4.74712 53.8099 4.26995C54.5237 3.79278 55.3631 3.53808 56.2217 3.53808C57.0803 3.53808 57.9196 3.79278 58.6335 4.26995C59.3473 4.74712 59.9035 5.42531 60.2318 6.21871C60.56 7.01211 60.6456 7.88505 60.4775 8.72707C60.3095 9.56909 59.8955 10.3424 59.2879 10.949V10.9515Z" fill="white"/>
<path d="M96.403 2.16178C96.4035 1.91327 96.4776 1.67048 96.6159 1.46406C96.7543 1.25763 96.9507 1.09683 97.1804 1.00196C97.4101 0.907084 97.6627 0.88239 97.9064 0.930991C98.1502 0.979592 98.374 1.09931 98.5497 1.27503C98.7254 1.45076 98.8452 1.6746 98.8938 1.91831C98.9424 2.16202 98.9177 2.41467 98.8228 2.64435C98.7279 2.87404 98.5671 3.07046 98.3607 3.20883C98.1543 3.3472 97.9115 3.42131 97.663 3.42179C97.4965 3.4255 97.331 3.39544 97.1764 3.33343C97.0219 3.27142 96.8815 3.17874 96.7638 3.06099C96.646 2.94325 96.5533 2.80286 96.4913 2.64832C96.4293 2.49377 96.3993 2.32826 96.403 2.16178ZM98.7208 2.16178C98.7184 1.95252 98.6541 1.74865 98.536 1.57586C98.4179 1.40308 98.2513 1.2691 98.0572 1.19081C97.8631 1.11253 97.6502 1.09342 97.4453 1.13592C97.2404 1.17841 97.0526 1.2806 96.9057 1.42961C96.7587 1.57861 96.6591 1.76778 96.6195 1.97327C96.5798 2.17876 96.6019 2.39139 96.6829 2.58437C96.7639 2.77735 96.9001 2.94205 97.0745 3.05772C97.249 3.1734 97.4537 3.23487 97.663 3.2344C97.804 3.23751 97.9442 3.21178 98.0749 3.15879C98.2056 3.10579 98.3242 3.02665 98.4232 2.92622C98.5223 2.82578 98.5997 2.70617 98.6509 2.57472C98.7021 2.44327 98.7259 2.30275 98.7208 2.16178ZM97.2413 2.86206C97.2333 2.86333 97.225 2.86267 97.2173 2.86014C97.2095 2.85762 97.2025 2.85329 97.1967 2.84752C97.1909 2.84175 97.1866 2.8347 97.1841 2.82695C97.1815 2.81919 97.1809 2.81095 97.1822 2.80289V1.50835C97.1809 1.50029 97.1815 1.49205 97.1841 1.48429C97.1866 1.47653 97.1909 1.46948 97.1967 1.46372C97.2025 1.45795 97.2095 1.45362 97.2173 1.4511C97.225 1.44857 97.2333 1.44791 97.2413 1.44917H97.7567C97.8138 1.44275 97.8716 1.44872 97.9262 1.46669C97.9808 1.48466 98.0309 1.5142 98.073 1.55329C98.1152 1.59238 98.1484 1.64011 98.1704 1.6932C98.1924 1.7463 98.2027 1.80352 98.2005 1.86096C98.2066 1.94682 98.183 2.03217 98.1336 2.10267C98.0842 2.17317 98.0121 2.22452 97.9293 2.24809L98.2055 2.79549C98.2301 2.84234 98.2054 2.86206 98.166 2.86206H98.055C98.0408 2.86079 98.0272 2.85579 98.0155 2.84756C98.0038 2.83934 97.9945 2.82818 97.9885 2.81521L97.7148 2.27274H97.4213C97.409 2.27274 97.4016 2.27274 97.4016 2.27274V2.79056C97.4019 2.79842 97.4007 2.80627 97.3978 2.81361C97.395 2.82095 97.3906 2.82761 97.3851 2.83318C97.3795 2.83875 97.3728 2.84309 97.3655 2.84594C97.3581 2.84879 97.3503 2.85008 97.3424 2.84973L97.2413 2.86206ZM97.9959 1.86096C97.9959 1.72534 97.9244 1.63904 97.7493 1.63904H97.4164C97.4041 1.63904 97.3967 1.63904 97.3967 1.63904V2.05082C97.3967 2.06562 97.3967 2.06562 97.4164 2.06562H97.7493C97.9293 2.07795 98.0008 1.99904 98.0008 1.86096H97.9959Z" fill="white"/>
</svg>
