<svg width="80" height="31" viewBox="0 0 80 31" fill="none" xmlns="http://www.w3.org/2000/svg">
<path d="M58.7134 21.4338C59.983 21.4338 61.1656 20.9415 62.1569 20.0096C62.2091 19.9744 62.2612 19.9041 62.3134 19.8514C62.4525 19.6931 62.4351 19.5173 62.3308 19.3415C62.3308 19.3415 62.0004 18.7964 61.9134 18.6733C61.8265 18.5502 61.7569 18.4975 61.6525 18.4799C61.5308 18.4623 61.4091 18.5327 61.2699 18.6557C60.4699 19.3415 59.6351 19.6931 58.783 19.6931C56.4873 19.6931 55.4438 17.4953 55.4438 15.4557C55.4438 13.4338 56.4699 11.3942 58.783 11.3942C59.5656 11.3942 60.383 11.6931 61.1482 12.2733C61.3395 12.414 61.5482 12.3964 61.6525 12.2206L62.0873 11.4821C62.2265 11.236 62.1917 11.0777 62.0351 10.9195C62.0004 10.8843 61.9482 10.8316 61.896 10.7964C61.2699 10.2865 60.2091 9.67113 58.7134 9.67113C57.4091 9.67113 56.2612 10.1459 55.3569 11.0601C54.2786 12.1503 53.7047 13.7327 53.7047 15.5085C53.7047 17.214 54.1917 18.6733 55.0438 19.7107C55.9134 20.7832 57.2004 21.4338 58.7134 21.4338Z" fill="white"/>
<path d="M47.4265 9.51289C44.5221 9.51289 42.3482 12.0272 42.3482 15.3678C42.3482 18.7964 44.5221 21.381 47.4265 21.381C50.3134 21.381 52.4873 18.7964 52.4873 15.3678C52.4873 12.0448 50.3134 9.51289 47.4265 9.51289ZM47.4265 19.6052C45.5656 19.6052 44.2265 17.8118 44.2265 15.3678C44.2265 12.9766 45.5482 11.2887 47.4265 11.2887C49.3047 11.2887 50.6265 12.9766 50.6265 15.3678C50.6265 17.8821 49.3047 19.6052 47.4265 19.6052Z" fill="white"/>
<path d="M41.6178 19.5173H37.496V10.0579C37.496 9.86454 37.3395 9.7063 37.1482 9.7063H36.0178C35.8265 9.7063 35.6699 9.86454 35.6699 10.0579V20.8711C35.6699 21.0645 35.8265 21.2228 36.0178 21.2228H41.6178C41.8091 21.2228 41.9656 21.0645 41.9656 20.8711V19.8689C41.9656 19.6755 41.8091 19.5173 41.6178 19.5173Z" fill="white"/>
<path d="M79.496 19.5173H75.3743V10.0579C75.3743 9.86454 75.2178 9.7063 75.0265 9.7063H73.896C73.7047 9.7063 73.5482 9.86454 73.5482 10.0579V20.8711C73.5482 21.0645 73.7047 21.2228 73.896 21.2228H79.496C79.6873 21.2228 79.8438 21.0645 79.8438 20.8711V19.8689C79.8438 19.6755 79.6873 19.5173 79.496 19.5173Z" fill="white"/>
<path d="M72.1221 20.7656L68.6438 9.97003C68.5917 9.82937 68.4699 9.72388 68.3134 9.72388H67.1482C67.0091 9.72388 66.9047 9.81179 66.8525 9.93487L63.3221 20.7656C63.2525 20.9942 63.4091 21.2228 63.6525 21.2228H64.783C64.9395 21.2228 65.0612 21.1173 65.1134 20.9766L66.0525 18.0052H69.4264L70.383 20.9766C70.4352 21.1173 70.5569 21.2228 70.7134 21.2228H71.7743C72.0351 21.2228 72.1917 20.9942 72.1221 20.7656ZM66.4699 16.37L67.5134 13.0645C67.6004 12.8008 67.6873 12.4492 67.7569 12.1503C67.8265 12.4667 67.9134 12.8008 68.0004 13.0645L69.0438 16.37H66.4699Z" fill="white"/>
<path d="M14.4548 6.48873V1.40207C14.4548 1.05247 14.23 0.737828 13.9188 0.597988C13.6075 0.458149 13.2272 0.545549 12.9851 0.790268L1.78123 12.1173C0.588225 13.3234 0.0176562 14.4945 0.000366211 15.7181C0.000366211 16.9417 0.553644 18.0954 1.72936 19.284L12.9851 30.6635C13.1407 30.8383 13.3655 30.9257 13.5903 30.9257C13.694 30.9257 13.815 30.9082 13.9188 30.8208C14.2473 30.681 14.4548 30.3663 14.4548 30.0167V24.8776C14.4548 24.6504 14.351 24.4231 14.1954 24.2658L5.70605 15.6832L14.1954 7.10052C14.3683 6.94321 14.4548 6.71597 14.4548 6.48873ZM12.7258 25.2622V27.9366L4.53033 19.6511C4.49575 19.5987 4.46117 19.5462 4.4093 19.4938C4.14995 19.2316 3.3719 18.445 4.53033 16.9767L12.7258 25.2622ZM12.7258 6.15661L3.75228 15.2287C3.06069 15.9279 2.59386 16.6621 2.3518 17.3787C1.91955 16.8019 1.71207 16.26 1.71207 15.7356C1.72936 15.0015 2.14432 14.2149 2.99153 13.3583L12.7258 3.51714V6.15661Z" fill="white"/>
<path d="M8.10935 15.7007V15.7706C8.10935 16.1376 8.40328 16.4348 8.76636 16.4348H21.6128C21.9759 16.4348 22.2698 16.1376 22.2698 15.7706V15.7007C22.2698 15.3336 21.9759 15.0364 21.6128 15.0364H8.76636C8.40328 15.0364 8.10935 15.3336 8.10935 15.7007Z" fill="white"/>
<path d="M10.5818 13.1661V13.236C10.5818 13.6031 10.8757 13.9002 11.2388 13.9002H19.123C19.4861 13.9002 19.7801 13.6031 19.7801 13.236V13.1661C19.7801 12.799 19.4861 12.5018 19.123 12.5018H11.2388C10.8757 12.5018 10.5818 12.799 10.5818 13.1661Z" fill="white"/>
<path d="M16.6852 11.3481C17.0482 11.3481 17.3422 11.051 17.3422 10.6839V10.614C17.3422 10.2469 17.0482 9.94975 16.6852 9.94975H13.5557C13.1926 9.94975 12.8987 10.2469 12.8987 10.614V10.6839C12.8987 11.051 13.1926 11.3481 13.5557 11.3481H16.6852Z" fill="white"/>
<path d="M13.5557 21.5739H16.6852C17.0482 21.5739 17.3422 21.2768 17.3422 20.9097V20.8398C17.3422 20.4727 17.0482 20.1755 16.6852 20.1755H13.5557C13.1926 20.1755 12.8987 20.4727 12.8987 20.8398V20.9097C12.8987 21.2768 13.1926 21.5739 13.5557 21.5739Z" fill="white"/>
<path d="M11.2388 19.0044H19.123C19.4861 19.0044 19.7801 18.7072 19.7801 18.3401V18.2702C19.7801 17.9031 19.4861 17.606 19.123 17.606H11.2388C10.8757 17.606 10.5818 17.9031 10.5818 18.2702V18.3401C10.5818 18.7072 10.8757 19.0044 11.2388 19.0044Z" fill="white"/>
<path d="M28.7708 12.1872L17.5151 0.807747C17.273 0.563028 16.9099 0.475629 16.5814 0.615468C16.2529 0.755308 16.0454 1.06995 16.0454 1.41955V6.57613C16.0454 6.80337 16.1492 7.0306 16.3048 7.18792L24.7941 15.7706L16.3048 24.3532C16.1319 24.5105 16.0454 24.7378 16.0454 24.965V30.0517C16.0454 30.4013 16.2529 30.7159 16.5814 30.8558C16.6852 30.9082 16.8062 30.9257 16.9099 30.9257C17.1347 30.9257 17.3422 30.8383 17.5151 30.681L28.719 19.354C29.912 18.1478 30.4825 16.9767 30.4998 15.7531C30.4998 14.5295 29.9465 13.3758 28.7708 12.1872ZM17.7744 6.19157V3.51714L25.9699 11.8026C26.0044 11.8551 26.039 11.9075 26.0909 11.9599C26.3502 12.2221 27.1283 13.0087 25.9699 14.4771L17.7744 6.19157ZM27.4914 18.0954L17.7571 27.9366V25.3146L26.7306 16.225C27.4222 15.5259 27.889 14.7917 28.1311 14.075C28.5633 14.6519 28.7708 15.1937 28.7708 15.7181C28.7535 16.4523 28.3386 17.2389 27.4914 18.0954Z" fill="white"/>
</svg>
