<svg width="100" height="29" viewBox="0 0 100 29" fill="none" xmlns="http://www.w3.org/2000/svg">
<path d="M14.032 3.89007C8.05632 3.89007 3.20105 8.74535 3.20105 14.7211C3.20105 20.6968 8.05632 25.552 14.032 25.552C20.0078 25.552 24.863 20.6968 24.863 14.7211C24.863 8.74535 20.0247 3.89007 14.032 3.89007ZM11.1291 5.41796C12.0458 5.12936 13.0135 4.97657 14.032 4.97657C15.0846 4.97657 16.1032 5.14633 17.0539 5.45191C16.4257 5.87632 15.9843 6.4705 15.7467 7.18351C15.3392 8.42279 15.7636 9.56022 16.1541 10.5449L16.1881 10.6467C16.4087 11.2409 16.5106 11.9879 15.9504 12.5141C15.7127 12.3104 15.4581 12.1406 15.1525 12.0048C15.2374 10.7825 14.5244 9.713 13.1662 9.08487L13.0644 9.03394C12.1646 8.62651 11.3837 8.27 11.0102 7.54002C10.5858 6.72515 10.8235 5.9612 11.1121 5.43493L11.1291 5.41796ZM15.5769 14.6871C15.5769 15.5359 14.8978 16.215 14.049 16.215C13.2002 16.215 12.5211 15.5359 12.5211 14.6871C12.5211 13.8383 13.2002 13.1592 14.049 13.1592C14.8978 13.1592 15.5769 13.8553 15.5769 14.6871ZM9.46537 6.11399C9.34654 6.827 9.46537 7.54001 9.8049 8.18512C10.4161 9.33952 11.5195 9.84881 12.5042 10.2902L12.606 10.3411C13.1832 10.5958 13.7944 11.0541 13.8113 11.8011C13.4888 11.8181 13.1832 11.903 12.8946 12.0218C12.0797 11.0881 10.8065 10.8165 9.39747 11.3088L9.27863 11.3427C8.3619 11.6823 7.56401 11.9709 6.74914 11.6993C5.93427 11.4446 5.52683 10.7995 5.34009 10.2902C6.25682 8.54163 7.68284 7.06467 9.46537 6.11399ZM4.72894 17.5901C4.45731 16.6903 4.30452 15.7227 4.30452 14.7211C4.30452 13.7534 4.45731 12.8027 4.71196 11.9199C5.13637 12.4462 5.6966 12.8197 6.3417 13.0234C7.59796 13.4309 8.73538 13.0234 9.75397 12.6499L9.87281 12.616C10.484 12.3953 11.2649 12.2934 11.8251 12.8706C11.6384 13.0913 11.4856 13.346 11.3837 13.6176C10.1105 13.4988 8.99003 14.1778 8.3619 15.5359L8.31097 15.6378C7.90354 16.5036 7.54703 17.2675 6.80007 17.641C6.03613 18.0145 5.27218 17.8278 4.77987 17.6071L4.72894 17.5901ZM9.36351 23.2602C7.66587 22.3265 6.2738 20.9005 5.37404 19.1689C5.52683 19.1859 5.67962 19.2028 5.83241 19.2028C6.37565 19.2028 6.88495 19.084 7.37727 18.8463C8.56562 18.2691 9.07491 17.1657 9.5163 16.215L9.56723 16.1131C9.83885 15.5359 10.3312 14.9078 11.163 14.9587C11.197 15.2473 11.2649 15.5359 11.3667 15.7906C10.3821 16.5885 10.0935 17.8617 10.6367 19.2708L10.6707 19.3896C11.0102 20.2893 11.3158 21.0703 11.0612 21.8512C10.7726 22.717 10.0426 23.0905 9.46537 23.2602H9.36351ZM16.969 24.0072C16.0353 24.2958 15.0506 24.4656 14.032 24.4656C12.9965 24.4656 11.9779 24.2958 11.0442 23.9902C11.6723 23.5658 12.1137 22.9716 12.3514 22.2586C12.7588 21.0193 12.3344 19.8819 11.9439 18.8973L11.91 18.7954C11.6893 18.2012 11.5705 17.4373 12.1816 16.894C12.4193 17.0978 12.6739 17.2506 12.9455 17.3694C12.8267 18.6087 13.5397 19.7121 14.9318 20.3403L15.0337 20.3912C15.9334 20.7986 16.7143 21.1551 17.0878 21.8851C17.5122 22.7 17.2745 23.4639 16.9859 23.9902C17.0029 23.9732 17.0029 24.0072 16.969 24.0072ZM18.6496 23.2942C18.7515 22.5812 18.6327 21.8851 18.3101 21.24C17.699 20.0856 16.5955 19.5763 15.6109 19.1349L15.509 19.084C14.9148 18.8124 14.2867 18.337 14.3037 17.5561C14.6092 17.5222 14.8978 17.4543 15.1695 17.3524C15.9843 18.3201 17.2745 18.6256 18.7006 18.1164L18.8194 18.0824C19.7361 17.7429 20.534 17.4543 21.3489 17.7259C22.1468 17.9805 22.5542 18.5917 22.741 19.101C21.8412 20.8665 20.4152 22.3435 18.6496 23.2942ZM23.7765 14.7211C23.7765 15.6887 23.6407 16.6224 23.3691 17.5052C22.9447 16.9959 22.4014 16.6224 21.7563 16.4187C20.5001 16.0113 19.3627 16.4187 18.3441 16.7922L18.2252 16.8261C17.5971 17.0468 16.7992 17.1487 16.239 16.5375C16.4257 16.3169 16.5615 16.0792 16.6804 15.8245C16.7992 15.8415 16.9011 15.8415 17.0029 15.8415C18.1573 15.8415 19.142 15.1455 19.7361 13.9062L19.7871 13.8043C20.1945 12.9385 20.551 12.1746 21.298 11.8011C22.0619 11.4276 22.8259 11.5974 23.3351 11.8351C23.6237 12.7518 23.7765 13.7195 23.7765 14.7211ZM20.7208 10.5958C19.5324 11.173 19.0231 12.2765 18.5817 13.2271L18.5308 13.329C18.2592 13.9232 17.7669 14.5513 16.918 14.4834C16.9011 14.1948 16.8332 13.9062 16.7313 13.6515C17.7159 12.8537 18.0045 11.5804 17.4613 10.1714L17.4104 10.0525C17.0708 9.15278 16.7653 8.37186 17.0199 7.59094C17.3085 6.72514 18.0385 6.35166 18.6157 6.1819L18.6836 6.16492C20.3812 7.09863 21.7733 8.52465 22.6731 10.2563C22.011 10.1714 21.3319 10.2902 20.7208 10.5958Z" fill="white"/>
<path d="M14.0316 0.919554C6.40917 0.919554 0.229733 7.09899 0.229733 14.7214C0.229733 22.3439 6.40917 28.5233 14.0316 28.5233C21.654 28.5233 27.8335 22.3439 27.8335 14.7214C27.8335 7.09899 21.654 0.919554 14.0316 0.919554ZM14.0316 26.7747C7.37683 26.7747 1.96133 21.3592 1.96133 14.7044C1.96133 8.04967 7.3938 2.65115 14.0316 2.65115C20.6864 2.65115 26.1019 8.06665 26.1019 14.7214C26.1019 21.3762 20.6864 26.7747 14.0316 26.7747Z" fill="white"/>
<path d="M25.5072 3.34697C24.217 2.03978 22.5533 1.0891 21.0594 0.783526C20.9745 0.76655 20.8727 0.817479 20.8387 0.902361C20.8047 0.987243 20.8557 1.0891 20.9406 1.12306C22.3496 1.76816 23.7247 2.73582 24.8961 3.92417C26.0844 5.1295 27.0521 6.5046 27.6802 7.93062C27.7142 7.99853 27.7821 8.04946 27.85 8.04946C27.867 8.04946 27.8839 8.04945 27.9009 8.03248C27.9858 7.99853 28.0537 7.91364 28.0197 7.81179C27.7142 6.26693 26.8144 4.65416 25.5072 3.34697Z" fill="white"/>
<path d="M7.08812 28.3027C5.67907 27.6576 4.30398 26.6899 3.1326 25.5016C1.94425 24.2962 0.976588 22.9211 0.348458 21.4951C0.314505 21.4102 0.212646 21.3593 0.127764 21.3932C0.0428814 21.4272 -0.0250239 21.5121 0.008929 21.6139C0.331482 23.1927 1.23124 24.7885 2.53842 26.1127C3.82863 27.4199 5.49233 28.3706 6.98626 28.6761C7.00323 28.6761 7.00323 28.6761 7.02021 28.6761C7.10509 28.6761 7.173 28.6252 7.18998 28.5403C7.22393 28.4385 7.173 28.3366 7.08812 28.3027Z" fill="white"/>
<path d="M38.9524 9.23797H33.8594C33.6896 9.23797 33.5538 9.37378 33.5538 9.54355V20.0011C33.5538 20.1708 33.6896 20.3066 33.8594 20.3066H34.878C35.0478 20.3066 35.1836 20.1708 35.1836 20.0011V15.5532H38.477C38.6468 15.5532 38.7826 15.4174 38.7826 15.2476V14.2291C38.7826 14.0593 38.6468 13.9235 38.477 13.9235H35.1836V10.8338H38.9524C39.1221 10.8338 39.2579 10.6979 39.2579 10.5282V9.5096C39.2579 9.35681 39.1221 9.23797 38.9524 9.23797Z" fill="white"/>
<path d="M46.8129 18.6771H43.0441V9.52674C43.0441 9.35698 42.9083 9.22116 42.7386 9.22116H41.72C41.5502 9.22116 41.4144 9.35698 41.4144 9.52674V19.9842C41.4144 20.154 41.5502 20.2898 41.72 20.2898H46.8129C46.9827 20.2898 47.1185 20.154 47.1185 19.9842V18.9657C47.1015 18.8129 46.9657 18.6771 46.8129 18.6771Z" fill="white"/>
<path d="M53.9265 9.18674H52.7891C52.6872 9.18674 52.5854 9.25465 52.5344 9.33953L50.2256 13.6006L47.8829 9.33953C47.8319 9.23767 47.7301 9.18674 47.6282 9.18674H46.4908C46.3889 9.18674 46.2871 9.23767 46.2362 9.33953C46.1852 9.42441 46.1852 9.54325 46.2362 9.62813L49.4108 15.468V19.9838C49.4108 20.1535 49.5466 20.2894 49.7163 20.2894H50.7349C50.9047 20.2894 51.0405 20.1535 51.0405 19.9838V15.5699L54.2151 9.61116C54.266 9.52627 54.266 9.40744 54.2151 9.32256C54.1302 9.25465 54.0284 9.18674 53.9265 9.18674Z" fill="white"/>
<path d="M99.6947 18.6771H95.926V9.52674C95.926 9.35698 95.7902 9.22116 95.6204 9.22116H94.6018C94.432 9.22116 94.2962 9.35698 94.2962 9.52674V19.9842C94.2962 20.154 94.432 20.2898 94.6018 20.2898H99.6947C99.8645 20.2898 100 20.154 100 19.9842V18.9657C100 18.8129 99.8645 18.6771 99.6947 18.6771Z" fill="white"/>
<path d="M75.3333 9.23797H74.3147C74.1449 9.23797 74.0091 9.37378 74.0091 9.54355V13.9405H70.3592V9.54355C70.3592 9.37378 70.2233 9.23797 70.0536 9.23797H69.035C68.8652 9.23797 68.7294 9.37378 68.7294 9.54355V20.0011C68.7294 20.1708 68.8652 20.3066 69.035 20.3066H70.0536C70.2233 20.3066 70.3592 20.1708 70.3592 20.0011V15.5532H74.0091V20.0011C74.0091 20.1708 74.1449 20.3066 74.3147 20.3066H75.3333C75.503 20.3066 75.6388 20.1708 75.6388 20.0011V9.54355C75.6219 9.35681 75.486 9.23797 75.3333 9.23797Z" fill="white"/>
<path d="M83.5332 9.23797H78.3724C78.2026 9.23797 78.0668 9.37378 78.0668 9.54355V20.0011C78.0668 20.1708 78.2026 20.3066 78.3724 20.3066H83.5332C83.703 20.3066 83.8388 20.1708 83.8388 20.0011V18.9825C83.8388 18.8127 83.703 18.6769 83.5332 18.6769H79.6966V15.5532H83.0409C83.2107 15.5532 83.3465 15.4174 83.3465 15.2476V14.2291C83.3465 14.0593 83.2107 13.9235 83.0409 13.9235H79.6966V10.8338H83.5332C83.703 10.8338 83.8388 10.6979 83.8388 10.5282V9.5096C83.8388 9.35681 83.703 9.23797 83.5332 9.23797Z" fill="white"/>
<path d="M91.665 9.23797H86.5211C86.3514 9.23797 86.2155 9.37378 86.2155 9.54355V20.0011C86.2155 20.1708 86.3514 20.3066 86.5211 20.3066H91.682C91.8517 20.3066 91.9875 20.1708 91.9875 20.0011V18.9825C91.9875 18.8127 91.8517 18.6769 91.682 18.6769H87.8453V15.5532H91.2066C91.3764 15.5532 91.5122 15.4174 91.5122 15.2476V14.2291C91.5122 14.0593 91.3764 13.9235 91.2066 13.9235H87.8453V10.8338H91.682C91.8517 10.8338 91.9875 10.6979 91.9875 10.5282V9.5096C91.9706 9.35681 91.8348 9.23797 91.665 9.23797Z" fill="white"/>
<path d="M66.6756 9.22053H65.5552C65.4533 9.22053 65.3684 9.28844 65.3515 9.39029L63.6368 16.792L61.8883 9.37332C61.8713 9.27146 61.7864 9.20355 61.6845 9.20355H60.5471C60.4453 9.20355 60.3604 9.27146 60.3434 9.37332L58.5948 16.7751L56.8802 9.37332C56.8632 9.27146 56.7783 9.20355 56.6765 9.20355H55.556C55.4881 9.20355 55.4372 9.23751 55.3863 9.28844C55.3523 9.33937 55.3353 9.40727 55.3523 9.47518L57.8309 20.1194C57.8309 20.1534 57.8479 20.1873 57.8818 20.2213C57.9158 20.2722 57.9837 20.3062 58.0516 20.3062H59.172C59.2739 20.3062 59.3588 20.2383 59.3757 20.1364L61.1413 12.7007L62.8899 20.1364C62.9068 20.2383 62.9917 20.3062 63.0936 20.3062H64.214C64.3159 20.3062 64.4008 20.2383 64.4178 20.1364L66.8963 9.47518C66.9133 9.40727 66.8963 9.33937 66.8624 9.28844C66.7945 9.25448 66.7266 9.22053 66.6756 9.22053Z" fill="white"/>
</svg>
