<svg width="125" height="18" viewBox="0 0 125 18" fill="none" xmlns="http://www.w3.org/2000/svg">
<path d="M0.442383 0.228516H8.35948V17.2285H0.442383V0.228516Z" fill="white"/>
<path d="M9.67841 0.228516H18.0353V8.07467H9.67841V0.228516Z" fill="white"/>
<path d="M18.0353 9.38233H9.67841V17.2285H18.0353V9.38233Z" fill="white"/>
<path d="M34.3472 12.6882C32.9791 12.6882 31.953 11.7289 31.953 11.7289L31.041 12.9897C31.041 12.9897 32.2095 14.2504 34.3472 14.2504C36.3138 14.2504 37.4824 13.0171 37.4824 11.5645C37.4824 9.88154 35.9994 9.29075 34.7354 8.78723C33.7969 8.41334 32.9791 8.08758 32.9791 7.3985C32.9791 6.76812 33.6346 6.30219 34.4327 6.30219C35.6298 6.30219 36.5419 7.09701 36.5419 7.09701L37.2829 5.72662C37.2829 5.72662 36.3138 4.73994 34.4327 4.73994C32.6086 4.73994 31.2405 5.86366 31.2405 7.3985C31.2405 8.98064 32.6828 9.5796 33.935 10.0996C34.8953 10.4984 35.7438 10.8507 35.7438 11.5645C35.7438 12.3319 35.0598 12.6882 34.3472 12.6882Z" fill="white"/>
<path d="M42.1241 6.2162H39.0928V4.73994H47.1447V6.2162H44.0502V14.2504H42.1241V6.2162Z" fill="white"/>
<path d="M50.5674 4.73994H48.7847V10.7363C48.7847 12.828 50.3891 14.2504 52.7958 14.2504C55.2024 14.2504 56.8069 12.828 56.8069 10.7363V4.73994H54.9944V10.7084C54.9944 11.9913 54.1031 12.6886 52.7661 12.6886C51.4291 12.6886 50.5674 11.9913 50.5674 10.7363V4.73994Z" fill="white"/>
<path fill-rule="evenodd" clip-rule="evenodd" d="M58.4172 4.73994H61.5706C64.724 4.73994 66.4691 6.47171 66.4691 9.481C66.4691 12.4903 64.724 14.2504 61.5706 14.2504H58.4172V4.73994ZM61.4788 12.7742C63.5606 12.7742 64.5403 11.6386 64.5403 9.481C64.5403 7.35178 63.53 6.2162 61.4788 6.2162H60.2848V12.7458H61.4788V12.7742Z" fill="white"/>
<path d="M69.6898 4.73994H68.0795V14.2504H69.6898V4.73994Z" fill="white"/>
<path fill-rule="evenodd" clip-rule="evenodd" d="M76.1615 4.73994C79.1507 4.73994 80.9624 6.79553 80.9624 9.42667C80.9624 12.14 79.1205 14.2504 76.1615 14.2504C73.1722 14.2504 71.3002 12.14 71.3002 9.42667C71.3002 6.79553 73.1722 4.73994 76.1615 4.73994ZM76.1615 12.7156C78.0033 12.7156 79.0601 11.3178 79.0601 9.42667C79.0601 7.61776 78.0033 6.27478 76.1615 6.27478C74.3196 6.27478 73.2024 7.61776 73.2024 9.42667C73.2024 11.3178 74.3196 12.7156 76.1615 12.7156Z" fill="white"/>
<path fill-rule="evenodd" clip-rule="evenodd" d="M86.974 4.73994H82.5728V14.2504H84.654V10.9573H86.974C89.1234 10.9573 90.6246 9.67972 90.6246 7.8344C90.6246 5.98908 89.1234 4.73994 86.974 4.73994ZM88.5093 7.8344C88.5093 8.82804 87.7928 9.481 86.5987 9.481V9.45261H84.654V6.2162H86.6328C87.7928 6.2162 88.5093 6.86916 88.5093 7.8344Z" fill="white"/>
<path fill-rule="evenodd" clip-rule="evenodd" d="M95.6768 4.73994C96.8135 4.73994 97.3503 4.82486 97.8239 4.99469C98.8975 5.41927 99.5606 6.32503 99.5606 7.59875C99.5606 8.73096 98.8975 9.77824 97.7608 10.2028V10.2311C97.7608 10.2311 97.9186 10.3726 98.1081 10.7123L100.287 14.2504H98.1397L96.0241 10.7123H94.1611V14.2504H92.235V4.73994H95.6768ZM95.9294 9.18384C96.9714 9.18384 97.6029 8.64604 97.6029 7.68367C97.6029 6.77791 97.1608 6.21181 95.6768 6.21181H94.2243V9.18384H95.9294Z" fill="white"/>
<path d="M108.122 4.73994H101.897V14.2504H108.339V12.7698H103.786V10.2071H107.286V8.72638H103.786V6.22062H108.122V4.73994Z" fill="white"/>
<path d="M110.861 11.7289C110.861 11.7289 111.887 12.6882 113.255 12.6882C113.968 12.6882 114.652 12.3319 114.652 11.5645C114.652 10.8507 113.803 10.4984 112.843 10.0996C111.591 9.5796 110.149 8.98064 110.149 7.3985C110.149 5.86366 111.517 4.73994 113.341 4.73994C115.222 4.73994 116.191 5.72662 116.191 5.72662L115.45 7.09701C115.45 7.09701 114.538 6.30219 113.341 6.30219C112.543 6.30219 111.887 6.76812 111.887 7.3985C111.887 8.08758 112.705 8.41334 113.644 8.78723C114.907 9.29075 116.391 9.88154 116.391 11.5645C116.391 13.0171 115.222 14.2504 113.255 14.2504C111.118 14.2504 109.949 12.9897 109.949 12.9897L110.861 11.7289Z" fill="white"/>
<path d="M121.307 12.6882C119.939 12.6882 118.913 11.7289 118.913 11.7289L118.001 12.9897C118.001 12.9897 119.17 14.2504 121.307 14.2504C123.274 14.2504 124.442 13.0171 124.442 11.5645C124.442 9.88154 122.959 9.29075 121.695 8.78723C120.757 8.41334 119.939 8.08758 119.939 7.3985C119.939 6.76812 120.595 6.30219 121.393 6.30219C122.59 6.30219 123.502 7.09701 123.502 7.09701L124.243 5.72662C124.243 5.72662 123.274 4.73994 121.393 4.73994C119.569 4.73994 118.2 5.86366 118.2 7.3985C118.2 8.98064 119.643 9.5796 120.895 10.0996C121.855 10.4984 122.704 10.8507 122.704 11.5645C122.704 12.3319 122.02 12.6882 121.307 12.6882Z" fill="white"/>
</svg>
