<svg width="51" height="23" viewBox="0 0 51 23" fill="none" xmlns="http://www.w3.org/2000/svg">
<path d="M41.3286 22.6043H35.8569V0.805874H50.4423V5.88198H41.3286V9.77177H49.9184V14.7216H41.3286V22.6043Z" fill="white"/>
<path d="M33.3037 13.4561C32.3733 16.5775 29.0616 18.4335 25.8019 17.6562C22.5404 16.8763 20.4968 13.746 21.1739 10.5641C21.85 7.38128 25.004 5.28431 28.3174 5.81522C29.6749 5.99779 30.9265 6.64206 31.8592 7.63828C32.5039 8.29728 32.9876 9.09439 33.2733 9.96824H38.5327C37.844 4.49639 32.9876 0.812035 27.3458 0.812035C24.3428 0.7741 21.4466 1.91694 19.2888 3.99127C18.2371 5.00202 17.4035 6.21467 16.8386 7.55545C16.2738 8.89622 15.9895 10.3371 16.0031 11.7904C16.0031 18.0368 21.0628 22.6736 27.3476 22.6736C33.0512 22.6736 37.7491 19.0044 38.5658 13.4561H33.3037Z" fill="white"/>
<path d="M15.5178 19.4331H7.91569L6.67181 22.6007H0.84375L9.76226 0.782715H13.6488L22.9211 22.6078H16.7715L15.5178 19.4331ZM10.0802 14.0324L9.89032 14.525H13.587L13.4581 14.1551L11.7378 9.47648L10.0802 14.0324Z" fill="white"/>
</svg>
