<svg width="278" height="249" viewBox="0 0 278 249" fill="none" xmlns="http://www.w3.org/2000/svg">
<path d="M112.317 186.707H107.961V186.563C108.201 186.431 108.387 186.317 108.519 186.221C108.651 186.125 108.759 186.017 108.843 185.897C108.939 185.765 109.005 185.609 109.041 185.429C109.077 185.237 109.095 184.991 109.095 184.691V176.123C109.095 175.823 109.077 175.583 109.041 175.403C109.005 175.211 108.939 175.055 108.843 174.935C108.759 174.803 108.651 174.689 108.519 174.593C108.387 174.497 108.201 174.383 107.961 174.251V174.107H116.043C116.175 174.107 116.289 174.107 116.385 174.107C116.493 174.095 116.589 174.083 116.673 174.071C116.757 174.059 116.829 174.047 116.889 174.035C116.961 174.023 117.039 174.011 117.123 173.999L117.735 176.861H117.591C117.183 176.393 116.883 176.057 116.691 175.853C116.511 175.649 116.295 175.469 116.043 175.313C115.791 175.145 115.491 175.019 115.143 174.935C114.807 174.851 114.387 174.809 113.883 174.809H110.733V180.119H113.325C113.721 180.119 114.027 180.101 114.243 180.065C114.471 180.029 114.657 179.957 114.801 179.849C114.957 179.741 115.095 179.579 115.215 179.363C115.335 179.135 115.479 178.811 115.647 178.391H115.809V182.549H115.647C115.479 182.129 115.335 181.811 115.215 181.595C115.095 181.379 114.957 181.217 114.801 181.109C114.645 180.989 114.459 180.911 114.243 180.875C114.027 180.839 113.721 180.821 113.325 180.821H110.733V184.691C110.733 184.979 110.763 185.219 110.823 185.411C110.883 185.591 110.973 185.747 111.093 185.879C111.225 186.011 111.381 186.125 111.561 186.221C111.741 186.305 111.993 186.419 112.317 186.563V186.707ZM126.789 182.333C126.789 182.993 126.681 183.605 126.465 184.169C126.249 184.721 125.937 185.201 125.529 185.609C125.133 186.017 124.665 186.335 124.125 186.563C123.597 186.779 123.021 186.887 122.397 186.887C121.773 186.887 121.191 186.779 120.651 186.563C120.123 186.335 119.655 186.017 119.247 185.609C118.851 185.201 118.545 184.721 118.329 184.169C118.113 183.605 118.005 182.993 118.005 182.333C118.005 181.673 118.113 181.067 118.329 180.515C118.545 179.951 118.851 179.465 119.247 179.057C119.655 178.649 120.123 178.337 120.651 178.121C121.191 177.893 121.773 177.779 122.397 177.779C123.021 177.779 123.597 177.893 124.125 178.121C124.665 178.337 125.133 178.649 125.529 179.057C125.937 179.465 126.249 179.951 126.465 180.515C126.681 181.067 126.789 181.673 126.789 182.333ZM125.043 182.333C125.043 181.745 124.983 181.217 124.863 180.749C124.755 180.269 124.587 179.867 124.359 179.543C124.143 179.207 123.867 178.955 123.531 178.787C123.207 178.607 122.829 178.517 122.397 178.517C121.965 178.517 121.581 178.607 121.245 178.787C120.921 178.955 120.645 179.207 120.417 179.543C120.201 179.867 120.033 180.269 119.913 180.749C119.805 181.217 119.751 181.745 119.751 182.333C119.751 182.921 119.805 183.455 119.913 183.935C120.033 184.403 120.201 184.805 120.417 185.141C120.645 185.465 120.921 185.717 121.245 185.897C121.581 186.065 121.965 186.149 122.397 186.149C122.829 186.149 123.207 186.065 123.531 185.897C123.867 185.717 124.143 185.465 124.359 185.141C124.587 184.805 124.755 184.403 124.863 183.935C124.983 183.455 125.043 182.921 125.043 182.333ZM130.574 182.621V184.871C130.574 185.135 130.604 185.351 130.664 185.519C130.724 185.687 130.814 185.831 130.934 185.951C131.066 186.059 131.234 186.155 131.438 186.239C131.654 186.323 131.948 186.425 132.32 186.545V186.707H127.982V186.581C128.222 186.437 128.396 186.323 128.504 186.239C128.624 186.143 128.72 186.035 128.792 185.915C128.864 185.795 128.918 185.645 128.954 185.465C128.99 185.285 129.008 185.045 129.008 184.745V179.813C129.008 179.585 128.978 179.387 128.918 179.219C128.858 179.039 128.774 178.883 128.666 178.751C128.57 178.619 128.456 178.505 128.324 178.409C128.192 178.313 128.018 178.199 127.802 178.067V177.959H130.502L130.574 180.461C130.694 180.089 130.838 179.747 131.006 179.435C131.186 179.111 131.39 178.829 131.618 178.589C131.858 178.337 132.128 178.139 132.428 177.995C132.728 177.851 133.064 177.779 133.436 177.779C133.664 177.779 133.868 177.809 134.048 177.869C134.24 177.929 134.396 178.019 134.516 178.139C134.648 178.247 134.744 178.385 134.804 178.553C134.876 178.709 134.912 178.883 134.912 179.075C134.912 179.255 134.882 179.417 134.822 179.561C134.762 179.705 134.678 179.831 134.57 179.939C134.462 180.035 134.336 180.113 134.192 180.173C134.06 180.221 133.922 180.245 133.778 180.245C133.79 180.065 133.778 179.909 133.742 179.777C133.706 179.633 133.646 179.513 133.562 179.417C133.478 179.309 133.37 179.231 133.238 179.183C133.118 179.123 132.968 179.093 132.788 179.093C132.488 179.093 132.2 179.189 131.924 179.381C131.66 179.561 131.426 179.813 131.222 180.137C131.018 180.461 130.856 180.839 130.736 181.271C130.628 181.703 130.574 182.153 130.574 182.621ZM138.138 182.009V183.197C138.138 183.653 138.216 184.061 138.372 184.421C138.528 184.769 138.732 185.063 138.984 185.303C139.236 185.531 139.518 185.705 139.83 185.825C140.142 185.933 140.454 185.987 140.766 185.987C141.174 185.987 141.552 185.903 141.9 185.735C142.248 185.567 142.542 185.321 142.782 184.997C143.034 184.661 143.226 184.259 143.358 183.791C143.49 183.311 143.556 182.777 143.556 182.189C143.556 181.673 143.49 181.205 143.358 180.785C143.238 180.365 143.058 180.005 142.818 179.705C142.578 179.393 142.29 179.159 141.954 179.003C141.618 178.835 141.24 178.751 140.82 178.751C140.424 178.751 140.058 178.841 139.722 179.021C139.398 179.189 139.116 179.429 138.876 179.741C138.636 180.041 138.45 180.389 138.318 180.785C138.198 181.169 138.138 181.577 138.138 182.009ZM137.904 185.087C137.856 185.279 137.784 185.465 137.688 185.645C137.604 185.825 137.502 185.993 137.382 186.149C137.262 186.305 137.13 186.443 136.986 186.563C136.842 186.683 136.692 186.791 136.536 186.887H136.32C136.38 186.635 136.422 186.359 136.446 186.059C136.482 185.759 136.506 185.447 136.518 185.123C136.53 184.799 136.536 184.475 136.536 184.151C136.548 183.827 136.554 183.407 136.554 182.891V175.097C136.554 174.857 136.524 174.653 136.464 174.485C136.404 174.305 136.32 174.155 136.212 174.035C136.104 173.903 135.984 173.795 135.852 173.711C135.732 173.615 135.558 173.495 135.33 173.351V173.225H138.138V180.119C138.246 179.795 138.396 179.489 138.588 179.201C138.78 178.913 139.014 178.667 139.29 178.463C139.566 178.247 139.878 178.079 140.226 177.959C140.586 177.839 140.97 177.779 141.378 177.779C141.93 177.779 142.44 177.881 142.908 178.085C143.388 178.277 143.802 178.565 144.15 178.949C144.51 179.321 144.786 179.783 144.978 180.335C145.17 180.887 145.266 181.505 145.266 182.189C145.266 182.897 145.158 183.545 144.942 184.133C144.726 184.709 144.426 185.207 144.042 185.627C143.658 186.035 143.214 186.347 142.71 186.563C142.218 186.779 141.69 186.887 141.126 186.887C140.73 186.887 140.358 186.839 140.01 186.743C139.674 186.647 139.368 186.515 139.092 186.347C138.816 186.179 138.576 185.987 138.372 185.771C138.18 185.555 138.024 185.327 137.904 185.087ZM150.826 177.779C151.438 177.779 151.984 177.881 152.464 178.085C152.956 178.277 153.364 178.565 153.688 178.949C154.024 179.321 154.276 179.783 154.444 180.335C154.624 180.875 154.714 181.487 154.714 182.171H148.324C148.324 182.747 148.39 183.269 148.522 183.737C148.666 184.193 148.87 184.589 149.134 184.925C149.398 185.249 149.716 185.495 150.088 185.663C150.472 185.831 150.898 185.915 151.366 185.915C151.714 185.915 152.032 185.873 152.32 185.789C152.62 185.705 152.89 185.579 153.13 185.411C153.37 185.243 153.58 185.033 153.76 184.781C153.952 184.517 154.114 184.211 154.246 183.863L154.624 183.989C154.516 184.445 154.354 184.853 154.138 185.213C153.934 185.573 153.676 185.879 153.364 186.131C153.052 186.383 152.686 186.575 152.266 186.707C151.858 186.827 151.402 186.887 150.898 186.887C150.31 186.887 149.752 186.791 149.224 186.599C148.708 186.395 148.252 186.101 147.856 185.717C147.472 185.333 147.172 184.865 146.956 184.313C146.74 183.761 146.632 183.137 146.632 182.441C146.632 181.745 146.74 181.109 146.956 180.533C147.172 179.957 147.472 179.465 147.856 179.057C148.24 178.637 148.684 178.319 149.188 178.103C149.704 177.887 150.25 177.779 150.826 177.779ZM148.36 181.487H153.022C153.01 181.079 152.968 180.701 152.896 180.353C152.824 179.993 152.704 179.675 152.536 179.399C152.368 179.123 152.14 178.907 151.852 178.751C151.564 178.583 151.216 178.499 150.808 178.499C150.46 178.499 150.142 178.571 149.854 178.715C149.566 178.859 149.32 179.063 149.116 179.327C148.912 179.591 148.744 179.909 148.612 180.281C148.48 180.641 148.396 181.043 148.36 181.487ZM159.237 178.517C158.973 178.517 158.733 178.553 158.517 178.625C158.313 178.685 158.139 178.775 157.995 178.895C157.851 179.003 157.743 179.141 157.671 179.309C157.599 179.477 157.563 179.657 157.563 179.849C157.563 180.065 157.599 180.257 157.671 180.425C157.755 180.581 157.881 180.725 158.049 180.857C158.229 180.977 158.451 181.085 158.715 181.181C158.991 181.265 159.327 181.349 159.723 181.433C160.311 181.541 160.809 181.679 161.217 181.847C161.625 182.003 161.955 182.189 162.207 182.405C162.459 182.609 162.645 182.855 162.765 183.143C162.885 183.431 162.945 183.761 162.945 184.133C162.945 184.541 162.861 184.919 162.693 185.267C162.525 185.603 162.291 185.891 161.991 186.131C161.691 186.371 161.337 186.557 160.929 186.689C160.521 186.821 160.083 186.887 159.615 186.887C159.339 186.887 159.075 186.863 158.823 186.815C158.571 186.779 158.331 186.725 158.103 186.653C157.887 186.569 157.683 186.485 157.491 186.401C157.311 186.305 157.137 186.209 156.969 186.113L156.339 186.887H156.195L155.997 183.557H156.249C156.477 183.989 156.717 184.367 156.969 184.691C157.221 185.003 157.485 185.267 157.761 185.483C158.037 185.699 158.331 185.861 158.643 185.969C158.955 186.077 159.279 186.131 159.615 186.131C159.891 186.131 160.149 186.101 160.389 186.041C160.629 185.969 160.833 185.873 161.001 185.753C161.181 185.621 161.319 185.459 161.415 185.267C161.511 185.063 161.559 184.829 161.559 184.565C161.559 184.313 161.511 184.103 161.415 183.935C161.319 183.755 161.175 183.605 160.983 183.485C160.791 183.365 160.551 183.269 160.263 183.197C159.987 183.113 159.645 183.029 159.237 182.945C158.673 182.837 158.199 182.705 157.815 182.549C157.443 182.393 157.137 182.213 156.897 182.009C156.669 181.793 156.501 181.547 156.393 181.271C156.285 180.995 156.231 180.677 156.231 180.317C156.231 179.945 156.303 179.603 156.447 179.291C156.603 178.979 156.813 178.709 157.077 178.481C157.353 178.253 157.671 178.079 158.031 177.959C158.403 177.839 158.799 177.779 159.219 177.779C159.471 177.779 159.711 177.797 159.939 177.833C160.167 177.869 160.377 177.923 160.569 177.995C160.773 178.055 160.959 178.127 161.127 178.211C161.307 178.295 161.481 178.391 161.649 178.499L162.333 177.779H162.459V180.749H162.261C162.045 180.413 161.829 180.113 161.613 179.849C161.397 179.585 161.163 179.351 160.911 179.147C160.671 178.943 160.407 178.787 160.119 178.679C159.843 178.571 159.549 178.517 159.237 178.517ZM116.958 207.321L120.756 207.303C121.272 207.303 121.668 207.285 121.944 207.249C122.232 207.213 122.484 207.141 122.7 207.033C122.928 206.925 123.138 206.763 123.33 206.547C123.534 206.319 123.756 206.001 123.996 205.593H124.176L123.78 208.707H115.104V208.599L117.444 206.097C118.296 205.197 118.902 204.555 119.262 204.171C119.622 203.787 120.006 203.319 120.414 202.767C120.834 202.203 121.17 201.627 121.422 201.039C121.686 200.451 121.818 199.875 121.818 199.311C121.818 198.903 121.764 198.537 121.656 198.213C121.56 197.889 121.41 197.613 121.206 197.385C121.002 197.145 120.75 196.965 120.45 196.845C120.15 196.713 119.808 196.647 119.424 196.647C119.064 196.647 118.746 196.707 118.47 196.827C118.194 196.947 117.966 197.115 117.786 197.331C117.606 197.535 117.468 197.775 117.372 198.051C117.288 198.327 117.246 198.627 117.246 198.951C117.246 199.143 117.258 199.323 117.282 199.491C117.306 199.659 117.342 199.815 117.39 199.959C117.438 200.091 117.492 200.217 117.552 200.337C117.624 200.445 117.708 200.547 117.804 200.643C117.768 200.655 117.726 200.667 117.678 200.679C117.642 200.691 117.6 200.703 117.552 200.715C117.504 200.715 117.45 200.721 117.39 200.733C117.342 200.733 117.294 200.733 117.246 200.733C117.018 200.733 116.808 200.691 116.616 200.607C116.424 200.523 116.256 200.403 116.112 200.247C115.968 200.091 115.854 199.905 115.77 199.689C115.698 199.461 115.662 199.215 115.662 198.951C115.662 198.555 115.752 198.177 115.932 197.817C116.112 197.445 116.364 197.121 116.688 196.845C117.024 196.557 117.426 196.335 117.894 196.179C118.362 196.011 118.872 195.927 119.424 195.927C120.036 195.927 120.594 196.011 121.098 196.179C121.614 196.347 122.052 196.587 122.412 196.899C122.784 197.211 123.066 197.583 123.258 198.015C123.462 198.447 123.564 198.927 123.564 199.455C123.564 200.079 123.432 200.667 123.168 201.219C122.904 201.759 122.514 202.311 121.998 202.875C121.482 203.439 120.948 203.955 120.396 204.423C119.856 204.891 118.71 205.857 116.958 207.321ZM135.485 202.407C135.485 203.343 135.371 204.207 135.143 204.999C134.915 205.791 134.579 206.481 134.135 207.069C133.703 207.645 133.181 208.095 132.569 208.419C131.957 208.731 131.279 208.887 130.535 208.887C129.791 208.887 129.113 208.731 128.501 208.419C127.889 208.095 127.361 207.645 126.917 207.069C126.485 206.481 126.155 205.791 125.927 204.999C125.699 204.207 125.585 203.343 125.585 202.407C125.585 201.471 125.699 200.607 125.927 199.815C126.155 199.023 126.485 198.339 126.917 197.763C127.361 197.175 127.889 196.725 128.501 196.413C129.113 196.089 129.791 195.927 130.535 195.927C131.279 195.927 131.957 196.089 132.569 196.413C133.181 196.725 133.703 197.175 134.135 197.763C134.579 198.339 134.915 199.023 135.143 199.815C135.371 200.607 135.485 201.471 135.485 202.407ZM133.649 202.407C133.649 201.567 133.583 200.799 133.451 200.103C133.331 199.407 133.139 198.807 132.875 198.303C132.623 197.799 132.299 197.409 131.903 197.133C131.519 196.857 131.063 196.719 130.535 196.719C130.007 196.719 129.545 196.857 129.149 197.133C128.753 197.409 128.423 197.799 128.159 198.303C127.907 198.807 127.715 199.407 127.583 200.103C127.463 200.799 127.403 201.567 127.403 202.407C127.403 203.247 127.463 204.015 127.583 204.711C127.715 205.407 127.907 206.007 128.159 206.511C128.423 207.015 128.753 207.405 129.149 207.681C129.545 207.957 130.007 208.095 130.535 208.095C131.063 208.095 131.519 207.957 131.903 207.681C132.299 207.405 132.623 207.015 132.875 206.511C133.139 206.007 133.331 205.407 133.451 204.711C133.583 204.015 133.649 203.247 133.649 202.407ZM138.228 207.321L142.026 207.303C142.542 207.303 142.938 207.285 143.214 207.249C143.502 207.213 143.754 207.141 143.97 207.033C144.198 206.925 144.408 206.763 144.6 206.547C144.804 206.319 145.026 206.001 145.266 205.593H145.446L145.05 208.707H136.374V208.599L138.714 206.097C139.566 205.197 140.172 204.555 140.532 204.171C140.892 203.787 141.276 203.319 141.684 202.767C142.104 202.203 142.44 201.627 142.692 201.039C142.956 200.451 143.088 199.875 143.088 199.311C143.088 198.903 143.034 198.537 142.926 198.213C142.83 197.889 142.68 197.613 142.476 197.385C142.272 197.145 142.02 196.965 141.72 196.845C141.42 196.713 141.078 196.647 140.694 196.647C140.334 196.647 140.016 196.707 139.74 196.827C139.464 196.947 139.236 197.115 139.056 197.331C138.876 197.535 138.738 197.775 138.642 198.051C138.558 198.327 138.516 198.627 138.516 198.951C138.516 199.143 138.528 199.323 138.552 199.491C138.576 199.659 138.612 199.815 138.66 199.959C138.708 200.091 138.762 200.217 138.822 200.337C138.894 200.445 138.978 200.547 139.074 200.643C139.038 200.655 138.996 200.667 138.948 200.679C138.912 200.691 138.87 200.703 138.822 200.715C138.774 200.715 138.72 200.721 138.66 200.733C138.612 200.733 138.564 200.733 138.516 200.733C138.288 200.733 138.078 200.691 137.886 200.607C137.694 200.523 137.526 200.403 137.382 200.247C137.238 200.091 137.124 199.905 137.04 199.689C136.968 199.461 136.932 199.215 136.932 198.951C136.932 198.555 137.022 198.177 137.202 197.817C137.382 197.445 137.634 197.121 137.958 196.845C138.294 196.557 138.696 196.335 139.164 196.179C139.632 196.011 140.142 195.927 140.694 195.927C141.306 195.927 141.864 196.011 142.368 196.179C142.884 196.347 143.322 196.587 143.682 196.899C144.054 197.211 144.336 197.583 144.528 198.015C144.732 198.447 144.834 198.927 144.834 199.455C144.834 200.079 144.702 200.667 144.438 201.219C144.174 201.759 143.784 202.311 143.268 202.875C142.752 203.439 142.218 203.955 141.666 204.423C141.126 204.891 139.98 205.857 138.228 207.321ZM148.151 207.321L151.949 207.303C152.465 207.303 152.861 207.285 153.137 207.249C153.425 207.213 153.677 207.141 153.893 207.033C154.121 206.925 154.331 206.763 154.523 206.547C154.727 206.319 154.949 206.001 155.189 205.593H155.369L154.973 208.707H146.297V208.599L148.637 206.097C149.489 205.197 150.095 204.555 150.455 204.171C150.815 203.787 151.199 203.319 151.607 202.767C152.027 202.203 152.363 201.627 152.615 201.039C152.879 200.451 153.011 199.875 153.011 199.311C153.011 198.903 152.957 198.537 152.849 198.213C152.753 197.889 152.603 197.613 152.399 197.385C152.195 197.145 151.943 196.965 151.643 196.845C151.343 196.713 151.001 196.647 150.617 196.647C150.257 196.647 149.939 196.707 149.663 196.827C149.387 196.947 149.159 197.115 148.979 197.331C148.799 197.535 148.661 197.775 148.565 198.051C148.481 198.327 148.439 198.627 148.439 198.951C148.439 199.143 148.451 199.323 148.475 199.491C148.499 199.659 148.535 199.815 148.583 199.959C148.631 200.091 148.685 200.217 148.745 200.337C148.817 200.445 148.901 200.547 148.997 200.643C148.961 200.655 148.919 200.667 148.871 200.679C148.835 200.691 148.793 200.703 148.745 200.715C148.697 200.715 148.643 200.721 148.583 200.733C148.535 200.733 148.487 200.733 148.439 200.733C148.211 200.733 148.001 200.691 147.809 200.607C147.617 200.523 147.449 200.403 147.305 200.247C147.161 200.091 147.047 199.905 146.963 199.689C146.891 199.461 146.855 199.215 146.855 198.951C146.855 198.555 146.945 198.177 147.125 197.817C147.305 197.445 147.557 197.121 147.881 196.845C148.217 196.557 148.619 196.335 149.087 196.179C149.555 196.011 150.065 195.927 150.617 195.927C151.229 195.927 151.787 196.011 152.291 196.179C152.807 196.347 153.245 196.587 153.605 196.899C153.977 197.211 154.259 197.583 154.451 198.015C154.655 198.447 154.757 198.927 154.757 199.455C154.757 200.079 154.625 200.667 154.361 201.219C154.097 201.759 153.707 202.311 153.191 202.875C152.675 203.439 152.141 203.955 151.589 204.423C151.049 204.891 149.903 205.857 148.151 207.321Z" fill="#020553"/>
<path d="M88.9648 83.7065L87.7344 80.4253H80.1738L78.916 83.7065H74.5137L82.3066 64.1011H85.6562L93.4766 83.7065H88.9648ZM81.541 76.8706H86.3672L83.9883 70.6089L81.541 76.8706ZM110.963 69.6792C112.622 69.6792 113.971 70.1805 115.01 71.1831C116.058 72.1857 116.582 73.5119 116.582 75.1616V83.7065H112.604V76.0913C112.604 75.2801 112.389 74.6375 111.961 74.1636C111.533 73.6896 110.963 73.4526 110.252 73.4526C109.55 73.4526 108.958 73.6851 108.475 74.1499C108.001 74.6056 107.764 75.2528 107.764 76.0913V83.7065H103.812V76.0913C103.812 75.2801 103.598 74.6375 103.17 74.1636C102.742 73.6896 102.163 73.4526 101.434 73.4526C100.741 73.4526 100.162 73.6805 99.6973 74.1362C99.2324 74.592 99 75.2437 99 76.0913V83.7065H95.0488V69.9526H99V71.6069C99.8841 70.3218 101.192 69.6792 102.924 69.6792C104.738 69.6792 106.036 70.3491 106.82 71.689C107.23 71.0874 107.809 70.6043 108.557 70.2397C109.304 69.866 110.106 69.6792 110.963 69.6792ZM132.688 76.3647C132.688 76.8478 132.66 77.3172 132.605 77.7729H122.393C122.529 78.6662 122.917 79.3817 123.555 79.9194C124.193 80.4481 124.972 80.7124 125.893 80.7124C126.649 80.7124 127.264 80.5666 127.738 80.2749C128.221 79.9741 128.518 79.5776 128.627 79.0854H132.496C132.268 80.562 131.562 81.7469 130.377 82.6401C129.192 83.5334 127.734 83.98 126.002 83.98C124.671 83.98 123.45 83.6655 122.338 83.0366C121.235 82.3986 120.365 81.5282 119.727 80.4253C119.089 79.3133 118.77 78.092 118.77 76.7612C118.77 74.7651 119.458 73.0881 120.834 71.73C122.219 70.3628 123.915 69.6792 125.92 69.6792C127.141 69.6792 128.271 69.9709 129.311 70.5542C130.35 71.1375 131.17 71.9442 131.771 72.9741C132.382 74.0041 132.688 75.1343 132.688 76.3647ZM122.584 75.2573H128.572C128.518 74.5737 128.217 74.0041 127.67 73.5483C127.123 73.0926 126.48 72.8647 125.742 72.8647C124.967 72.8647 124.307 73.0653 123.76 73.4663C123.213 73.8674 122.821 74.4644 122.584 75.2573ZM142.395 69.6792C142.677 69.6792 143.119 69.7339 143.721 69.8433V73.4253C143.165 73.2977 142.686 73.2339 142.285 73.2339C141.273 73.2339 140.444 73.5483 139.797 74.1772C139.159 74.797 138.84 75.7131 138.84 76.9253V83.7065H134.889V69.9526H138.84V71.5249C139.688 70.2944 140.872 69.6792 142.395 69.6792ZM145.881 64.0054C146.355 63.5314 146.92 63.2944 147.576 63.2944C148.232 63.2944 148.798 63.5314 149.271 64.0054C149.745 64.4702 149.982 65.0262 149.982 65.6733C149.982 66.3296 149.745 66.8947 149.271 67.3687C148.798 67.8426 148.232 68.0796 147.576 68.0796C146.92 68.0796 146.355 67.8426 145.881 67.3687C145.407 66.8947 145.17 66.3296 145.17 65.6733C145.17 65.0262 145.407 64.4702 145.881 64.0054ZM145.607 69.9526H149.559V83.7065H145.607V69.9526ZM158.924 83.98C156.891 83.98 155.191 83.3009 153.824 81.9429C152.457 80.5848 151.773 78.8849 151.773 76.8433C151.773 74.8016 152.457 73.0972 153.824 71.73C155.191 70.3628 156.891 69.6792 158.924 69.6792C160.646 69.6792 162.15 70.2033 163.436 71.2515C164.721 72.2996 165.454 73.6121 165.637 75.189H161.631C161.494 74.6785 161.171 74.2638 160.66 73.9448C160.159 73.6167 159.58 73.4526 158.924 73.4526C157.985 73.4526 157.201 73.7762 156.572 74.4233C155.952 75.0614 155.643 75.868 155.643 76.8433C155.643 77.7912 155.952 78.5887 156.572 79.2358C157.201 79.883 157.985 80.2065 158.924 80.2065C159.58 80.2065 160.163 80.0334 160.674 79.687C161.193 79.3407 161.521 78.8986 161.658 78.3608H165.664C165.564 79.4364 165.199 80.4071 164.57 81.2729C163.941 82.1297 163.13 82.7951 162.137 83.269C161.152 83.743 160.081 83.98 158.924 83.98ZM177.764 69.9526H181.715V83.7065H177.764V81.7515C176.761 83.2371 175.303 83.98 173.389 83.98C172.222 83.98 171.146 83.661 170.162 83.0229C169.187 82.3758 168.417 81.5054 167.852 80.4116C167.286 79.3088 167.004 78.1102 167.004 76.8159C167.004 75.5216 167.286 74.3276 167.852 73.2339C168.417 72.131 169.187 71.2651 170.162 70.6362C171.146 69.9982 172.222 69.6792 173.389 69.6792C175.303 69.6792 176.761 70.4266 177.764 71.9214V69.9526ZM174.318 80.2065C175.285 80.2065 176.1 79.883 176.766 79.2358C177.431 78.5796 177.764 77.7729 177.764 76.8159C177.764 75.868 177.431 75.0659 176.766 74.4097C176.1 73.7534 175.285 73.4253 174.318 73.4253C173.37 73.4253 172.559 73.758 171.885 74.4233C171.21 75.0796 170.873 75.8771 170.873 76.8159C170.873 77.7638 171.206 78.5659 171.871 79.2222C172.546 79.8784 173.361 80.2065 174.318 80.2065ZM189.453 63.9097C189.453 64.3381 189.221 65.0308 188.756 65.9878L186.65 70.0483H184.436L186.008 66.0151C185.625 65.8328 185.32 65.5503 185.092 65.1675C184.864 64.7847 184.75 64.3654 184.75 63.9097C184.75 63.2534 184.978 62.702 185.434 62.2554C185.889 61.8088 186.445 61.5854 187.102 61.5854C187.767 61.5854 188.323 61.8088 188.77 62.2554C189.225 62.702 189.453 63.2534 189.453 63.9097ZM194.498 83.98C192.684 83.98 191.203 83.547 190.055 82.6812C188.915 81.8062 188.277 80.5985 188.141 79.0581H191.928C191.964 79.5229 192.206 79.8966 192.652 80.1792C193.099 80.4618 193.65 80.603 194.307 80.603C194.89 80.603 195.341 80.5119 195.66 80.3296C195.988 80.1473 196.152 79.8921 196.152 79.564C196.152 79.2632 196.011 79.0171 195.729 78.8257C195.446 78.6343 195.077 78.493 194.621 78.4019C194.165 78.3016 193.66 78.2059 193.104 78.1147C192.557 78.0236 192.01 77.896 191.463 77.7319C190.916 77.5679 190.415 77.3582 189.959 77.103C189.503 76.8478 189.134 76.4741 188.852 75.9819C188.569 75.4806 188.428 74.8836 188.428 74.1909C188.428 72.8875 188.92 71.812 189.904 70.9644C190.898 70.1076 192.224 69.6792 193.883 69.6792C195.451 69.6792 196.795 70.0802 197.916 70.8823C199.037 71.6844 199.68 72.8146 199.844 74.2729H195.865C195.838 73.9084 195.637 73.5985 195.264 73.3433C194.89 73.0881 194.402 72.9604 193.801 72.9604C193.327 72.9604 192.944 73.0425 192.652 73.2065C192.37 73.3615 192.229 73.5939 192.229 73.9038C192.229 74.1864 192.37 74.4142 192.652 74.5874C192.944 74.7515 193.318 74.8745 193.773 74.9565C194.229 75.0386 194.73 75.1206 195.277 75.2026C195.824 75.2847 196.371 75.4123 196.918 75.5854C197.474 75.7586 197.98 75.991 198.436 76.2827C198.891 76.5653 199.26 76.9845 199.543 77.5405C199.835 78.0965 199.98 78.7619 199.98 79.5366C199.98 80.7944 199.452 81.8517 198.395 82.7085C197.346 83.5562 196.048 83.98 194.498 83.98ZM59.4336 115.707V96.1011H66.7891C68.4753 96.1011 69.9154 96.616 71.1094 97.646C72.3034 98.6668 72.9004 99.8882 72.9004 101.31C72.9004 102.194 72.6406 103.024 72.1211 103.798C71.6107 104.564 70.9635 105.079 70.1797 105.343C71.2279 105.553 72.0892 106.1 72.7637 106.984C73.4473 107.868 73.7891 108.907 73.7891 110.101C73.7891 111.669 73.1875 112.995 71.9844 114.08C70.7812 115.164 69.332 115.707 67.6367 115.707H59.4336ZM63.5762 104.003H66.5977C67.181 104.003 67.6732 103.812 68.0742 103.429C68.4844 103.037 68.6895 102.568 68.6895 102.021C68.6895 101.474 68.4889 101.014 68.0879 100.64C67.6868 100.266 67.1901 100.08 66.5977 100.08H63.5762V104.003ZM63.5762 111.728H67.2676C67.9056 111.728 68.4479 111.509 68.8945 111.072C69.3411 110.625 69.5645 110.087 69.5645 109.458C69.5645 108.83 69.3411 108.292 68.8945 107.845C68.457 107.389 67.9329 107.162 67.3223 107.162H63.5762V111.728ZM89.1562 108.365C89.1562 108.848 89.1289 109.317 89.0742 109.773H78.8613C78.998 110.666 79.3854 111.382 80.0234 111.919C80.6615 112.448 81.4408 112.712 82.3613 112.712C83.1178 112.712 83.7331 112.567 84.207 112.275C84.6901 111.974 84.9863 111.578 85.0957 111.085H88.9648C88.737 112.562 88.0306 113.747 86.8457 114.64C85.6608 115.533 84.2025 115.98 82.4707 115.98C81.14 115.98 79.9186 115.666 78.8066 115.037C77.7038 114.399 76.8333 113.528 76.1953 112.425C75.5573 111.313 75.2383 110.092 75.2383 108.761C75.2383 106.765 75.9264 105.088 77.3027 103.73C78.6882 102.363 80.3835 101.679 82.3887 101.679C83.61 101.679 84.7402 101.971 85.7793 102.554C86.8184 103.138 87.6387 103.944 88.2402 104.974C88.8509 106.004 89.1562 107.134 89.1562 108.365ZM79.0527 107.257H85.041C84.9863 106.574 84.6855 106.004 84.1387 105.548C83.5918 105.093 82.9492 104.865 82.2109 104.865C81.4362 104.865 80.7754 105.065 80.2285 105.466C79.6816 105.867 79.2897 106.464 79.0527 107.257ZM96.8262 115.98C95.0124 115.98 93.5312 115.547 92.3828 114.681C91.2435 113.806 90.6055 112.598 90.4688 111.058H94.2559C94.2923 111.523 94.5339 111.897 94.9805 112.179C95.4271 112.462 95.9785 112.603 96.6348 112.603C97.2181 112.603 97.6693 112.512 97.9883 112.33C98.3164 112.147 98.4805 111.892 98.4805 111.564C98.4805 111.263 98.3392 111.017 98.0566 110.826C97.7741 110.634 97.4049 110.493 96.9492 110.402C96.4935 110.302 95.9876 110.206 95.4316 110.115C94.8848 110.024 94.3379 109.896 93.791 109.732C93.2441 109.568 92.7428 109.358 92.2871 109.103C91.8314 108.848 91.4622 108.474 91.1797 107.982C90.8971 107.481 90.7559 106.884 90.7559 106.191C90.7559 104.888 91.248 103.812 92.2324 102.964C93.2259 102.108 94.5521 101.679 96.2109 101.679C97.7786 101.679 99.123 102.08 100.244 102.882C101.365 103.684 102.008 104.815 102.172 106.273H98.1934C98.166 105.908 97.9655 105.598 97.5918 105.343C97.2181 105.088 96.7305 104.96 96.1289 104.96C95.6549 104.96 95.2721 105.042 94.9805 105.207C94.6979 105.361 94.5566 105.594 94.5566 105.904C94.5566 106.186 94.6979 106.414 94.9805 106.587C95.2721 106.751 95.6458 106.875 96.1016 106.957C96.5573 107.039 97.0586 107.121 97.6055 107.203C98.1523 107.285 98.6992 107.412 99.2461 107.585C99.8021 107.759 100.308 107.991 100.764 108.283C101.219 108.565 101.589 108.985 101.871 109.541C102.163 110.097 102.309 110.762 102.309 111.537C102.309 112.794 101.78 113.852 100.723 114.708C99.6745 115.556 98.3757 115.98 96.8262 115.98ZM112.863 105.712H109.486V110.046C109.486 110.757 109.701 111.291 110.129 111.646C110.566 112.001 111.145 112.179 111.865 112.179C112.248 112.179 112.581 112.143 112.863 112.07V115.707C112.298 115.852 111.665 115.925 110.963 115.925C109.313 115.925 107.996 115.41 107.012 114.38C106.027 113.35 105.535 111.924 105.535 110.101V105.712H102.979V101.953H105.535V98.3433H109.486V101.953H112.863V105.712ZM127.875 115.98C125.733 115.98 123.96 115.342 122.557 114.066C121.153 112.79 120.451 111.172 120.451 109.212H124.539C124.539 110.069 124.849 110.762 125.469 111.291C126.089 111.81 126.891 112.07 127.875 112.07C128.786 112.07 129.525 111.874 130.09 111.482C130.664 111.09 130.951 110.575 130.951 109.937C130.951 109.572 130.833 109.253 130.596 108.98C130.359 108.707 130.04 108.483 129.639 108.31C129.247 108.137 128.791 107.982 128.271 107.845C127.761 107.699 127.219 107.554 126.645 107.408C126.079 107.253 125.51 107.084 124.936 106.902C124.37 106.72 123.828 106.483 123.309 106.191C122.798 105.899 122.342 105.562 121.941 105.179C121.549 104.787 121.235 104.291 120.998 103.689C120.761 103.078 120.643 102.39 120.643 101.625C120.643 99.9474 121.281 98.562 122.557 97.4683C123.842 96.3745 125.455 95.8276 127.396 95.8276C128.335 95.8276 129.197 95.9461 129.98 96.1831C130.764 96.411 131.43 96.73 131.977 97.1401C132.523 97.5412 132.984 98.0197 133.357 98.5757C133.731 99.1226 134.005 99.715 134.178 100.353C134.36 100.982 134.451 101.647 134.451 102.349H130.172C130.154 101.583 129.88 100.959 129.352 100.476C128.832 99.993 128.135 99.7515 127.26 99.7515C126.476 99.7515 125.852 99.9155 125.387 100.244C124.931 100.572 124.703 101.023 124.703 101.597C124.703 101.944 124.822 102.244 125.059 102.5C125.296 102.746 125.615 102.951 126.016 103.115C126.417 103.27 126.872 103.416 127.383 103.552C127.902 103.68 128.449 103.817 129.023 103.962C129.598 104.108 130.172 104.272 130.746 104.455C131.32 104.637 131.863 104.878 132.373 105.179C132.893 105.48 133.353 105.835 133.754 106.246C134.155 106.647 134.474 107.162 134.711 107.791C134.948 108.419 135.066 109.135 135.066 109.937C135.066 111.678 134.383 113.123 133.016 114.271C131.658 115.41 129.944 115.98 127.875 115.98ZM145.43 105.712H142.053V110.046C142.053 110.757 142.267 111.291 142.695 111.646C143.133 112.001 143.712 112.179 144.432 112.179C144.814 112.179 145.147 112.143 145.43 112.07V115.707C144.865 115.852 144.231 115.925 143.529 115.925C141.88 115.925 140.562 115.41 139.578 114.38C138.594 113.35 138.102 111.924 138.102 110.101V105.712H135.545V101.953H138.102V98.3433H142.053V101.953H145.43V105.712ZM157.174 101.953H161.125V115.707H157.174V113.751C156.171 115.237 154.713 115.98 152.799 115.98C151.632 115.98 150.557 115.661 149.572 115.023C148.597 114.376 147.827 113.505 147.262 112.412C146.697 111.309 146.414 110.11 146.414 108.816C146.414 107.522 146.697 106.328 147.262 105.234C147.827 104.131 148.597 103.265 149.572 102.636C150.557 101.998 151.632 101.679 152.799 101.679C154.713 101.679 156.171 102.427 157.174 103.921V101.953ZM153.729 112.207C154.695 112.207 155.51 111.883 156.176 111.236C156.841 110.58 157.174 109.773 157.174 108.816C157.174 107.868 156.841 107.066 156.176 106.41C155.51 105.753 154.695 105.425 153.729 105.425C152.781 105.425 151.969 105.758 151.295 106.423C150.62 107.08 150.283 107.877 150.283 108.816C150.283 109.764 150.616 110.566 151.281 111.222C151.956 111.878 152.771 112.207 153.729 112.207ZM171.379 101.679C171.661 101.679 172.104 101.734 172.705 101.843V105.425C172.149 105.298 171.671 105.234 171.27 105.234C170.258 105.234 169.428 105.548 168.781 106.177C168.143 106.797 167.824 107.713 167.824 108.925V115.707H163.873V101.953H167.824V103.525C168.672 102.294 169.857 101.679 171.379 101.679ZM183.574 105.712H180.197V110.046C180.197 110.757 180.411 111.291 180.84 111.646C181.277 112.001 181.856 112.179 182.576 112.179C182.959 112.179 183.292 112.143 183.574 112.07V115.707C183.009 115.852 182.376 115.925 181.674 115.925C180.024 115.925 178.707 115.41 177.723 114.38C176.738 113.35 176.246 111.924 176.246 110.101V105.712H173.689V101.953H176.246V98.3433H180.197V101.953H183.574V105.712ZM194.854 101.953H198.805V115.707H194.854V113.888C193.988 115.283 192.748 115.98 191.135 115.98C189.376 115.98 187.99 115.424 186.979 114.312C185.976 113.2 185.475 111.669 185.475 109.718V101.953H189.426V109.212C189.426 110.124 189.672 110.853 190.164 111.4C190.656 111.938 191.317 112.207 192.146 112.207C192.958 112.207 193.609 111.938 194.102 111.4C194.603 110.853 194.854 110.124 194.854 109.212V101.953ZM209.879 101.679C211.046 101.679 212.117 101.998 213.092 102.636C214.076 103.265 214.851 104.131 215.416 105.234C215.981 106.328 216.264 107.522 216.264 108.816C216.264 110.11 215.981 111.309 215.416 112.412C214.851 113.505 214.076 114.376 213.092 115.023C212.117 115.661 211.046 115.98 209.879 115.98C207.965 115.98 206.516 115.246 205.531 113.779V120.246H201.58V101.953H205.531V103.894C206.525 102.417 207.974 101.679 209.879 101.679ZM208.977 112.207C209.924 112.207 210.731 111.878 211.396 111.222C212.062 110.566 212.395 109.764 212.395 108.816C212.395 107.877 212.062 107.08 211.396 106.423C210.731 105.758 209.924 105.425 208.977 105.425C208.01 105.425 207.195 105.753 206.529 106.41C205.864 107.066 205.531 107.868 205.531 108.816C205.531 109.773 205.864 110.58 206.529 111.236C207.195 111.883 208.01 112.207 208.977 112.207ZM73.7754 128.101H85.7793V132.08H77.918V135.607H84.918V139.585H77.918V143.728H85.7793V147.707H73.7754V128.101ZM104.141 133.679C105.799 133.679 107.148 134.181 108.188 135.183C109.236 136.186 109.76 137.512 109.76 139.162V147.707H105.781V140.091C105.781 139.28 105.567 138.638 105.139 138.164C104.71 137.69 104.141 137.453 103.43 137.453C102.728 137.453 102.135 137.685 101.652 138.15C101.178 138.606 100.941 139.253 100.941 140.091V147.707H96.9902V140.091C96.9902 139.28 96.776 138.638 96.3477 138.164C95.9193 137.69 95.3405 137.453 94.6113 137.453C93.9186 137.453 93.3398 137.681 92.875 138.136C92.4102 138.592 92.1777 139.244 92.1777 140.091V147.707H88.2266V133.953H92.1777V135.607C93.0618 134.322 94.3698 133.679 96.1016 133.679C97.9154 133.679 99.2142 134.349 99.998 135.689C100.408 135.087 100.987 134.604 101.734 134.24C102.482 133.866 103.284 133.679 104.141 133.679ZM120.834 133.679C122.001 133.679 123.072 133.998 124.047 134.636C125.031 135.265 125.806 136.131 126.371 137.234C126.936 138.328 127.219 139.522 127.219 140.816C127.219 142.11 126.936 143.309 126.371 144.412C125.806 145.505 125.031 146.376 124.047 147.023C123.072 147.661 122.001 147.98 120.834 147.98C118.92 147.98 117.471 147.246 116.486 145.779V152.246H112.535V133.953H116.486V135.894C117.48 134.417 118.929 133.679 120.834 133.679ZM119.932 144.207C120.88 144.207 121.686 143.878 122.352 143.222C123.017 142.566 123.35 141.764 123.35 140.816C123.35 139.877 123.017 139.08 122.352 138.423C121.686 137.758 120.88 137.425 119.932 137.425C118.965 137.425 118.15 137.753 117.484 138.41C116.819 139.066 116.486 139.868 116.486 140.816C116.486 141.773 116.819 142.58 117.484 143.236C118.15 143.883 118.965 144.207 119.932 144.207ZM133.139 128.101V147.707H129.188V128.101H133.139ZM142.367 133.679C143.361 133.679 144.295 133.861 145.17 134.226C146.054 134.591 146.811 135.092 147.439 135.73C148.077 136.359 148.579 137.12 148.943 138.013C149.317 138.897 149.504 139.841 149.504 140.843C149.504 142.183 149.189 143.4 148.561 144.494C147.941 145.587 147.084 146.444 145.99 147.064C144.906 147.675 143.698 147.98 142.367 147.98C140.335 147.98 138.635 147.301 137.268 145.943C135.9 144.585 135.217 142.885 135.217 140.843C135.217 138.802 135.9 137.097 137.268 135.73C138.635 134.363 140.335 133.679 142.367 133.679ZM142.367 137.453C141.428 137.453 140.645 137.776 140.016 138.423C139.396 139.061 139.086 139.868 139.086 140.843C139.086 141.791 139.396 142.589 140.016 143.236C140.645 143.883 141.428 144.207 142.367 144.207C143.288 144.207 144.062 143.883 144.691 143.236C145.32 142.589 145.635 141.791 145.635 140.843C145.635 139.868 145.32 139.061 144.691 138.423C144.072 137.776 143.297 137.453 142.367 137.453ZM160.086 133.953H164.338L156.695 152.273H152.471L155.014 146.585L149.723 133.953H153.988L157.037 141.992L160.086 133.953ZM178.475 140.365C178.475 140.848 178.447 141.317 178.393 141.773H168.18C168.316 142.666 168.704 143.382 169.342 143.919C169.98 144.448 170.759 144.712 171.68 144.712C172.436 144.712 173.051 144.567 173.525 144.275C174.008 143.974 174.305 143.578 174.414 143.085H178.283C178.055 144.562 177.349 145.747 176.164 146.64C174.979 147.533 173.521 147.98 171.789 147.98C170.458 147.98 169.237 147.666 168.125 147.037C167.022 146.399 166.152 145.528 165.514 144.425C164.876 143.313 164.557 142.092 164.557 140.761C164.557 138.765 165.245 137.088 166.621 135.73C168.007 134.363 169.702 133.679 171.707 133.679C172.928 133.679 174.059 133.971 175.098 134.554C176.137 135.138 176.957 135.944 177.559 136.974C178.169 138.004 178.475 139.134 178.475 140.365ZM168.371 139.257H174.359C174.305 138.574 174.004 138.004 173.457 137.548C172.91 137.093 172.268 136.865 171.529 136.865C170.755 136.865 170.094 137.065 169.547 137.466C169 137.867 168.608 138.464 168.371 139.257ZM188.182 133.679C188.464 133.679 188.906 133.734 189.508 133.843V137.425C188.952 137.298 188.473 137.234 188.072 137.234C187.061 137.234 186.231 137.548 185.584 138.177C184.946 138.797 184.627 139.713 184.627 140.925V147.707H180.676V133.953H184.627V135.525C185.475 134.294 186.66 133.679 188.182 133.679ZM196.562 147.98C194.749 147.98 193.268 147.547 192.119 146.681C190.98 145.806 190.342 144.598 190.205 143.058H193.992C194.029 143.523 194.27 143.897 194.717 144.179C195.163 144.462 195.715 144.603 196.371 144.603C196.954 144.603 197.406 144.512 197.725 144.33C198.053 144.147 198.217 143.892 198.217 143.564C198.217 143.263 198.076 143.017 197.793 142.826C197.51 142.634 197.141 142.493 196.686 142.402C196.23 142.302 195.724 142.206 195.168 142.115C194.621 142.024 194.074 141.896 193.527 141.732C192.98 141.568 192.479 141.358 192.023 141.103C191.568 140.848 191.199 140.474 190.916 139.982C190.633 139.481 190.492 138.884 190.492 138.191C190.492 136.888 190.984 135.812 191.969 134.964C192.962 134.108 194.288 133.679 195.947 133.679C197.515 133.679 198.859 134.08 199.98 134.882C201.102 135.684 201.744 136.815 201.908 138.273H197.93C197.902 137.908 197.702 137.598 197.328 137.343C196.954 137.088 196.467 136.96 195.865 136.96C195.391 136.96 195.008 137.042 194.717 137.207C194.434 137.361 194.293 137.594 194.293 137.904C194.293 138.186 194.434 138.414 194.717 138.587C195.008 138.751 195.382 138.875 195.838 138.957C196.294 139.039 196.795 139.121 197.342 139.203C197.889 139.285 198.436 139.412 198.982 139.585C199.538 139.759 200.044 139.991 200.5 140.283C200.956 140.565 201.325 140.985 201.607 141.541C201.899 142.097 202.045 142.762 202.045 143.537C202.045 144.794 201.516 145.852 200.459 146.708C199.411 147.556 198.112 147.98 196.562 147.98Z" fill="#020553"/>
<path d="M153.947 237.137C153.947 237.137 180.004 230.463 193.296 244.27C193.296 244.27 169.961 256.545 153.947 237.137Z" fill="#FFA719"/>
<path d="M171.106 230.482C173.94 223.868 172.663 219.741 172.663 219.741C161.634 223.111 155.903 230.54 153.793 236.267C157.972 234.103 164.477 231.716 171.106 230.482Z" fill="#FFA719"/>
<path d="M184.805 229.502C184.805 229.502 208.154 216.711 224.774 226.798C224.774 226.798 205.605 244.347 184.805 229.502Z" fill="#FFA719"/>
<path d="M199.55 218.893C200.464 211.812 198.103 208.128 198.103 208.128C188.375 214.073 184.882 222.646 184.418 228.693C187.863 225.591 193.488 221.701 199.55 218.893Z" fill="#FFA719"/>
<path d="M212.515 214.611C212.515 214.611 231.553 196.562 250.379 202.257C250.379 202.252 236.685 223.869 212.515 214.611Z" fill="#FFA719"/>
<path d="M223.841 200.763C222.785 193.699 219.498 190.728 219.498 190.728C211.726 198.838 210.716 207.973 211.93 213.926C214.394 210.089 218.758 204.952 223.841 200.763Z" fill="#FFA719"/>
<path d="M235.186 193.464C235.186 193.464 248.617 171.39 268.366 172.299C268.375 172.299 261.081 196.526 235.186 193.464Z" fill="#FFA719"/>
<path d="M242.317 177.33C239.346 170.766 235.355 168.697 235.355 168.697C230.084 178.426 231.61 187.497 234.42 192.95C235.757 188.636 238.564 182.618 242.317 177.33Z" fill="#FFA719"/>
<path d="M251.275 167.513C251.275 167.513 258.183 142.917 277.518 138.982C277.518 138.982 277.127 164.157 251.275 167.513Z" fill="#FFA719"/>
<path d="M253.746 150.19C249.081 144.571 244.648 143.548 244.648 143.548C242.23 154.229 246.198 162.621 250.409 167.203C250.5 162.71 251.556 156.214 253.746 150.19Z" fill="#FFA719"/>
<path d="M259.689 138.525C259.689 138.525 259.6 113.084 277.187 104.571C277.184 104.571 283.735 128.981 259.689 138.525Z" fill="#FFA719"/>
<path d="M257.303 121.192C251.252 116.901 246.69 116.996 246.69 116.996C247.291 127.903 253.428 135.04 258.756 138.439C257.618 134.075 256.852 127.541 257.303 121.192Z" fill="#FFA719"/>
<path d="M259.844 108.47C259.844 108.47 252.758 83.9263 267.417 71.4072C267.417 71.4115 280.45 93.3991 259.844 108.47Z" fill="#FFA719"/>
<path d="M252.779 92.3231C245.757 89.6534 241.375 90.8548 241.375 90.8548C244.952 101.245 252.84 106.642 258.921 108.627C256.623 104.681 254.089 98.5666 252.779 92.3231Z" fill="#FFA719"/>
<path d="M251.739 79.4049C251.739 79.4049 238.159 57.4151 248.87 41.7591C248.87 41.7634 267.5 59.8134 251.739 79.4049Z" fill="#FFA719"/>
<path d="M240.475 65.5205C232.957 64.6593 229.046 66.8855 229.046 66.8855C235.357 76.0464 244.459 79.3383 250.88 79.7732C247.586 76.5287 243.46 71.2237 240.475 65.5205Z" fill="#FFA719"/>
<path d="M235.917 53.3114C235.917 53.3114 216.755 35.3796 222.801 17.648C222.808 17.648 245.764 30.5441 235.917 53.3114Z" fill="#FFA719"/>
<path d="M221.226 42.6414C213.726 43.6383 210.572 46.7322 210.572 46.7322C219.185 54.0524 228.881 55.0041 235.201 53.8587C231.117 51.542 225.674 47.4319 221.226 42.6414Z" fill="#FFA719"/>
<path d="M213.477 31.9567C213.477 31.9567 190.041 19.3081 191.006 0.706543C191.006 0.706543 216.716 7.56802 213.477 31.9567Z" fill="#FFA719"/>
<path d="M196.348 25.2354C189.379 28.034 187.182 31.7928 187.182 31.7928C197.511 36.7442 207.141 35.3191 212.933 32.6733C208.35 31.4182 201.962 28.7767 196.348 25.2354Z" fill="#FFA719"/>
<path d="M190.834 20.6065C190.834 20.6065 164.356 25.6292 152.072 11.0367C152.072 11.0367 176.221 0.242018 190.834 20.6065Z" fill="#FFA719"/>
<path d="M124.053 237.137C124.053 237.137 97.9837 230.463 84.7034 244.27C84.7034 244.27 108.039 256.545 124.053 237.137Z" fill="#FFA719"/>
<path d="M106.894 230.482C104.059 223.868 105.337 219.741 105.337 219.741C116.366 223.111 122.096 230.54 124.206 236.267C120.028 234.103 113.522 231.716 106.894 230.482Z" fill="#FFA719"/>
<path d="M93.1952 229.502C93.1952 229.502 69.846 216.711 53.2261 226.798C53.2261 226.798 72.3946 244.347 93.1952 229.502Z" fill="#FFA719"/>
<path d="M78.4497 218.893C77.5354 211.812 79.8966 208.128 79.8966 208.128C89.6248 214.073 93.1175 222.646 93.5815 228.693C90.1368 225.591 84.5115 221.701 78.4497 218.893Z" fill="#FFA719"/>
<path d="M65.4847 214.611C65.4847 214.611 46.4465 196.562 27.6208 202.257C27.6208 202.252 41.3149 223.869 65.4847 214.611Z" fill="#FFA719"/>
<path d="M54.1589 200.763C55.215 193.699 58.5019 190.728 58.5019 190.728C66.2736 198.838 67.2839 207.973 66.0701 213.926C63.6061 210.089 59.2425 204.952 54.1589 200.763Z" fill="#FFA719"/>
<path d="M42.8145 193.464C42.8145 193.464 29.3833 171.39 9.625 172.299C9.625 172.299 16.9189 196.526 42.8145 193.464Z" fill="#FFA719"/>
<path d="M35.6826 177.33C38.6542 170.766 42.6452 168.697 42.6452 168.697C47.9162 178.426 46.3893 187.497 43.58 192.95C42.2429 188.636 39.4359 182.618 35.6826 177.33Z" fill="#FFA719"/>
<path d="M26.7248 167.513C26.7248 167.513 19.8171 142.917 0.481689 138.982C0.481689 138.982 0.872558 164.157 26.7248 167.513Z" fill="#FFA719"/>
<path d="M24.2539 150.19C28.9192 144.571 33.3513 143.548 33.3513 143.548C35.7696 154.229 31.8015 162.621 27.5911 167.203C27.4997 162.71 26.4437 156.214 24.2539 150.19Z" fill="#FFA719"/>
<path d="M18.3108 138.525C18.3108 138.525 18.4 113.084 0.813241 104.571C0.815527 104.571 -5.73549 128.981 18.3108 138.525Z" fill="#FFA719"/>
<path d="M20.6972 121.192C26.7477 116.901 31.3101 116.996 31.3101 116.996C30.7089 127.903 24.5716 135.04 19.2434 138.439C20.3817 134.075 21.1475 127.541 20.6972 121.192Z" fill="#FFA719"/>
<path d="M18.1553 108.47C18.1553 108.47 25.2412 83.9263 10.5825 71.4072C10.5825 71.4115 -2.45097 93.3991 18.1553 108.47Z" fill="#FFA719"/>
<path d="M25.2207 92.3231C32.2427 89.6534 36.6245 90.8548 36.6245 90.8548C33.0473 101.245 25.159 106.642 19.0789 108.627C21.3761 104.681 23.911 98.5666 25.2207 92.3231Z" fill="#FFA719"/>
<path d="M26.2608 79.4049C26.2608 79.4049 39.8407 57.4151 29.1295 41.7591C29.1295 41.7634 10.5004 59.8134 26.2608 79.4049Z" fill="#FFA719"/>
<path d="M37.525 65.5205C45.0429 64.6593 48.9539 66.8855 48.9539 66.8855C42.6428 76.0464 33.5409 79.3383 27.1201 79.7732C30.4253 76.5287 34.5398 71.2237 37.525 65.5205Z" fill="#FFA719"/>
<path d="M42.0829 53.3114C42.0829 53.3114 61.2446 35.3796 55.1987 17.648C55.1919 17.648 32.2357 30.5441 42.0829 53.3114Z" fill="#FFA719"/>
<path d="M56.7736 42.6414C64.2732 43.6383 67.4276 46.7322 67.4276 46.7322C58.8148 54.0524 49.1185 55.0041 42.7983 53.8587C46.883 51.542 52.3255 47.4319 56.7736 42.6414Z" fill="#FFA719"/>
<path d="M64.5224 31.9567C64.5224 31.9567 87.9586 19.3081 86.994 0.706543C86.994 0.706543 61.2835 7.56802 64.5224 31.9567Z" fill="#FFA719"/>
<path d="M81.652 25.2354C88.6213 28.034 90.818 31.7928 90.818 31.7928C80.4886 36.7442 70.8586 35.3191 65.0664 32.6733C69.6494 31.4182 76.0381 28.7767 81.652 25.2354Z" fill="#FFA719"/>
<path d="M87.1653 20.6065C87.1653 20.6065 113.644 25.6292 125.928 11.0367C125.928 11.0367 101.778 0.242018 87.1653 20.6065Z" fill="#FFA719"/>
</svg>
