<svg width="100%" height="auto" viewBox="0 0 306 334" fill="none" xmlns="http://www.w3.org/2000/svg">
<g clip-path="url(#clip0_1043_4089)">
<path d="M0 180.769V27.8105H153.024C237.509 27.8105 306 96.2943 306 180.769C306 265.244 237.509 333.728 153.024 333.728C68.5401 333.728 0.0486741 265.244 0.0486741 180.769H0Z" fill="#97DCD7"/>
<path d="M183.808 244.303H199.272V275.228H183.808H121.95H106.485V244.303H121.95H183.808Z" fill="#D7E7FF"/>
<path d="M183.446 275.479C183.446 292.263 169.789 305.918 153.004 305.918C136.218 305.918 122.562 292.263 122.562 275.479V275.444H183.446V275.479Z" fill="#1943DC"/>
<path d="M256.575 107.62C256.137 119.384 253.731 130.849 249.448 141.709C245.283 152.236 239.442 161.976 232.078 170.653C214.263 191.643 203.02 217.146 199.578 243.865H106.388C102.918 216.965 91.7647 191.546 74.1239 170.897C66.2804 161.712 60.1614 151.353 55.9337 140.11C51.5669 128.478 49.3418 116.214 49.3418 103.643C49.3418 76.3125 59.8832 50.532 79.033 31.0367C98.1619 11.5623 123.695 0.549261 150.945 0.020858C151.613 0.00695267 152.301 0 152.983 0H152.99C167.265 0 181.109 2.87841 194.112 8.55178C206.698 14.0444 217.949 21.8801 227.551 31.8502C237.147 41.8134 244.553 53.3409 249.559 66.1199C254.753 79.3508 257.111 93.3118 256.568 107.627L256.575 107.62Z" fill="white"/>
<path d="M153.699 150.177C167.14 150.177 178.036 139.283 178.036 125.843C178.036 112.404 167.14 101.509 153.699 101.509C140.258 101.509 129.362 112.404 129.362 125.843C129.362 139.283 140.258 150.177 153.699 150.177Z" fill="#014740"/>
<path d="M190.685 168.949C174.789 168.949 161.327 179.372 156.759 193.75V157.825H151.196V224.814C145.974 211.639 133.131 202.322 118.098 202.322H111.979V208.441C111.979 228.103 127.916 244.038 147.58 244.038H153.699V243.844H156.759V210.665H161.209C180.873 210.665 196.81 194.73 196.81 175.068V168.949H190.691H190.685Z" fill="#06AEA1"/>
<path d="M118.41 116.179H112.291V122.297C112.291 141.959 128.228 157.895 147.893 157.895H154.012V151.776C154.012 132.114 138.074 116.179 118.41 116.179Z" fill="#06AEA1"/>
<path d="M189.043 116.179H195.162V122.297C195.162 141.959 179.225 157.895 159.56 157.895H153.441V151.776C153.441 132.114 169.379 116.179 189.043 116.179Z" fill="#06AEA1"/>
</g>
<defs>
<clipPath id="clip0_1043_4089">
<rect width="306" height="333.728" fill="white"/>
</clipPath>
</defs>
</svg>
