<svg width="176" height="142" viewBox="0 0 176 142" fill="none" xmlns="http://www.w3.org/2000/svg">
<g clip-path="url(#clip0_174_2984)">
<path d="M38.7139 23.0659V129.625H114.6C148.228 129.625 175.492 102.365 175.492 68.733V23.0659H38.7139Z" fill="#D8E7FE"/>
<path d="M38.9045 23.0659H8.4585V129.625H38.9045V23.0659Z" fill="#030A52"/>
<path d="M16.0671 32.9614C17.328 32.9614 18.3501 31.9393 18.3501 30.6785C18.3501 29.4176 17.328 28.3955 16.0671 28.3955C14.8063 28.3955 13.7842 29.4176 13.7842 30.6785C13.7842 31.9393 14.8063 32.9614 16.0671 32.9614Z" fill="white"/>
<path d="M23.6794 32.9614C24.9403 32.9614 25.9624 31.9393 25.9624 30.6785C25.9624 29.4176 24.9403 28.3955 23.6794 28.3955C22.4186 28.3955 21.3965 29.4176 21.3965 30.6785C21.3965 31.9393 22.4186 32.9614 23.6794 32.9614Z" fill="#B8B6FF"/>
<path d="M31.2922 32.9614C32.5531 32.9614 33.5752 31.9393 33.5752 30.6785C33.5752 29.4176 32.5531 28.3955 31.2922 28.3955C30.0314 28.3955 29.0093 29.4176 29.0093 30.6785C29.0093 31.9393 30.0314 32.9614 31.2922 32.9614Z" fill="#1E4AD9"/>
<path d="M84.166 0.737549C71.5541 0.737549 61.3325 10.9591 61.3325 23.5711H164.081V0.737549H84.166Z" fill="#1E4AD9"/>
<path d="M164.081 0.737549C170.385 0.737549 175.5 5.85232 175.5 12.1563V23.575H152.667V12.1563C152.667 5.85232 157.781 0.737549 164.081 0.737549Z" fill="#030A52"/>
<path d="M152.667 116.241V23.0659H61.3286V129.37H120.061C132.343 128.277 143.571 123.54 152.667 116.245V116.241Z" fill="#1E4AD9"/>
<path d="M57.8367 122.223C75.9805 122.223 90.6889 107.515 90.6889 89.3711C90.6889 71.2273 75.9805 56.5188 57.8367 56.5188C39.6928 56.5188 24.9844 71.2273 24.9844 89.3711C24.9844 107.515 39.6928 122.223 57.8367 122.223Z" fill="white"/>
<path d="M57.8364 111.274C69.933 111.274 79.7393 101.468 79.7393 89.3711C79.7393 77.2745 69.933 67.4683 57.8364 67.4683C45.7398 67.4683 35.9336 77.2745 35.9336 89.3711C35.9336 101.468 45.7398 111.274 57.8364 111.274Z" fill="#020553"/>
<path d="M37.6689 100.248L46.961 109.54L19.0849 137.416C13.9552 142.546 5.63058 142.546 0.500845 137.416L37.6689 100.248Z" fill="white"/>
<path d="M59.3879 79.929C60.9748 80.2352 62.1879 80.9193 63.0351 81.9852C63.8822 83.0472 64.3038 84.3 64.3038 85.7438H61.0584C61.0226 84.8807 60.6924 84.1727 60.072 83.6239C59.4515 83.075 58.6362 82.8006 57.626 82.8006C56.6714 82.8006 55.8998 83.0114 55.3152 83.4369C54.7305 83.8625 54.4362 84.4233 54.4362 85.1273C54.4362 85.6483 54.6072 86.0739 54.9493 86.396C55.2913 86.7222 55.7288 86.9767 56.2618 87.1676C56.7947 87.3585 57.5265 87.5693 58.4652 87.804C59.8174 88.146 60.9192 88.4921 61.7782 88.846C62.6334 89.196 63.3692 89.7568 63.9817 90.5205C64.5942 91.2881 64.9004 92.3182 64.9004 93.6148C64.9004 95.0585 64.3913 96.2875 63.3731 97.3057C62.3549 98.3239 61.0265 98.9523 59.3879 99.183V100.949H56.4964V99.0994C54.8936 98.7932 53.589 98.0773 52.5907 96.9517C51.5924 95.8262 51.0913 94.4699 51.0913 92.883H54.2254C54.2254 93.8932 54.5913 94.7125 55.3192 95.3409C56.047 95.9733 56.9817 96.2875 58.1152 96.2875C59.2487 96.2875 60.076 96.0409 60.7521 95.5438C61.4282 95.0466 61.7663 94.4063 61.7663 93.6108C61.7663 93.0341 61.5794 92.5608 61.2135 92.1909C60.8436 91.821 60.3782 91.5347 59.8214 91.3279C59.2606 91.121 58.489 90.8904 57.4987 90.6398C56.2021 90.3136 55.1442 89.9835 54.3209 89.6415C53.5015 89.2994 52.7976 88.7665 52.2129 88.0466C51.6282 87.3267 51.3339 86.3602 51.3339 85.1551C51.3339 83.7869 51.8072 82.6256 52.7538 81.6671C53.7004 80.7125 54.9493 80.1159 56.4964 79.8813V78.1154H59.3879V79.9369V79.929Z" fill="#B8B6FF"/>
<path d="M76.5532 38.0325H122.22C130.62 38.0325 137.441 44.8535 137.441 53.2535H76.5532V38.0325Z" fill="#020553"/>
<path d="M107 68.4785H137.446V83.6995H122.225C113.825 83.6995 107.003 76.8785 107.003 68.4785H107Z" fill="#D7E7FF"/>
<path d="M121.958 112.734C121.958 113.275 121.994 113.804 122.053 114.325C122.574 114.384 123.107 114.42 123.644 114.42C131.118 114.42 137.179 108.363 137.179 100.885C137.179 100.344 137.143 99.8155 137.084 99.2944C136.563 99.2348 136.03 99.199 135.493 99.199C128.019 99.199 121.958 105.256 121.958 112.734Z" fill="white"/>
</g>
<defs>
<clipPath id="clip0_174_2984">
<rect width="175" height="140.525" fill="white" transform="translate(0.5 0.737549)"/>
</clipPath>
</defs>
</svg>
