<svg xmlns="http://www.w3.org/2000/svg" width="21" height="21" viewBox="0 0 21 21"><g transform="translate(-7.5 -7.5)"><circle cx="10" cy="10" r="10" transform="translate(8 8)" fill="#cee4fd"/><g transform="translate(7.534 7.534)"><path d="M10-.5A10.5,10.5,0,1,1-.5,10,10.512,10.512,0,0,1,10-.5Zm0,20A9.5,9.5,0,1,0,.5,10,9.511,9.511,0,0,0,10,19.5Z" transform="translate(0.466 0.466)" fill="#1473e6"/></g><g transform="translate(0.323)"><path d="M17.612,21.6a.5.5,0,0,1-.5-.5v-7a.5.5,0,0,1,1,0v7A.5.5,0,0,1,17.612,21.6Z" transform="translate(0.064 0.398)" fill="#1473e6"/><path d="M17.612,21.6a.5.5,0,0,1-.5-.5v-7a.5.5,0,0,1,1,0v7A.5.5,0,0,1,17.612,21.6Z" transform="translate(0.075 35.612) rotate(-90)" fill="#1473e6"/></g></g></svg>