<svg xmlns="http://www.w3.org/2000/svg" xmlns:xlink="http://www.w3.org/1999/xlink" width="17.9" height="17.897" viewBox="0 0 17.9 17.897"><defs><clipPath id="a"><rect width="17.9" height="17.897" transform="translate(0 0)" fill="none"/></clipPath></defs><g transform="translate(0 0)"><g clip-path="url(#a)"><path d="M17.381,1.1,12.648,17.063a.465.465,0,0,1-.838.118L7.581,10.56a.466.466,0,0,0-.142-.141L.716,6.122a.466.466,0,0,1,.117-.839L16.8.52a.465.465,0,0,1,.579.578" fill="#cee4fd"/><path d="M12.2,17.9a.956.956,0,0,1-.809-.446L7.159,10.83.446,6.543A.965.965,0,0,1,.689,4.8L16.658.04a.966.966,0,0,1,1.2,1.2h0L13.128,17.206a.97.97,0,0,1-.931.691M16.889,1,.976,5.763,7.708,10A.976.976,0,0,1,8,10.289l4.231,6.623Z" fill="#1c71df"/><path d="M7.58,11.06a.5.5,0,0,1-.354-.854l3.949-3.949a.5.5,0,0,1,.707.707l-3.948,3.95a.5.5,0,0,1-.354.146" fill="#1c71df"/></g></g></svg>