<svg xmlns="http://www.w3.org/2000/svg" width="19.746" height="20.001" viewBox="0 0 19.746 20.001"><g transform="translate(0 0.001)"><g transform="translate(0 0)"><rect width="5" height="7" rx="2.5" transform="translate(0.4 10.2)" fill="#cee4fd"/><path d="M15.43,20.422c-.119,0-.222,0-.307-.01H10.878v-.938h4.278a4.013,4.013,0,0,0,4.3-3.6l.932.1a5.1,5.1,0,0,1-1.873,3.394,5.023,5.023,0,0,1-3.088,1.05" transform="translate(-2.679 -0.991)" fill="#1473e6"/><path d="M12.071,21.176H9.892a.83.83,0,0,1-.83-.83v-.666a.83.83,0,0,1,.83-.831h2.179a.83.83,0,0,1,.83.831v.666a.83.83,0,0,1-.83.83" transform="translate(-1.565 -1.176)" fill="#1473e6"/><rect width="5" height="7" rx="2.5" transform="translate(14.4 10.2)" fill="#cee4fd"/><path d="M19.747,14.588h-.938V10.081a9.136,9.136,0,0,0-3.174-7.017A8.956,8.956,0,0,0,10.273.945,8.771,8.771,0,0,0,4.962,2.451,9.161,9.161,0,0,0,.949,10.125v4.463H.011V10.125A10.1,10.1,0,0,1,4.443,1.671,9.8,9.8,0,0,1,10.313.007a9.919,9.919,0,0,1,5.928,2.34,10.073,10.073,0,0,1,3.506,7.733Z" transform="translate(-0.001 0)" fill="#1473e6"/><path d="M2.847,18.1A2.85,2.85,0,0,1,0,15.253V13.366a2.847,2.847,0,0,1,5.695,0v1.886A2.85,2.85,0,0,1,2.847,18.1m0-6.644a1.912,1.912,0,0,0-1.91,1.91v1.886a1.91,1.91,0,0,0,3.82,0V13.366a1.912,1.912,0,0,0-1.91-1.91" transform="translate(0 -0.656)" fill="#1473e6"/><path d="M17.833,18.1a2.85,2.85,0,0,1-2.847-2.847V13.366a2.847,2.847,0,1,1,5.695,0v1.886A2.85,2.85,0,0,1,17.833,18.1m0-6.644a1.912,1.912,0,0,0-1.91,1.91v1.886a1.91,1.91,0,1,0,3.82,0V13.366a1.912,1.912,0,0,0-1.91-1.91" transform="translate(-0.935 -0.656)" fill="#1473e6"/></g></g></svg>