<svg xmlns="http://www.w3.org/2000/svg" width="21" height="20" viewBox="0 0 21 20"><g transform="translate(-1652 -743)"><path d="M20,.5H0A.5.5,0,0,1-.5,0,.5.5,0,0,1,0-.5H20a.5.5,0,0,1,.5.5A.5.5,0,0,1,20,.5Z" transform="translate(1652.5 747)" fill="#1c71df"/><path d="M20,.5H0A.5.5,0,0,1-.5,0,.5.5,0,0,1,0-.5H20a.5.5,0,0,1,.5.5A.5.5,0,0,1,20,.5Z" transform="translate(1652.5 759)" fill="#1c71df"/><circle cx="4" cy="4" r="4" transform="translate(1655 743)" fill="#cee4fd"/><path d="M4,1A3,3,0,1,0,7,4,3,3,0,0,0,4,1M4,0A4,4,0,1,1,0,4,4,4,0,0,1,4,0Z" transform="translate(1655 743)" fill="#1c71df"/><circle cx="4" cy="4" r="4" transform="translate(1663 755)" fill="#cee4fd"/><path d="M4,1A3,3,0,1,0,7,4,3,3,0,0,0,4,1M4,0A4,4,0,1,1,0,4,4,4,0,0,1,4,0Z" transform="translate(1663 755)" fill="#1c71df"/></g></svg>