<svg viewBox="0 0 82 81" fill="none" xmlns="http://www.w3.org/2000/svg">
<g clip-path="url(#clip0_1417_935)">
<path d="M41.2177 80.9485C40.9895 80.9485 40.7613 80.9578 40.5338 80.9471C39.558 80.8997 38.5814 80.8574 37.6062 80.7943C34.9534 80.6228 32.3638 80.0618 29.7684 79.5281C27.8396 79.1313 26.0012 78.4929 24.2461 77.6026C23.469 77.2087 22.6625 76.8737 21.8861 76.4791C21.2661 76.1635 20.6641 75.8105 20.0678 75.4526C19.3782 75.0386 18.6923 74.6168 18.0264 74.167C17.4272 73.7624 16.8568 73.3162 16.2748 72.8864C16.1026 72.7595 15.929 72.6325 15.7632 72.4976C15.3779 72.1855 14.9861 71.8814 14.6173 71.5514C13.978 70.9803 13.3343 70.4129 12.7308 69.806C12.3046 69.377 11.8913 68.9408 11.3818 68.6086C11.3374 68.5792 11.2929 68.5455 11.2584 68.5053C10.7597 67.9285 10.2603 67.3518 9.7652 66.7707C9.55711 66.526 9.36194 66.2714 9.15816 66.0239C9.0986 65.9514 9.02182 65.8926 8.96729 65.8173C8.50016 65.1644 8.03232 64.5116 7.5738 63.853C7.29826 63.457 7.03277 63.0546 6.77014 62.6493C6.29656 61.919 5.82226 61.1886 5.36159 60.4505C5.13484 60.0875 4.92532 59.7115 4.73014 59.3306C4.15825 58.21 3.54834 57.1081 3.14866 55.9065C2.95851 55.3354 2.67579 54.7945 2.4964 54.2206C2.11969 53.0211 1.76809 51.8123 1.43514 50.5999C1.21486 49.8008 1.01825 48.993 0.857516 48.1795C0.616418 46.9599 0.404023 45.7339 0.300695 44.4913C0.216742 43.4784 0.0674911 42.469 0.0172625 41.4546C-0.0257906 40.5866 0.0294609 39.7135 0.0423768 38.8426C0.0445295 38.7221 0.0552927 38.6016 0.0574454 38.481C0.0775368 37.3555 0.146422 36.2349 0.297825 35.1179C0.413351 34.2707 0.457839 33.4134 0.558297 32.564C0.608525 32.14 0.701089 31.7196 0.797959 31.3035C1.02901 30.3135 1.27513 29.3264 1.51479 28.3386C1.52412 28.2998 1.52914 28.2589 1.54206 28.2209C1.86209 27.2976 2.17853 26.3736 2.50717 25.4532C2.59256 25.2143 2.71741 24.9898 2.82002 24.7573C2.98793 24.3785 3.14292 23.9926 3.32231 23.6195C3.5713 23.1009 3.84038 22.5915 4.09726 22.0764C4.24651 21.7773 4.38931 21.4745 4.53497 21.1725C4.55219 21.1367 4.56295 21.0965 4.58305 21.062C5.14632 20.1215 5.57757 19.1064 6.19825 18.1989C6.22839 18.1545 6.2614 18.1121 6.2901 18.0669C7.21216 16.5956 8.33656 15.2799 9.49971 14.0015C10.2926 13.1306 11.1106 12.2726 11.9961 11.4992C12.6132 10.9597 13.2037 10.4073 13.7498 9.79827C14.0067 9.51275 14.3274 9.2796 14.6374 9.04645C15.3119 8.53782 15.9763 8.01269 16.6824 7.55284C18.0515 6.66112 19.4428 5.81244 20.9289 5.1094C22.115 4.54768 23.2738 3.92355 24.5044 3.4637C26.1986 2.83096 27.9092 2.23911 29.6608 1.78501C30.9028 1.4629 32.1564 1.17809 33.4157 0.930592C34.3858 0.739766 35.3761 0.652961 36.3505 0.481505C37.4218 0.293548 38.5082 0.280635 39.5838 0.154374C40.9601 -0.00703928 42.3392 -0.0199523 43.7183 0.020939C44.5327 0.0453303 45.3457 0.14433 46.1573 0.230417C47.1288 0.333722 48.099 0.447787 49.067 0.579787C49.9287 0.69744 50.7884 0.832309 51.6444 0.984396C53.5043 1.31511 55.3412 1.74411 57.143 2.31803C58.144 2.63727 59.0869 3.08205 60.0075 3.58136C60.6439 3.92642 61.2818 4.27077 61.937 4.5771C62.9028 5.02905 63.7789 5.6166 64.6342 6.24503C65.0985 6.58579 65.5843 6.89714 66.0658 7.21351C66.7395 7.65758 67.3746 8.1454 67.9364 8.73008C68.1768 8.97973 68.4394 9.22077 68.73 9.4073C69.5437 9.92956 70.168 10.6505 70.8239 11.3385C71.1661 11.6972 71.4983 12.066 71.8184 12.444C72.1384 12.8221 72.4355 13.2195 72.7469 13.6055C72.9148 13.8142 73.0748 14.033 73.2671 14.2167C73.651 14.5833 73.9323 15.0173 74.2028 15.4678C74.4295 15.8452 74.7094 16.1902 74.9548 16.5568C75.1701 16.8782 75.3796 17.2039 75.5748 17.5382C75.8037 17.9313 76.0132 18.336 76.2335 18.7341C76.3375 18.9213 76.4573 19.1007 76.5521 19.2922C77.1455 20.4932 77.7346 21.6969 78.3244 22.9C78.3596 22.9725 78.3983 23.0435 78.4242 23.1195C78.8547 24.4008 79.3211 25.6713 79.6992 26.9683C79.9382 27.7869 80.0501 28.6427 80.213 29.4828C80.472 30.8222 80.7031 32.168 80.9887 33.5016C81.3353 35.1186 81.519 36.7478 81.5168 38.4021C81.5161 39.1783 81.5771 39.9546 81.5921 40.7308C81.5979 41.0098 81.5541 41.2896 81.5276 41.5694C81.4422 42.4748 81.3668 43.3815 81.2635 44.2847C81.2183 44.6815 81.1035 45.0703 81.0411 45.4663C80.9234 46.2188 80.8201 46.9742 80.711 47.7282C80.7017 47.7942 80.7045 47.8652 80.6816 47.9262C80.2833 48.9944 80.1872 50.1466 79.7617 51.2097C79.5787 51.6674 79.4754 52.1574 79.3304 52.6309C79.2565 52.8741 79.1804 53.1173 79.0893 53.354C78.8633 53.9408 78.6308 54.5248 78.3955 55.108C78.3251 55.2816 78.234 55.4459 78.1558 55.6167C77.9599 56.0414 77.7705 56.4689 77.5688 56.8908C77.4253 57.1921 77.2682 57.4876 77.1139 57.7832C76.9962 58.0084 76.8699 58.2301 76.7508 58.4547C76.3246 59.2589 75.9271 60.0803 75.4635 60.8622C75.1435 61.401 74.7302 61.8845 74.3614 62.3946C73.7651 63.2203 73.1537 64.036 72.5818 64.8782C71.9762 65.7706 71.2386 66.5483 70.5268 67.3503C69.9936 67.9515 69.4677 68.5606 68.8994 69.128C68.217 69.8095 67.5001 70.4559 66.7847 71.1044C66.4676 71.3921 66.1153 71.6403 65.7874 71.9165C65.4393 72.2092 65.1021 72.5155 64.7577 72.8133C64.5144 73.0235 64.2769 73.2415 64.0193 73.4324C63.4166 73.8786 62.803 74.3112 62.1931 74.7481C62.0195 74.8729 61.8487 75.0035 61.6665 75.1154C61.096 75.4655 60.542 75.8507 59.9415 76.1405C59.1823 76.5078 58.4324 76.8902 57.6855 77.2812C57.1882 77.5409 56.6687 77.7582 56.1564 77.9878C55.9619 78.0753 55.7596 78.1456 55.5601 78.2231C55.1604 78.3774 54.7607 78.5294 54.3618 78.6837C54.2247 78.7368 54.0934 78.8107 53.9528 78.8487C52.5593 79.2282 51.1837 79.6723 49.7702 79.9822C49.0253 80.1457 48.2891 80.3351 47.5242 80.4047C47.0607 80.447 46.6065 80.5884 46.1444 80.6558C45.721 80.7175 45.2926 80.7433 44.8657 80.777C44.4258 80.8115 43.9853 80.8394 43.5447 80.8653C42.7697 80.9119 41.994 80.9549 41.2191 80.9994C41.2184 80.9822 41.2177 80.965 41.2169 80.9485H41.2177Z" fill="#D7E7FF"/>
<path d="M60.6382 5.23328C60.072 5.4406 59.5001 5.63071 58.9304 5.828C58.3413 6.03317 57.8081 6.32085 57.3719 6.785C57.0891 7.0863 56.7397 7.32663 56.4663 7.63511C55.9877 8.1753 55.4366 8.58996 54.7657 8.864C54.4622 8.98811 54.1644 9.16459 53.914 9.37622C53.2294 9.95443 52.7515 10.6926 52.3311 11.4803C52.0361 12.0327 51.6989 12.5708 51.3157 13.0658C50.8579 13.6576 50.1806 13.8728 49.458 13.8377C48.7239 13.8018 48.0006 13.6526 47.3147 13.3656C46.6968 13.1074 46.036 13.1074 45.3859 13.0514C44.6733 12.9904 43.9723 13.098 43.2727 13.2236C42.6298 13.3391 42.0335 13.545 41.5398 13.9991C41.3841 14.1426 41.2011 14.2617 41.0174 14.3693C40.2891 14.7954 39.7861 15.3743 39.6261 16.2338C39.5285 16.7567 39.3871 17.2747 39.2228 17.7812C39.1202 18.0968 38.9423 18.3888 38.7923 18.688C38.6581 18.9563 38.5663 19.2332 38.595 19.5374C38.6416 20.0281 38.694 20.518 38.7363 21.0094C38.7794 21.5052 38.8282 22.0023 38.4428 22.4127C38.1587 22.7147 37.8853 23.026 37.6069 23.3338C37.5086 23.4428 37.4053 23.5483 37.3134 23.6631C36.692 24.4414 36.2773 25.3052 36.1366 26.3052C36.0756 26.7393 36.1 27.1381 36.3304 27.5026C36.5155 27.796 36.7315 28.098 37.101 28.164C37.416 28.2199 37.7461 28.2199 38.0503 28.0815C38.6624 27.8024 39.2465 27.4645 39.728 26.9961C40.302 26.4372 40.9442 25.9975 41.6568 25.6395C42.3413 25.2959 43.0144 25.2758 43.6968 25.6208C43.8403 25.6933 43.9823 25.7686 44.118 25.8547C44.7896 26.2816 45.5301 26.3734 46.2749 26.1818C46.732 26.0642 47.1711 25.8303 47.5816 25.5871C48.2554 25.1875 48.9514 24.8582 49.7149 24.6768C50.1727 24.5677 50.5931 24.6559 50.9749 24.9214C51.1959 25.0749 51.3222 25.2844 51.315 25.5677C51.3071 25.8762 51.3057 26.1847 51.3157 26.4932C51.3344 27.042 51.6035 27.4602 52.0376 27.773C52.3332 27.9854 52.6618 28.1374 53.0278 28.1841C53.477 28.2415 53.9269 28.3182 54.3775 28.3347C54.9365 28.3548 55.2996 28.6289 55.5579 29.0952C55.6418 29.2465 55.738 29.3922 55.8392 29.5313C56.0508 29.8226 56.279 30.1024 56.4842 30.3979C56.6902 30.6935 56.8495 31.025 57.0777 31.3011C57.4099 31.7036 57.7665 32.101 58.2695 32.2962C59.0954 32.6168 59.9378 32.8758 60.8412 32.8514C61.1225 32.8443 61.4052 32.8421 61.6865 32.8521C62.0252 32.8643 62.3531 32.8235 62.6767 32.7259C63.2687 32.5473 63.8836 32.5042 64.495 32.4497C65.3891 32.3693 66.253 32.5659 67.1105 32.7775C67.5066 32.8751 67.8244 33.0968 68.0863 33.4368C68.42 33.8694 68.7824 34.2955 69.2014 34.6406C69.6334 34.9957 69.8931 35.4075 69.9792 35.9434C70.0194 36.193 70.0496 36.4456 70.0732 36.6981C70.122 37.2096 70.6157 37.7849 71.1108 37.8409C71.5607 37.8918 72.0099 37.9585 72.4605 37.998C72.9255 38.0389 73.3941 38.0439 73.8598 38.0855C74.3276 38.1278 74.784 38.239 75.2188 38.417C75.5324 38.5454 75.8043 38.7262 75.9902 39.0296C76.7013 40.1918 76.7192 41.4393 76.4221 42.7105C76.2858 43.2952 76.0777 43.8655 75.8768 44.433C75.551 45.3556 75.6278 46.309 75.6314 47.2574C75.6314 47.2968 75.6407 47.3377 75.6551 47.375C75.8467 47.8743 76.0196 48.383 76.2442 48.8672C76.3267 49.0451 76.5111 49.2008 76.6862 49.307C77.1354 49.5796 77.6377 49.5624 78.1292 49.4619C78.681 49.35 79.2335 49.2847 79.7968 49.2646C79.9819 49.2582 80.1534 49.2288 80.3177 49.1872C80.4175 48.7603 80.5258 48.3363 80.6794 47.9245C80.7023 47.8636 80.6987 47.7925 80.7088 47.7265C80.8179 46.9726 80.9205 46.2172 81.0389 45.4646C81.1013 45.0686 81.2161 44.6805 81.2613 44.2831C81.3646 43.3799 81.4407 42.4731 81.5254 41.5677C81.5519 41.2887 81.595 41.0082 81.59 40.7291C81.5749 39.9529 81.5139 39.1767 81.5146 38.4005C81.516 36.7462 81.3331 35.1177 80.9865 33.5C80.7009 32.1663 80.4698 30.8205 80.2108 29.4811C80.0479 28.6411 79.9367 27.7852 79.6971 26.9667C79.3182 25.6703 78.8525 24.3991 78.422 23.1179C78.3961 23.0418 78.3581 22.9701 78.3222 22.8983C77.7324 21.6953 77.1433 20.4915 76.5499 19.2906C76.4551 19.099 76.3353 18.9197 76.2313 18.7324C76.011 18.3343 75.8015 17.9297 75.5726 17.5365C75.3781 17.2022 75.1679 16.8765 74.9526 16.5552C74.7072 16.1886 74.4273 15.8435 74.2006 15.4662C73.9301 15.0156 73.6488 14.5816 73.2649 14.215C73.0726 14.0314 72.9126 13.8119 72.7447 13.6038C72.4333 13.2178 72.1362 12.8204 71.8162 12.4423C71.4961 12.0643 71.1639 11.6948 70.8216 11.3368C70.1658 10.6489 69.5423 9.92789 68.7278 9.40563C68.4372 9.21911 68.1746 8.97878 67.9342 8.72841C67.3724 8.14374 66.7381 7.65591 66.0636 7.21185C65.5821 6.89476 65.0963 6.58413 64.632 6.24337C63.9619 5.75052 63.2766 5.28637 62.5476 4.88965C62.5002 4.90113 62.4536 4.9126 62.4055 4.91834C61.8092 4.98937 61.2086 5.02237 60.636 5.23256L60.6382 5.23328Z" fill="#1943DC"/>
<path d="M1.59512 35.4806C1.85057 35.5538 2.11247 35.6069 2.37007 35.6714C2.75109 35.7669 3.12781 35.8709 3.34164 36.2468C3.54399 36.6019 3.66597 36.9764 3.6588 37.3932C3.64947 37.9162 3.66382 38.4391 3.65521 38.9621C3.64588 39.5181 3.88913 39.96 4.31105 40.2778C4.70427 40.5741 5.11973 40.8675 5.61628 40.9694C6.05685 41.0598 6.34459 41.3195 6.59287 41.6717C6.811 41.9809 7.10018 42.2291 7.44962 42.3834C7.7797 42.5297 8.11838 42.6588 8.45994 42.7758C8.95433 42.9451 9.37123 43.2084 9.67977 43.6417C9.78669 43.7909 9.94311 43.9071 10.0852 44.0283C10.3184 44.2278 10.5581 44.42 10.797 44.6137C11.3596 45.0693 11.9494 45.4502 12.7279 45.3254C13.2073 45.2486 13.6729 45.1554 14.0475 44.8031C14.5814 44.3009 14.7579 43.6725 14.6747 42.9759C14.6058 42.3991 14.3797 41.8927 13.8064 41.6165C13.6902 41.5605 13.6012 41.4479 13.5007 41.3604C13.2998 41.1846 13.1003 41.0067 12.8987 40.8309C12.4675 40.4557 12.1381 40.0698 12.3297 39.4134C12.4718 38.9255 12.09 38.4133 11.592 38.3007C11.4119 38.2598 11.2225 38.2541 11.0359 38.2433C10.8731 38.234 10.7116 38.234 10.5918 38.0553C10.5545 37.5295 10.619 36.9879 10.9276 36.5366C11.2806 36.0201 11.6904 35.5387 12.113 35.0753C12.395 34.7654 12.6375 34.4354 12.865 34.0874C12.9805 33.9102 13.1068 33.7259 13.2697 33.596C13.7512 33.2093 14.27 32.8815 14.8677 32.6914C15.1733 32.5945 15.4647 32.4518 15.7704 32.3549C15.9971 32.2839 16.2346 32.2251 16.47 32.2115C17.1524 32.1706 17.7494 31.9288 18.2603 31.4862C18.8343 30.9897 19.2727 30.3871 19.605 29.7027C19.9738 28.9445 20.3541 28.1919 20.7351 27.4386C21.0415 26.8332 21.3852 26.2614 22.0941 26.0462C22.1193 26.0383 22.1436 26.0247 22.1659 26.0096C22.6194 25.6954 22.9351 25.303 22.8985 24.7126C22.8662 24.2018 22.7543 23.7104 22.5634 23.2333C22.356 22.7146 21.9779 22.3394 21.5567 22.0044C21.3809 21.8645 21.2933 21.7103 21.2905 21.4965C21.289 21.376 21.2812 21.2547 21.2905 21.1342C21.3242 20.7167 21.1986 20.3329 21.002 19.9806C20.8958 19.7898 20.7337 19.594 20.5464 19.4935C20.1718 19.2927 19.7642 19.1535 19.3689 18.9928C19.2325 18.9376 19.089 18.8988 18.9541 18.8414C18.5695 18.6786 18.3636 18.4052 18.388 17.9669C18.426 17.2997 18.4404 16.6319 18.4734 15.964C18.4913 15.6067 18.4081 15.2695 18.2803 14.946C18.2086 14.7638 18.1038 14.5737 17.9618 14.4438C17.303 13.8419 16.513 13.6461 15.6505 13.8225C15.0492 13.9452 14.463 14.1418 13.8688 14.3003C13.1685 14.4869 12.4919 14.7387 11.8281 15.0292C11.6731 15.0974 11.493 15.1289 11.3222 15.1368C10.9606 15.1526 10.5975 15.149 10.2359 15.1375C10.106 15.1332 9.95173 15.1196 9.85414 15.0479C9.58649 14.852 9.2392 14.7035 9.19758 14.3384C8.14349 15.512 7.13175 16.7222 6.29006 18.0645C6.26136 18.1097 6.22907 18.1527 6.19821 18.1965C5.57681 19.104 5.14628 20.1191 4.583 21.0596C4.56219 21.094 4.55215 21.1335 4.53493 21.1701C4.38998 21.4714 4.24719 21.7741 4.09722 22.074C3.84034 22.5891 3.57197 23.0984 3.32226 23.6171C3.14288 23.9909 2.98789 24.3761 2.81998 24.7549C2.71665 24.9873 2.5918 25.2119 2.50713 25.4508C2.17849 26.3712 1.86276 27.2952 1.54202 28.2185C1.5291 28.2565 1.52408 28.2966 1.51475 28.3361C1.27509 29.3247 1.02969 30.3111 0.797918 31.3011C0.700331 31.7172 0.608484 32.1376 0.558255 32.5615C0.497981 33.0709 0.457081 33.5831 0.409722 34.0939C0.485783 34.2697 0.561843 34.4454 0.642209 34.619C0.836665 35.0365 1.14019 35.3486 1.59584 35.4785L1.59512 35.4806Z" fill="#1943DC"/>
<path d="M60.2234 38.9959C60.0318 38.4134 59.7297 37.8976 59.282 37.475C59.0093 37.2182 58.7345 36.9635 58.4482 36.7225C57.7385 36.1263 57.2707 35.3343 56.7591 34.5875C56.2611 33.8615 55.8657 33.0645 55.4294 32.2969C55.1439 31.7947 54.8296 31.3134 54.4091 30.9123C54.1185 30.6354 53.8121 30.3757 53.5208 30.0995C53.1096 29.7093 52.6669 29.3506 52.1488 29.1325C51.5468 28.8785 50.9132 28.6999 50.2918 28.494C50.1791 28.4567 50.0564 28.4259 49.9387 28.4273C49.3259 28.4316 48.7541 28.235 48.1707 28.0887C47.329 27.8771 46.5246 27.537 45.6521 27.4251C44.6576 27.2981 43.714 27.3892 42.7919 27.8068C42.017 28.1583 41.4817 28.7716 40.9406 29.3821C40.6271 29.7358 40.32 30.0708 39.8629 30.2538C39.3168 30.4719 38.7679 30.6964 38.2979 31.0659C38.0252 31.2804 37.7561 31.5006 37.482 31.7144C37.0924 32.0178 36.8047 32.3909 36.6454 32.8644C36.4696 33.3881 36.3993 33.9326 36.3512 34.4763C36.3246 34.7776 36.3763 35.0883 36.4172 35.3917C36.4889 35.9205 36.6073 36.4442 36.6561 36.9743C36.725 37.7297 36.6124 38.4636 36.3433 39.1817C36.0355 40.0024 36.0477 40.854 36.1589 41.7155C36.2356 42.3124 36.4825 42.8462 36.71 43.3864C36.8219 43.6518 36.9963 43.9065 37.1943 44.1167C37.8422 44.8046 38.7191 44.9926 39.601 45.0715C40.3731 45.1404 41.1559 45.0866 41.9344 45.0837C42.0414 45.0837 42.1504 45.0801 42.2538 45.0564C43.0603 44.8721 43.7599 45.164 44.3354 45.6605C44.8247 46.083 45.2352 46.6146 45.6148 47.1448C46.1486 47.8923 46.3768 48.7596 46.4026 49.6757C46.4141 50.0775 46.3947 50.4806 46.4069 50.8831C46.422 51.3817 46.3596 51.8681 46.2577 52.3552C46.0934 53.1407 45.9972 53.9313 45.9872 54.7398C45.9771 55.5318 46.2146 56.2463 46.5088 56.9494C46.8246 57.7026 47.2077 58.4272 47.527 59.1783C47.7244 59.6446 47.9167 60.1274 48.0035 60.6217C48.1162 61.2623 48.1449 61.9209 48.1685 62.5737C48.1886 63.1247 48.2389 63.667 48.3903 64.1965C48.6758 65.1929 49.6926 65.6944 50.6785 65.3651C51.343 65.1434 51.8539 64.6843 52.3827 64.256C52.7874 63.9282 53.1519 63.5479 53.5731 63.2438C54.2089 62.7846 54.7614 62.2487 55.2486 61.639C55.5988 61.2006 55.9332 60.7458 56.3185 60.3405C56.6895 59.9502 57.0482 59.5592 57.3087 59.0843C57.6252 58.5061 57.9072 57.9092 58.0442 57.2657C58.1547 56.7463 58.2092 56.2097 58.2322 55.6781C58.281 54.5418 58.2939 53.404 58.319 52.2662C58.3248 52.0116 58.3154 51.7562 58.3226 51.5015C58.3262 51.3688 58.3528 51.2368 58.3657 51.1041C58.4331 50.3888 58.7151 49.7302 58.9225 49.0545C59.277 47.9038 59.6644 46.7624 60.0634 45.626C60.5341 44.2852 60.6977 42.8985 60.7372 41.4917C60.7716 40.9357 60.72 40.3948 60.5162 39.8704C60.4049 39.5842 60.3196 39.2879 60.2234 38.9959Z" fill="#1943DC"/>
<path d="M28.2213 60.4998C27.8532 59.9416 27.5002 59.3706 27.183 58.7823C26.868 58.1969 26.8974 57.6704 27.526 57.2945C27.5719 57.2672 27.6171 57.2363 27.6559 57.1998C28.0513 56.8203 28.4789 56.468 28.8298 56.0512C29.2144 55.5928 29.3959 55.0232 29.4569 54.4249C29.5136 53.8653 29.5775 53.305 29.3608 52.7605C29.2273 52.4248 29.0867 52.0912 28.9733 51.7483C28.6626 50.8107 28.0656 50.0875 27.2964 49.4957C26.8386 49.1434 26.4095 48.7668 26.0586 48.3019C25.9237 48.1226 25.7314 47.987 25.57 47.8278C25.2937 47.5566 24.9765 47.3134 24.757 47.002C24.3968 46.4898 24.0897 45.9381 23.7825 45.3908C23.5752 45.0213 23.3491 44.6712 22.9595 44.484C22.6488 44.3348 22.3209 44.2157 21.9894 44.1188C21.749 44.0485 21.4914 44.0371 21.223 43.9962C21.1764 43.9316 21.1183 43.8591 21.0673 43.7817C20.5679 43.0191 19.8202 42.7264 18.952 42.6711C18.5408 42.6446 18.1526 42.7558 17.7881 42.9323C17.1373 43.2472 16.4872 43.5636 15.8507 43.9065C15.6089 44.0371 15.347 44.2006 15.197 44.4194C14.6431 45.2243 14.2606 46.1053 14.29 47.1089C14.2987 47.4009 14.1946 47.5774 13.9485 47.728C13.561 47.9662 13.218 48.2539 12.941 48.6312C12.3527 49.4326 11.963 50.2884 12.0276 51.3085C12.0405 51.5087 12.0247 51.711 12.0305 51.9119C12.047 52.4901 12.2013 53.0317 12.5787 53.4736C13.0903 54.0734 13.6306 54.6487 14.1673 55.2269C14.6517 55.7478 15.2394 56.1 15.9253 56.3023C16.2045 56.3848 16.4649 56.529 16.7032 56.6316C16.8905 57.0025 16.8955 57.3346 16.7821 57.6847C16.6515 58.0893 16.6192 58.5025 16.8452 58.8899C16.973 59.1087 17.1028 59.3319 17.2665 59.5227C17.7185 60.0507 18.1914 60.56 18.6499 61.083C18.7633 61.2121 18.8852 61.3499 18.9477 61.5055C19.1063 61.9008 19.2512 62.3033 19.366 62.7129C19.4449 62.9934 19.4751 63.2883 19.5088 63.5795C19.681 65.0681 20.2572 66.3931 21.157 67.5776C21.439 67.9492 21.7411 68.3236 22.102 68.612C22.5871 68.9994 22.9437 69.4499 23.2178 70.0038C23.5056 70.5841 24.0272 70.917 24.6565 71.0548C24.8625 71.0999 25.0842 71.0669 25.2973 71.082C25.6747 71.1078 25.9811 70.9658 26.2237 70.6896C26.3643 70.5296 26.4827 70.3503 26.6104 70.1788C27.1364 69.4722 27.1156 68.7046 26.83 67.9255C26.6413 67.4111 26.4059 66.9132 26.1993 66.4053C26.1548 66.2963 26.1368 66.175 26.1196 66.0574C26.0184 65.3823 26.3858 64.9089 26.8207 64.4741C27.0754 64.2194 27.3516 63.9849 27.62 63.7438C28.118 63.2969 28.4229 62.7438 28.5098 62.0816C28.5822 61.5278 28.5471 60.994 28.2213 60.4998Z" fill="#1943DC"/>
<path d="M34.1304 10.8828C33.8024 10.6661 33.4329 10.5499 33.0318 10.5535C32.6027 10.5571 32.1722 10.5786 31.7452 10.5485C31.0678 10.5004 30.3941 10.4064 29.7167 10.349C29.185 10.3038 28.6504 10.2357 28.1295 10.4358C27.9178 10.5169 27.6982 10.5772 27.4837 10.6518C27.2074 10.7479 26.901 10.8024 26.6657 10.961C26.4174 11.1281 26.2179 11.3821 26.0306 11.6238C25.6862 12.0679 25.5441 12.6038 25.4336 13.1418C25.3188 13.7057 25.2499 14.2703 25.3755 14.8499C25.4853 15.3571 25.5685 15.8737 25.6166 16.3902C25.6561 16.8113 25.6611 17.2295 25.4932 17.6521C25.2126 18.3566 24.8876 19.0625 25.0081 19.8832C25.0081 20.14 24.9895 20.4227 25.0153 20.7017C25.0311 20.871 25.11 21.036 25.1703 21.1989C25.3985 21.8165 25.9287 22.0275 26.4274 21.9701C26.6786 21.9414 26.9319 21.9019 27.1837 21.9077C27.6745 21.9184 28.1438 21.8266 28.5959 21.653C29.0774 21.4686 29.5014 21.2046 29.8042 20.7656C30.2218 20.1601 30.6366 19.5517 31.0894 18.9728C31.5343 18.4039 32.0222 17.868 32.6644 17.5036C33.2241 17.1858 33.7379 16.8192 34.1648 16.3235C35.1184 15.2165 35.5145 13.9589 35.1959 12.5278C35.0495 11.8692 34.7209 11.273 34.1304 10.8821V10.8828Z" fill="#1943DC"/>
<path d="M16.0402 40.1732C16.2813 40.0663 16.5467 40.0132 16.8036 39.9444C17.2693 39.8195 17.5908 39.5197 17.7135 39.0699C17.8283 38.6487 17.8606 38.2047 17.928 37.7721C17.8993 37.6071 17.8922 37.4435 17.8419 37.2943C17.7479 37.0174 17.6324 36.7469 17.5176 36.4779C17.1918 35.7125 16.7068 35.0977 15.8852 34.8236C15.672 34.7526 15.441 34.7361 15.2243 34.6744C14.961 34.5991 14.7457 34.6744 14.5699 34.8616C14.3231 35.1242 14.0439 35.3724 13.8631 35.6759C13.6608 36.0152 13.5043 36.399 13.4153 36.7835C13.2862 37.3395 13.5653 37.8202 13.9126 38.2104C14.2778 38.62 14.562 39.0498 14.7199 39.5756C14.8505 40.0082 15.5149 40.4071 16.0402 40.1732Z" fill="#1943DC"/>
<path d="M73.5426 46.1534C73.4637 45.7968 73.262 45.5795 72.9126 45.5092C72.6385 45.4539 72.35 45.4568 72.0831 45.3815C71.5844 45.2409 71.1431 45.3621 70.7578 45.6562C70.4198 45.9145 70.1098 46.2158 69.8192 46.5279C69.7001 46.6563 69.6327 46.8557 69.5982 47.0336C69.5336 47.3665 69.4289 47.6771 69.2732 47.9777C69.1562 48.203 69.0435 48.4361 68.9754 48.6786C68.857 49.099 69.0601 49.4606 69.4712 49.589C69.6599 49.6478 69.8616 49.665 69.9656 49.6844C70.7083 49.6614 71.2895 49.4462 71.8506 49.1399C72.2962 48.8967 72.6263 48.5287 72.9757 48.1793C73.544 47.6119 73.7148 46.9353 73.5426 46.1548V46.1534Z" fill="#1943DC"/>
<path d="M18.0091 41.2234C18.449 41.4113 18.8982 41.5806 19.3502 41.7378C19.7298 41.8705 20.0448 41.7205 20.3469 41.4845C20.8155 41.1172 20.898 40.5964 20.9855 39.9558C20.9159 39.7592 20.8449 39.4579 20.705 39.1924C20.5665 38.9306 20.2988 38.8144 19.9982 38.8251C19.7334 38.8345 19.4693 38.8754 19.2038 38.8818C18.7554 38.8933 18.3894 39.0748 18.1598 39.4471C17.9732 39.7499 17.8355 40.087 17.7113 40.4221C17.6116 40.6904 17.7752 41.1222 18.0098 41.2227L18.0091 41.2234Z" fill="#1943DC"/>
<path d="M64.8564 78.7794C72.2256 78.7794 78.1996 72.8082 78.1996 65.4423C78.1996 58.0764 72.2256 52.1052 64.8564 52.1052C57.4871 52.1052 51.5132 58.0764 51.5132 65.4423C51.5132 72.8082 57.4871 78.7794 64.8564 78.7794Z" fill="#030A52"/>
<path d="M65.8015 59.7286C66.7683 59.9151 67.5073 60.3317 68.0233 60.9807C68.5394 61.6274 68.7963 62.3902 68.7963 63.2694H66.8191C66.7973 62.7438 66.5962 62.3127 66.2182 61.9785C65.8403 61.6443 65.3436 61.4772 64.7281 61.4772C64.1466 61.4772 63.6766 61.6056 63.3204 61.8647C62.9642 62.1238 62.7849 62.4653 62.7849 62.894C62.7849 63.2112 62.8891 63.4704 63.0975 63.6665C63.3059 63.8651 63.5724 64.0201 63.8971 64.1364C64.2217 64.2526 64.6676 64.381 65.2394 64.5239C66.0632 64.7322 66.7343 64.9429 67.2577 65.1584C67.7786 65.3715 68.2269 65.713 68.6 66.178C68.9731 66.6454 69.1597 67.2727 69.1597 68.0622C69.1597 68.9413 68.8496 69.6897 68.2293 70.3097C67.609 70.9296 66.7998 71.3123 65.8015 71.4528V72.5281H64.04V71.4019C63.0636 71.2154 62.2688 70.7795 61.6607 70.0941C61.0525 69.4087 60.7472 68.5829 60.7472 67.6166H62.6565C62.6565 68.2317 62.8794 68.7306 63.3228 69.1133C63.7662 69.4983 64.3356 69.6897 65.0262 69.6897C65.7167 69.6897 66.2207 69.5395 66.6326 69.2368C67.0445 68.934 67.2504 68.5441 67.2504 68.0598C67.2504 67.7086 67.1365 67.4204 66.9136 67.1952C66.6883 66.9699 66.4048 66.7956 66.0656 66.6696C65.724 66.5437 65.2539 66.4032 64.6506 66.2506C63.8607 66.0521 63.2162 65.851 62.7147 65.6428C62.2155 65.4345 61.7867 65.11 61.4305 64.6716C61.0743 64.2333 60.895 63.6447 60.895 62.9109C60.895 62.0778 61.1834 61.3706 61.76 60.787C62.3367 60.2057 63.0975 59.8425 64.04 59.6996V58.6243H65.8015V59.7335V59.7286Z" fill="white"/>
</g>
<defs>
<clipPath id="clip0_1417_935">
<rect width="81.5921" height="81" fill="white"/>
</clipPath>
</defs>
</svg>
