<svg  viewBox="0 0 64 81" fill="none" xmlns="http://www.w3.org/2000/svg">
<path d="M0 13.7167V41.7709C0 52.8521 9.0647 63.1952 16.6655 69.9189C22.9779 75.5063 28.9274 79.2781 31.8553 81C34.83 79.2547 40.756 75.4946 47.0451 69.9189C54.6458 63.1835 63.7105 52.8404 63.7105 41.7709V13.7167L31.8553 0L0 13.7167Z" fill="#1943DC"/>
<path d="M24.2112 28.5402C24.2112 24.3874 27.4308 20.8864 31.572 20.6902C36.0045 20.4811 39.6778 24.0324 39.6778 28.4266V40.0449H43.5445V28.5686C43.5445 22.2845 38.617 17.0279 32.3453 16.8149C25.7553 16.5928 20.3445 21.8765 20.3445 28.4266V40.0449H24.2112V28.5402Z" fill="white"/>
<path d="M47.4706 51.6308C47.4706 53.266 46.88 54.8031 45.8068 55.9606C44.7336 57.1181 43.3084 57.755 41.7923 57.755H16.2399V33.2583H47.4706V51.6308Z" fill="#B8B6FF"/>
<path d="M35.1568 50.96L33.3353 46.1754C34.4143 45.647 35.1568 44.5514 35.1568 43.2861C35.1568 41.5022 33.6817 40.0527 31.8553 40.0527C30.0288 40.0527 28.5537 41.4973 28.5537 43.2861C28.5537 44.5514 29.2962 45.647 30.3753 46.1754L28.5537 50.96H35.1518H35.1568Z" fill="#020553"/>
</svg>
