<svg viewBox="0 0 1440 267" fill="none" xmlns="http://www.w3.org/2000/svg">
<g clip-path="url(#clip0_1024_2131)">
<path d="M1166.57 37.6562C1170.02 39.0468 1173.32 40.642 1176.5 42.3842C1175.54 45.8843 1174.4 49.3686 1173.01 52.8163C1153.7 100.595 1099.32 123.679 1051.55 104.373C1048.1 102.982 1044.8 101.387 1041.61 99.6451C1042.57 96.145 1043.72 92.6606 1045.11 89.213C1064.41 41.4344 1118.79 18.3506 1166.57 37.6562Z" fill="#3B2ABA"/>
<path d="M411.008 0C414.723 0 418.386 0.241386 421.991 0.666434C422.416 4.27148 422.657 7.92899 422.657 11.6495C422.657 63.1801 380.882 104.956 329.351 104.956C325.636 104.956 321.973 104.714 318.368 104.289C317.943 100.684 317.702 97.0265 317.702 93.306C317.702 41.7755 359.477 0 411.008 0Z" fill="#B8B6FF"/>
<path d="M806.114 266.794C809.83 266.794 813.492 266.553 817.097 266.127C817.522 262.522 817.764 258.865 817.764 255.144C817.764 203.614 775.988 161.838 724.458 161.838C720.743 161.838 717.08 162.08 713.475 162.505C713.05 166.11 712.808 169.767 712.808 173.488C712.808 225.018 754.584 266.794 806.114 266.794Z" fill="#1943DC"/>
<path d="M-4.54783 153.768L-10 150.614C8.39778 118.809 34.8557 92.1361 66.5087 73.4759C99.122 54.2543 136.479 44.0898 174.539 44.0898C212.6 44.0898 249.962 54.249 282.57 73.4707C314.228 92.1308 340.681 118.804 359.079 150.609L353.626 153.763C335.769 122.897 310.093 97.011 279.369 78.8966C247.726 60.2469 211.477 50.3869 174.534 50.3869C137.592 50.3869 101.342 60.2469 69.6992 78.8966C38.9855 97.011 13.3042 122.902 -4.54783 153.768Z" fill="#97DCD7"/>
<path d="M538.181 260.287C500.116 260.287 462.759 250.128 430.151 230.906C398.493 212.246 372.04 185.573 353.642 153.768L359.094 150.614C376.952 181.48 402.628 207.366 433.352 225.481C464.994 244.13 501.244 253.99 538.187 253.99C575.129 253.99 611.379 244.13 643.021 225.481C673.746 207.371 699.422 181.48 717.279 150.614L722.731 153.768C704.333 185.573 677.875 212.246 646.223 230.906C613.609 250.128 576.252 260.293 538.187 260.293L538.181 260.287Z" fill="#97DCD7"/>
<path d="M722.726 153.348L717.274 150.194C735.672 118.389 762.13 91.7162 793.783 73.056C826.396 53.8344 863.753 43.6699 901.813 43.6699C939.873 43.6699 977.236 53.8291 1009.84 73.0508C1041.5 91.7109 1067.95 118.384 1086.35 150.189L1080.9 153.343C1063.04 122.477 1037.37 96.5911 1006.64 78.4767C975 59.827 938.751 49.9669 901.808 49.9669C864.866 49.9669 828.616 59.827 796.973 78.4767C766.249 96.5858 740.573 122.477 722.716 153.343L722.726 153.348Z" fill="#97DCD7"/>
<path d="M1265.46 260.287C1227.39 260.287 1190.03 250.128 1157.42 230.906C1125.77 212.246 1099.31 185.573 1080.92 153.768L1086.37 150.614C1104.23 181.48 1129.9 207.366 1160.63 225.481C1192.27 244.13 1228.52 253.99 1265.46 253.99C1302.4 253.99 1338.65 244.13 1370.3 225.481C1401.02 207.371 1426.7 181.48 1444.55 150.614L1450.01 153.768C1431.61 185.573 1405.15 212.246 1373.49 230.906C1340.88 250.128 1303.52 260.293 1265.46 260.293L1265.46 260.287Z" fill="#97DCD7"/>
<path d="M-4.54783 153.768L-10 150.614C8.39778 118.809 34.8557 92.1361 66.5087 73.4759C99.122 54.2543 136.479 44.0898 174.539 44.0898C212.6 44.0898 249.962 54.249 282.57 73.4707C314.228 92.1308 340.681 118.804 359.079 150.609L353.626 153.763C335.769 122.897 310.093 97.011 279.369 78.8966C247.726 60.2469 211.477 50.3869 174.534 50.3869C137.592 50.3869 101.342 60.2469 69.6992 78.8966C38.9855 97.011 13.3042 122.902 -4.54783 153.768Z" fill="#97DCD7"/>
<path d="M538.181 260.287C500.116 260.287 462.759 250.128 430.151 230.906C398.493 212.246 372.04 185.573 353.642 153.768L359.094 150.614C376.952 181.48 402.628 207.366 433.352 225.481C464.994 244.13 501.244 253.99 538.187 253.99C575.129 253.99 611.379 244.13 643.021 225.481C673.746 207.371 699.422 181.48 717.279 150.614L722.731 153.768C704.333 185.573 677.875 212.246 646.223 230.906C613.609 250.128 576.252 260.293 538.187 260.293L538.181 260.287Z" fill="#D7E7FF"/>
<path d="M722.726 153.348L717.274 150.194C735.672 118.389 762.13 91.7162 793.783 73.056C826.396 53.8344 863.753 43.6699 901.813 43.6699C939.873 43.6699 977.236 53.8291 1009.84 73.0508C1041.5 91.7109 1067.95 118.384 1086.35 150.189L1080.9 153.343C1063.04 122.477 1037.37 96.5911 1006.64 78.4767C975 59.827 938.751 49.9669 901.808 49.9669C864.866 49.9669 828.616 59.827 796.973 78.4767C766.249 96.5858 740.573 122.477 722.716 153.343L722.726 153.348Z" fill="#D7E7FF"/>
<path d="M1265.46 260.287C1227.39 260.287 1190.03 250.128 1157.42 230.906C1125.77 212.246 1099.31 185.573 1080.92 153.768L1086.37 150.614C1104.23 181.48 1129.9 207.366 1160.63 225.481C1192.27 244.13 1228.52 253.99 1265.46 253.99C1302.4 253.99 1338.65 244.13 1370.3 225.481C1401.02 207.371 1426.7 181.48 1444.55 150.614L1450.01 153.768C1431.61 185.573 1405.15 212.246 1373.49 230.906C1340.88 250.128 1303.52 260.293 1265.46 260.293L1265.46 260.287Z" fill="#97DCD7"/>
<path d="M-4.54783 153.768L-10 150.614C8.39778 118.809 34.8557 92.1361 66.5087 73.4759C99.122 54.2543 136.479 44.0898 174.539 44.0898C212.6 44.0898 249.962 54.249 282.57 73.4707C314.228 92.1308 340.681 118.804 359.079 150.609L353.626 153.763C335.769 122.897 310.093 97.011 279.369 78.8966C247.726 60.2469 211.477 50.3869 174.534 50.3869C137.592 50.3869 101.342 60.2469 69.6992 78.8966C38.9855 97.011 13.3042 122.902 -4.54783 153.768Z" fill="#D7E7FF"/>
<path d="M1265.46 260.287C1227.39 260.287 1190.03 250.128 1157.42 230.906C1125.77 212.246 1099.31 185.573 1080.92 153.768L1086.37 150.614C1104.23 181.48 1129.9 207.366 1160.63 225.481C1192.27 244.13 1228.52 253.99 1265.46 253.99C1302.4 253.99 1338.65 244.13 1370.3 225.481C1401.02 207.371 1426.7 181.48 1444.55 150.614L1450.01 153.768C1431.61 185.573 1405.15 212.246 1373.49 230.906C1340.88 250.128 1303.52 260.293 1265.46 260.293L1265.46 260.287Z" fill="#D7E7FF"/>
<path d="M271.036 222.327L266.575 217.882C308.65 175.66 377.225 175.534 419.451 217.609L415.007 222.069C395.79 202.921 370.277 192.379 343.158 192.379C343.095 192.379 343.032 192.379 342.969 192.379C315.776 192.426 290.231 203.063 271.036 222.327Z" fill="#D7E7FF"/>
<path d="M707.582 117.828C679.833 117.828 652.095 107.244 631.005 86.0804L635.465 81.6357C654.661 100.899 680.206 111.531 707.398 111.583C707.461 111.583 707.524 111.583 707.587 111.583C734.711 111.583 760.22 101.046 779.436 81.8929L783.881 86.3533C762.822 107.338 735.199 117.828 707.582 117.828Z" fill="#D7E7FF"/>
<path d="M1003.32 224.993L998.861 220.548C1019.24 200.093 1046.37 188.801 1075.24 188.748C1075.31 188.748 1075.38 188.748 1075.44 188.748C1104.25 188.748 1131.33 199.936 1151.74 220.27L1147.29 224.73C1128.08 205.582 1102.56 195.04 1075.44 195.04C1075.38 195.04 1075.32 195.04 1075.25 195.04C1048.06 195.087 1022.52 205.724 1003.32 224.987V224.993Z" fill="#D7E7FF"/>
<path d="M1241.76 121.483L1206.19 128.56L1212.49 160.222L1248.06 153.146L1241.76 121.483Z" fill="#1943DC"/>
<path d="M1248.06 153.12L1212.48 160.196L1219.56 195.77L1255.13 188.694L1248.06 153.12Z" fill="#1943DC"/>
<path d="M1277.34 114.406L1241.77 121.482L1248.06 153.145L1283.64 146.069L1277.34 114.406Z" fill="#1943DC"/>
<path d="M1283.63 146.044L1248.05 153.12L1255.13 188.694L1290.7 181.617L1283.63 146.044Z" fill="#1943DC"/>
<path d="M1312.91 107.33L1277.34 114.406L1283.64 146.068L1319.21 138.992L1312.91 107.33Z" fill="#1943DC"/>
<path d="M1283.63 146.042L1319.2 138.966L1321.75 151.766C1324.25 164.334 1316.07 176.57 1303.51 179.07L1290.71 181.616L1283.63 146.042Z" fill="#1943DC"/>
<path d="M1312.47 151.601C1312.35 150.971 1312.18 150.357 1311.99 149.764C1311.37 149.811 1310.74 149.895 1310.11 150.021C1301.37 151.758 1295.7 160.249 1297.44 168.981C1297.57 169.61 1297.73 170.224 1297.92 170.817C1298.55 170.77 1299.18 170.686 1299.81 170.56C1308.54 168.823 1314.21 160.333 1312.47 151.601Z" fill="#B8B6FF"/>
<path d="M1315 117.822L1208.28 139.05L1209.34 144.387L1316.06 123.159L1315 117.822Z" fill="#B8B6FF"/>
<path d="M489.727 52L568.322 67.6336L545.132 184.218C543.18 194.033 533.628 200.415 523.813 198.463L463.005 186.367L489.732 52.001L489.727 52Z" fill="#1943DC"/>
<path d="M566.509 76.7742L487.913 61.1406L466.642 168.079L545.237 183.712L566.509 76.7742Z" fill="#D7E7FF"/>
<path d="M515.61 184.604L493.666 180.239L492.575 185.724L514.519 190.089L515.61 184.604Z" fill="#B8B6FF"/>
<path d="M507.536 140.238L495.488 122.205L500.384 118.934L509.159 132.07L534.972 114.823L538.244 119.718L507.536 140.238Z" fill="#020553"/>
<path d="M185.21 137.315H101V211H200.25C215.195 211 227.315 198.885 227.315 183.935V137.315H185.21Z" fill="#06AEA1"/>
<path d="M164.045 91L101 137.315L164.27 183.63L227.315 137.315L164.045 91Z" fill="#020553"/>
<path d="M206.26 105.735H122.05V189.945H206.26V105.735Z" fill="#B8B6FF"/>
<path d="M164.27 183.63L101 137.315V211H200.25C215.195 211 227.315 198.885 227.315 183.935V137.315L164.27 183.63Z" fill="#1943DC"/>
<path d="M166.24 127.045C168.615 127.505 170.435 128.53 171.705 130.12C172.975 131.71 173.605 133.585 173.605 135.745H168.75C168.695 134.45 168.205 133.39 167.275 132.57C166.345 131.745 165.125 131.335 163.615 131.335C162.185 131.335 161.03 131.65 160.155 132.285C159.28 132.92 158.84 133.76 158.84 134.815C158.84 135.6 159.095 136.23 159.61 136.715C160.12 137.2 160.775 137.585 161.575 137.87C162.37 138.155 163.47 138.47 164.875 138.82C166.9 139.335 168.55 139.85 169.83 140.38C171.11 140.905 172.21 141.745 173.13 142.89C174.045 144.035 174.505 145.58 174.505 147.525C174.505 149.685 173.74 151.525 172.22 153.05C170.7 154.575 168.705 155.51 166.25 155.865V160.44H161.92V155.745C159.52 155.285 157.57 154.215 156.07 152.53C154.575 150.845 153.825 148.815 153.825 146.44H158.52C158.52 147.95 159.065 149.18 160.16 150.125C161.255 151.07 162.65 151.54 164.35 151.54C166.05 151.54 167.285 151.17 168.295 150.425C169.305 149.685 169.815 148.72 169.815 147.53C169.815 146.665 169.54 145.96 168.985 145.405C168.43 144.85 167.735 144.42 166.9 144.11C166.065 143.8 164.905 143.455 163.42 143.08C161.48 142.595 159.89 142.095 158.665 141.585C157.435 141.075 156.385 140.275 155.51 139.195C154.635 138.115 154.195 136.675 154.195 134.865C154.195 132.815 154.905 131.075 156.32 129.645C157.735 128.215 159.605 127.325 161.925 126.975V122.4H166.255V127.055L166.24 127.045Z" fill="#020553"/>
<path d="M856.952 130.768H961.902V182.225C961.902 199.112 948.191 212.823 931.304 212.823H856.952V130.768Z" fill="#D7E7FF"/>
<path d="M924.719 130.768V155.242H894.236V130.863H888.988V155.242H856.952V160.49H888.988V182.871H856.952V188.118H888.988V212.818H894.236V188.118H924.719V212.818H929.966V188.118H961.33C961.661 186.418 961.85 184.66 961.887 182.871H929.966V160.49H961.902V155.242H929.966V130.768H924.719ZM924.719 182.876H894.236V160.495H924.719V182.876Z" fill="#020553"/>
<path d="M961.949 108H856.999V130.9H961.949V108Z" fill="#1943DC"/>
<path d="M878.362 102.72C878.362 99.874 876.056 97.5669 873.211 97.5669C870.367 97.5669 868.061 99.874 868.061 102.72V113.016C868.061 115.862 870.367 118.169 873.211 118.169C876.056 118.169 878.362 115.862 878.362 113.016V102.72Z" fill="#B8B6FF"/>
<path d="M951.035 102.72C951.035 99.874 948.729 97.5669 945.884 97.5669C943.04 97.5669 940.734 99.874 940.734 102.72V113.016C940.734 115.862 943.04 118.169 945.884 118.169C948.729 118.169 951.035 115.862 951.035 113.016V102.72Z" fill="#B8B6FF"/>
</g>
<defs>
<clipPath id="clip0_1024_2131">
<rect width="1460" height="266.794" fill="white" transform="translate(-10)"/>
</clipPath>
</defs>
</svg>
