<svg width="56" height="56" viewBox="0 0 56 56" fill="none" xmlns="http://www.w3.org/2000/svg">
<g clip-path="url(#clip0_3_87)">
<path d="M19.4802 32.576V39.456C19.4802 41.3556 24.5625 42.896 30.8322 42.896C37.102 42.896 42.1842 41.3556 42.1842 39.456V32.576H19.4802Z" fill="#881421"/>
<path d="M19.4802 25.008V32.576C19.4802 34.4756 24.5625 36.016 30.8322 36.016C37.102 36.016 42.1842 34.4756 42.1842 32.576V25.008H19.4802Z" fill="#AF2031"/>
<path d="M19.4802 17.44V25.008C19.4802 26.9075 24.5625 28.448 30.8322 28.448C37.102 28.448 42.1842 26.9075 42.1842 25.008V17.44H19.4802Z" fill="#C94F60"/>
<path d="M30.8322 20.88C37.1018 20.88 42.1842 19.3399 42.1842 17.44C42.1842 15.5401 37.1018 14 30.8322 14C24.5627 14 19.4802 15.5401 19.4802 17.44C19.4802 19.3399 24.5627 20.88 30.8322 20.88Z" fill="#E08095"/>
<path opacity="0.1" d="M27.8511 20.192H19.4802V37.392H27.8511C28.5467 37.3898 29.1099 36.8265 29.1122 36.1309V21.4531C29.11 20.7576 28.5467 20.1943 27.8511 20.192Z" fill="black"/>
<path opacity="0.2" d="M27.1631 20.88H19.4802V38.08H27.1631C27.8587 38.0777 28.4219 37.5145 28.4242 36.8189V22.1411C28.422 21.4455 27.8587 20.8823 27.1631 20.88Z" fill="black"/>
<path opacity="0.2" d="M27.1631 20.88H19.4802V36.704H27.1631C27.8587 36.7017 28.4219 36.1384 28.4242 35.4429V22.1411C28.422 21.4455 27.8587 20.8823 27.1631 20.88Z" fill="black"/>
<path opacity="0.2" d="M26.4751 20.88H19.4802V36.704H26.4751C27.1707 36.7017 27.7339 36.1384 27.7362 35.4429V22.1411C27.7339 21.4455 27.1707 20.8823 26.4751 20.88Z" fill="black"/>
<path d="M13.8611 20.88H26.4749C27.1714 20.88 27.736 21.4446 27.736 22.1411V34.7549C27.736 35.4514 27.1714 36.016 26.4749 36.016H13.8611C13.1646 36.016 12.6 35.4514 12.6 34.7549V22.1411C12.6 21.4446 13.1646 20.88 13.8611 20.88Z" fill="url(#paint0_linear_3_87)"/>
<path d="M19.262 24.3482H21.1196L24.1041 32.5471H22.3497L21.692 30.5918H18.6214L17.9754 32.5471H16.232L19.262 24.3482ZM21.2971 29.3286L20.3428 26.3613C20.2648 26.1438 20.2063 25.9197 20.1681 25.6918H20.1337C20.0982 25.926 20.0409 26.1564 19.9624 26.3798L18.9992 29.33L21.2971 29.3286Z" fill="white"/>
</g>
<defs>
<linearGradient id="paint0_linear_3_87" x1="15.2294" y1="19.8946" x2="25.1066" y2="37.0014" gradientUnits="userSpaceOnUse">
<stop stop-color="#B72C3F"/>
<stop offset="0.5" stop-color="#B12334"/>
<stop offset="1" stop-color="#9D1623"/>
</linearGradient>
<clipPath id="clip0_3_87">
<rect width="56" height="56" fill="white"/>
</clipPath>
</defs>
</svg>
