<svg width="150" height="98" viewBox="0 0 150 98" fill="none" xmlns="http://www.w3.org/2000/svg">
<path d="M147.413 98H2.58632C1.1581 98 0 96.8452 0 95.4209V2.57906C0 1.15485 1.1581 0 2.58632 0H147.414C148.842 0 150 1.15485 150 2.57906V95.4209C150 96.8454 148.842 98 147.413 98Z" fill="#41479B"/>
<path d="M72.4135 0.000274658H67.9212L43.9651 15.6517V0.000274658H31.0341V15.6517L7.07811 0.000274658H2.58632C1.1581 0.000274658 0 1.15483 0 2.57904V4.62465L20.5532 18.0525H0V30.9473H20.5532L0 44.3755V46.4211C0 47.8453 1.1581 49.0001 2.58632 49.0001H7.0787L31.0347 33.3487V49.0001H43.9657V33.3487L67.9215 49.0001H72.4138C73.842 49.0001 75.0002 47.8453 75.0002 46.4211V44.3755L54.447 30.9476H74.9999V18.0528H54.4467L74.9999 4.62494V2.57934C74.9999 1.15484 73.8418 0.000274658 72.4135 0.000274658Z" fill="#F5F5F5"/>
<path d="M74.9999 20.6319H41.3791V0.000274658H33.6207V20.6319H0V28.3685H33.6207V49.0001H41.3791V28.3685H74.9999V20.6319Z" fill="#FF4B55"/>
<path d="M28.4481 18.0528L1.23252 0.436157C0.5083 0.893073 0 1.66112 0 2.57905V2.71285L23.6979 18.0528H28.4481Z" fill="#FF4B55"/>
<path d="M48.7156 18.0528L74.6064 1.2936C74.1564 0.534318 73.3625 0.000274658 72.4135 0.000274658H71.8543L43.9654 18.0528H48.7156Z" fill="#FF4B55"/>
<path d="M26.213 30.9476L0.371765 47.6747C0.81737 48.4524 1.62362 49.0001 2.58631 49.0001H3.0741L30.9635 30.9476H26.213Z" fill="#FF4B55"/>
<path d="M74.9588 46.6235L50.7403 30.9476H45.9901L73.4922 48.7495C74.3161 48.3682 74.8812 47.5692 74.9588 46.6235Z" fill="#FF4B55"/>
<path d="M38.2825 63.0611L40.2345 69.4874L46.4902 67.0027C47.024 66.7906 47.5092 67.3977 47.1834 67.8692L43.3619 73.3978L49.2102 76.7256C49.7091 77.0096 49.5359 77.7663 48.9629 77.8063L42.2454 78.274L43.2828 84.9086C43.3713 85.4748 42.6699 85.8117 42.2815 85.3895L37.7264 80.4441L33.1713 85.3895C32.7829 85.8114 32.0815 85.4745 32.17 84.9086L33.2074 78.274L26.4899 77.8063C25.9169 77.7663 25.7437 77.0096 26.2426 76.7256L32.0909 73.3978L28.2694 67.8692C27.9436 67.3977 28.4288 66.7906 28.9626 67.0027L35.2183 69.4874L37.1703 63.0611C37.3376 62.5128 38.116 62.5128 38.2825 63.0611Z" fill="#F5F5F5"/>
<path d="M115.218 17.3692L116.172 20.5083L119.228 19.2948C119.488 19.1913 119.725 19.4876 119.566 19.7181L117.699 22.419L120.556 24.0448C120.8 24.1832 120.715 24.5531 120.435 24.5724L117.154 24.8008L117.66 28.0416C117.704 28.3183 117.361 28.4827 117.171 28.2765L114.946 25.8607L112.721 28.2765C112.531 28.4825 112.189 28.318 112.232 28.0416L112.738 24.8008L109.457 24.5724C109.177 24.5531 109.092 24.1832 109.336 24.0448L112.193 22.419L110.326 19.7181C110.167 19.4876 110.404 19.1913 110.665 19.2948L113.72 20.5083L114.674 17.3692C114.757 17.1013 115.137 17.1013 115.218 17.3692Z" fill="#F5F5F5"/>
<path d="M93.9555 41.4642L94.9091 44.6033L97.9648 43.3898C98.2252 43.2863 98.4625 43.5826 98.3031 43.8131L96.4366 46.514L99.2934 48.1398C99.5371 48.2782 99.4525 48.6481 99.1724 48.6674L95.8911 48.8958L96.3977 52.1366C96.441 52.4133 96.0983 52.5777 95.9084 52.3715L93.6833 49.9557L91.4582 52.3715C91.2684 52.5775 90.9259 52.413 90.969 52.1366L91.4755 48.8958L88.1943 48.6674C87.9142 48.6481 87.8295 48.2782 88.0733 48.1398L90.93 46.514L89.0635 43.8131C88.9041 43.5826 89.1414 43.2863 89.4019 43.3898L92.4575 44.6033L93.4112 41.4642C93.4938 41.1963 93.874 41.1963 93.9555 41.4642Z" fill="#F5F5F5"/>
<path d="M135.335 31.1483L136.288 34.2874L139.344 33.0738C139.604 32.9704 139.842 33.2666 139.682 33.4971L137.816 36.198L140.672 37.8238C140.916 37.9623 140.832 38.3321 140.551 38.3514L137.27 38.5799L137.777 41.8207C137.82 42.0973 137.477 42.2618 137.288 42.0555L135.063 39.6398L132.838 42.0555C132.648 42.2615 132.305 42.097 132.348 41.8207L132.855 38.5799L129.574 38.3514C129.294 38.3321 129.209 37.9623 129.453 37.8238L132.309 36.198L130.443 33.4971C130.284 33.2666 130.521 32.9704 130.781 33.0738L133.837 34.2874L134.791 31.1483C134.873 30.8804 135.253 30.8804 135.335 31.1483Z" fill="#F5F5F5"/>
<path d="M115.218 72.4115L116.172 75.5506L119.228 74.3368C119.488 74.2333 119.725 74.5296 119.566 74.7601L117.699 77.461L120.556 79.0868C120.8 79.2252 120.715 79.5951 120.435 79.6144L117.154 79.8428L117.66 83.0836C117.704 83.3603 117.361 83.5248 117.171 83.3185L114.946 80.9027L112.721 83.3185C112.531 83.5245 112.189 83.36 112.232 83.0836L112.738 79.8428L109.457 79.6144C109.177 79.5951 109.092 79.2252 109.336 79.0868L112.193 77.461L110.326 74.7601C110.167 74.5296 110.404 74.2333 110.665 74.3368L113.72 75.5506L114.674 72.4115C114.757 72.1436 115.137 72.1436 115.218 72.4115Z" fill="#F5F5F5"/>
<path d="M122.596 47.105L121.83 49.3942L119.411 49.4129C119.097 49.4156 118.967 49.8141 119.22 49.9996L121.166 51.4331L120.436 53.7338C120.342 54.0318 120.682 54.278 120.936 54.0963L122.905 52.6932L124.874 54.0963C125.129 54.278 125.469 54.0315 125.374 53.7338L124.644 51.4331L126.591 49.9996C126.843 49.8138 126.713 49.4156 126.4 49.4129L123.98 49.3942L123.215 47.105C123.115 46.8085 122.695 46.8085 122.596 47.105Z" fill="#F5F5F5"/>
</svg>
