<?xml version="1.0" encoding="utf-8"?>
<!-- Generator: Adobe Illustrator 26.0.1, SVG Export Plug-In . SVG Version: 6.00 Build 0)  -->
<svg version="1.1" id="Layer_1" xmlns="http://www.w3.org/2000/svg" xmlns:xlink="http://www.w3.org/1999/xlink" x="0px" y="0px"
	 viewBox="0 0 33 33" style="enable-background:new 0 0 33 33;" xml:space="preserve">
<style type="text/css">
	.st0{fill:none;}
	.st1{fill:#020553;}
	.st2{fill:#D7E7FF;}
</style>
<g>
	<rect x="2.8" y="3.3" class="st0" width="26.4" height="26.4"/>
	<g>
		<path class="st1" d="M21.9,22.4V6.2H4.3v17.6h0c0,2.4,2,4.4,4.4,4.4h13.7c3,0,5.4-2.4,5.4-5.3v-0.6H21.9z M8.7,26.8
			c-0.8,0-1.5-0.3-2.1-0.9c-0.6-0.6-0.9-1.3-0.9-2.1V7.7h14.7v14.7h-8.1v0.9C12.3,25.2,10.7,26.8,8.7,26.8z M25.1,25.6
			c-0.7,0.7-1.7,1.1-2.8,1.1H12.3c0.5-0.5,0.8-1,1.1-1.6c0.2-0.4,0.3-0.9,0.4-1.4h12.5C26,24.5,25.6,25.1,25.1,25.6z"/>
		<rect x="7.2" y="19.4" class="st1" width="11.7" height="1.5"/>
		<rect x="13.8" y="10.6" class="st1" width="5.1" height="1.5"/>
		<rect x="13.8" y="15" class="st1" width="3.7" height="1.5"/>
		<path class="st1" d="M8.9,16.8V18h1.4v-1.1c1.1-0.2,1.8-1,1.8-2c0-0.7-0.3-1.2-0.8-1.5c-0.4-0.3-1-0.4-1.5-0.6
			c-0.6-0.2-1.1-0.3-1.1-0.6c0-0.3,0.3-0.5,0.7-0.5c0.5,0,0.8,0.3,0.9,0.8l0,0.1H12v-0.1c0-0.5-0.1-1-0.4-1.4
			c-0.3-0.4-0.7-0.7-1.2-0.8V9.2H8.9v1.1c-0.5,0.1-0.9,0.3-1.2,0.7c-0.3,0.3-0.5,0.8-0.5,1.3c0,0.6,0.2,1.1,0.7,1.5
			c0.4,0.3,1,0.4,1.5,0.6c0.7,0.2,1.2,0.3,1.2,0.7c0,0.4-0.4,0.6-0.9,0.6c-0.6,0-1-0.3-1-0.8v-0.1H7.2v0.1
			C7.2,15.7,7.9,16.6,8.9,16.8z"/>
	</g>
</g>
<path class="st2" d="M25.1,25.6c-0.7,0.7-1.7,1.1-2.8,1.1H12.3c0.5-0.5,0.8-1,1.1-1.6c0.2-0.4,0.3-0.9,0.4-1.4h12.5
	C26,24.5,25.6,25.1,25.1,25.6z"/>
</svg>
