<?xml version="1.0" encoding="utf-8"?>
<!-- Generator: Adobe Illustrator 26.0.1, SVG Export Plug-In . SVG Version: 6.00 Build 0)  -->
<svg version="1.1" id="Layer_1" xmlns="http://www.w3.org/2000/svg" xmlns:xlink="http://www.w3.org/1999/xlink" x="0px" y="0px"
	 viewBox="0 0 24 24" style="enable-background:new 0 0 24 24;" xml:space="preserve">
<style type="text/css">
	.st0{fill:none;}
	.st1{fill:#020553;}
	.st2{fill:#D7E7FF;}
</style>
<g>
	<g>
		<rect x="-1.5" y="-1.9" class="st0" width="27" height="27"/>
		<path class="st1" d="M21,7.1V2.6h-3.8C15,2.6,13,3.8,12,5.7c-1-1.8-3-3.1-5.3-3.1H3v4.5H0v13.5h24V7.1H21z M14.1,5.4
			c0.9-0.9,2-1.3,3.2-1.3h2.3v3v1.5v6.2H18c-1.4,0-2.8,0.4-3.9,1.1c-0.5,0.3-0.9,0.6-1.3,1V10V8.6c0-0.1,0-0.1,0-0.2
			C12.8,7.3,13.3,6.2,14.1,5.4z M4.5,4.1h2.3c1.2,0,2.3,0.5,3.2,1.3c0.8,0.8,1.3,1.9,1.3,3c0,0.1,0,0.1,0,0.2V10v6.9
			c-0.4-0.4-0.8-0.7-1.3-1c-1.2-0.7-2.5-1.1-3.9-1.1H4.5V8.6V7.1V4.1z M1.5,19.1V8.6H3v7.7h3c2.2,0,4,1.1,5.1,2.8H1.5z M22.5,19.1
			h-9.6c1.1-1.7,2.9-2.8,5.1-2.8h3V8.6h1.5V19.1z"/>
	</g>
	<path class="st2" d="M1.5,19.1V8.6H3v7.7h3c2.2,0,4,1.1,5.1,2.8H1.5z"/>
	<path class="st2" d="M22.5,19.1h-9.6c1.1-1.7,2.9-2.8,5.1-2.8h3V8.6h1.5V19.1z"/>
</g>
</svg>
