<svg id="Carbon_Neutral" xmlns="http://www.w3.org/2000/svg" viewBox="0 0 771.97 850"><defs><style>.cls-1{fill:#545963;}.cls-2{fill:#fff;}</style></defs><path class="cls-1" d="M162,357A78.46,78.46,0,0,1,192.5,304.2c76.7-58.12,247.86-153.89,317-183a78.42,78.42,0,0,1,60.92,0c88.68,37.36,257.2,137.7,317,183A78.44,78.44,0,0,1,918,357c12,95.48,9.34,291.6,0,366.08A78.46,78.46,0,0,1,887.5,775.8c-76.7,58.12-247.86,153.89-317,183a78.42,78.42,0,0,1-60.92,0c-88.68-37.36-257.2-137.7-317-183A78.44,78.44,0,0,1,162,723C150.06,627.56,152.7,431.44,162,357Z" transform="translate(-154.01 -115)"></path><path class="cls-2" d="M373.38,567.73a32.58,32.58,0,0,1,22.93,8.93c2.45,2.26,1.79,7.05-.84,9.4a6.84,6.84,0,0,1-8.84.1,19,19,0,0,0-13.25-5.08c-10.72,0-18.8,8.84-18.8,19.83s8.08,19.84,18.8,19.84a19,19,0,0,0,13.25-5.08,6.84,6.84,0,0,1,8.84.09c2.63,2.35,3.29,7.15.84,9.4a32.53,32.53,0,0,1-22.93,8.93c-18.52,0-32.52-14.76-32.52-33.18S354.86,567.73,373.38,567.73Z" transform="translate(-154.01 -115)"></path><path class="cls-2" d="M424.7,617.92l-4.41,11.85c-1.23,3.19-5.17,4.7-8.65,3.57a7,7,0,0,1-4.14-8.55l18.71-50.38a9.25,9.25,0,0,1,9.3-6.4h.57a9.25,9.25,0,0,1,9.3,6.4l18.71,50.38a7,7,0,0,1-4.14,8.55c-3.48,1.13-7.42-.38-8.64-3.57l-4.42-11.85ZM442.38,606l-6.58-22.56L429.22,606Z" transform="translate(-154.01 -115)"></path><path class="cls-2" d="M512.12,608.71l10.53,15.14c1.88,2.82.66,7-2.54,8.93a6.73,6.73,0,0,1-8.93-1.88l-12.4-20.49h-6.3v16.91a6.7,6.7,0,0,1-6.86,6.4c-3.58,0-6.86-3-6.86-6.4V575.53c.09-3.85,2.44-7,6.57-7h19.84c14.47,0,21.33,10.34,21.52,20.87C526.41,597.81,521.71,605.89,512.12,608.71Zm-19.64-28.1v18.23h12.31c5.36,0,8.18-4.88,8.18-9.11,0-4-2.63-9.12-7.8-9.12Z" transform="translate(-154.01 -115)"></path><path class="cls-2" d="M549.16,633.25c-3.48,0-5.45-2.73-5.45-5.83V574.31c.09-3.19,2-5.83,5.45-5.83h20.49c11.66,0,19.18,7,19.18,18,0,4.23-2.17,9.59-8.84,12.13a15.73,15.73,0,0,1,12.22,14.75c0,10.72-7.8,19.84-20.68,19.84Zm19.17-38.92c3.58,0,6-3,6-6.86,0-4-2.07-6.86-6.11-6.86H557.53v13.72Zm-10.8,10.91v15.88h13.25c4.6,0,7-4.23,7-8.08,0-3.67-2.35-7.8-7.23-7.8Z" transform="translate(-154.01 -115)"></path><path class="cls-2" d="M638.36,567.73A33.18,33.18,0,1,1,605.56,601C605.56,582.58,620,567.73,638.36,567.73Zm0,53c11,0,19.18-8.93,19.18-19.74s-8.18-19.93-19.18-19.93S619.28,590.2,619.28,601,627.37,620.75,638.36,620.75Z" transform="translate(-154.01 -115)"></path><path class="cls-2" d="M736.5,626.85c0,3.86-2.82,6.87-6.11,6.87h-1.22c-2.82,0-5.17-.94-7.34-4.7l-20.11-35v33.27a6.7,6.7,0,0,1-6.86,6.4c-3.57,0-6.86-3-6.86-6.4V575.06c0-3.94,2.91-7,6.29-7h1.23c2.91,0,5.45.94,7.61,4.8l19.64,34.4v-32.8c0-3.39,3.29-6.4,6.87-6.4a6.7,6.7,0,0,1,6.86,6.4Z" transform="translate(-154.01 -115)"></path><path class="cls-2" d="M382.17,720.85c0,3.86-2.82,6.87-6.11,6.87h-1.22c-2.82,0-5.17-.94-7.34-4.7l-20.11-35v33.27a6.7,6.7,0,0,1-6.86,6.4c-3.57,0-6.86-3-6.86-6.4V669.06c0-3.94,2.91-7,6.29-7h1.23c2.91,0,5.45.94,7.61,4.8l19.64,34.4v-32.8c0-3.39,3.29-6.4,6.87-6.4a6.7,6.7,0,0,1,6.86,6.4Z" transform="translate(-154.01 -115)"></path><path class="cls-2" d="M437.72,662.48a5.9,5.9,0,0,1,5.64,6.11c0,3.11-2.63,6-5.64,6H416.1v14.85h18.71a5.78,5.78,0,0,1,5.64,5.92,6,6,0,0,1-5.64,5.92H416.1v13.91h22.47a5.87,5.87,0,0,1,5.64,6c0,3.1-2.63,6-5.64,6H407.83c-3.48,0-5.36-2.64-5.45-5.83V668.31c.09-3.19,2-5.83,5.45-5.83Z" transform="translate(-154.01 -115)"></path><path class="cls-2" d="M485.29,728.09c-13.35,0-25.19-9.4-25.19-24.06V668.41A7,7,0,0,1,467,662a6.7,6.7,0,0,1,6.86,6.4V704a11.38,11.38,0,0,0,22.75,0V668.41a6.7,6.7,0,0,1,6.86-6.4,7,7,0,0,1,6.86,6.4V704c0,14.66-11.84,24.06-25.19,24.06Z" transform="translate(-154.01 -115)"></path><path class="cls-2" d="M555.88,674.61v46.71a6.7,6.7,0,0,1-6.86,6.4c-3.57,0-6.86-3-6.86-6.4V674.61H529.75c-2.91,0-5.64-2.91-5.64-6a5.9,5.9,0,0,1,5.64-6.11h38.54a5.9,5.9,0,0,1,5.64,6.11c0,3.11-2.73,6-5.64,6Z" transform="translate(-154.01 -115)"></path><path class="cls-2" d="M621.49,702.71,632,717.85c1.88,2.82.66,7-2.54,8.93a6.73,6.73,0,0,1-8.93-1.88l-12.41-20.49h-6.29v16.91a6.7,6.7,0,0,1-6.86,6.4c-3.58,0-6.87-3-6.87-6.4V669.53c.1-3.85,2.45-7,6.58-7h19.84c14.47,0,21.33,10.34,21.52,20.87C635.78,691.81,631.08,699.89,621.49,702.71Zm-19.64-28.1v18.23h12.31c5.36,0,8.18-4.88,8.18-9.11,0-4-2.63-9.12-7.8-9.12Z" transform="translate(-154.01 -115)"></path><path class="cls-2" d="M663.79,711.92l-4.41,11.85c-1.22,3.19-5.17,4.7-8.65,3.57a7,7,0,0,1-4.14-8.55l18.71-50.38a9.25,9.25,0,0,1,9.3-6.4h.57a9.25,9.25,0,0,1,9.3,6.4l18.71,50.38a7,7,0,0,1-4.14,8.55c-3.48,1.13-7.42-.38-8.65-3.57L686,711.92ZM681.47,700l-6.58-22.56L668.31,700Z" transform="translate(-154.01 -115)"></path><path class="cls-2" d="M731.66,715.21h18.71a5.87,5.87,0,0,1,5.64,6,6.14,6.14,0,0,1-5.64,6h-27c-3.48,0-5.45-2.64-5.45-5.83v-53a7,7,0,0,1,6.86-6.4,6.7,6.7,0,0,1,6.86,6.4Z" transform="translate(-154.01 -115)"></path><path class="cls-2" d="M597,855.52l25.24-59.29H610.89s-.79,0-1.31,1.34l-11.34,29.27a1.23,1.23,0,0,1-1.14.79h0a1.23,1.23,0,0,1-1.14-.79l-11.11-29.27c-.52-1.33-1.28-1.34-1.31-1.34H572.17l19,46.73-.1.24-8.48,20.48h2.9c4.52,0,9.71-3.66,11.57-8.16Z" transform="translate(-154.01 -115)"></path><path class="cls-2" d="M561.78,845.59h10V817.15c0-6.83-2.16-12.53-6.26-16.5-3.9-3.78-9.28-5.78-15.57-5.78a19,19,0,0,0-10,2.51,2.27,2.27,0,0,1-2.32.35,2.32,2.32,0,0,1-1-2.1V777.07a1.11,1.11,0,0,0-1.25-1.16h-10v69.68h10a1.12,1.12,0,0,0,1.25-1.17V820.13c0-9.27,4.59-14.8,12.28-14.8,8,0,11.55,4.54,11.55,14.71v24.38A1.12,1.12,0,0,0,561.78,845.59Z" transform="translate(-154.01 -115)"></path><path class="cls-2" d="M503.46,839.82c3.9,3.79,9.28,5.79,15.57,5.79h.38v-9.41c0-.42-.15-1-1.39-1.16a9.59,9.59,0,0,1-6.32-3c-2.14-2.39-3.22-6.3-3.22-11.62V808.74a2.06,2.06,0,0,1,2.06-2.06h6.17V796.23h-8.23V777.07a1.12,1.12,0,0,0-1.25-1.16h-10v20.32H489v10.45h6.18a2.06,2.06,0,0,1,2.05,2.06v14.58C497.2,830.15,499.37,835.86,503.46,839.82Z" transform="translate(-154.01 -115)"></path><path class="cls-2" d="M639.54,823.36v0a2.16,2.16,0,0,0-.94-1.75c-1.11-.62-2.87.19-2.88.2l0,0a56,56,0,0,0-14.15,7.85c-4.22,3.46-3.73,9.89-3.17,13.07a17.64,17.64,0,0,1,1.83-2.46,22.67,22.67,0,0,1,2.58-2.4l1.92-1.55.56-.44.12-.09c.48-.36,1-.71,1.43-1l1.24-.91c1-.73,1.77-1.37,2.49-2a26.78,26.78,0,0,0,2.24-2.28,27.5,27.5,0,0,0,1.92-2.56.62.62,0,0,1,.85-.18.61.61,0,0,1,.2.8,27.89,27.89,0,0,1-1.76,2.89,27.21,27.21,0,0,1-2.15,2.64,44.71,44.71,0,0,1-3.68,3.5l-1.2,1.07-.1.09-.46.44-.59.58L624.59,840a18.69,18.69,0,0,0-2.06,2.26,14,14,0,0,0-2,3.6,11.51,11.51,0,0,0,3.23.72c5.07.35,9-.95,11.7-3.85C641.1,836.66,639.85,825.53,639.54,823.36Z" transform="translate(-154.01 -115)"></path><path class="cls-2" d="M480.51,829.2a2.05,2.05,0,0,0-1.87,1.08,14.88,14.88,0,0,1-12.81,7.08,15.1,15.1,0,0,1-11.92-5.82c-6.07-7.58-3.52-16.78-.49-20.79a15.52,15.52,0,0,1,11.06-6.07c2-.12,6.95-.07,8.39,3.15a4,4,0,0,1-1,4.54l-4.45,4.4-4.8-4.76-7.31,7.23L467.16,831a.35.35,0,0,0,.26.12h0a.33.33,0,0,0,.23-.1l11.54-11.38a14,14,0,0,0,3-16.21c-1-2.09-5.15-8.93-16-8.93a25.84,25.84,0,0,0-19.49,8.25c-8.48,9.15-10.63,25.42.43,36.81a25.53,25.53,0,0,0,18.34,8c5.34,0,18.39-1.79,24.88-18.27Z" transform="translate(-154.01 -115)"></path><path class="cls-2" d="M503.91,405.73c-17.18,0-30.65-13.75-30.65-31.3s13.47-31.31,30.65-31.31a30.81,30.81,0,0,1,21.63,8.41,3.47,3.47,0,0,1,.94,2.57,5.6,5.6,0,0,1-1.74,4,5,5,0,0,1-3.26,1.19,4.63,4.63,0,0,1-3.06-1.1,21,21,0,0,0-14.51-5.55c-11.61,0-20.71,9.54-20.71,21.74s9.1,21.74,20.71,21.74a21,21,0,0,0,14.56-5.6,4.65,4.65,0,0,1,3-1.06,5.06,5.06,0,0,1,3.29,1.21,5.67,5.67,0,0,1,1.71,4,3.47,3.47,0,0,1-.91,2.55,30.86,30.86,0,0,1-21.66,8.43" transform="translate(-154.01 -115)"></path><path class="cls-2" d="M567.31,405.73a31.1,31.1,0,0,1-30.93-31.21c0-17.61,13.59-31.4,30.93-31.4s31,13.79,31,31.4a31.14,31.14,0,0,1-31,31.21m0-53c-11.77,0-21,9.59-21,21.83s9.22,21.65,21,21.65,21.08-9.51,21.08-21.65-9.26-21.83-21.08-21.83" transform="translate(-154.01 -115)"></path><path class="cls-2" d="M610.3,422.57c-1.7,0-2.72-.88-2.72-2.34a4.56,4.56,0,0,1,1.06-2.64L622.08,401c1-1.33,2-2.87,2-4.42,0-2.06-1.75-4.15-5.08-4.15a5.47,5.47,0,0,0-5,3.66,3.39,3.39,0,0,1-3.16,2.19,4.31,4.31,0,0,1-1.2-.18,3,3,0,0,1-1.74-1.47,3.39,3.39,0,0,1-.19-2.64c1.77-5.22,6.07-8.22,11.78-8.22,6.7,0,11.76,4.64,11.76,10.81a12.43,12.43,0,0,1-3.73,9.06l-7.84,9a.77.77,0,0,0-.12.82.75.75,0,0,0,.69.44h8.27a3.4,3.4,0,0,1,0,6.76Z" transform="translate(-154.01 -115)"></path><path class="cls-2" d="M524.35,469.37h-68.8c-28.9,0-53.49-17.56-62.67-44.7-9.84-29.11,3.51-62,31.07-76.53.94-.49.94-.49,1-1.39,2.36-21.88,13.26-38.62,32.42-49.75,14.56-8.47,30.66-10.65,47.88-6.48l1.44.34.63-.88c18.52-25.49,43.3-37.34,73.81-35.39,34.12,2.17,63.35,26.16,72.72,59.71a75.81,75.81,0,0,1,2.06,33.07c30.15,15.86,38.23,47.48,32.86,71.82-6.41,29-29.58,48.67-59,50.07q-2.4.12-4.8.12H600.15a4.74,4.74,0,0,1,0-9.48H625c1.45,0,2.91,0,4.35-.1,30.44-1.45,46.09-23.88,50.23-42.65,4.27-19.33-.54-47-28.13-61.45-4-2.09-5.59-5.3-4.84-9.81a66.35,66.35,0,0,0-1.82-29c-8.29-29.67-34.08-50.89-64.19-52.8-27.43-1.76-48.82,8.49-65.39,31.29-3.78,5.22-5.78,5.93-12,4.43-14.92-3.61-28.67-1.77-41,5.42-16.41,9.54-25.75,23.86-27.76,42.56a10.48,10.48,0,0,1-6,8.78c-23.48,12.37-34.88,40.36-26.51,65.11,8,23.58,28.55,38.24,53.69,38.25q51.69,0,103.37,0h6.51a4.74,4.74,0,0,1,0,9.48H524.35ZM655.86,348Zm-.5-1Z" transform="translate(-154.01 -115)"></path></svg>