<svg width="55" height="55" viewBox="0 0 55 55" fill="none" xmlns="http://www.w3.org/2000/svg">
<path d="M36.6668 42.7778C36.6668 44.4095 36.0313 45.9434 34.8763 47.0984C33.7213 48.2534 32.1874 48.8889 30.5557 48.8889H18.3335V15.29H36.6668V42.7778Z" fill="white"/>
<path d="M48.8891 21.4133H39.7224V15.29H44.3058V12.2344H39.7224H15.278H10.6947V15.29H15.278V21.4133H6.11133V6.11108H48.8891V21.4133Z" fill="#D7E7FF"/>
<path d="M48.1249 32.1383H45.0693V48.125H48.1249V32.1383Z" fill="#020553"/>
<path d="M41.25 32.1384H51.9444L46.5972 26.7911L41.25 32.1384Z" fill="#020553"/>
<path d="M3.05566 3.05554V24.4689H15.2779V51.9444H30.5557C35.6157 51.9444 39.7223 47.8378 39.7223 42.7778V24.4689H51.9446V3.05554H3.05566ZM36.6668 42.7778C36.6668 44.4094 36.0312 45.9433 34.8762 47.0983C33.7212 48.2533 32.1873 48.8889 30.5557 48.8889H18.3334V15.29H36.6668V42.7778ZM48.889 21.4133H39.7223V15.29H44.3057V12.2344H10.6946V15.29H15.2779V21.4133H6.11122V6.1111H48.889V21.4133Z" fill="#020553"/>
<path d="M27.4998 24.4689C24.1325 24.4689 21.4009 27.2005 21.4009 30.5678C21.4009 33.935 24.1325 36.6667 27.4998 36.6667C30.867 36.6667 33.5987 33.935 33.5987 30.5678C33.5987 27.2005 30.867 24.4689 27.4998 24.4689ZM27.4998 33.6111C25.8192 33.6111 24.4564 32.2483 24.4564 30.5678C24.4564 28.8872 25.8192 27.5244 27.4998 27.5244C29.1803 27.5244 30.5431 28.8872 30.5431 30.5678C30.5431 32.2483 29.1803 33.6111 27.4998 33.6111Z" fill="#020553"/>
<path d="M27.4999 33.6111C25.8193 33.6111 24.4565 32.2483 24.4565 30.5677C24.4565 28.8872 25.8193 27.5244 27.4999 27.5244C29.1804 27.5244 30.5432 28.8872 30.5432 30.5677C30.5432 32.2483 29.1804 33.6111 27.4999 33.6111Z" fill="#D7E7FF"/>
</svg>
