<svg width="82" height="82" viewBox="0 0 82 82" fill="none" xmlns="http://www.w3.org/2000/svg">                             <rect x="21" y="34" width="39" height="10" fill="#ADA1CF"></rect>                             <rect x="21" y="49" width="39" height="10" fill="#ADA1CF"></rect>                             <rect x="21" y="64" width="39" height="10" fill="#ADA1CF"></rect>                             <path d="M65.7827 50.634C73.8783 49.147 79 41.8775 79 32.7906C79 24.5298 71.7305 17.0951 64.1306 17.0951C60.661 17.0951 58.1828 18.0864 56.2002 19.4081" stroke="#412D7D" stroke-width="2" stroke-miterlimit="10" stroke-linecap="round" stroke-linejoin="round"></path>                             <path d="M21.1738 23.7038L19.6868 23.3734C16.8782 22.7125 14.0695 22.8777 12.0869 23.7038C6.63476 25.8516 3 31.1385 3 36.5906C3 43.6949 8.28692 49.808 15.3912 50.9645" stroke="#412D7D" stroke-width="2" stroke-miterlimit="10" stroke-linecap="round" stroke-linejoin="round"></path>                             <path d="M63.304 17.2603C60.8257 8.17341 52.5649 1.39954 42.6519 1.39954C30.7564 1.39954 21.1738 10.9821 21.1738 22.8777C21.1738 25.5211 21.5043 27.0081 21.5043 27.0081" stroke="#412D7D" stroke-width="2" stroke-miterlimit="10" stroke-linecap="round" stroke-linejoin="round"></path>                             <path d="M52.1738 40.4426C52.7261 40.4426 53.1738 39.9949 53.1738 39.4426C53.1738 38.8903 52.7261 38.4426 52.1738 38.4426C51.6215 38.4426 51.1738 38.8903 51.1738 39.4426C51.1738 39.9949 51.6215 40.4426 52.1738 40.4426Z" fill="#412D7D"></path>                             <path d="M52.1738 55.4426C52.7261 55.4426 53.1738 54.9949 53.1738 54.4426C53.1738 53.8903 52.7261 53.4426 52.1738 53.4426C51.6215 53.4426 51.1738 53.8903 51.1738 54.4426C51.1738 54.9949 51.6215 55.4426 52.1738 55.4426Z" fill="#412D7D"></path>                             <path d="M52.1738 70.4425C52.7261 70.4425 53.1738 69.9948 53.1738 69.4425C53.1738 68.8902 52.7261 68.4425 52.1738 68.4425C51.6215 68.4425 51.1738 68.8902 51.1738 69.4425C51.1738 69.9948 51.6215 70.4425 52.1738 70.4425Z" fill="#412D7D"></path>                             <path d="M40.1757 74.4425V80.4425H30.1758" stroke="#412D7D" stroke-width="2" stroke-miterlimit="10" stroke-linecap="round" stroke-linejoin="round"></path>                             <path d="M40.1738 80.4425H50.1738" stroke="#412D7D" stroke-width="2" stroke-miterlimit="10" stroke-linecap="round" stroke-linejoin="round"></path>                             <path d="M40.1738 49.4426V44.4426" stroke="#412D7D" stroke-width="2" stroke-miterlimit="10" stroke-linecap="round" stroke-linejoin="round"></path>                             <path d="M27.1738 40.4426C27.7261 40.4426 28.1738 39.9949 28.1738 39.4426C28.1738 38.8903 27.7261 38.4426 27.1738 38.4426C26.6215 38.4426 26.1738 38.8903 26.1738 39.4426C26.1738 39.9949 26.6215 40.4426 27.1738 40.4426Z" fill="#412D7D"></path>                             <path d="M32.1738 40.4426C32.7261 40.4426 33.1738 39.9949 33.1738 39.4426C33.1738 38.8903 32.7261 38.4426 32.1738 38.4426C31.6215 38.4426 31.1738 38.8903 31.1738 39.4426C31.1738 39.9949 31.6215 40.4426 32.1738 40.4426Z" fill="#412D7D"></path>                             <path d="M59.1736 34.4427H21.1738V44.4427H59.1736V34.4427Z" stroke="#412D7D" stroke-width="2" stroke-miterlimit="10" stroke-linecap="round" stroke-linejoin="round"></path>                             <path d="M40.1738 64.4423V59.4424" stroke="#412D7D" stroke-width="2" stroke-miterlimit="10" stroke-linecap="round" stroke-linejoin="round"></path>                             <path d="M27.1738 55.4426C27.7261 55.4426 28.1738 54.9949 28.1738 54.4426C28.1738 53.8903 27.7261 53.4426 27.1738 53.4426C26.6215 53.4426 26.1738 53.8903 26.1738 54.4426C26.1738 54.9949 26.6215 55.4426 27.1738 55.4426Z" fill="#412D7D"></path>                             <path d="M32.1738 55.4426C32.7261 55.4426 33.1738 54.9949 33.1738 54.4426C33.1738 53.8903 32.7261 53.4426 32.1738 53.4426C31.6215 53.4426 31.1738 53.8903 31.1738 54.4426C31.1738 54.9949 31.6215 55.4426 32.1738 55.4426Z" fill="#412D7D"></path>                             <path d="M59.1736 59.4428H21.1738V49.4429H59.1736V59.4428Z" stroke="#412D7D" stroke-width="2" stroke-miterlimit="10" stroke-linecap="round" stroke-linejoin="round"></path>                             <path d="M27.1738 70.4425C27.7261 70.4425 28.1738 69.9948 28.1738 69.4425C28.1738 68.8902 27.7261 68.4425 27.1738 68.4425C26.6215 68.4425 26.1738 68.8902 26.1738 69.4425C26.1738 69.9948 26.6215 70.4425 27.1738 70.4425Z" fill="#412D7D"></path>                             <path d="M32.1738 70.4425C32.7261 70.4425 33.1738 69.9948 33.1738 69.4425C33.1738 68.8902 32.7261 68.4425 32.1738 68.4425C31.6215 68.4425 31.1738 68.8902 31.1738 69.4425C31.1738 69.9948 31.6215 70.4425 32.1738 70.4425Z" fill="#412D7D"></path>                             <path d="M59.1736 74.4423H21.1738V64.4424H59.1736" stroke="#412D7D" stroke-width="2" stroke-miterlimit="10" stroke-linecap="round" stroke-linejoin="round"></path>                         </svg>