<svg id="Layer_1" data-name="Layer 1" xmlns="http://www.w3.org/2000/svg" xmlns:xlink="http://www.w3.org/1999/xlink" viewBox="0 0 254.87 60.87"><defs><style>.cls-1{fill:none;}.cls-2{fill:#020553;}.cls-3{fill:#82d1f5;}.cls-4{clip-path:url(#clip-path);}</style><clipPath id="clip-path"><path class="cls-1" d="M0,30.82A13.07,13.07,0,1,0,13.07,17.75,13.07,13.07,0,0,0,0,30.82H0"/></clipPath></defs><path class="cls-2" d="M97.85,37.33a30.65,30.65,0,0,1-60.46-7A30,30,0,0,1,67.06,0h.45C82.63,0,94.87,10,97.75,24H80.47c-1.85-3.91-5.24-8-12.34-8a12.28,12.28,0,0,0-9.87,4,15.71,15.71,0,0,0-3.7,10.49C54.56,38.82,60,45,68.13,45c7.1,0,10.49-4.11,12.34-7.61Z"/><path class="cls-2" d="M101.26,30.34C101.26,16.45,111.23.1,132,.1s30.75,16.35,30.75,30.33-10,30.33-30.75,30.33-30.75-16.35-30.75-30.33Zm17.07.2c0,8.23,6.27,14.29,13.68,14.29s13.68-6.06,13.68-14.39S139.41,16,132,16s-13.68,6.07-13.68,14.4Z"/><path class="cls-2" d="M167.27,2h15.94V8a13.52,13.52,0,0,1,3.49-4c2.47-2.06,6.48-4,12.44-4A17.44,17.44,0,0,1,212.2,5.45a19.49,19.49,0,0,1,3.39,4.73,23.74,23.74,0,0,1,4.11-4.94A20.27,20.27,0,0,1,233.7,0c4,0,10.39.93,15,5.76,5.35,5.66,6.17,9.46,6.17,22.11V59H237.81V28.69c0-2.37,0-5.45-1.13-8S233.49,16,229.07,16c-4.73,0-7.1,2.16-8.23,4.73a16.43,16.43,0,0,0-1.23,7.09V59H202.54V28a19.44,19.44,0,0,0-1-7.09A7.46,7.46,0,0,0,194,16c-4.83,0-7.2,2.26-8.43,5a18.85,18.85,0,0,0-1.23,7.61V59H167.27Z"/><path class="cls-3" d="M0,30.82A13.07,13.07,0,1,0,13.07,17.75,13.07,13.07,0,0,0,0,30.82H0"/><g class="cls-4"><rect class="cls-3" y="17.75" width="26.14" height="26.14"/></g></svg>