<svg width="240" height="240" viewBox="0 0 240 240" fill="none" xmlns="http://www.w3.org/2000/svg">
<path d="M13.5822 33.3335V180H93.24V203.92H73.3333V217.254H166.667V203.92H146.76V180H186.916C197.524 180 207.698 175.786 215.2 168.284C222.701 160.783 226.916 150.609 226.916 140V33.3335H13.5822ZM213.582 46.6668V140H26.9155V46.6668H213.582ZM133.427 180V203.92H106.573V180H133.427ZM186.916 166.667H26.9155V153.334H210.027C208.857 155.351 207.429 157.208 205.778 158.856C203.307 161.341 200.367 163.311 197.129 164.651C193.892 165.992 190.42 166.677 186.916 166.667Z" fill="#020553"/>
<path d="M186.916 166.667H26.9156V153.333H210.027C208.857 155.351 207.429 157.208 205.778 158.856C203.307 161.341 200.367 163.311 197.129 164.651C193.892 165.992 190.42 166.677 186.916 166.667Z" fill="#DAE7FD"/>
</svg>
