<svg width="55" height="55" fill="none" xmlns="http://www.w3.org/2000/svg"><path d="M37.853 29.069a10.154 10.154 0 0 0 3.917-8.024c0-5.619-4.554-10.174-10.174-10.174-5.619 0-10.174 4.555-10.174 10.174a10.15 10.15 0 0 0 3.918 8.023c-8.178 2.64-14.092 10.314-14.092 19.37h40.697c0-9.056-5.915-16.73-14.092-19.37Zm-12.768-5.326a7.061 7.061 0 1 1 6.543 4.346h-.064a7.054 7.054 0 0 1-6.479-4.346ZM14.661 45.31a17.2 17.2 0 0 1 16.913-14.087h.047a17.203 17.203 0 0 1 16.912 14.085l-33.872.002Z" fill="#020553"/><path d="M6.468 41a17.194 17.194 0 0 1 16.819-14.085 9.943 9.943 0 0 1-1.541-3.33A7.047 7.047 0 1 1 28.1 11.488c1.12-.41 2.303-.618 3.496-.617.04 0 .079.003.12.003a10.16 10.16 0 0 0-8.313-4.311c-5.62 0-10.174 4.555-10.174 10.174a10.158 10.158 0 0 0 3.917 8.024C8.97 27.398 3.056 35.073 3.056 44.129h8.652c.23-1.067.546-2.113.945-3.129H6.468Z" fill="#020553"/><path d="M23.404 9.693a7.043 7.043 0 0 0-1.658 13.892A10.168 10.168 0 0 1 28.1 11.488a6.99 6.99 0 0 0-4.697-1.795ZM11.229 31.956A17.175 17.175 0 0 0 6.468 41h6.185A20.405 20.405 0 0 1 25.34 29.068a10.131 10.131 0 0 1-2.053-2.153 17.134 17.134 0 0 0-12.058 5.042v-.001Z" fill="#DAE7FD"/></svg>