<svg xmlns="http://www.w3.org/2000/svg" viewBox="0 0 214.53 59.38"><defs><style>.cls-1{fill:#ffcb07;}.cls-2{fill:#020553;}</style></defs><title>logo.design.svg</title><g id="Layer_2" data-name="Layer 2"><g id="Layer_1-2" data-name="Layer 1"><path class="cls-1" d="M8.48,28.8A8.48,8.48,0,1,0,17,37.28,8.48,8.48,0,0,0,8.48,28.8Z"/><path class="cls-2" d="M37.59,12.19c7.58,0,10.11,5.19,10.11,5.19h.13a18.49,18.49,0,0,1-.13-2.2V0H54V45.76H48V42.65c0-1.3.06-2.2.06-2.2H48S45.3,46.54,37.2,46.54c-8.88,0-14.45-7-14.45-17.18C22.75,18.93,28.9,12.19,37.59,12.19Zm.84,28.91c4.86,0,9.46-3.44,9.46-11.8,0-5.83-3-11.67-9.27-11.67-5.19,0-9.46,4.28-9.46,11.73C29.16,36.49,33,41.1,38.43,41.1Z"/><path class="cls-2" d="M78.61,12.19c9.27,0,14.2,6.87,14.2,15.36,0,.84-.19,2.72-.19,2.72H68.69C69,37.47,74.14,41.1,80,41.1a15.64,15.64,0,0,0,9.72-3.82l2.59,4.6a19.52,19.52,0,0,1-12.7,4.67c-10.31,0-17.37-7.45-17.37-17.18C62.21,18.93,69.28,12.19,78.61,12.19Zm7.78,13.35c-.19-5.64-3.69-8.36-7.91-8.36-4.8,0-8.69,3-9.59,8.36Z"/><path class="cls-2" d="M102.91,37.27a14.07,14.07,0,0,0,9.4,3.82c2.72,0,5.45-1.43,5.45-4.08,0-6-16.85-4.8-16.85-15.49,0-6,5.31-9.33,11.86-9.33,7.2,0,10.57,3.63,10.57,3.63l-2.53,4.73a12,12,0,0,0-8.1-2.92c-2.72,0-5.38,1.17-5.38,4,0,5.9,16.85,4.6,16.85,15.36,0,5.44-4.67,9.53-11.86,9.53a17.63,17.63,0,0,1-12.45-4.8Z"/><path class="cls-2" d="M131.34,0h6.35V6.42h-6.35Zm.06,13h6.29v32.8h-6.29Z"/><path class="cls-2" d="M160,53.93c5.7,0,10.37-2.53,10.37-9.2v-2.4c0-1,.06-2.07.06-2.07h-.13c-1.94,3.24-5,5.12-9.72,5.12-9.14,0-14.65-7.32-14.65-16.79s5.25-16.4,14.33-16.4c7.91,0,10.31,4.86,10.31,4.86h.13a8.19,8.19,0,0,1-.06-1V13h6V44.4c0,10.83-8.23,15-16.53,15a25.55,25.55,0,0,1-11.21-2.72L151,51.73A21.13,21.13,0,0,0,160,53.93Zm10.5-25.28c0-8.56-4.15-11-9.27-11-5.7,0-8.95,4.15-8.95,10.83s3.63,11.47,9.53,11.47C166.33,39.93,170.47,37.21,170.47,28.65Z"/><path class="cls-2" d="M184.84,13h6.09v4.34a23.12,23.12,0,0,1-.13,2.4h.13a13.35,13.35,0,0,1,12.32-7.52c7.71,0,11.28,4.21,11.28,12.58v21h-6.29V26.19c0-4.6-1-8.23-6.22-8.23a10.74,10.74,0,0,0-10.37,8,15.51,15.51,0,0,0-.52,4.41V45.76h-6.29Z"/></g></g></svg>