<svg id="Layer_1" data-name="Layer 1" xmlns="http://www.w3.org/2000/svg" viewBox="0 0 170.69 126.97"><defs><style>.cls-1{fill:#020553;}</style></defs><title>logo.io</title><rect class="cls-1" x="89.78" y="23.47" width="53.08" height="80.9" rx="23.93" ry="23.93"/><path class="cls-1" d="M164.58,3.83l-0.24-.19A17.23,17.23,0,0,0,153.64,0H24.8A1.79,1.79,0,0,0,23,1.79V21.28a1.79,1.79,0,0,1-1.79,1.79H1.79A1.79,1.79,0,0,0,0,24.86v77.92a1.79,1.79,0,0,0,1.78,1.79c5.39,0,10.89.15,16.37-.07,3.8-.16,4.94,1.33,4.82,4.95-0.17,5.24,0,10.5,0,15.75A1.79,1.79,0,0,0,24.78,127H158.09a12.63,12.63,0,0,0,12.6-12.6V17.13A17.08,17.08,0,0,0,164.58,3.83ZM37.44,69.39a2,2,0,0,1-2,2H23.63a2,2,0,0,1-2-2V57.58a2,2,0,0,1,2-2H35.44a2,2,0,0,1,2,2V69.39Zm25.31,43.69a2.35,2.35,0,0,1-2.35,2.35H53.51a2.35,2.35,0,0,1-2.35-2.35V43.58c0-1.29,2.09-1.75,3.38-1.75l5.86-.6a2.35,2.35,0,0,1,2.35,2.35v69.5Zm0-90.87a2,2,0,0,1-2,2H52.12a2,2,0,0,1-2-2V13.57a2,2,0,0,1,2-2h8.63a2,2,0,0,1,2,2V22.2Zm92.92,59.7a34,34,0,0,1-33.86,33.86h-11A34,34,0,0,1,77,81.9v-36a34,34,0,0,1,33.86-33.86h11a34,34,0,0,1,33.86,33.86v36Z"/></svg>