<svg width="150" height="99" viewBox="0 0 150 99" fill="none" xmlns="http://www.w3.org/2000/svg">
<path d="M147.413 98.276H2.58632C1.1581 98.276 0 97.1212 0 95.6969V2.85506C0 1.43085 1.1581 0.276001 2.58632 0.276001H147.414C148.842 0.276001 150 1.43085 150 2.85506V95.6969C150 97.1214 148.842 98.276 147.413 98.276Z" fill="#41479B"/>
<path d="M76.0516 11.4973L77.0887 14.5978L80.3662 14.6232C80.7907 14.6265 80.9664 15.1663 80.6251 15.4179L77.9884 17.3595L78.9769 20.4755C79.1049 20.8787 78.6444 21.2129 78.299 20.9666L75.6327 19.0659L72.9664 20.9666C72.6212 21.2126 72.1604 20.879 72.2884 20.4755L73.2769 17.3595L70.6402 15.4179C70.2989 15.1663 70.4747 14.6265 70.8992 14.6232L74.1766 14.5978L75.2137 11.4973C75.3476 11.0959 75.9174 11.0959 76.0516 11.4973Z" fill="#FFE15A"/>
<path d="M76.0516 78.0663L77.0887 81.1668L80.3662 81.1922C80.7907 81.1954 80.9664 81.7353 80.6251 81.9868L77.9884 83.9285L78.9769 87.0445C79.1049 87.4476 78.6444 87.7819 78.299 87.5356L75.6327 85.6349L72.9664 87.5356C72.6212 87.7816 72.1604 87.4479 72.2884 87.0445L73.2769 83.9285L70.6402 81.9868C70.2989 81.7353 70.4747 81.1954 70.8992 81.1922L74.1766 81.1668L75.2137 78.0663C75.3476 77.6648 75.9174 77.6648 76.0516 78.0663Z" fill="#FFE15A"/>
<path d="M109.43 44.7818L110.467 47.8823L113.744 47.9077C114.169 47.9109 114.345 48.4508 114.003 48.7024L111.367 50.644L112.355 53.76C112.483 54.1632 112.023 54.4974 111.677 54.2511L109.011 52.3504L106.345 54.2511C105.999 54.4971 105.539 54.1634 105.667 53.76L106.655 50.644L104.018 48.7024C103.677 48.4508 103.853 47.9109 104.277 47.9077L107.555 47.8823L108.592 44.7818C108.726 44.3804 109.296 44.3804 109.43 44.7818Z" fill="#FFE15A"/>
<path d="M42.6732 44.7818L43.7103 47.8823L46.9877 47.9077C47.4122 47.9109 47.588 48.4508 47.2467 48.7024L44.61 50.644L45.5985 53.76C45.7265 54.1632 45.2659 54.4974 44.9205 54.2511L42.2542 52.3504L39.5879 54.2511C39.2428 54.4971 38.782 54.1634 38.91 53.76L39.8985 50.644L37.2617 48.7024C36.9204 48.4508 37.0962 47.9109 37.5207 47.9077L40.7982 47.8823L41.8353 44.7818C41.9695 44.3804 42.5393 44.3804 42.6732 44.7818Z" fill="#FFE15A"/>
<path d="M47.6841 27.4003L48.7212 30.5008L51.9986 30.5263C52.4231 30.5295 52.5989 31.0694 52.2576 31.3209L49.6209 33.2625L50.6094 36.3785C50.7374 36.7817 50.2769 37.1159 49.9314 36.8696L47.2651 34.9689L44.5988 36.8696C44.2537 37.1156 43.7929 36.782 43.9209 36.3785L44.9094 33.2625L42.2727 31.3209C41.9314 31.0694 42.1071 30.5295 42.5317 30.5263L45.8091 30.5008L46.8462 27.4003C46.9804 26.9989 47.5496 26.9989 47.6841 27.4003Z" fill="#FFE15A"/>
<path d="M105.497 60.6848L106.534 63.7853L109.811 63.8107C110.236 63.814 110.412 64.3538 110.07 64.6054L107.433 66.547L108.422 69.663C108.55 70.0662 108.089 70.4004 107.744 70.1541L105.078 68.2534L102.411 70.1541C102.066 70.4001 101.605 70.0665 101.734 69.663L102.722 66.547L100.085 64.6054C99.744 64.3538 99.9197 63.814 100.344 63.8107L103.622 63.7853L104.659 60.6848C104.793 60.2834 105.363 60.2834 105.497 60.6848Z" fill="#FFE15A"/>
<path d="M93.2796 15.2173L94.3167 18.3178L97.5942 18.3432C98.0187 18.3464 98.1944 18.8863 97.8531 19.1379L95.2164 21.0794L96.2049 24.1955C96.3329 24.5986 95.8724 24.9329 95.527 24.6866L92.8607 22.7859L90.1944 24.6866C89.8492 24.9326 89.3884 24.5989 89.5164 24.1955L90.5049 21.0794L87.8682 19.1379C87.5269 18.8863 87.7027 18.3464 88.1272 18.3432L91.4046 18.3178L92.4417 15.2173C92.5756 14.8158 93.1448 14.8158 93.2796 15.2173Z" fill="#FFE15A"/>
<path d="M59.9012 72.8678L60.9383 75.9684L64.2157 75.9938C64.6402 75.997 64.816 76.5369 64.4747 76.7884L61.838 78.73L62.8264 81.846C62.9545 82.2492 62.4939 82.5834 62.1485 82.3371L59.4822 80.4365L56.8159 82.3371C56.4708 82.5831 56.01 82.2495 56.138 81.846L57.1265 78.73L54.4897 76.7884C54.1484 76.5369 54.3242 75.997 54.7487 75.9938L58.0262 75.9684L59.0633 72.8678C59.1974 72.4664 59.7667 72.4664 59.9012 72.8678Z" fill="#FFE15A"/>
<path d="M104.659 27.4003L103.622 30.5008L100.344 30.5263C99.9197 30.5295 99.744 31.0694 100.085 31.3209L102.722 33.2625L101.734 36.3785C101.605 36.7817 102.066 37.1159 102.411 36.8696L105.078 34.9689L107.744 36.8696C108.089 37.1156 108.55 36.782 108.422 36.3785L107.433 33.2625L110.07 31.3209C110.412 31.0694 110.236 30.5295 109.811 30.5263L106.534 30.5008L105.497 27.4003C105.363 26.9989 104.793 26.9989 104.659 27.4003Z" fill="#FFE15A"/>
<path d="M46.8462 60.6848L45.8091 63.7853L42.5317 63.8107C42.1071 63.814 41.9314 64.3538 42.2727 64.6054L44.9094 66.547L43.9209 69.663C43.7929 70.0662 44.2534 70.4004 44.5988 70.1541L47.2651 68.2534L49.9314 70.1541C50.2766 70.4001 50.7374 70.0665 50.6094 69.663L49.6209 66.547L52.2576 64.6054C52.5989 64.3538 52.4231 63.814 51.9986 63.8107L48.7212 63.7853L47.6841 60.6848C47.5496 60.2834 46.9804 60.2834 46.8462 60.6848Z" fill="#FFE15A"/>
<path d="M59.0633 15.2173L58.0262 18.3178L54.7487 18.3432C54.3242 18.3464 54.1484 18.8863 54.4897 19.1379L57.1265 21.0794L56.138 24.1955C56.01 24.5986 56.4705 24.9329 56.8159 24.6866L59.4822 22.7859L62.1485 24.6866C62.4936 24.9326 62.9545 24.5989 62.8264 24.1955L61.838 21.0794L64.4747 19.1379C64.816 18.8863 64.6402 18.3464 64.2157 18.3432L60.9383 18.3178L59.9012 15.2173C59.7667 14.8158 59.1974 14.8158 59.0633 15.2173Z" fill="#FFE15A"/>
<path d="M92.4414 72.8678L91.4043 75.9684L88.1269 75.9938C87.7024 75.997 87.5266 76.5369 87.8679 76.7884L90.5046 78.73L89.5161 81.846C89.3881 82.2492 89.8487 82.5834 90.1941 82.3371L92.8604 80.4365L95.5267 82.3371C95.8718 82.5831 96.3326 82.2495 96.2046 81.846L95.2161 78.73L97.8528 76.7884C98.1942 76.5369 98.0184 75.997 97.5939 75.9938L94.3164 75.9684L93.2793 72.8678C93.1448 72.4664 92.5756 72.4664 92.4414 72.8678Z" fill="#FFE15A"/>
</svg>
