<svg width="40" height="40" viewBox="0 0 40 40" fill="none" xmlns="http://www.w3.org/2000/svg">
<g clip-path="url(#clip0_1_35)">
<g clip-path="url(#clip1_1_35)">
<path d="M28.5684 10.1784H24.2007C24.0368 10.1784 23.8744 10.2136 23.7229 10.2819C23.5714 10.3502 23.4337 10.4504 23.3178 10.5767L13.0087 21.7985C12.8927 21.9247 12.8007 22.0745 12.7379 22.2394C12.6752 22.4043 12.6429 22.5811 12.6429 22.7596V27.514C12.6429 27.6925 12.6752 27.8692 12.7379 28.0342C12.8007 28.1991 12.8927 28.349 13.0086 28.4752C13.1246 28.6014 13.2622 28.7016 13.4138 28.7699C13.5653 28.8382 13.7277 28.8733 13.8917 28.8733H18.2593C18.4233 28.8734 18.5857 28.8382 18.7372 28.7699C18.8887 28.7015 19.0264 28.6014 19.1423 28.4751L29.4516 17.2533C29.6857 16.9983 29.8173 16.6526 29.8172 16.2922V11.5378C29.8173 11.3593 29.7849 11.1825 29.7222 11.0176C29.6594 10.8526 29.5674 10.7028 29.4515 10.5765C29.3355 10.4503 29.1978 10.3502 29.0463 10.2819C28.8948 10.2135 28.7324 10.1784 28.5684 10.1784Z" fill="#28A8EA"/>
<path d="M28.5685 28.8733H24.2007C23.8696 28.8733 23.5519 28.7301 23.3178 28.4752L21.23 26.2026V21.9562C21.23 21.3116 21.4652 20.6935 21.8839 20.2377C22.3026 19.7819 22.8705 19.5259 23.4627 19.5259H27.3637L29.4515 21.7985C29.6856 22.0534 29.8172 22.3991 29.8172 22.7596V27.5141C29.8172 27.8746 29.6856 28.2203 29.4515 28.4752C29.2173 28.7301 28.8997 28.8733 28.5685 28.8733Z" fill="#0078D4"/>
<path d="M13.8916 10.1784H18.2593C18.5905 10.1784 18.9081 10.3216 19.1423 10.5765L21.2301 12.8491V17.0955C21.2301 17.4147 21.1723 17.7307 21.0601 18.0256C20.9479 18.3204 20.7834 18.5884 20.5761 18.814C20.3688 19.0397 20.1227 19.2187 19.8518 19.3409C19.5809 19.463 19.2906 19.5259 18.9974 19.5259H15.0964L13.0086 17.2533C12.7744 16.9984 12.6429 16.6526 12.6429 16.2922V11.5377C12.6429 11.1772 12.7744 10.8314 13.0086 10.5765C13.2428 10.3216 13.5604 10.1784 13.8916 10.1784Z" fill="#50D9FF"/>
<path opacity="0.2" d="M20.5144 14.9807V25.2395C20.5152 25.2918 20.5104 25.3441 20.5001 25.3952C20.4676 25.6059 20.3673 25.7972 20.2173 25.9349C20.0672 26.0726 19.877 26.1478 19.6807 26.147H12.6428V14.0732H19.6807C19.7903 14.073 19.8987 14.0963 20 14.1418C20.1012 14.1874 20.1932 14.2542 20.2706 14.3385C20.3481 14.4228 20.4095 14.523 20.4513 14.6331C20.4931 14.7433 20.5146 14.8614 20.5144 14.9807Z" fill="black"/>
<path opacity="0.1" d="M20.8722 14.9807V24.4606C20.8693 24.8035 20.7428 25.1316 20.52 25.3741C20.2972 25.6166 19.9958 25.7543 19.6807 25.7575H12.6428V13.6837H19.6807C19.9964 13.6849 20.2988 13.8219 20.522 14.0649C20.7452 14.3079 20.8711 14.6371 20.8722 14.9807Z" fill="black"/>
<path opacity="0.2" d="M20.5144 14.9807V24.4606C20.5146 24.5798 20.4932 24.6979 20.4514 24.8081C20.4095 24.9183 20.3481 25.0184 20.2707 25.1027C20.1932 25.187 20.1012 25.2539 20 25.2994C19.8987 25.3449 19.7903 25.3682 19.6807 25.368H12.6428V14.0732H19.6807C19.7903 14.073 19.8987 14.0963 20 14.1418C20.1012 14.1874 20.1932 14.2542 20.2706 14.3385C20.3481 14.4228 20.4095 14.523 20.4513 14.6331C20.4931 14.7433 20.5146 14.8614 20.5144 14.9807Z" fill="black"/>
<path opacity="0.1" d="M20.1566 14.9807V24.4606C20.1568 24.5798 20.1354 24.6979 20.0936 24.8081C20.0517 24.9183 19.9903 25.0184 19.9129 25.1027C19.8354 25.187 19.7434 25.2539 19.6422 25.2994C19.541 25.3449 19.4325 25.3682 19.3229 25.368H12.6428V14.0732H19.3229C19.4325 14.073 19.5409 14.0963 19.6422 14.1418C19.7434 14.1874 19.8354 14.2542 19.9128 14.3385C19.9903 14.4228 20.0517 14.523 20.0935 14.6331C20.1353 14.7433 20.1568 14.8614 20.1566 14.9807Z" fill="black"/>
<path d="M19.3219 14.0732H10.9732C10.5121 14.0732 10.1384 14.4801 10.1384 14.982V24.0698C10.1384 24.5717 10.5121 24.9786 10.9732 24.9786H19.3219C19.783 24.9786 20.1567 24.5717 20.1567 24.0698V14.982C20.1567 14.4801 19.783 14.0732 19.3219 14.0732Z" fill="#0078D4"/>
<path d="M16.7881 17.5322H14.4455V19.0234H16.6443V19.979H14.4455V21.5278H16.9129V22.4795H13.3821V16.5723H16.7881V17.5322Z" fill="white"/>
</g>
</g>
<defs>
<clipPath id="clip0_1_35">
<rect width="40" height="40" fill="white"/>
</clipPath>
<clipPath id="clip1_1_35">
<rect width="20" height="19" fill="white" transform="translate(10 10)"/>
</clipPath>
</defs>
</svg>
