<svg width="222" height="200" viewBox="0 0 222 200" fill="none" xmlns="http://www.w3.org/2000/svg">
<path d="M207.483 0.666687H158.429C156.587 0.666547 154.763 1.04023 153.062 1.76638C151.36 2.49253 149.814 3.55692 148.512 4.8987L32.7285 124.15C31.4258 125.491 30.3925 127.084 29.6875 128.836C28.9825 130.589 28.6198 132.467 28.62 134.364V184.887C28.6198 186.784 28.9825 188.663 29.6873 190.416C30.3921 192.168 31.4251 193.761 32.7276 195.102C34.03 196.444 35.5762 197.508 37.2779 198.234C38.9796 198.96 40.8035 199.333 42.6454 199.333H91.6995C93.5413 199.334 95.3652 198.96 97.0668 198.234C98.7684 197.508 100.314 196.443 101.616 195.101L217.402 75.8496C220.032 73.1407 221.509 69.4668 221.509 65.6361V15.1127C221.509 13.2155 221.146 11.337 220.442 9.58423C219.737 7.83149 218.704 6.23891 217.401 4.89745C216.099 3.55598 214.552 2.49191 212.851 1.76599C211.149 1.04007 209.325 0.666524 207.483 0.666687Z" fill="#28A8EA"/>
<path d="M207.484 199.333H158.429C154.709 199.333 151.142 197.811 148.512 195.103L125.064 170.952V125.827C125.064 118.977 127.706 112.408 132.408 107.564C137.111 102.721 143.489 100 150.14 100H193.953L217.401 124.15C220.031 126.859 221.509 130.533 221.509 134.364V184.889C221.509 188.72 220.031 192.394 217.401 195.103C214.771 197.811 211.204 199.333 207.484 199.333Z" fill="#0078D4"/>
<path d="M42.6446 0.666687H91.6995C95.419 0.666693 98.9862 2.18855 101.616 4.89746L125.064 29.0479V74.1734C125.064 77.565 124.416 80.9234 123.156 84.0568C121.895 87.1902 120.048 90.0373 117.72 92.4356C115.391 94.8338 112.627 96.7362 109.585 98.0341C106.543 99.332 103.282 100 99.9889 100H56.1754L32.7273 75.8496C30.0974 73.1407 28.62 69.4668 28.62 65.6361V15.1114C28.62 11.2804 30.0976 7.60636 32.7277 4.89745C35.3578 2.18854 38.925 0.666687 42.6446 0.666687Z" fill="#50D9FF"/>
<path opacity="0.2" d="M117.027 51.6992V160.717C117.036 161.274 116.982 161.829 116.867 162.372C116.501 164.611 115.375 166.644 113.69 168.107C112.004 169.57 109.868 170.369 107.664 170.361H28.6196V42.0556H107.664C108.894 42.0534 110.113 42.3013 111.249 42.7852C112.386 43.2691 113.419 43.9793 114.289 44.8752C115.159 45.7712 115.849 46.8351 116.319 48.0061C116.788 49.1771 117.029 50.4321 117.027 51.6992Z" fill="black"/>
<path opacity="0.1" d="M121.046 51.6992V152.44C121.013 156.085 119.592 159.57 117.09 162.148C114.587 164.725 111.203 166.188 107.664 166.222H28.6196V37.9167H107.664C111.209 37.9296 114.605 39.3858 117.112 41.9677C119.619 44.5496 121.033 48.0478 121.046 51.6992Z" fill="black"/>
<path opacity="0.2" d="M117.027 51.6992V152.44C117.029 153.707 116.789 154.962 116.319 156.133C115.849 157.304 115.159 158.368 114.29 159.264C113.42 160.16 112.387 160.87 111.25 161.354C110.113 161.838 108.894 162.086 107.664 162.083H28.6196V42.0556H107.664C108.894 42.0534 110.112 42.3013 111.249 42.7852C112.386 43.2691 113.419 43.9793 114.289 44.8752C115.159 45.7712 115.849 46.8351 116.319 48.0061C116.788 49.1771 117.029 50.4321 117.027 51.6992Z" fill="black"/>
<path opacity="0.1" d="M113.009 51.6992V152.44C113.011 153.707 112.77 154.962 112.3 156.133C111.831 157.304 111.141 158.368 110.271 159.264C109.401 160.16 108.368 160.87 107.231 161.354C106.094 161.838 104.876 162.086 103.645 162.083H28.6196V42.0556H103.645C104.875 42.0534 106.094 42.3013 107.231 42.7852C108.368 43.2691 109.401 43.9793 110.271 44.8752C111.141 45.7712 111.83 46.8351 112.3 48.0061C112.77 49.1771 113.011 50.4321 113.009 51.6992Z" fill="black"/>
<path d="M103.633 42.0555H9.86755C4.6891 42.0555 0.491142 46.3792 0.491142 51.7128V148.287C0.491142 153.621 4.6891 157.944 9.86755 157.944H103.633C108.812 157.944 113.01 153.621 113.01 148.287V51.7128C113.01 46.3792 108.812 42.0555 103.633 42.0555Z" fill="#0078D4"/>
<path d="M75.1757 78.8139H48.8661V94.66H73.5615V104.816H48.8661V121.274H76.5782V131.387H36.923V68.6127H75.1757V78.8139Z" fill="white"/>
</svg>
