<svg width="56" height="56" viewBox="0 0 56 56" fill="none" xmlns="http://www.w3.org/2000/svg">
<g clip-path="url(#clip0_1_82)">
<path d="M40.8396 14.2713H34.1971C33.9477 14.2713 33.7007 14.3248 33.4703 14.4287C33.2399 14.5326 33.0306 14.685 32.8543 14.877L17.1757 31.9436C16.9993 32.1355 16.8594 32.3634 16.7639 32.6142C16.6685 32.865 16.6194 33.1338 16.6194 33.4053V40.636C16.6194 40.9074 16.6685 41.1763 16.7639 41.4271C16.8593 41.678 16.9993 41.9059 17.1756 42.0979C17.352 42.2898 17.5613 42.4421 17.7918 42.546C18.0222 42.6499 18.2692 42.7034 18.5186 42.7034H25.1611C25.4105 42.7034 25.6575 42.6499 25.8879 42.546C26.1183 42.4421 26.3277 42.2897 26.504 42.0977L42.1827 25.0311C42.5388 24.6434 42.7389 24.1176 42.7388 23.5694V16.3388C42.7389 16.0673 42.6898 15.7984 42.5943 15.5476C42.4989 15.2967 42.359 15.0688 42.1826 14.8768C42.0063 14.6848 41.7969 14.5325 41.5664 14.4287C41.336 14.3248 41.089 14.2713 40.8396 14.2713Z" fill="#28A8EA"/>
<path d="M40.8397 42.7034H34.197C33.6934 42.7034 33.2103 42.4856 32.8542 42.0979L29.679 38.6416V32.1835C29.679 31.2032 30.0368 30.2631 30.6736 29.5699C31.3103 28.8768 32.174 28.4874 33.0746 28.4874H39.0075L42.1826 31.9436C42.5387 32.3313 42.7388 32.8571 42.7388 33.4054V40.6361C42.7388 41.1844 42.5387 41.7102 42.1826 42.0979C41.8264 42.4856 41.3434 42.7034 40.8397 42.7034Z" fill="#0078D4"/>
<path d="M18.5185 14.2713H25.1611C25.6648 14.2713 26.1478 14.4891 26.504 14.8768L29.6791 18.3331V24.7912C29.6791 25.2766 29.5913 25.7572 29.4206 26.2056C29.25 26.6541 28.9999 27.0616 28.6846 27.4048C28.3693 27.748 27.995 28.0203 27.583 28.206C27.171 28.3918 26.7295 28.4874 26.2836 28.4874H20.3507L17.1756 25.0311C16.8195 24.6434 16.6194 24.1176 16.6194 23.5694V16.3386C16.6194 15.7903 16.8195 15.2645 17.1756 14.8768C17.5318 14.4891 18.0148 14.2713 18.5185 14.2713Z" fill="#50D9FF"/>
<path opacity="0.2" d="M28.5908 21.5748V37.1769C28.592 37.2565 28.5847 37.336 28.569 37.4137C28.5196 37.7342 28.3671 38.025 28.1388 38.2345C27.9106 38.4439 27.6214 38.5582 27.3229 38.557H16.6193V20.1947H27.3229C27.4895 20.1944 27.6544 20.2299 27.8084 20.2991C27.9624 20.3684 28.1023 20.47 28.22 20.5982C28.3378 20.7264 28.4312 20.8787 28.4948 21.0463C28.5584 21.2139 28.5911 21.3935 28.5908 21.5748Z" fill="black"/>
<path opacity="0.2" d="M28.5908 21.5748V35.9922C28.5911 36.1736 28.5585 36.3532 28.4949 36.5208C28.4313 36.6884 28.3379 36.8406 28.2201 36.9689C28.1023 37.0971 27.9624 37.1987 27.8084 37.268C27.6544 37.3372 27.4895 37.3727 27.3229 37.3723H16.6193V20.1947H27.3229C27.4895 20.1944 27.6544 20.2299 27.8084 20.2991C27.9624 20.3684 28.1023 20.47 28.22 20.5982C28.3378 20.7264 28.4312 20.8787 28.4948 21.0463C28.5584 21.2139 28.5911 21.3935 28.5908 21.5748Z" fill="black"/>
<path opacity="0.1" d="M28.0466 21.5748V35.9922C28.0469 36.1736 28.0143 36.3532 27.9507 36.5208C27.8871 36.6884 27.7937 36.8406 27.6759 36.9689C27.5581 37.0971 27.4182 37.1987 27.2643 37.268C27.1103 37.3372 26.9453 37.3727 26.7787 37.3723H16.6193V20.1947H26.7787C26.9453 20.1944 27.1103 20.2299 27.2643 20.2991C27.4182 20.3684 27.5581 20.47 27.6759 20.5982C27.7937 20.7264 27.8871 20.8787 27.9507 21.0463C28.0143 21.2139 28.0469 21.3935 28.0466 21.5748Z" fill="black"/>
<path d="M26.777 20.1947H14.08C13.3788 20.1947 12.8104 20.8135 12.8104 21.5768V35.3979C12.8104 36.1612 13.3788 36.78 14.08 36.78H26.777C27.4783 36.78 28.0467 36.1612 28.0467 35.3979V21.5768C28.0467 20.8135 27.4783 20.1947 26.777 20.1947Z" fill="#0078D4"/>
<path d="M22.9236 25.4553H19.3609V27.7231H22.705V29.1765H19.3609V31.532H23.1135V32.9793H17.7437V23.9954H22.9236V25.4553Z" fill="white"/>
</g>
<defs>
<clipPath id="clip0_1_82">
<rect width="30.4168" height="28.896" fill="white" transform="translate(12.6 14)"/>
</clipPath>
</defs>
</svg>
