<svg width="71" height="71" viewBox="0 0 71 71" fill="none" xmlns="http://www.w3.org/2000/svg">
<path d="M65.9178 0.666687H50.4126C49.8305 0.666638 49.254 0.798042 48.7162 1.05339C48.1784 1.30874 47.6897 1.68302 47.2782 2.15485L10.6808 44.089C10.2691 44.5606 9.94245 45.1205 9.71962 45.7367C9.49679 46.353 9.38213 47.0135 9.38219 47.6806V65.4469C9.38214 66.1139 9.49678 66.7745 9.71955 67.3909C9.94232 68.0072 10.2689 68.5672 10.6805 69.0389C11.0922 69.5106 11.5809 69.8848 12.1188 70.1401C12.6567 70.3954 13.2332 70.5267 13.8154 70.5267H29.3206C29.9028 70.5268 30.4792 70.3954 31.0171 70.14C31.5549 69.8847 32.0436 69.5104 32.4551 69.0385L69.053 27.1043C69.8842 26.1517 70.3512 24.8598 70.3511 23.5128V5.74653C70.3512 5.07942 70.2365 4.41883 70.0138 3.80249C69.791 3.18615 69.4644 2.62613 69.0528 2.15441C68.6411 1.68269 68.1523 1.30852 67.6144 1.05325C67.0765 0.797984 66.5 0.66663 65.9178 0.666687Z" fill="#28A8EA"/>
<path d="M65.9182 70.5267H50.4126C49.237 70.5267 48.1094 69.9915 47.2781 69.039L39.8665 60.5466V44.6785C39.8665 42.2698 40.7016 39.9598 42.188 38.2567C43.6744 36.5535 45.6904 35.5967 47.7925 35.5967H61.6413L69.0528 44.089C69.8841 45.0416 70.3511 46.3336 70.3511 47.6807V65.4473C70.3511 66.7944 69.8841 68.0864 69.0528 69.039C68.2214 69.9915 67.0939 70.5267 65.9182 70.5267Z" fill="#0078D4"/>
<path d="M13.8151 0.666687H29.3206C30.4963 0.666689 31.6238 1.20184 32.4551 2.15441L39.8667 10.6468V26.5149C39.8667 27.7075 39.6617 28.8885 39.2633 29.9903C38.865 31.0922 38.2812 32.0934 37.5452 32.9367C36.8092 33.78 35.9355 34.449 34.9738 34.9054C34.0122 35.3618 32.9816 35.5967 31.9407 35.5967H18.092L10.6805 27.1043C9.84919 26.1518 9.3822 24.8599 9.38219 23.5128V5.74609C9.38219 4.39895 9.84924 3.10698 10.6806 2.15441C11.5119 1.20184 12.6395 0.666687 13.8151 0.666687Z" fill="#50D9FF"/>
<path opacity="0.2" d="M37.3263 18.612V56.9477C37.3291 57.1432 37.312 57.3385 37.2755 57.5295C37.16 58.3169 36.8041 59.0316 36.2713 59.5462C35.7385 60.0607 35.0634 60.3416 34.3666 60.3388H9.38206V15.2209H34.3666C34.7555 15.2201 35.1406 15.3073 35.5 15.4774C35.8594 15.6476 36.1859 15.8973 36.4608 16.2124C36.7358 16.5274 36.9538 16.9016 37.1022 17.3133C37.2507 17.7251 37.327 18.1664 37.3263 18.612Z" fill="black"/>
<path opacity="0.1" d="M38.5965 18.612V54.0368C38.586 55.3185 38.137 56.5443 37.346 57.4506C36.555 58.3569 35.4852 58.8714 34.3666 58.8834H9.38206V13.7654H34.3666C35.4872 13.77 36.5608 14.282 37.3531 15.19C38.1455 16.0979 38.5925 17.328 38.5965 18.612Z" fill="black"/>
<path opacity="0.2" d="M37.3263 18.612V54.0368C37.327 54.4824 37.2509 54.9237 37.1024 55.3355C36.9539 55.7473 36.7359 56.1214 36.4609 56.4365C36.1859 56.7515 35.8594 57.0013 35.5 57.1714C35.1406 57.3416 34.7555 57.4287 34.3666 57.4279H9.38206V15.2209H34.3666C34.7555 15.2201 35.1406 15.3073 35.5 15.4774C35.8594 15.6476 36.1859 15.8973 36.4608 16.2124C36.7358 16.5274 36.9538 16.9016 37.1022 17.3133C37.2507 17.7251 37.327 18.1664 37.3263 18.612Z" fill="black"/>
<path opacity="0.1" d="M36.0561 18.612V54.0368C36.0568 54.4824 35.9807 54.9237 35.8322 55.3355C35.6837 55.7473 35.4657 56.1214 35.1907 56.4365C34.9158 56.7515 34.5892 57.0013 34.2298 57.1714C33.8705 57.3416 33.4853 57.4287 33.0964 57.4279H9.38206V15.2209H33.0964C33.4853 15.2201 33.8704 15.3073 34.2298 15.4774C34.5892 15.6476 34.9157 15.8973 35.1906 16.2124C35.4656 16.5274 35.6836 16.9016 35.8321 17.3133C35.9805 17.7251 36.0568 18.1664 36.0561 18.612Z" fill="black"/>
<path d="M33.0926 15.2209H3.45487C1.81805 15.2209 0.491142 16.7413 0.491142 18.6168V52.5766C0.491142 54.4521 1.81805 55.9725 3.45487 55.9725H33.0926C34.7295 55.9725 36.0564 54.4521 36.0564 52.5766V18.6168C36.0564 16.7413 34.7295 15.2209 33.0926 15.2209Z" fill="#0078D4"/>
<path d="M24.0977 28.1467H15.7816V33.7189H23.5874V37.2901H15.7816V43.0777H24.541V46.6338H12.0067V24.5595H24.0977V28.1467Z" fill="white"/>
</svg>
