<svg width="82" height="82" viewBox="0 0 82 82" fill="none" xmlns="http://www.w3.org/2000/svg">                             <rect x="44" y="38" width="35" height="9" fill="#ADA1CF"></rect>                             <rect x="44" y="52" width="35" height="9" fill="#ADA1CF"></rect>                             <rect x="44" y="66" width="35" height="9" fill="#ADA1CF"></rect>                             <path d="M72.5606 43.5209C73.0687 43.5209 73.4806 43.109 73.4806 42.6009C73.4806 42.0928 73.0687 41.6809 72.5606 41.6809C72.0525 41.6809 71.6406 42.0928 71.6406 42.6009C71.6406 43.109 72.0525 43.5209 72.5606 43.5209Z" fill="#412D7D"></path>                             <path d="M72.5606 57.321C73.0687 57.321 73.4806 56.9091 73.4806 56.401C73.4806 55.8929 73.0687 55.481 72.5606 55.481C72.0525 55.481 71.6406 55.8929 71.6406 56.401C71.6406 56.9091 72.0525 57.321 72.5606 57.321Z" fill="#412D7D"></path>                             <path d="M72.5606 71.121C73.0687 71.121 73.4806 70.7091 73.4806 70.201C73.4806 69.6929 73.0687 69.281 72.5606 69.281C72.0525 69.281 71.6406 69.6929 71.6406 70.201C71.6406 70.7091 72.0525 71.121 72.5606 71.121Z" fill="#412D7D"></path>                             <path d="M61.5213 74.801V80.321H52.3213" stroke="#412D7D" stroke-width="2" stroke-miterlimit="10" stroke-linecap="round" stroke-linejoin="round"></path>                             <path d="M61.5195 80.321H70.7195" stroke="#412D7D" stroke-width="2" stroke-miterlimit="10" stroke-linecap="round" stroke-linejoin="round"></path>                             <path d="M61.5195 51.8009V47.2009" stroke="#412D7D" stroke-width="2" stroke-miterlimit="10" stroke-linecap="round" stroke-linejoin="round"></path>                             <path d="M49.5596 43.5209C50.0678 43.5209 50.4796 43.109 50.4796 42.6009C50.4796 42.0928 50.0678 41.6809 49.5596 41.6809C49.0515 41.6809 48.6396 42.0928 48.6396 42.6009C48.6396 43.109 49.0515 43.5209 49.5596 43.5209Z" fill="#412D7D"></path>                             <path d="M54.1602 43.5209C54.6683 43.5209 55.0802 43.109 55.0802 42.6009C55.0802 42.0928 54.6683 41.6809 54.1602 41.6809C53.6521 41.6809 53.2402 42.0928 53.2402 42.6009C53.2402 43.109 53.6521 43.5209 54.1602 43.5209Z" fill="#412D7D"></path>                             <path d="M79 38.001H44.04V47.201H79V38.001Z" stroke="#412D7D" stroke-width="2" stroke-miterlimit="10" stroke-linecap="round" stroke-linejoin="round"></path>                             <path d="M61.5195 65.6007V61.0007" stroke="#412D7D" stroke-width="2" stroke-miterlimit="10" stroke-linecap="round" stroke-linejoin="round"></path>                             <path d="M49.5596 57.321C50.0678 57.321 50.4796 56.9091 50.4796 56.401C50.4796 55.8929 50.0678 55.481 49.5596 55.481C49.0515 55.481 48.6396 55.8929 48.6396 56.401C48.6396 56.9091 49.0515 57.321 49.5596 57.321Z" fill="#412D7D"></path>                             <path d="M54.1602 57.321C54.6683 57.321 55.0802 56.9091 55.0802 56.401C55.0802 55.8929 54.6683 55.481 54.1602 55.481C53.6521 55.481 53.2402 55.8929 53.2402 56.401C53.2402 56.9091 53.6521 57.321 54.1602 57.321Z" fill="#412D7D"></path>                             <path d="M79 61.0011H44.04V51.8011H79V61.0011Z" stroke="#412D7D" stroke-width="2" stroke-miterlimit="10" stroke-linecap="round" stroke-linejoin="round"></path>                             <path d="M49.5596 71.121C50.0678 71.121 50.4796 70.7091 50.4796 70.201C50.4796 69.6929 50.0678 69.281 49.5596 69.281C49.0515 69.281 48.6396 69.6929 48.6396 70.201C48.6396 70.7091 49.0515 71.121 49.5596 71.121Z" fill="#412D7D"></path>                             <path d="M54.1602 71.121C54.6683 71.121 55.0802 70.7091 55.0802 70.201C55.0802 69.6929 54.6683 69.281 54.1602 69.281C53.6521 69.281 53.2402 69.6929 53.2402 70.201C53.2402 70.7091 53.6521 71.121 54.1602 71.121Z" fill="#412D7D"></path>                             <path d="M79 74.8008H44.04V65.6008H79" stroke="#412D7D" stroke-width="2" stroke-miterlimit="10" stroke-linecap="round" stroke-linejoin="round"></path>                             <path d="M37.2 65.361H9.08C5.736 65.361 3 62.625 3 59.281V7.601C3 4.257 5.736 1.521 9.08 1.521H66.84C70.184 1.521 72.92 4.257 72.92 7.601V30.401" stroke="#412D7D" stroke-width="2" stroke-miterlimit="10" stroke-linecap="round" stroke-linejoin="round"></path>                             <path d="M3 13.681H72.92" stroke="#412D7D" stroke-width="2" stroke-miterlimit="10" stroke-linecap="round" stroke-linejoin="round"></path>                             <path d="M63.8003 9.12105C64.6397 9.12105 65.3203 8.44053 65.3203 7.60105C65.3203 6.76158 64.6397 6.08105 63.8003 6.08105C62.9608 6.08105 62.2803 6.76158 62.2803 7.60105C62.2803 8.44053 62.9608 9.12105 63.8003 9.12105Z" fill="#412D7D"></path>                             <path d="M57.7202 9.12105C58.5597 9.12105 59.2402 8.44053 59.2402 7.60105C59.2402 6.76158 58.5597 6.08105 57.7202 6.08105C56.8807 6.08105 56.2002 6.76158 56.2002 7.60105C56.2002 8.44053 56.8807 9.12105 57.7202 9.12105Z" fill="#412D7D"></path>                             <path d="M51.6401 9.12105C52.4796 9.12105 53.1601 8.44053 53.1601 7.60105C53.1601 6.76158 52.4796 6.08105 51.6401 6.08105C50.8006 6.08105 50.1201 6.76158 50.1201 7.60105C50.1201 8.44053 50.8006 9.12105 51.6401 9.12105Z" fill="#412D7D"></path>                             <path d="M12.1201 25.8409H36.4401" stroke="#412D7D" stroke-width="2" stroke-miterlimit="10" stroke-linecap="round" stroke-linejoin="round"></path>                             <path d="M12.1201 34.9609H36.4401" stroke="#412D7D" stroke-width="2" stroke-miterlimit="10" stroke-linecap="round" stroke-linejoin="round"></path>                             <path d="M12.1201 44.0811H33.4001" stroke="#412D7D" stroke-width="2" stroke-miterlimit="10" stroke-linecap="round" stroke-linejoin="round"></path>                             <path d="M12.1201 53.201H33.4001" stroke="#412D7D" stroke-width="2" stroke-miterlimit="10" stroke-linecap="round" stroke-linejoin="round"></path>                         </svg>