<?xml version="1.0" encoding="utf-8"?>
<!-- Generator: Adobe Illustrator 26.0.1, SVG Export Plug-In . SVG Version: 6.00 Build 0)  -->
<svg version="1.1" id="Layer_1" xmlns="http://www.w3.org/2000/svg" xmlns:xlink="http://www.w3.org/1999/xlink" x="0px" y="0px"
	 viewBox="0 0 64 64" style="enable-background:new 0 0 64 64;" xml:space="preserve">
<style type="text/css">
	.st0{fill:none;}
	.st1{fill:#020553;}
	.st2{fill:#D7E7FF;}
</style>
<g>
	<rect x="5" y="4.3" class="st0" width="55.3" height="55.3"/>
	<g>
		<path class="st1" d="M57.3,18.2L57.3,18.2H45H13.5L8.1,39.7h12.3h24.3c4.2,0,7.9-2.9,8.9-7l3.7-14.4L57.3,18.2z M53.3,21.2
			l-1.1,4.3c-1.4-0.4-2.6-1.2-3.4-2.3c-0.5-0.6-0.8-1.3-0.9-2c0,0,0,0,0-0.1H53.3z M12,36.6l1.1-4.3c1.4,0.4,2.6,1.2,3.4,2.3
			c0.5,0.6,0.8,1.3,0.9,2c0,0,0,0,0,0.1H12z M50.6,32c-0.7,2.7-3.1,4.6-6,4.6h-24c-0.4-3.4-3.1-6.2-6.7-7.3l2.1-8.1h28.8
			c0.4,3.4,3.1,6.2,6.7,7.3L50.6,32z"/>
		<path class="st1" d="M32.7,22.8c-3.4,0-6.1,2.8-6.1,6.1s2.8,6.1,6.1,6.1s6.1-2.8,6.1-6.1S36.1,22.8,32.7,22.8z M32.7,32
			c-1.7,0-3.1-1.4-3.1-3.1c0-1.7,1.4-3.1,3.1-3.1s3.1,1.4,3.1,3.1C35.7,30.6,34.4,32,32.7,32z"/>
		<rect x="40.4" y="10.5" class="st1" width="10.8" height="3.1"/>
		<rect x="28.1" y="10.5" class="st1" width="3.1" height="3.1"/>
		<rect x="34.2" y="10.5" class="st1" width="3.1" height="3.1"/>
		<rect x="25" y="50.5" class="st1" width="7.7" height="3.1"/>
		<rect x="18.9" y="50.5" class="st1" width="3.1" height="3.1"/>
		<rect x="35.7" y="44.3" class="st1" width="12.3" height="3.1"/>
	</g>
</g>
<path class="st2" d="M53.3,21.2l-1.1,4.3c-1.4-0.4-2.6-1.2-3.4-2.3c-0.5-0.6-0.8-1.3-0.9-2c0,0,0,0,0-0.1H53.3z"/>
<path class="st2" d="M12,36.6l1.1-4.3c1.4,0.4,2.6,1.2,3.4,2.3c0.5,0.6,0.8,1.3,0.9,2c0,0,0,0,0,0.1H12z"/>
</svg>
