<svg width="240" height="240" viewBox="0 0 240 240" fill="none" xmlns="http://www.w3.org/2000/svg">
<path d="M53.3335 106.693V34.3201C59.4935 35.8134 65.1202 39.0401 69.7335 43.7601C76.3468 50.5601 80.0002 59.6001 80.0002 69.2534V140.667C75.8935 136.48 71.0935 133.2 65.7602 130.88C61.7602 129.147 57.6002 128.027 53.3335 127.52V106.693Z" fill="#D7E7FF"/>
<path d="M213.333 173.36C213.333 180.48 210.56 187.173 205.52 192.213C200.48 197.253 193.787 200.027 186.667 200.027H83.1733C89.4933 192.96 93.3333 183.627 93.3333 173.387V106.693H213.333V173.36Z" fill="white"/>
<path d="M79.9998 173.387C79.9998 180.507 77.2265 187.2 72.1865 192.24C67.3865 197.04 61.0398 199.787 54.2932 200.027H26.6665V106.693H39.9998V140.533H47.9998C65.6798 140.533 79.9998 155.227 79.9998 173.36V173.387Z" fill="white"/>
<path d="M93.3335 93.3599V69.2533C93.3335 42.0533 71.8402 20.0266 45.3335 20.0266H40.0002V93.3599H13.3335V213.36H53.3335C53.7335 213.36 54.1068 213.36 54.5068 213.36H186.667C208.747 213.36 226.667 195.44 226.667 173.36V93.3599H93.3335ZM53.3335 106.693V34.3199C59.4935 35.8133 65.1202 39.0399 69.7335 43.7599C76.3468 50.5599 80.0002 59.5999 80.0002 69.2533V140.667C75.8935 136.48 71.0935 133.2 65.7602 130.88C61.7602 129.147 57.6002 128.027 53.3335 127.52V106.693ZM80.0002 173.387C80.0002 180.507 77.2268 187.2 72.1868 192.24C67.3868 197.04 61.0402 199.787 54.2935 200.027H26.6668V106.693H40.0002V140.533H48.0002C65.6802 140.533 80.0002 155.227 80.0002 173.36V173.387ZM213.333 173.387C213.333 180.507 210.56 187.2 205.52 192.24C200.48 197.28 193.787 200.053 186.667 200.053H83.1735C89.4935 192.987 93.3335 183.653 93.3335 173.413V106.72H213.333V173.387Z" fill="#020553"/>
<path d="M133.333 133.36H106.667V146.693H133.333V133.36Z" fill="#020553"/>
<path d="M146.667 160.027H106.667V173.36H146.667V160.027Z" fill="#020553"/>
<path d="M146.667 160.02H106.667V173.353H146.667V160.02Z" fill="#020553"/>
<path d="M173.68 180.48V185.333V188.347H186.32V180.64C194.56 178.56 200 172.293 200 164.64C200 152.133 189.414 149.547 181.68 147.627C176.347 146.32 173.094 145.387 173.094 142.96C173.094 140.533 175.174 139.173 178.694 139.173C182.587 139.173 185.174 141.44 185.227 144.933V145.947H198.4V144.933C198.4 140.8 197.254 137.04 195.067 134.053C192.987 131.2 189.974 129.12 186.32 128V120H173.68V122.347V127.6C169.974 128.48 166.774 130.267 164.454 132.827C161.894 135.653 160.534 139.173 160.534 143.04C160.534 148.293 162.507 152.187 166.587 154.933C170 157.253 174.374 158.373 178.24 159.387C183.84 160.827 187.28 161.867 187.28 164.64C187.28 167.413 184.48 169.147 180.32 169.147C175.68 169.147 172.694 166.64 172.694 162.747V161.733H160.027V162.747C160.027 171.2 165.36 178.053 173.707 180.48H173.68Z" fill="#020553"/>
</svg>
