<svg width="55" height="55" viewBox="0 0 55 55" fill="none" xmlns="http://www.w3.org/2000/svg">
<path d="M30.5555 12.24H3.05549V42.7777C3.05395 43.9819 3.29 45.1746 3.75012 46.2875C4.21024 47.4003 4.8854 48.4115 5.73691 49.263C6.58842 50.1145 7.59955 50.7896 8.7124 51.2498C9.82525 51.7099 11.0179 51.9459 12.2222 51.9444H36.0815C42.3122 51.9444 47.3636 47.0194 47.3636 40.9444V39.7222H30.5555V12.24ZM12.2222 48.8888C12.0185 48.8888 11.8163 48.879 11.6156 48.8593C11.5162 48.8491 11.4172 48.8369 11.3187 48.8226C10.1764 48.6505 9.10599 48.159 8.23091 47.4048C7.35583 46.6507 6.7117 45.6645 6.3728 44.5601C6.31526 44.3702 6.26739 44.1767 6.22818 43.9811C6.14981 43.5848 6.11057 43.1817 6.11104 42.7777V15.2955H27.4999V39.7222H19.748V41.5555C19.748 45.6056 16.3808 48.8888 12.2267 48.8888H12.2222ZM44.0865 42.7777C43.7337 44.2087 42.984 45.5109 41.9237 46.5345C40.3664 48.0526 38.2911 48.8888 36.0789 48.8888H19.719C20.6692 47.9558 21.43 46.8479 21.9597 45.626C22.3543 44.7192 22.6144 43.7597 22.7317 42.7777H44.0865Z" fill="#020553"/>
<path d="M42.7777 9.16665V3.05554L35.1389 10.6944L42.7777 18.3333V12.2222C44.4089 12.2564 45.9619 12.9279 47.1041 14.093C48.2463 15.258 48.8869 16.824 48.8889 18.4555V24.4444H51.9444V18.4571C51.9444 13.3757 47.8439 9.2349 42.7777 9.16665Z" fill="#020553"/>
<path d="M42.7778 27.4999C41.1466 27.4657 39.5936 26.7942 38.4514 25.6292C37.3092 24.4641 36.6686 22.8982 36.6667 21.2666V15.2777H33.6111V21.2646C33.6111 26.346 37.7117 30.4873 42.7778 30.5535V36.6666L50.4167 29.0277L42.7778 21.3888V27.4999Z" fill="#020553"/>
<path d="M12.2222 27.5209H9.16663V30.6044H12.2222V27.5209Z" fill="#020553"/>
<path d="M12.2222 21.3817H9.16663V24.4653H12.2222V21.3817Z" fill="#020553"/>
<path d="M15.2777 33.6182H9.16663V36.7017H15.2777V33.6182Z" fill="#020553"/>
<path d="M18.0191 35.4007H20.9498V33.3311C23.05 32.8676 24.4444 31.3108 24.4444 29.3955C24.4444 26.3501 21.8731 25.7176 19.9955 25.2562C18.7254 24.9436 17.9467 24.7241 17.9467 24.1624C17.9467 23.9586 18.042 23.2839 19.2647 23.2839C20.1885 23.2839 20.7955 23.8171 20.8113 24.6421L20.8164 24.9171H24.0579V24.637C24.0579 23.6312 23.7778 22.7155 23.2466 21.9888C22.7073 21.2504 21.9164 20.7269 20.9498 20.4662V18.3334H18.0191V20.4254C17.1258 20.6413 16.3614 21.0768 15.7982 21.693C15.1748 22.3704 14.8324 23.2596 14.8403 24.1802C14.8403 25.4599 15.3235 26.4092 16.3171 27.083C17.1492 27.6467 18.207 27.9202 19.1404 28.1616C20.4808 28.5084 21.3023 28.7533 21.3023 29.397C21.3023 30.1258 20.4727 30.4517 19.6507 30.4517C18.5512 30.4517 17.8413 29.8584 17.8413 28.9407V28.6606H14.7175V28.9407C14.7175 30.9869 16.0054 32.6553 18.0191 33.2465V35.4007Z" fill="#020553"/>
<path d="M44.0865 42.7777C43.7337 44.2086 42.984 45.5109 41.9237 46.5345C40.3664 48.0526 38.2912 48.8888 36.079 48.8888H19.719C20.6692 47.9558 21.4301 46.8478 21.9597 45.626C22.3543 44.7192 22.6144 43.7596 22.7318 42.7777H44.0865Z" fill="#D7E7FF"/>
</svg>
