<svg width="58" height="36" viewBox="0 0 58 36" fill="none" xmlns="http://www.w3.org/2000/svg">
<path fill-rule="evenodd" clip-rule="evenodd" d="M27.2907 27.1866V30.9852H26.6822V22.2669H28.757C29.8395 22.2669 30.6383 22.4662 31.155 22.8656C31.6716 23.2658 31.9307 23.8669 31.9307 24.6697C31.9307 25.2545 31.7766 25.7481 31.4682 26.1492C31.1599 26.551 30.6916 26.8389 30.0634 27.0144L32.4318 30.986H31.7036L29.4557 27.1874H27.2907V27.1866ZM27.2907 26.6617H28.9547C29.6903 26.6617 30.2602 26.4977 30.6662 26.1697C31.0713 25.8416 31.2747 25.3578 31.2747 24.7173C31.2747 24.053 31.0754 23.57 30.6777 23.2682C30.2807 22.9656 29.6321 22.8147 28.7341 22.8147H27.2907V26.6609V26.6617ZM37.322 30.9844L37.1727 29.9593H37.1252C36.7988 30.3759 36.4642 30.6711 36.1197 30.845C35.7753 31.0172 35.3694 31.1041 34.9003 31.1041C34.2639 31.1041 33.7686 30.9401 33.4159 30.6145C33.0616 30.2889 32.8845 29.8371 32.8845 29.2614C32.8845 28.6291 33.1478 28.1379 33.6742 27.7877C34.2016 27.4375 34.9634 27.253 35.9623 27.2333L37.1965 27.1972V26.7683C37.1965 26.1516 37.071 25.6858 36.8209 25.3725C36.57 25.0585 36.1665 24.901 35.6096 24.901C35.0093 24.901 34.3877 25.0683 33.7431 25.4021L33.5225 24.8895C34.2344 24.5549 34.938 24.3884 35.6342 24.3884C36.3453 24.3884 36.8775 24.573 37.2293 24.9428C37.5811 25.3127 37.7566 25.8892 37.7566 26.6732V30.9844H37.322ZM34.9355 30.567C35.6277 30.567 36.1739 30.3693 36.5732 29.974C36.9726 29.5779 37.1719 29.0285 37.1719 28.3248V27.686L36.0394 27.7344C35.1291 27.7779 34.4796 27.9197 34.0925 28.1608C33.7046 28.4011 33.5102 28.7759 33.5102 29.2843C33.5102 29.6903 33.6349 30.006 33.8834 30.2299C34.1319 30.4546 34.482 30.567 34.9364 30.567H34.9355ZM41.1632 30.5793C41.5364 30.5793 41.8628 30.5465 42.1408 30.4833V30.9606C41.8206 31.0611 41.4864 31.1095 41.1509 31.1041C40.5785 31.1041 40.1562 30.9508 39.8839 30.6449C39.6116 30.3382 39.4755 29.8576 39.4755 29.2015V25.015H38.5152V24.6689L39.4747 24.3999L39.7732 22.9328H40.0774V24.5016H41.98V25.015H40.0774V29.1179C40.0774 29.6148 40.1652 29.9822 40.3399 30.2209C40.5146 30.4595 40.7893 30.5793 41.1632 30.5793ZM43.7276 30.9844H43.1372V24.5016H43.7276V30.9844ZM43.0544 22.7007C43.0544 22.3186 43.179 22.1283 43.43 22.1283C43.553 22.1283 43.6497 22.1775 43.7186 22.2767C43.7883 22.3768 43.8236 22.5178 43.8236 22.7007C43.8236 22.8795 43.7883 23.0205 43.7194 23.1239C43.689 23.1729 43.6462 23.213 43.5954 23.2403C43.5447 23.2677 43.4876 23.2812 43.43 23.2797C43.179 23.2797 43.0544 23.0862 43.0544 22.7007ZM50.0144 30.9844V26.7798C50.0144 26.1278 49.8774 25.6538 49.6027 25.3578C49.3288 25.0609 48.9032 24.9133 48.3267 24.9133C47.5517 24.9133 46.9842 25.1093 46.6242 25.5005C46.2642 25.8925 46.0846 26.5272 46.0846 27.4064V30.9844H45.4941V24.5016H45.9944L46.1083 25.3906H46.1444C46.5651 24.714 47.3147 24.3761 48.3923 24.3761C49.8635 24.3761 50.5991 25.1659 50.5991 26.7437V30.9844H50.0144ZM57.3509 24.5016V24.9133L56.0092 24.997C56.3668 25.4423 56.5455 25.931 56.5455 26.4641C56.5455 27.0873 56.3381 27.5942 55.9223 27.9812C55.5073 28.3691 54.9497 28.5635 54.2493 28.5635C53.9557 28.5635 53.7491 28.5512 53.6293 28.5274C53.3948 28.6504 53.216 28.7956 53.093 28.9621C52.97 29.1293 52.9076 29.3065 52.9076 29.4935C52.9076 29.7001 52.9864 29.851 53.143 29.947C53.3005 30.0421 53.5637 30.0897 53.9336 30.0897H55.0669C55.7706 30.0897 56.3093 30.2324 56.6825 30.5161C57.0564 30.8007 57.2434 31.2214 57.2434 31.7774C57.2434 32.4613 56.9662 32.9895 56.4119 33.361C55.8567 33.7325 55.0669 33.9186 54.041 33.9186C53.2258 33.9186 52.5944 33.762 52.1466 33.4479C51.6997 33.1338 51.4766 32.6959 51.4766 32.1358C51.4766 31.6905 51.6144 31.3206 51.8907 31.0262C52.1671 30.7318 52.5419 30.5309 53.0143 30.4243C52.8302 30.3486 52.669 30.2262 52.5468 30.0692C52.4303 29.918 52.3684 29.7319 52.3713 29.541C52.3713 29.108 52.6469 28.7259 53.1996 28.3962C52.8357 28.2519 52.5268 27.9961 52.3172 27.6655C52.1036 27.3233 51.994 26.9264 52.0015 26.5231C52.0015 25.8753 52.2065 25.3553 52.6182 24.9641C53.0298 24.5721 53.5859 24.3761 54.2854 24.3761C54.711 24.3761 55.0407 24.418 55.2752 24.5016H57.3509ZM52.1023 32.0816C52.1023 32.9723 52.7641 33.4184 54.0886 33.4184C55.7902 33.4184 56.6415 32.8747 56.6415 31.7897C56.6415 31.4002 56.5078 31.1172 56.2413 30.9425C55.9748 30.7679 55.5442 30.6801 54.9472 30.6801H53.8876C52.6985 30.6801 52.104 31.1476 52.104 32.0825L52.1023 32.0816ZM52.5977 26.5231C52.5977 27.0242 52.7494 27.4129 53.0536 27.6893C53.3579 27.9656 53.7646 28.1034 54.2731 28.1034C54.8143 28.1034 55.2285 27.9665 55.5172 27.6926C55.805 27.4178 55.9493 27.0201 55.9493 26.4993C55.9493 25.9466 55.8017 25.5316 55.5048 25.2561C55.2088 24.9797 54.7947 24.8411 54.2616 24.8411C53.745 24.8411 53.3382 24.9896 53.0421 25.2856C52.7453 25.5817 52.5977 25.9942 52.5977 26.5239V26.5231ZM37.4138 18.3215L36.6454 15.3971H31.5765L30.7867 18.3215H26.1549L31.2452 2.65379H36.8701L42.0243 18.3215H37.4138ZM35.7704 11.9388L35.0979 9.37765C34.9421 8.80851 34.751 8.07208 34.5271 7.16834C34.3032 6.26461 34.1556 5.61757 34.0843 5.22639C33.9706 5.82655 33.8443 6.42425 33.7054 7.01909C33.5168 7.85147 33.0985 9.49164 32.4515 11.9396H35.7704V11.9388ZM46.3125 11.9519H42.2909V9.19723H46.3125V5.20671H48.9942V9.19723H53.0257V11.9527H48.9934V15.9424H46.3117V11.9519H46.3125ZM6.67876 10.429L5.20917 12.453C4.47191 13.4682 4.70072 15.2658 5.70614 15.9924L8.43127 17.9606C8.89872 18.2977 8.93644 18.6331 8.7142 18.989L9.1103 19.2834L10.4897 17.3726C11.3426 16.1917 11.2679 14.5844 10.0034 13.6634L7.25609 11.6624C6.92642 11.4221 6.8928 11.0875 7.07485 10.7111L6.67876 10.429ZM9.03731 1.48025L6.74928 4.64495C5.67497 6.1293 6.06533 8.66336 7.53164 9.74013L11.2942 12.5013C12.0569 13.0606 12.1561 14.4859 11.6009 15.2175L11.9199 15.4561L14.5155 11.8051C15.68 10.1657 15.6127 7.74322 13.7831 6.41469L9.75899 3.49273C9.19559 3.08351 8.9143 2.3889 9.38339 1.72463L9.03731 1.48025ZM3.00642 21.3279H6.03909L6.57952 23.1665H11.5353L12.0757 21.3279H15.1084L14.7106 19.9756H3.40416L3.00642 21.3279ZM3.23605 29.7198H1.41874V28.1986H3.23523C4.57196 28.1986 4.48995 29.7198 3.23523 29.7198H3.23605ZM9.46048 29.7198H7.64481V28.1986H9.46212C10.7989 28.1986 10.7168 29.7198 9.46212 29.7198H9.46048ZM15.6874 29.7198H13.8701V28.1986H15.6874C17.0241 28.1986 16.9421 29.7198 15.6874 29.7198ZM3.11139 27.0086H1.41874V25.5866H3.04743C4.06597 25.5866 4.10205 27.0086 3.11139 27.0086ZM9.33746 27.0086H7.64399V25.5866H9.2735C10.2912 25.5866 10.3281 27.0086 9.33746 27.0086ZM15.5635 27.0086H13.8701V25.5866H15.4996C16.5165 25.5866 16.5542 27.0086 15.5635 27.0086ZM5.61347 28.8727C5.48389 27.9985 5.13208 27.7885 4.42681 27.4785C4.95986 27.1669 5.28789 26.7076 5.28789 26.0795C5.28789 24.8231 4.25869 24.3122 3.136 24.3122H0V30.9795H3.10647C4.43337 30.9795 5.83899 30.3997 5.61347 28.8718V28.8727ZM11.8395 28.8727C11.71 27.9985 11.3573 27.7885 10.6529 27.4785C11.1859 27.1669 11.5131 26.7076 11.5131 26.0795C11.5131 24.8231 10.4839 24.3122 9.36125 24.3122H6.22607V30.9795H9.33254C10.6594 30.9795 12.0651 30.3997 11.8395 28.8718V28.8727ZM18.0648 28.8727C17.936 27.9985 17.5834 27.7885 16.8789 27.4785C17.412 27.1669 17.7392 26.7076 17.7392 26.0795C17.7392 24.8231 16.71 24.3122 15.5873 24.3122H12.4513V30.9795H15.5578C16.8847 30.9795 18.2911 30.3997 18.0648 28.8718V28.8727ZM18.6675 30.7605C18.6678 30.7354 18.6639 30.7105 18.6561 30.6867C18.6483 30.6645 18.6357 30.6443 18.6192 30.6276C18.599 30.6076 18.5757 30.591 18.5503 30.5784C18.5156 30.5606 18.4797 30.5452 18.4428 30.5325C18.4108 30.5219 18.3793 30.5095 18.3485 30.4956C18.3284 30.4865 18.3096 30.4746 18.2928 30.4603C18.2808 30.4505 18.2714 30.4378 18.2657 30.4234C18.2565 30.3959 18.2571 30.3661 18.2673 30.339C18.2733 30.3251 18.2826 30.313 18.2944 30.3037C18.3083 30.2926 18.3241 30.2843 18.3412 30.2791C18.3636 30.2729 18.3868 30.2701 18.41 30.2709C18.4785 30.2691 18.545 30.2941 18.5954 30.3406L18.6503 30.275C18.5838 30.2214 18.5004 30.1929 18.415 30.1946C18.3817 30.1941 18.3486 30.1983 18.3166 30.2069C18.2888 30.2145 18.2629 30.2277 18.2403 30.2455C18.2197 30.262 18.203 30.2827 18.1911 30.3062C18.1698 30.3544 18.1677 30.409 18.1853 30.4587C18.1933 30.4801 18.2059 30.4994 18.2222 30.5153C18.2395 30.5317 18.2632 30.5481 18.2911 30.5629C18.325 30.5798 18.3601 30.5943 18.3961 30.6063C18.4322 30.6178 18.4617 30.6309 18.4847 30.6424C18.5052 30.6518 18.5244 30.6636 18.5421 30.6777C18.5553 30.6884 18.5657 30.7022 18.5724 30.7178C18.5783 30.733 18.5811 30.7492 18.5806 30.7654C18.5814 30.7835 18.5778 30.8016 18.5701 30.818C18.5624 30.8344 18.5508 30.8487 18.5363 30.8597C18.5006 30.8845 18.4576 30.8966 18.4141 30.8942C18.3758 30.8946 18.338 30.8862 18.3034 30.8696C18.2686 30.8525 18.2366 30.8304 18.2083 30.804L18.1509 30.8663C18.2212 30.9326 18.3141 30.9699 18.4109 30.9704C18.4519 30.9704 18.4871 30.9647 18.5191 30.954C18.5485 30.9445 18.5757 30.9295 18.5995 30.9097C18.6212 30.8921 18.6386 30.8696 18.6503 30.8441C18.6617 30.8177 18.6673 30.7892 18.6667 30.7605H18.6675ZM19.4696 30.9581V30.2061H19.3753L19.1908 30.6572L19.176 30.6932C19.1611 30.7291 19.1475 30.7655 19.135 30.8023C19.1324 30.7924 19.1294 30.7825 19.126 30.7728L19.1112 30.7351C19.1059 30.7213 19.1005 30.7077 19.0948 30.6941L19.0809 30.6563L18.898 30.2053H18.802V30.9581H18.8849V30.3677L18.8931 30.3947C18.8966 30.4058 18.9004 30.4167 18.9046 30.4275L18.9169 30.4612C18.921 30.4735 18.9251 30.4841 18.93 30.4931L19.1334 30.9778L19.34 30.4931C19.3548 30.4611 19.3677 30.4283 19.3786 30.3947L19.3868 30.3685V30.959H19.4688L19.4696 30.9581ZM22.2021 0V36V0Z" fill="#020553"/>
<path d="M22.7354 0V32" stroke="#020553" stroke-width="0.787"/>
</svg>
