<svg width="55" height="55" viewBox="0 0 55 55" fill="none" xmlns="http://www.w3.org/2000/svg">
<path d="M22.996 9.62501C23.2282 8.69001 23.766 7.83446 24.5115 7.21723C25.2571 6.60001 26.1982 6.23946 27.1638 6.18446C27.2432 6.18446 27.3227 6.17834 27.396 6.17834C28.2943 6.17834 29.156 6.44112 29.9076 6.93612C30.7143 7.46779 31.3377 8.26223 31.6615 9.17279C31.9915 10.0833 32.016 11.0917 31.741 12.0145C31.466 12.9372 30.8854 13.7683 30.1093 14.3428C29.3332 14.9233 28.3799 15.2411 27.4143 15.2472H27.3715C26.4793 15.2472 25.6115 14.9783 24.8721 14.4772C24.1327 13.9822 23.5582 13.2795 23.2099 12.4545C22.8371 11.5622 22.7638 10.5539 22.996 9.6189V9.62501Z" fill="#D7E7FF"/>
<path d="M19.8855 21.0955C21.9816 19.3478 24.646 18.3822 27.3716 18.3822H27.4021C30.1338 18.3822 32.7921 19.3478 34.8882 21.0955C36.8438 22.7272 38.2188 24.9578 38.7932 27.4266H15.9805C16.5549 24.9578 17.9299 22.7211 19.8855 21.0955Z" fill="#D7E7FF"/>
<path d="M9.57615 48.9194C11.5202 48.9194 13.0962 47.3434 13.0962 45.3994C13.0962 43.4554 11.5202 41.8794 9.57615 41.8794C7.63211 41.8794 6.05615 43.4554 6.05615 45.3994C6.05615 47.3434 7.63211 48.9194 9.57615 48.9194Z" fill="white"/>
<path d="M27.396 48.9806C29.34 48.9806 30.916 47.4046 30.916 45.4606C30.916 43.5165 29.34 41.9406 27.396 41.9406C25.4519 41.9406 23.876 43.5165 23.876 45.4606C23.876 47.4046 25.4519 48.9806 27.396 48.9806Z" fill="white"/>
<path d="M45.4238 48.9194C47.3679 48.9194 48.9438 47.3434 48.9438 45.3994C48.9438 43.4554 47.3679 41.8794 45.4238 41.8794C43.4798 41.8794 41.9038 43.4554 41.9038 45.3994C41.9038 47.3434 43.4798 48.9194 45.4238 48.9194Z" fill="white"/>
<path d="M46.6765 39.0683V33.5133H28.9237V30.5616H42.2398V30.1033C42.2398 23.9005 38.4448 18.4311 32.7126 16.2372C33.3481 15.62 33.8859 14.8927 34.2709 14.0922C34.7781 13.0533 35.047 11.8922 35.047 10.7311C35.047 6.5144 31.6126 3.07996 27.3959 3.07996C23.1792 3.07996 19.7448 6.5144 19.7448 10.7311C19.7448 11.8861 20.0137 13.0472 20.5209 14.0922C20.912 14.8866 21.4437 15.62 22.0792 16.2372C16.347 18.4311 12.552 23.9066 12.552 30.1033V30.5616H25.8742V33.5133H8.10924V39.1172C5.24924 39.7833 3.11035 42.3438 3.11035 45.4055C3.11035 48.9683 6.00702 51.865 9.5698 51.865C13.1326 51.865 16.0292 48.9683 16.0292 45.4055C16.0292 42.3927 13.9515 39.8627 11.1587 39.1538V36.575H25.8559V39.2027C23.0326 39.8933 20.9242 42.4355 20.9242 45.4727C20.9242 49.0355 23.8209 51.9322 27.3837 51.9322C30.9465 51.9322 33.8431 49.0355 33.8431 45.4727C33.8431 42.4355 31.7348 39.8872 28.9053 39.2027V36.5811H43.6026V39.215C40.9137 39.9972 38.9459 42.4783 38.9459 45.4116C38.9459 48.9744 41.8426 51.8711 45.4053 51.8711C48.9681 51.8711 51.8648 48.9744 51.8648 45.4116C51.8648 42.2766 49.622 39.6611 46.6581 39.0744L46.6765 39.0683ZM22.9959 9.62496C23.2281 8.68996 23.7659 7.8344 24.5115 7.21718C25.257 6.59996 26.1981 6.2394 27.1637 6.1844C27.2431 6.1844 27.3226 6.17829 27.3959 6.17829C28.2942 6.17829 29.1559 6.44107 29.9076 6.93607C30.7142 7.46773 31.3376 8.26218 31.6615 9.17273C31.9915 10.0833 32.0159 11.0916 31.7409 12.0144C31.4659 12.9372 30.8853 13.7683 30.1092 14.3427C29.3331 14.9233 28.3798 15.2411 27.4142 15.2472H27.3715C26.4792 15.2472 25.6115 14.9783 24.872 14.4772C24.1326 13.9822 23.5581 13.2794 23.2098 12.4544C22.837 11.5622 22.7637 10.5538 22.9959 9.61885V9.62496ZM19.8853 21.0955C21.9815 19.3477 24.6459 18.3822 27.3715 18.3822H27.402C30.1337 18.3822 32.792 19.3477 34.8881 21.0955C36.8437 22.7272 38.2187 24.9577 38.7931 27.4266H15.9803C16.5548 24.9577 17.9298 22.7211 19.8853 21.0955ZM13.0959 45.3994C13.0959 47.3427 11.5131 48.9194 9.57591 48.9194C7.63868 48.9194 6.05591 47.3366 6.05591 45.3994C6.05591 43.4622 7.63868 41.8794 9.57591 41.8794C11.5131 41.8794 13.0959 43.4622 13.0959 45.3994ZM30.9159 45.4605C30.9159 47.4038 29.3331 48.9805 27.3959 48.9805C25.4587 48.9805 23.8759 47.3977 23.8759 45.4605C23.8759 43.5233 25.4587 41.9405 27.3959 41.9405C29.3331 41.9405 30.9159 43.5233 30.9159 45.4605ZM45.4237 48.9255C43.4804 48.9255 41.9037 47.3427 41.9037 45.4055C41.9037 43.4683 43.4865 41.8855 45.4237 41.8855C47.3609 41.8855 48.9437 43.4683 48.9437 45.4055C48.9437 47.3427 47.3609 48.9255 45.4237 48.9255Z" fill="#020553"/>
</svg>
