<svg width="28" height="28" viewBox="0 0 28 28" fill="none" xmlns="http://www.w3.org/2000/svg">
<path d="M6.95654 24.9387H17.0677C19.261 24.9387 21.0437 23.156 21.0437 20.9627V3.0769H6.95654V24.9387Z" fill="white"/>
<path d="M17.951 6.35913H10.083V8.62713H17.951V6.35913Z" fill="#D7E7FF"/>
<path d="M17.0673 26.4102H5.48779V1.60535H22.5149V20.9627C22.5149 23.9649 20.0727 26.4102 17.0673 26.4102ZM6.95935 24.9387H17.0673C19.2607 24.9387 21.0433 23.156 21.0433 20.9627V3.0769H6.95624V24.9387H6.95935Z" fill="#020553"/>
<path d="M19.416 10.0925H8.61426V4.89069H19.416V10.0894V10.0925ZM10.0827 8.62713H17.9507V6.35913H10.0827V8.62713Z" fill="#020553"/>
<path d="M9.94269 14.224C10.63 14.224 11.1871 13.6669 11.1871 12.9796C11.1871 12.2923 10.63 11.7351 9.94269 11.7351C9.2554 11.7351 8.69824 12.2923 8.69824 12.9796C8.69824 13.6669 9.2554 14.224 9.94269 14.224Z" fill="#020553"/>
<path d="M18.075 14.224C18.7623 14.224 19.3195 13.6669 19.3195 12.9796C19.3195 12.2923 18.7623 11.7351 18.075 11.7351C17.3877 11.7351 16.8306 12.2923 16.8306 12.9796C16.8306 13.6669 17.3877 14.224 18.075 14.224Z" fill="#020553"/>
<path d="M14.015 14.224C14.7022 14.224 15.2594 13.6669 15.2594 12.9796C15.2594 12.2923 14.7022 11.7351 14.015 11.7351C13.3277 11.7351 12.7705 12.2923 12.7705 12.9796C12.7705 13.6669 13.3277 14.224 14.015 14.224Z" fill="#020553"/>
<path d="M9.94269 18.3027C10.63 18.3027 11.1871 17.7455 11.1871 17.0583C11.1871 16.371 10.63 15.8138 9.94269 15.8138C9.2554 15.8138 8.69824 16.371 8.69824 17.0583C8.69824 17.7455 9.2554 18.3027 9.94269 18.3027Z" fill="#020553"/>
<path d="M18.075 18.3027C18.7623 18.3027 19.3195 17.7455 19.3195 17.0583C19.3195 16.371 18.7623 15.8138 18.075 15.8138C17.3877 15.8138 16.8306 16.371 16.8306 17.0583C16.8306 17.7455 17.3877 18.3027 18.075 18.3027Z" fill="#020553"/>
<path d="M14.015 18.3027C14.7022 18.3027 15.2594 17.7455 15.2594 17.0583C15.2594 16.371 14.7022 15.8138 14.015 15.8138C13.3277 15.8138 12.7705 16.371 12.7705 17.0583C12.7705 17.7455 13.3277 18.3027 14.015 18.3027Z" fill="#020553"/>
<path d="M9.94269 22.3752C10.63 22.3752 11.1871 21.818 11.1871 21.1307C11.1871 20.4434 10.63 19.8863 9.94269 19.8863C9.2554 19.8863 8.69824 20.4434 8.69824 21.1307C8.69824 21.818 9.2554 22.3752 9.94269 22.3752Z" fill="#020553"/>
<path d="M18.075 19.8863H14.015C13.3274 19.8863 12.7705 20.4432 12.7705 21.1307C12.7705 21.8183 13.3274 22.3752 14.015 22.3752H18.075C18.7625 22.3752 19.3194 21.8183 19.3194 21.1307C19.3194 20.4432 18.7625 19.8863 18.075 19.8863Z" fill="#020553"/>
</svg>
