<svg width="36" height="36" viewBox="0 0 36 36" fill="none" xmlns="http://www.w3.org/2000/svg">
<path d="M17.793 3.2257C18.6696 3.22329 19.538 3.3949 20.3478 3.73059C21.1577 4.06628 21.893 4.55938 22.5111 5.18135C23.1327 5.79994 23.6254 6.53574 23.9609 7.34618C24.2963 8.15662 24.4678 9.0256 24.4654 9.90281C24.4678 10.78 24.2963 11.649 23.9609 12.4594C23.6254 13.2699 23.1327 14.0057 22.5111 14.6243C21.893 15.2462 21.1577 15.7393 20.3478 16.075C19.538 16.4107 18.6696 16.5823 17.793 16.5799C16.9164 16.5823 16.0481 16.4107 15.2382 16.075C14.4283 15.7393 13.693 15.2462 13.0749 14.6243C12.4533 14.0057 11.9606 13.2699 11.6251 12.4594C11.2897 11.649 11.1182 10.78 11.1206 9.90281C11.1182 9.0256 11.2897 8.15662 11.6251 7.34618C11.9606 6.53574 12.4533 5.79994 13.0749 5.18135C13.693 4.55938 14.4283 4.06628 15.2382 3.73059C16.0481 3.3949 16.9164 3.22329 17.793 3.2257ZM17.793 1C12.8795 1 8.89648 4.98586 8.89648 9.90281C8.89648 14.8198 12.8795 18.8056 17.793 18.8056C22.7065 18.8056 26.6895 14.8198 26.6895 9.90281C26.6895 4.98586 22.7065 1 17.793 1Z" fill="#020553"/>
<path d="M17.7937 18.8048C19.8753 18.8006 21.9364 19.217 23.8533 20.0289C25.7035 20.8109 27.3845 21.9447 28.8031 23.3675C30.2249 24.7867 31.3579 26.4685 32.1393 28.3197C32.659 29.5476 33.0172 30.8378 33.205 32.1579H2.3809C2.5692 30.8377 2.92793 29.5475 3.44811 28.3197C4.2294 26.4682 5.36242 24.7861 6.7843 23.3668C8.20273 21.944 9.88359 20.8101 11.7337 20.0282C13.6505 19.2163 15.7115 18.7999 17.793 18.8041L17.7937 18.8048ZM17.793 16.5784C7.96643 16.5784 0 24.5497 0 34.384H35.5859C35.5859 24.5497 27.6199 16.5784 17.793 16.5784Z" fill="#020553"/>
</svg>
