<?xml version="1.0" encoding="utf-8"?>
<!-- Generator: Adobe Illustrator 26.0.1, SVG Export Plug-In . SVG Version: 6.00 Build 0)  -->
<svg version="1.1" id="Layer_1" xmlns="http://www.w3.org/2000/svg" xmlns:xlink="http://www.w3.org/1999/xlink" x="0px" y="0px"
	 viewBox="0 0 43 37" style="enable-background:new 0 0 43 37;" xml:space="preserve">
<style type="text/css">
	.st0{fill:none;}
	.st1{fill:#020553;}
	.st2{fill:#D7E7FF;}
</style>
<g>
	<rect x="3.2" y="0.2" class="st0" width="35.7" height="35.7"/>
	<path class="st1" d="M31,4.2H11.1l-5.9,8.9h0c0,1.7,0.8,3.3,2,4.4V34h27.8v-4v-9.9v-2.6c1.2-1.1,2-2.6,2-4.4L31,4.2z M34.5,13.1
		h-0.2h-6.5h-0.9l-2.2-6.9h5.2L34.5,13.1z M32.2,16.8c-0.4,0.1-0.7,0.2-1.1,0.2c-0.3,0-0.5,0-0.8-0.1c-0.1,0-0.2,0-0.3-0.1
		c-0.1,0-0.2-0.1-0.3-0.1c-0.3-0.1-0.7-0.3-1-0.6c0,0-0.1,0-0.1-0.1c-0.1,0-0.1-0.1-0.2-0.1c0,0-0.1,0-0.1-0.1
		c-0.1-0.1-0.1-0.1-0.2-0.2c-0.1-0.1-0.1-0.1-0.1-0.2c-0.1-0.1-0.2-0.2-0.3-0.4h6.5c-0.1,0.1-0.1,0.2-0.2,0.3
		c-0.1,0.1-0.2,0.2-0.3,0.3c0,0-0.1,0.1-0.1,0.1c-0.1,0.1-0.2,0.1-0.2,0.2c0,0-0.1,0-0.1,0.1C33.1,16.4,32.7,16.6,32.2,16.8z
		 M19.5,16.6c-0.3-0.1-0.6-0.3-0.8-0.5c-0.1-0.1-0.2-0.2-0.3-0.3c-0.2-0.2-0.4-0.5-0.6-0.7h6.5c-0.1,0.1-0.2,0.3-0.3,0.4
		c0,0.1-0.1,0.1-0.1,0.2c-0.1,0.1-0.1,0.1-0.2,0.2c-0.1,0.1-0.2,0.2-0.3,0.3c-0.7,0.5-1.5,0.8-2.4,0.8c-0.1,0-0.2,0-0.3,0
		C20.3,16.9,19.9,16.8,19.5,16.6z M10.3,16.9c-0.1,0-0.1,0-0.2,0c-0.5-0.1-1-0.3-1.5-0.7c0,0-0.1-0.1-0.1-0.1
		c-0.1-0.1-0.2-0.2-0.3-0.3c-0.2-0.2-0.4-0.5-0.6-0.7h6.5c-0.1,0.1-0.1,0.2-0.2,0.3c0,0.1-0.1,0.1-0.1,0.2c0,0,0,0.1-0.1,0.1
		c-0.1,0.1-0.1,0.1-0.2,0.2c-0.1,0.1-0.2,0.1-0.2,0.2c0,0-0.1,0-0.1,0.1c-0.7,0.5-1.5,0.8-2.4,0.8c-0.1,0-0.2,0-0.3,0
		C10.5,16.9,10.4,16.9,10.3,16.9z M17.2,13.1l2.2-6.9h3.2l2.2,6.9h-0.5h0h-6.5H17.2z M12.2,6.2h5.2l-2.2,6.9h-0.9h0H7.7H7.6
		L12.2,6.2z M14.1,32V24c0-1.1,0.9-2,2-2c1.1,0,2,0.9,2,2V32H14.1z M33,28H24v-6H33V28z M33,18.6v1.4H22V30H33v2H20.1V24
		c0-2.2-1.8-4-4-4h0c-2.2,0-4,1.8-4,4V32h-3V18.6c0.2,0.1,0.3,0.1,0.5,0.1c0,0,0,0,0,0c0,0,0.1,0,0.1,0c0,0,0,0,0,0c0,0,0.1,0,0.1,0
		c0,0,0,0,0,0c0.1,0,0.3,0,0.4,0.1c0,0,0,0,0,0c0,0,0.1,0,0.1,0c0,0,0,0,0,0c0,0,0.1,0,0.1,0c0,0,0,0,0,0c0,0,0.1,0,0.1,0
		c0,0,0,0,0,0c0,0,0.1,0,0.1,0c0,0,0,0,0,0c0,0,0.1,0,0.1,0c0.1,0,0.1,0,0.2,0c0,0,0,0,0,0c0.1,0,0.1,0,0.2,0c0,0,0,0,0,0
		c0.1,0,0.1,0,0.2,0c0,0,0,0,0,0c0.1,0,0.1,0,0.2,0c0,0,0,0,0,0c0.1,0,0.2,0,0.4-0.1c0,0,0,0,0,0c0.3-0.1,0.5-0.1,0.8-0.2
		c0.6-0.2,1.1-0.5,1.6-0.9c0,0,0,0,0,0c0,0,0.1-0.1,0.1-0.1c0,0,0,0,0,0c0,0,0,0,0,0c0,0,0.1-0.1,0.1-0.1c0,0,0,0,0,0
		c0,0,0.1,0,0.1-0.1c0,0,0,0,0.1,0c0,0,0,0,0.1-0.1c0,0,0,0,0.1-0.1c0,0,0,0,0,0c0,0,0,0,0.1-0.1c0,0,0,0,0.1-0.1
		c0,0,0.1-0.1,0.1-0.1c0,0,0,0,0,0c0.2-0.3,0.4-0.5,0.6-0.8l0,0h0.1l0,0c0.2,0.2,0.3,0.5,0.5,0.7c0,0,0,0,0,0c0,0,0.1,0.1,0.1,0.1
		c0,0,0,0,0.1,0.1c0,0,0,0.1,0.1,0.1c0,0,0,0,0.1,0.1c0,0,0,0,0.1,0.1c0,0,0,0,0,0c0,0,0,0,0.1,0.1c0,0,0,0,0.1,0.1c0,0,0,0,0.1,0
		c0,0,0.1,0,0.1,0.1c0,0,0,0,0,0c0,0,0.1,0.1,0.1,0.1c0,0,0,0,0,0c0,0,0,0,0,0c0,0,0.1,0.1,0.1,0.1c0,0,0,0,0,0
		c0.5,0.4,1,0.7,1.6,0.9c0.1,0,0.3,0.1,0.4,0.1c0,0,0,0,0,0c0.1,0,0.2,0.1,0.4,0.1c0,0,0,0,0,0c0.1,0,0.2,0,0.4,0.1c0,0,0,0,0,0
		c0.1,0,0.1,0,0.2,0c0,0,0,0,0,0c0.1,0,0.1,0,0.2,0c0,0,0,0,0,0c0.1,0,0.1,0,0.2,0c0,0,0,0,0,0c0.1,0,0.1,0,0.2,0c0.1,0,0.1,0,0.2,0
		c0,0,0,0,0,0c0.1,0,0.1,0,0.2,0c0,0,0,0,0,0c0.1,0,0.1,0,0.2,0c0,0,0,0,0,0c0.1,0,0.1,0,0.2,0c0,0,0,0,0,0c0.1,0,0.2,0,0.4-0.1
		c0,0,0,0,0,0c0.1,0,0.2-0.1,0.4-0.1c0,0,0,0,0,0c0.1,0,0.3-0.1,0.4-0.1c0.6-0.2,1.2-0.5,1.7-0.9l0,0c0,0,0,0,0,0c0,0,0,0,0,0
		c0,0,0.1-0.1,0.1-0.1c0,0,0,0,0,0c0,0,0.1,0,0.1-0.1c0,0,0,0,0.1,0c0,0,0,0,0.1-0.1c0,0,0,0,0.1-0.1c0,0,0,0,0,0c0,0,0,0,0.1-0.1
		c0,0,0,0,0.1-0.1c0,0,0-0.1,0.1-0.1c0,0,0,0,0.1-0.1c0,0,0.1-0.1,0.1-0.1c0,0,0,0,0,0c0.2-0.2,0.4-0.5,0.5-0.7l0,0h0.1l0,0
		c0.2,0.3,0.4,0.6,0.6,0.8c0,0,0,0,0,0c0,0,0.1,0.1,0.1,0.1c0,0,0,0,0.1,0.1c0,0,0,0,0.1,0.1c0,0,0,0,0,0c0,0,0,0,0.1,0.1
		c0,0,0,0,0.1,0.1c0,0,0,0,0.1,0.1c0,0,0,0,0.1,0.1c0,0,0,0,0.1,0c0,0,0.1,0,0.1,0.1c0,0,0,0,0,0c0,0,0,0,0,0c0,0,0.1,0.1,0.1,0.1
		c0,0,0,0,0,0c0.5,0.4,1,0.7,1.6,0.9c0.1,0,0.3,0.1,0.4,0.1c0,0,0,0,0,0c0.1,0,0.2,0.1,0.4,0.1c0,0,0,0,0,0c0.1,0,0.2,0,0.4,0.1
		c0,0,0,0,0,0c0.1,0,0.1,0,0.2,0c0,0,0,0,0,0c0.1,0,0.1,0,0.2,0c0,0,0,0,0,0c0.1,0,0.1,0,0.2,0c0,0,0,0,0,0c0.1,0,0.1,0,0.2,0
		c0,0,0.1,0,0.1,0c0,0,0,0,0,0c0,0,0.1,0,0.1,0c0,0,0,0,0,0c0,0,0.1,0,0.1,0c0,0,0,0,0,0c0,0,0.1,0,0.1,0c0,0,0,0,0,0
		c0,0,0.1,0,0.1,0c0,0,0,0,0,0c0.2,0,0.3,0,0.5-0.1c0,0,0,0,0,0c0,0,0.1,0,0.1,0c0,0,0,0,0,0C32.6,18.7,32.8,18.7,33,18.6z"/>
</g>
<path class="st2" d="M14.1,32V24c0-1.1,0.9-2,2-2c1.1,0,2,0.9,2,2V32H14.1z"/>
</svg>
