<svg width="28" height="28" viewBox="0 0 28 28" fill="none" xmlns="http://www.w3.org/2000/svg">
<path d="M3.11108 9.11452V6.22222H8.34993H18.8722H24.1111V9.11452V9.68385L20.2893 10.6701L13.6111 12.3934L6.93282 10.6701L3.11108 9.68385V9.11452Z" fill="#D7E7FF"/>
<path d="M13.6111 10.9983C13.9095 10.9987 14.1959 10.8806 14.4073 10.6701C14.5133 10.5651 14.5974 10.4402 14.6548 10.3025C14.7121 10.1648 14.7415 10.0171 14.7412 9.86793C14.7417 9.58982 14.6391 9.3214 14.4532 9.11452C14.3474 8.99583 14.2177 8.9009 14.0725 8.83597C13.9274 8.77104 13.7701 8.73758 13.6111 8.73781C13.4521 8.73758 13.2949 8.77104 13.1497 8.83597C13.0046 8.9009 12.8749 8.99583 12.7691 9.11452C12.5832 9.3214 12.4806 9.58982 12.481 9.86793C12.4808 10.0171 12.5102 10.1648 12.5675 10.3025C12.6248 10.4402 12.7089 10.5651 12.8149 10.6701C13.0264 10.8806 13.3127 10.9987 13.6111 10.9983Z" fill="#020553"/>
<path d="M24.8889 16.1065V11.0896L25.6666 10.8889V4.66667H18.4369C17.6024 2.83319 15.7531 1.55556 13.6111 1.55556C11.4691 1.55556 9.6185 2.83319 8.78524 4.66667H1.55554V10.8889L2.33332 11.0896V20.2222H14C14 23.6587 16.7857 26.4444 20.2222 26.4444C23.6587 26.4444 26.4444 23.6587 26.4444 20.2222C26.4467 18.7062 25.8933 17.242 24.8889 16.1065ZM13.6111 3.11111C14.2041 3.11113 14.7887 3.2522 15.3165 3.52267C15.8443 3.79315 16.3001 4.18527 16.6465 4.66667H10.5757C10.922 4.18527 11.3779 3.79315 11.9057 3.52267C12.4335 3.2522 13.018 3.11113 13.6111 3.11111ZM3.1111 9.11452V6.22222H24.1111V9.68333L20.2894 10.6685L13.6111 12.3934L6.93284 10.6701L3.1111 9.68333V9.11452ZM3.88888 18.6667V11.4911L13.6111 14L23.3333 11.4911V14.8322C22.3878 14.2853 21.3145 13.9982 20.2222 14C17.3229 14 14.8867 15.9831 14.1962 18.6667H3.88888ZM23.5221 23.5221C23.0897 23.9568 22.5755 24.3014 22.009 24.536C21.4426 24.7706 20.8353 24.8906 20.2222 24.8889C19.6091 24.8906 19.0018 24.7706 18.4354 24.536C17.8689 24.3014 17.3547 23.9568 16.9224 23.5221C16.4877 23.0897 16.143 22.5755 15.9084 22.0091C15.6738 21.4426 15.5539 20.8353 15.5555 20.2222C15.5548 19.6925 15.6442 19.1664 15.82 18.6667C16.0521 18.01 16.4288 17.4139 16.9224 16.9224C17.3547 16.4877 17.8689 16.143 18.4354 15.9084C19.0018 15.6738 19.6091 15.5539 20.2222 15.5556C21.3706 15.5523 22.4793 15.9756 23.3333 16.7435C23.3976 16.8014 23.4605 16.861 23.5221 16.9224C23.9568 17.3547 24.3014 17.869 24.536 18.4354C24.7706 19.0018 24.8906 19.6091 24.8889 20.2222C24.8906 20.8353 24.7706 21.4426 24.536 22.0091C24.3014 22.5755 23.9568 23.0897 23.5221 23.5221Z" fill="#020553"/>
<path d="M20.4206 19.452C19.7877 19.2964 19.3999 19.1862 19.3999 18.8953C19.3983 18.8137 19.4226 18.7336 19.4693 18.6667C19.5707 18.5238 19.7789 18.4434 20.0672 18.4434C20.3226 18.4434 20.53 18.5246 20.6661 18.6667C20.7786 18.7836 20.8429 18.942 20.8476 19.1302L20.8496 19.2448H22.399V19.1281C22.3994 18.9733 22.3851 18.8188 22.3562 18.6667C22.302 18.3688 22.182 18.0869 22.0052 17.8412C21.7589 17.5042 21.4047 17.2597 20.9728 17.1261V16.1729H19.4738V17.0803C19.033 17.184 18.6586 17.3971 18.3828 17.6988C18.1354 17.9669 17.9782 18.3057 17.9332 18.6677C17.9231 18.7465 17.9181 18.8258 17.9182 18.9052C17.9182 19.4717 18.1134 19.9046 18.5145 20.2233C18.5525 20.2539 18.5924 20.2832 18.6343 20.3114C19.0395 20.5857 19.557 20.7195 20.0133 20.8374C20.6803 21.0101 21.0892 21.1327 21.0892 21.4638C21.0892 21.7858 20.7553 22.002 20.2596 22.002C19.7076 22.002 19.3509 21.7029 19.3509 21.2398V21.1232H17.8599V21.2398C17.8599 22.238 18.4906 23.051 19.4756 23.3354V24.2726H20.9746V23.3546C21.9492 23.108 22.5903 22.3681 22.5903 21.4638C22.5903 20.9002 22.4088 20.5069 22.1317 20.2233C21.6813 19.762 20.9863 19.5912 20.4206 19.452Z" fill="#020553"/>
</svg>
