<svg width="28" height="28" viewBox="0 0 28 28" fill="none" xmlns="http://www.w3.org/2000/svg">
<path d="M27.9056 13.0854C27.3893 13.0238 26.8699 12.9924 26.3499 12.9913C21.4429 12.9913 17.1593 15.6655 14.8783 19.6364V13.8789C18.3016 13.4376 20.9467 10.5108 20.9467 6.9685C20.9467 3.11985 17.8269 0 13.9782 0C10.1296 0 7.00973 3.11985 7.00973 6.9685C7.00973 10.532 9.68476 13.4724 13.1362 13.8865V19.6314C10.8537 15.6536 6.56549 12.9765 1.65153 12.9765C1.13109 12.9778 0.611158 13.0093 0.0943651 13.0709C0.0325125 13.5877 0.00100351 14.1078 0 14.6283C0 21.9365 5.92467 27.8612 13.2329 27.8612C13.4936 27.8612 13.7524 27.8532 14.0093 27.8371C14.2642 27.8528 14.5212 27.8607 14.7802 27.8609C22.0811 27.8609 28 21.9423 28 14.6411C27.9989 14.1211 27.9673 13.6017 27.9056 13.0854V13.0854ZM10.2826 10.6641C9.45626 9.83667 8.93152 8.75585 8.79242 7.59475C8.65332 6.43365 8.9079 5.25946 9.51539 4.26024C10.1229 3.26101 11.0481 2.49456 12.143 2.08365C13.2378 1.67273 14.4388 1.64113 15.5538 1.99389C16.6687 2.34666 17.633 3.06338 18.2922 4.02927C18.9514 4.99516 19.2674 6.15434 19.1895 7.32115C19.1117 8.48795 18.6445 9.59488 17.8628 10.4646C17.0812 11.3344 16.0302 11.9167 14.8783 12.1182C14.5906 12.1677 14.2992 12.1933 14.0073 12.1949H13.9782C13.6962 12.195 13.4146 12.1725 13.1362 12.1278C12.0543 11.9535 11.0554 11.4411 10.2826 10.6641V10.6641ZM5.10762 22.7533C2.97131 20.6232 1.76198 17.736 1.74241 14.7192C3.98591 14.7382 6.17491 15.4126 8.04007 16.6595C9.90522 17.9064 11.3651 19.6715 12.2402 21.7374C12.7881 23.0316 13.0919 24.4161 13.1362 25.8209C13.1333 25.9196 13.1313 26.0186 13.131 26.1182C10.1179 26.0964 7.23489 24.8873 5.10762 22.7533V22.7533ZM25.3566 19.1082C24.4864 21.1718 23.0308 22.9353 21.1697 24.1811C19.3086 25.4268 17.1233 26.1003 14.8838 26.1182C14.8838 26.0183 14.8821 25.9189 14.8786 25.82C14.9768 22.8604 16.2161 20.0536 18.337 17.9871C20.458 15.9206 23.2962 14.7548 26.2573 14.7337C26.2485 16.237 25.9424 17.7237 25.3566 19.1082V19.1082Z" fill="#020553"/>
<path d="M10.2826 10.6641C9.45625 9.83667 8.93151 8.75585 8.7924 7.59475C8.6533 6.43365 8.90788 5.25946 9.51537 4.26023C10.1229 3.26101 11.0481 2.49456 12.1429 2.08365C13.2378 1.67273 14.4388 1.64112 15.5538 1.99389C16.6687 2.34665 17.633 3.06338 18.2922 4.02927C18.9514 4.99516 19.2674 6.15434 19.1895 7.32115C19.1117 8.48795 18.6445 9.59488 17.8628 10.4646C17.0812 11.3344 16.0302 11.9167 14.8783 12.1182C14.5906 12.1677 14.2992 12.1933 14.0072 12.1949H13.9782C13.6962 12.195 13.4146 12.1726 13.1362 12.1278C12.0543 11.9535 11.0553 11.4411 10.2826 10.6641Z" fill="#D7E7FF"/>
</svg>
