<svg width="36" height="36" viewBox="0 0 36 36" fill="none" xmlns="http://www.w3.org/2000/svg">
<path d="M31.9921 12.4647C32.6003 12.1135 33.1053 11.6085 33.4564 11.0003C33.8074 10.3921 33.9922 9.70224 33.9921 9V5H13.9921V9C13.9909 9.70223 14.1756 10.3923 14.5275 11H11.9921C6.47679 11.009 2.00879 15.4827 2.00879 21C2.00879 26.523 6.48579 31 12.0088 31C12.8395 31.0007 13.6671 30.8979 14.4725 30.694C14.9592 30.8967 15.4815 31.0008 16.0088 31H28.0088C29.0697 31 30.0871 30.5786 30.8372 29.8284C31.5874 29.0783 32.0088 28.0609 32.0088 27V24.455C32.6124 24.1026 33.1132 23.5982 33.4612 22.992C33.8092 22.3858 33.9922 21.699 33.9921 21V17H31.4568C31.8086 16.3923 31.9933 15.7022 31.9921 15V12.4647ZM15.9921 9V7H31.9921V9C31.9915 9.53024 31.7806 10.0386 31.4057 10.4135C31.0307 10.7885 30.5224 10.9994 29.9921 11H17.9921C17.4619 10.9994 16.9535 10.7885 16.5786 10.4135C16.2037 10.0386 15.9927 9.53024 15.9921 9ZM12.5338 28.983C12.3596 28.9943 12.1843 29 12.0081 29C9.88639 29.0022 7.85068 28.1615 6.34883 26.6627C4.84697 25.164 4.002 23.1301 3.99979 21.0083C3.99758 18.8866 4.83831 16.8509 6.33704 15.349C7.83577 13.8472 9.86972 13.0022 11.9915 13H12.0081C13.5813 12.9996 15.1197 13.463 16.431 14.3321C17.7423 15.2013 18.7683 16.4376 19.3808 17.8867C19.5338 18.2479 19.6597 18.6201 19.7575 19C20.0926 20.3123 20.0926 21.6877 19.7575 23C19.6597 23.3799 19.5338 23.7521 19.3808 24.1133C18.5674 26.0316 17.0404 27.5586 15.1221 28.372C14.9888 28.428 14.8555 28.4803 14.7221 28.529C14.0178 28.7831 13.281 28.9359 12.5338 28.983ZM30.0088 27C30.0082 27.5302 29.7973 28.0386 29.4223 28.4135C29.0474 28.7885 28.539 28.9994 28.0088 29H18.0088C19.3914 27.9619 20.4823 26.584 21.1755 25H30.0088V27ZM31.9921 19V21C31.9915 21.5302 31.7806 22.0386 31.4057 22.4135C31.0307 22.7885 30.5224 22.9994 29.9921 23H21.8085C22.0756 21.68 22.0756 20.32 21.8085 19H31.9921ZM21.1768 17C20.4836 15.416 19.3928 14.0381 18.0101 13H29.9921V15C29.9915 15.5302 29.7806 16.0386 29.4057 16.4135C29.0307 16.7885 28.5224 16.9994 27.9921 17H21.1768Z" fill="#020553"/>
<path d="M15.4686 23C15.472 22.9467 15.4736 22.8927 15.4736 22.8384C15.4736 21.8774 15.118 21.1717 14.3863 20.6774C14.26 20.5927 14.1281 20.5167 13.9916 20.4497C13.4536 20.183 12.844 20.0327 12.2916 19.8974C11.4296 19.6854 10.749 19.5177 10.749 19.034C10.749 18.59 11.1333 18.3247 11.7773 18.3247C12.4906 18.3247 12.9593 18.7394 12.9716 19.3814L12.974 19.512H15.1913V19.3787C15.1915 19.2233 15.1818 19.0681 15.1623 18.914C15.1031 18.4024 14.9149 17.9143 14.6153 17.4954C14.4811 17.3111 14.3241 17.1447 14.148 17C13.7922 16.713 13.3774 16.5081 12.9333 16.4V14.8667H10.943V16.3727C10.2843 16.522 9.7213 16.8364 9.30963 17.286C8.86891 17.7658 8.62713 18.3952 8.6333 19.0467C8.6333 19.952 8.97464 20.623 9.6763 21.098C10.2713 21.5007 11.034 21.698 11.7073 21.872C12.6146 22.1054 13.3313 22.292 13.3313 22.8387C13.3315 22.8932 13.3251 22.9474 13.3123 23.0004C13.2123 23.4104 12.7353 23.6754 12.0603 23.6754H12.0093C11.2093 23.6567 10.676 23.192 10.676 22.5087V22.3754H8.54297V22.5087C8.54297 23.9807 9.4813 25.178 10.943 25.5857V27.1334H12.9333V25.642C13.3101 25.5666 13.6729 25.4326 14.0083 25.245C14.1377 25.1722 14.2618 25.0903 14.3796 25C14.7569 24.7165 15.0562 24.3421 15.2496 23.9117C15.3768 23.6234 15.451 23.3146 15.4686 23Z" fill="#020553"/>
</svg>
