<svg  viewBox="0 0 45 45" fill="none" xmlns="http://www.w3.org/2000/svg">
<g clip-path="url(#clip0_5252_401)">
<path d="M22.5 2.5C11.4542 2.5 2.5 11.4542 2.5 22.5C2.5 33.5458 11.4542 42.5 22.5 42.5C33.5458 42.5 42.5 33.5458 42.5 22.5C42.5 11.4542 33.5458 2.5 22.5 2.5ZM34.875 34.875C33.2511 36.5023 31.3222 37.7933 29.1988 38.6742C27.0753 39.5551 24.7989 40.0085 22.5 40.0085C20.2011 40.0085 17.9247 39.5551 15.8012 38.6742C13.6778 37.7933 11.7489 36.5023 10.125 34.875C10.0325 34.7829 9.94208 34.6896 9.85208 34.5958C10.9078 32.1202 12.6676 30.0094 14.9129 28.5256C17.1582 27.0419 19.79 26.2505 22.4813 26.25H22.5188C25.2089 26.2548 27.8386 27.0477 30.083 28.5308C32.3273 30.0139 34.0879 32.1222 35.1471 34.595C35.0576 34.6892 34.9669 34.7825 34.875 34.875ZM18.5225 22.1025C17.6031 21.183 17.0306 19.9734 16.9024 18.6795C16.7742 17.3855 17.0983 16.0871 17.8195 15.0051C18.5408 13.9232 19.6145 13.1245 20.8582 12.745C22.1019 12.3655 23.4387 12.4285 24.6411 12.9235C25.8435 13.4184 26.8373 14.3146 27.4534 15.4597C28.0696 16.6048 28.27 17.9279 28.0205 19.2041C27.7711 20.4802 27.0873 21.6305 26.0853 22.4593C25.0834 23.2881 23.8253 23.7442 22.525 23.75H22.4746C21.7399 23.7487 21.0126 23.6026 20.3345 23.3199C19.6563 23.0372 19.0406 22.6235 18.5225 22.1025ZM36.8975 32.4546C34.9181 28.6879 31.544 25.8447 27.4963 24.5325C28.4715 23.7734 29.2604 22.8016 29.8026 21.6911C30.3449 20.5806 30.6262 19.3608 30.625 18.125C30.625 13.6379 26.9875 10 22.5 10C18.0125 10 14.375 13.6379 14.375 18.125C14.3739 19.3608 14.6551 20.5805 15.1973 21.691C15.7395 22.8014 16.5282 23.7734 17.5033 24.5325C13.4565 25.8452 10.0834 28.6883 8.10458 32.4546C6.28451 29.8272 5.2182 26.7517 5.02121 23.5616C4.82422 20.3714 5.50406 17.1881 6.98706 14.3568C8.47007 11.5254 10.6997 9.15385 13.4343 7.49916C16.1689 5.84448 19.3042 4.96974 22.5004 4.96974C25.6967 4.96974 28.832 5.84448 31.5666 7.49916C34.3012 9.15385 36.5308 11.5254 38.0138 14.3568C39.4968 17.1881 40.1766 20.3714 39.9796 23.5616C39.7826 26.7517 38.7163 29.8272 36.8963 32.4546H36.8975Z" fill="#020553"/>
</g>
</svg>
