<svg width="55" height="55" fill="none" xmlns="http://www.w3.org/2000/svg"><path d="M42.778 9.167V7.676a4.583 4.583 0 1 0-9.167 0v1.49H21.39v-1.49a4.583 4.583 0 1 0-9.167 0v1.49h-6.11V48.89h26.48c9 0 16.297-7.296 16.297-16.296V9.167h-6.111Zm-6.111-1.491a1.528 1.528 0 1 1 3.055 0v3.018a1.528 1.528 0 0 1-3.055 0V7.676Zm-21.39 0a1.528 1.528 0 1 1 3.056 0v3.018a1.528 1.528 0 0 1-3.055 0V7.676Zm-2.794 4.546a4.584 4.584 0 0 0 8.645 0h12.744a4.584 4.584 0 0 0 8.645 0h3.316v6.111H9.167v-6.11h3.316Zm32.712 24.445h-9.547v-6.111h10.185v2.037a13.18 13.18 0 0 1-.638 4.074ZM32.593 21.389V27.5H22.407V21.39h10.186ZM19.352 27.5H9.167V21.39h10.185V27.5Zm0 3.056v6.11H9.167v-6.11h10.185Zm3.055 0h10.186v6.11H22.407v-6.11ZM35.648 27.5V21.39h10.185V27.5H35.648ZM9.167 39.722h10.185v6.111H9.167v-6.11Zm13.24 6.111v-6.11h10.186v6.11H22.407Zm15.339-1.039c-.679.287-1.38.517-2.098.686v-5.758h8.105a13.32 13.32 0 0 1-6.009 5.072h.002Z" fill="#020553"/><path d="M12.483 12.222a4.584 4.584 0 0 0 8.645 0h12.744a4.584 4.584 0 0 0 8.645 0h3.316v6.111H9.167v-6.11h3.316Z" fill="#D7E7FF"/></svg>