<svg width="55" height="55" viewBox="0 0 55 55" fill="none" xmlns="http://www.w3.org/2000/svg">
<path d="M48.2905 7.20606L47.1701 6.08569L24.0116 29.2468L12.981 18.2178L3.05505 28.1443L23.9927 49.0819L24.0269 49.1161L48.2905 24.8524C53.1636 19.9798 53.1636 12.0792 48.2905 7.20606ZM46.1302 22.6921L24.0284 44.794L23.8456 44.6106L7.37612 28.1443L12.981 22.5394L21.8493 31.4076L24.0116 33.5684L26.1719 31.4076L47.0917 10.4877C48.4105 12.3033 49.0383 14.5298 48.8624 16.767C48.6864 19.0041 47.7182 21.105 46.1318 22.6921H46.1302Z" fill="#020553"/>
<path d="M46.1302 22.6922L24.0284 44.794L23.8455 44.6107L7.3761 28.1443L12.981 22.5394L21.8493 31.4077L24.0116 33.5684L26.1718 31.4077L47.0917 10.4878C48.4105 12.3034 49.0383 14.5299 48.8624 16.767C48.6864 19.0041 47.7182 21.1051 46.1318 22.6922H46.1302Z" fill="#D7E7FF"/>
</svg>
