<?xml version="1.0" encoding="utf-8"?>
<!-- Generator: Adobe Illustrator 26.0.1, SVG Export Plug-In . SVG Version: 6.00 Build 0)  -->
<svg version="1.1" id="Layer_1" xmlns="http://www.w3.org/2000/svg" xmlns:xlink="http://www.w3.org/1999/xlink" x="0px" y="0px"
	 viewBox="0 0 30 30" style="enable-background:new 0 0 30 30;" xml:space="preserve">
<style type="text/css">
	.st0{fill:#D7E7FF;}
	.st1{fill:none;}
	.st2{fill:#020553;}
</style>
<path class="st0" d="M26,13.5l-3.1,0h-1.6c0,0,0,0,0,0c-1.3,0-2.4-0.5-3.3-1.4c-0.9-0.9-1.4-2.1-1.4-3.3s0.5-2.4,1.4-3.3
	c0.9-0.9,2.1-1.4,3.3-1.4c1.3,0,2.4,0.5,3.3,1.4C25.5,6.3,26,7.5,26,8.8v1.6h0V13.5z"/>
<g>
	<rect x="0.9" y="0.9" class="st1" width="28.2" height="28.2"/>
	<g>
		<path class="st2" d="M10.3,11.9c-4.3,0-7.8,3.5-7.8,7.8c0,0,0,0,0,0h0l0,7.8h7.8c0,0,0,0,0,0h0c4.3,0,7.8-3.5,7.8-7.8
			C18.1,15.4,14.6,11.9,10.3,11.9z M16.6,19.7c0,0.8-0.2,1.7-0.5,2.4c-0.3,0.7-0.8,1.4-1.3,2c-0.6,0.6-1.2,1-2,1.3
			C12,25.9,11.1,26,10.3,26H8.7v0H4l0-4.7v-1.6c0,0,0,0,0,0c0-0.8,0.2-1.7,0.5-2.4c0.3-0.7,0.8-1.4,1.3-2c0.6-0.6,1.2-1,2-1.3
			c0.8-0.3,1.6-0.5,2.4-0.5c0.8,0,1.7,0.2,2.4,0.5c0.7,0.3,1.4,0.8,2,1.3c0.6,0.6,1,1.2,1.3,2C16.4,18.1,16.6,18.9,16.6,19.7z"/>
		<path class="st2" d="M27.5,8.8L27.5,8.8c0-3.5-2.8-6.3-6.3-6.3c-3.5,0-6.3,2.8-6.3,6.3s2.8,6.3,6.3,6.3c0,0,0,0,0,0v0l6.3,0
			L27.5,8.8C27.6,8.8,27.5,8.8,27.5,8.8z M26,13.5l-3.1,0h-1.6c0,0,0,0,0,0c-1.3,0-2.4-0.5-3.3-1.4c-0.9-0.9-1.4-2.1-1.4-3.3
			s0.5-2.4,1.4-3.3c0.9-0.9,2.1-1.4,3.3-1.4c1.3,0,2.4,0.5,3.3,1.4C25.5,6.3,26,7.5,26,8.8v1.6h0V13.5z"/>
		<path class="st2" d="M10.3,15.9c-1.6,0-2.8,1.2-2.8,2.8h1.6c0-0.7,0.4-1.2,1.1-1.2c0.6,0,1,0.3,1,0.9c0,1.1-1.9,1-1.9,2.9H11
			c0-0.9,2-1,2-3.1C12.9,16.9,11.8,15.9,10.3,15.9z"/>
		<path class="st2" d="M10.2,21.9c-0.6,0-1,0.4-1,1c0,0.5,0.4,1,1,1c0.6,0,1-0.4,1-1C11.2,22.3,10.8,21.9,10.2,21.9z"/>
		<circle class="st2" cx="21.3" cy="8.8" r="0.8"/>
		<circle class="st2" cx="23.6" cy="8.8" r="0.8"/>
		<circle class="st2" cx="18.9" cy="8.8" r="0.8"/>
	</g>
</g>
</svg>
