<svg width="56" height="55" viewBox="0 0 56 55" fill="none" xmlns="http://www.w3.org/2000/svg">
<path d="M49.2226 30.5435C49.2226 32.1752 48.587 33.7091 47.432 34.8641C46.277 36.0191 44.7432 36.6546 43.1115 36.6546H15.2387C14.1326 32.3646 10.747 28.9913 6.44482 27.8852V18.3213H40.4409C41.547 22.6174 44.9265 25.9968 49.2226 27.103V30.5435Z" fill="white"/>
<path d="M49.2225 18.3213V23.913C47.9453 23.4607 46.7781 22.7335 45.7942 21.7496C44.8103 20.7657 44.077 19.5985 43.6309 18.3213H49.2225Z" fill="#D7E7FF"/>
<path d="M6.44482 36.6546V31.0752C7.72205 31.5213 8.89538 32.2546 9.88538 33.2446C10.8693 34.2224 11.6026 35.3896 12.0487 36.6608H6.44482V36.6546Z" fill="#D7E7FF"/>
<path d="M27.8334 30.5432C29.5209 30.5432 30.8889 29.1752 30.8889 27.4877C30.8889 25.8001 29.5209 24.4321 27.8334 24.4321C26.1459 24.4321 24.7778 25.8001 24.7778 27.4877C24.7778 29.1752 26.1459 30.5432 27.8334 30.5432Z" fill="#D7E7FF"/>
<path d="M3.38916 15.2656V39.7101H43.1114C48.1714 39.7101 52.278 35.6034 52.278 30.5434V15.2656H3.38916ZM49.2225 18.3212V23.9128C47.9453 23.4606 46.778 22.7334 45.7942 21.7495C44.8103 20.7656 44.0769 19.5984 43.6308 18.3212H49.2225ZM6.44472 36.6545V31.0751C7.72194 31.5212 8.89527 32.2545 9.88527 33.2445C10.8692 34.2223 11.6025 35.3895 12.0486 36.6606H6.44472V36.6545ZM49.2225 30.5434C49.2225 32.1751 48.5869 33.709 47.4319 34.864C46.2769 36.019 44.743 36.6545 43.1114 36.6545H15.2386C14.1325 32.3645 10.7469 28.9912 6.44472 27.8851V18.3212H40.4408C41.5469 22.6173 44.9264 25.9967 49.2225 27.1028V30.5434Z" fill="#020553"/>
<path d="M27.8333 21.3765C24.4599 21.3765 21.7222 24.1142 21.7222 27.4876C21.7222 30.8609 24.4599 33.5987 27.8333 33.5987C31.2066 33.5987 33.9444 30.8609 33.9444 27.4876C33.9444 24.1142 31.2066 21.3765 27.8333 21.3765ZM27.8333 30.5431C26.1466 30.5431 24.7777 29.1742 24.7777 27.4876C24.7777 25.8009 26.1466 24.432 27.8333 24.432C29.5199 24.432 30.8888 25.8009 30.8888 27.4876C30.8888 29.1742 29.5199 30.5431 27.8333 30.5431Z" fill="#020553"/>
<path d="M17.1392 41.2378L11.792 46.585L17.1392 51.9322V48.1128H32.417V45.0572H17.1392V41.2378Z" fill="#020553"/>
<path d="M41.6873 13.7379L47.0346 8.39068L41.6873 3.04346V6.8629H26.3057V9.91846H41.6873V13.7379Z" fill="#020553"/>
</svg>
