<svg width="56" height="55" viewBox="0 0 56 55" fill="none" xmlns="http://www.w3.org/2000/svg">
<path d="M28.006 6.11108C29.3015 6.11108 30.4382 6.82608 31.031 7.88942C30.0471 7.72442 29.0387 7.63886 28.006 7.63886C26.9732 7.63886 25.9648 7.72442 24.981 7.88942C25.5737 6.8322 26.7104 6.11108 28.006 6.11108Z" fill="#D7E7FF"/>
<path d="M43.2899 42.7778H12.7222V25.9783C12.7222 23.9128 13.1255 21.9145 13.9199 20.0322C14.6899 18.2111 15.7899 16.5795 17.1955 15.1739C18.5705 13.805 20.1594 12.7172 21.9255 11.9533C21.9683 11.935 22.0111 11.9167 22.0538 11.8983C22.9583 11.5133 23.8933 11.22 24.8527 11.0245C25.8794 10.8106 26.9305 10.7006 27.9999 10.7006C29.0694 10.7006 30.1205 10.8106 31.1472 11.0245C32.1005 11.2261 33.0355 11.5194 33.9461 11.8983C33.9888 11.9167 34.0316 11.935 34.0744 11.9533C35.8405 12.7172 37.4355 13.805 38.8044 15.1739C40.2099 16.5795 41.3099 18.2111 42.0799 20.0322C42.8744 21.9145 43.2777 23.9128 43.2777 25.9783V42.7778H43.2899Z" fill="white"/>
<path d="M34.4837 8.81221C34.1048 5.56721 31.3487 3.05554 28.0059 3.05554C24.6632 3.05554 21.9071 5.57332 21.5282 8.81221C14.5982 11.4278 9.6665 18.1255 9.6665 25.9783V45.8333H21.5037C21.7176 49.2433 24.5471 51.9444 28.0121 51.9444C31.4771 51.9444 34.3065 49.2433 34.5204 45.8333H46.3454V25.9783C46.3454 18.1317 41.4137 11.4339 34.4837 8.81221ZM28.0059 6.1111C29.3015 6.1111 30.4382 6.8261 31.0309 7.88943C30.0471 7.72443 29.0387 7.63888 28.0059 7.63888C26.9732 7.63888 25.9648 7.72443 24.9809 7.88943C25.5737 6.83221 26.7104 6.1111 28.0059 6.1111ZM28.0121 48.8889C26.2398 48.8889 24.7732 47.5505 24.5715 45.8333H31.4526C31.2509 47.5505 29.7843 48.8889 28.0121 48.8889ZM43.2898 42.7778H12.7221V25.9783C12.7221 23.9128 13.1254 21.9144 13.9198 20.0322C14.6898 18.2111 15.7898 16.5794 17.1954 15.1739C18.5704 13.805 20.1593 12.7172 21.9254 11.9533C21.9682 11.935 22.0109 11.9167 22.0537 11.8983C22.9582 11.5133 23.8932 11.22 24.8526 11.0244C25.8793 10.8105 26.9304 10.7005 27.9998 10.7005C29.0693 10.7005 30.1204 10.8105 31.1471 11.0244C32.1004 11.2261 33.0354 11.5194 33.9459 11.8983C33.9887 11.9167 34.0315 11.935 34.0743 11.9533C35.8404 12.7172 37.4354 13.805 38.8043 15.1739C40.2098 16.5794 41.3098 18.2111 42.0798 20.0322C42.8743 21.9144 43.2776 23.9128 43.2776 25.9783V42.7778H43.2898Z" fill="#020553"/>
<path d="M28.0123 48.8889C26.2401 48.8889 24.7734 47.5505 24.5718 45.8333H31.4529C31.2512 47.5505 29.7846 48.8889 28.0123 48.8889Z" fill="#D7E7FF"/>
</svg>
