<svg version="1.1" id="Layer_1" xmlns="http://www.w3.org/2000/svg" x="0" y="0" viewBox="0 0 64 64" style="enable-background:new 0 0 64 64" xml:space="preserve">
	<style>.st2{fill:#020553}</style>
	<path d="M22.7 50h-.9c-1.8 0-3.6-.4-5.3-1.1-1.6-.7-3.1-1.7-4.3-2.9-1.3-1.3-2.2-2.7-2.9-4.3-.7-1.7-1.1-3.5-1.1-5.3 0-1.8.4-3.6 1.1-5.3.7-1.6 1.7-3.1 2.9-4.3 1.3-1.3 2.7-2.2 4.3-2.9 1.7-.7 3.4-1.1 5.3-1.1 1.2 0 2.3.1 3.4.4.7.2 1.3.4 1.9.7 1.6.7 3.1 1.7 4.3 2.9.9.9 1.6 1.8 2.2 2.8.3.5.5 1 .8 1.5.3.6.5 1.3.6 1.9.3 1.1.4 2.2.4 3.4 0 1.2-.1 2.3-.4 3.4-.2.6-.4 1.3-.6 1.9-.2.5-.5 1-.8 1.5-.6 1-1.3 2-2.2 2.8-1.3 1.3-2.7 2.2-4.3 2.9-.2.1-.5.2-.7.3-1.2.5-2.4.7-3.7.8z" style="fill:#d7e7ff" />
	<path style="fill:none" d="M1.3.6h61.4V62H1.3z" />
	<path class="st2" d="M55.9 21.9c2-1.2 3.4-3.4 3.4-5.9V9.1H25.2V16c0 1.2.3 2.4.9 3.4h-4.3c-9.4 0-17 7.6-17 17.1 0 9.4 7.6 17.1 17.1 17.1 1.4 0 2.9-.2 4.2-.5.8.3 1.7.5 2.6.5h20.5c3.8 0 6.8-3.1 6.8-6.8v-4.3c2-1.2 3.4-3.4 3.4-5.9v-6.8h-4.3c.6-1 .9-2.2.9-3.4v-4.5zM28.6 16v-3.4h27.3V16c0 1.9-1.5 3.4-3.4 3.4H32c-1.9 0-3.4-1.6-3.4-3.4zm-5.9 34h-.9c-1.8 0-3.6-.4-5.3-1.1-1.6-.7-3.1-1.7-4.3-2.9-1.3-1.3-2.2-2.7-2.9-4.3-.7-1.7-1.1-3.5-1.1-5.3 0-1.8.4-3.6 1.1-5.3.7-1.6 1.7-3.1 2.9-4.3 1.3-1.3 2.7-2.2 4.3-2.9 1.7-.7 3.4-1.1 5.3-1.1 1.2 0 2.3.1 3.4.4.7.2 1.3.4 1.9.7 1.6.7 3.1 1.7 4.3 2.9.9.9 1.6 1.8 2.2 2.8.3.5.5 1 .8 1.5.3.6.5 1.3.6 1.9.3 1.1.4 2.2.4 3.4 0 1.2-.1 2.3-.4 3.4-.2.6-.4 1.3-.6 1.9-.2.5-.5 1-.8 1.5-.6 1-1.3 2-2.2 2.8-1.3 1.3-2.7 2.2-4.3 2.9-.2.1-.5.2-.7.3-1.2.5-2.4.7-3.7.8zm29.8-3.4c0 1.9-1.5 3.4-3.4 3.4H32c2.3-1.8 4.2-4.1 5.4-6.8h15.1v3.4zM55.9 33v3.4c0 1.9-1.5 3.4-3.4 3.4h-14c.2-1.1.3-2.2.3-3.4 0-1.2-.1-2.3-.3-3.4h17.4zm-18.5-3.4c-1.2-2.7-3.1-5.1-5.4-6.8h20.4v3.4c0 1.9-1.5 3.4-3.4 3.4H37.4z" />
	<path class="st2" d="M27.7 39.8v-.3c0-1.6-.6-2.8-1.9-3.7-.2-.1-.4-.3-.7-.4-.9-.5-2-.7-2.9-.9-1.5-.4-2.6-.6-2.6-1.5 0-.8.7-1.2 1.8-1.2 1.2 0 2 .7 2 1.8v.2h3.7v-1c-.1-.9-.4-1.7-.9-2.4-.2-.3-.5-.6-.8-.8-.6-.5-1.3-.8-2.1-1V26H20v2.6c-1.1.3-2.1.8-2.8 1.6-.8.8-1.2 1.9-1.2 3 0 1.5.6 2.7 1.8 3.5 1 .7 2.3 1 3.5 1.3 1.5.4 2.8.7 2.8 1.6v.3c-.2.7-1 1.2-2.1 1.2h-.1c-1.4 0-2.3-.8-2.3-2v-.2H16v.1c0 2.5 1.6 4.6 4.1 5.2v2.6H23.5v-2.5c.7-.1 1.3-.4 1.8-.7.2-.1.4-.3.6-.4.7-.5 1.2-1.1 1.5-1.9.1-.4.3-.9.3-1.5z" />
</svg>
