<?xml version="1.0" encoding="utf-8"?>
<!-- Generator: Adobe Illustrator 26.0.1, SVG Export Plug-In . SVG Version: 6.00 Build 0)  -->
<svg version="1.1" id="Layer_1" xmlns="http://www.w3.org/2000/svg" xmlns:xlink="http://www.w3.org/1999/xlink" x="0px" y="0px"
	 viewBox="0 0 30 30" style="enable-background:new 0 0 30 30;" xml:space="preserve">
<style type="text/css">
	.st0{fill:#D7E7FF;}
	.st1{fill:none;}
	.st2{fill:#020553;}
</style>
<rect x="2.8" y="5.3" class="st0" width="4.9" height="19.5"/>
<g>
	<rect x="-0.4" y="0.4" class="st1" width="29.2" height="29.2"/>
	<g>
		<path class="st2" d="M1.2,3.6v22.7h21.1c2.7,0,4.9-2.2,4.9-4.9V3.6H1.2z M2.8,5.3h4.9v19.5H2.8V5.3z M25.5,21.5
			c0,0.9-0.3,1.7-1,2.3c-0.6,0.6-1.4,1-2.3,1h-13V5.3h16.2V21.5z"/>
		<rect x="4.4" y="10.9" class="st2" width="1.6" height="1.6"/>
		<rect x="4.4" y="14.1" class="st2" width="1.6" height="1.6"/>
		<rect x="4.4" y="17.4" class="st2" width="1.6" height="1.6"/>
		<rect x="4.4" y="20.7" class="st2" width="1.6" height="1.6"/>
		<rect x="4.4" y="7.6" class="st2" width="1.6" height="1.6"/>
		<polygon class="st2" points="22,12.9 20.8,11.8 16.6,16 14.4,13.9 13.3,15 16.5,18.2 		"/>
	</g>
</g>
</svg>
