<?xml version="1.0" encoding="utf-8"?>
<!-- Generator: Adobe Illustrator 26.0.1, SVG Export Plug-In . SVG Version: 6.00 Build 0)  -->
<svg version="1.1" id="Layer_1" xmlns="http://www.w3.org/2000/svg" xmlns:xlink="http://www.w3.org/1999/xlink" x="0px" y="0px"
	 viewBox="0 0 30 30" style="enable-background:new 0 0 30 30;" xml:space="preserve">
<style type="text/css">
	.st0{fill:none;}
	.st1{fill:#020553;}
	.st2{fill:#D7E7FF;}
</style>
<g>
	<rect x="-0.2" y="-0.2" class="st0" width="30.3" height="30.3"/>
	<g>
		<path class="st1" d="M23.4,1.5c-2.8,0-5.1,2.3-5.1,5.1v3.4H15c-2.8,0-5.1,2.3-5.1,5.1v3.4H6.6c-2.8,0-5.1,2.3-5.1,5.1v5h8.4h1.7
			h6.7h1.7h8.4V1.5H23.4z M9.9,26.8H3.2v-3.4c0-0.9,0.4-1.7,1-2.4c0.6-0.6,1.5-1,2.4-1h3.4V26.8z M18.4,26.8h-6.7v-8.4V15
			c0-0.9,0.4-1.7,1-2.4c0.6-0.6,1.5-1,2.4-1h3.4V26.8z M26.8,26.8h-6.7V9.9V6.6c0-0.9,0.4-1.7,1-2.4c0.6-0.6,1.5-1,2.4-1h3.4V26.8z"
			/>
		<polygon class="st1" points="2.7,15 13.1,4.6 15,6.6 15,1.5 9.9,1.5 11.9,3.5 1.5,13.8 		"/>
	</g>
</g>
<path class="st2" d="M18.4,26.8h-6.7v-8.4V15c0-0.9,0.4-1.7,1-2.4c0.6-0.6,1.5-1,2.4-1h3.4V26.8z"/>
</svg>
