<svg width="240" height="240" viewBox="0 0 240 240" fill="none" xmlns="http://www.w3.org/2000/svg">
<path d="M173.333 93.3335V66.6668C173.333 37.2135 149.455 13.3335 120 13.3335C90.5443 13.3335 66.6666 37.2135 66.6666 66.6668V93.3335H33.3333V226.667H166.667C177.275 226.667 187.449 222.453 194.951 214.951C202.452 207.45 206.667 197.275 206.667 186.667V93.3335H173.333ZM79.9999 66.6668C79.9855 61.4118 81.0136 56.2061 83.0245 51.3511C85.0355 46.4961 87.9895 42.0881 91.7155 38.3824C95.4215 34.6568 99.8295 31.7031 104.684 29.6921C109.539 27.6812 114.745 26.6529 120 26.6668C125.255 26.6529 130.46 27.6812 135.315 29.6921C140.17 31.7031 144.578 34.6568 148.284 38.3824C152.01 42.0881 154.964 46.4961 156.975 51.3511C158.986 56.2061 160.014 61.4118 160 66.6668V93.3335H79.9999V66.6668ZM193.333 186.667C193.343 190.17 192.658 193.641 191.317 196.877C189.976 200.114 188.006 203.052 185.522 205.522C183.052 208.007 180.114 209.976 176.877 211.317C173.64 212.658 170.17 213.343 166.667 213.333H46.6666V106.667H193.333V186.667Z" fill="#020553"/>
<path d="M137.778 186.666L127.951 160.349C130.904 158.872 133.388 156.602 135.124 153.793C136.86 150.983 137.778 147.746 137.778 144.444C137.778 139.729 135.905 135.207 132.571 131.873C129.237 128.54 124.715 126.667 120 126.667C115.285 126.667 110.763 128.54 107.429 131.873C104.095 135.207 102.222 139.729 102.222 144.444C102.221 147.746 103.14 150.983 104.876 153.793C106.612 156.602 109.095 158.872 112.049 160.349L102.222 186.666H137.778Z" fill="#020553"/>
</svg>
