<svg xmlns="http://www.w3.org/2000/svg" viewBox="0 0 32 32" fill="currentColor">
	<path class="st0" d="M29.6 0H2.4C1.1 0 0 1 0 2.3v27.4C0 31 1.1 32 2.4 32h27.2c1.3 0 2.4-1 2.4-2.3V2.3C31.9 1 30.9 0 29.6 0zM9.7 26.7H4.9V12.3h4.8v14.4zM7.3 10.3c-1.7 0-2.7-1.1-2.7-2.5s1.1-2.5 2.7-2.5S10 6.4 10 7.9c0 1.3-1 2.4-2.7 2.4zm19.8 16.4h-4.8V19c0-1.9-.7-3.3-2.4-3.3-1.3 0-2.1.9-2.5 1.8-.1.3-.2.7-.2 1.2v8.1h-4.8s.1-13.1 0-14.4h4.8v2c.6-1 1.8-2.4 4.3-2.4 3.2 0 5.6 2.1 5.6 6.5v8.2zm-10-12.3c.1 0 .1 0 0 0z" />
</svg>
