<svg width="33" height="32" viewBox="0 0 33 32" fill="none" xmlns="http://www.w3.org/2000/svg">
<rect x="0.626953" width="32" height="32" rx="16" fill="#D21B46"/>
<path d="M15.2956 18.2246C15.2956 19.127 14.9697 19.8379 14.318 20.3574C13.6709 20.877 12.7686 21.1367 11.611 21.1367C10.5446 21.1367 9.60125 20.9362 8.78094 20.5352V18.5664C9.45542 18.8672 10.0251 19.0791 10.4899 19.2021C10.9593 19.3252 11.3877 19.3867 11.7751 19.3867C12.2399 19.3867 12.5954 19.2979 12.8415 19.1201C13.0921 18.9424 13.2175 18.6781 13.2175 18.3271C13.2175 18.1312 13.1628 17.958 13.0534 17.8076C12.944 17.6527 12.7822 17.5046 12.568 17.3633C12.3584 17.222 11.9277 16.9964 11.2761 16.6865C10.6654 16.3994 10.2074 16.1237 9.90203 15.8594C9.59669 15.5951 9.35288 15.2874 9.17059 14.9365C8.98829 14.5856 8.89715 14.1755 8.89715 13.7061C8.89715 12.8219 9.19565 12.127 9.79266 11.6211C10.3942 11.1152 11.2236 10.8623 12.2809 10.8623C12.8005 10.8623 13.2949 10.9238 13.7643 11.0469C14.2383 11.1699 14.7328 11.3431 15.2477 11.5664L14.5641 13.2139C14.0309 12.9951 13.5889 12.8424 13.238 12.7559C12.8916 12.6693 12.5498 12.626 12.2126 12.626C11.8115 12.626 11.5039 12.7194 11.2897 12.9062C11.0755 13.0931 10.9684 13.3369 10.9684 13.6377C10.9684 13.8245 11.0117 13.9886 11.0983 14.1299C11.1849 14.2666 11.3216 14.401 11.5085 14.5332C11.6999 14.6608 12.1488 14.8932 12.8552 15.2305C13.7894 15.6771 14.4297 16.126 14.7761 16.5771C15.1224 17.0238 15.2956 17.5729 15.2956 18.2246ZM16.9671 11.0059H20.0775C21.4948 11.0059 22.5224 11.2087 23.1605 11.6143C23.803 12.0153 24.1243 12.6556 24.1243 13.5352C24.1243 14.1322 23.9831 14.6221 23.7005 15.0049C23.4225 15.3877 23.0511 15.6178 22.5863 15.6953V15.7637C23.2197 15.9049 23.6754 16.1693 23.9534 16.5566C24.236 16.944 24.3773 17.459 24.3773 18.1016C24.3773 19.013 24.0469 19.724 23.3861 20.2344C22.7298 20.7448 21.8366 21 20.7064 21H16.9671V11.0059ZM19.0863 14.9639H20.3167C20.8909 14.9639 21.3057 14.875 21.5609 14.6973C21.8206 14.5195 21.9505 14.2256 21.9505 13.8154C21.9505 13.4326 21.8092 13.1592 21.5267 12.9951C21.2487 12.8265 20.8066 12.7422 20.2005 12.7422H19.0863V14.9639ZM19.0863 16.6455V19.25H20.4671C21.0504 19.25 21.4811 19.1383 21.7591 18.915C22.0371 18.6917 22.1761 18.3499 22.1761 17.8896C22.1761 17.0602 21.5836 16.6455 20.3988 16.6455H19.0863Z" fill="white"/>
</svg>
