<svg width="150" height="31" viewBox="0 0 150 31" fill="none" xmlns="http://www.w3.org/2000/svg">
<path d="M78.4044 19.3473V21.6664H67.0254V20.0596L74.6276 11.363H67.2199V9.04395H78.3234V10.7336L70.8508 19.3308H78.4044V19.3473Z" fill="#1943DC"/>
<path d="M88.1789 19.4633H82.9918L82.0517 21.8653H79.1826L84.6776 9.06055H86.7686L91.9233 21.8653H89.0542L88.1789 19.4633ZM87.417 17.3927L85.6664 12.5889L83.7861 17.3927H87.417Z" fill="#1943DC"/>
<path d="M59.8934 21.8324C58.8074 21.8324 57.8997 21.7164 57.1702 21.5011C56.4408 21.2857 55.8735 20.9379 55.4358 20.474C54.9982 20.0102 54.6902 19.4305 54.5119 18.7182C54.3336 18.0059 54.2363 17.1611 54.2363 16.1837V14.3616C54.2363 13.4174 54.3174 12.5891 54.4957 11.8768C54.674 11.1645 54.9658 10.5848 55.4034 10.1209C55.8411 9.65713 56.4246 9.30927 57.1378 9.07736C57.8672 8.84545 58.775 8.72949 59.8772 8.72949C60.9633 8.72949 61.871 8.84545 62.5842 9.06079C63.2974 9.27614 63.881 9.624 64.3186 10.0878C64.7563 10.5516 65.0643 11.1314 65.2426 11.8437C65.4209 12.556 65.5181 13.4008 65.5181 14.3781V16.2003C65.5181 17.1611 65.4371 17.9893 65.2588 18.7016C65.0805 19.4139 64.7887 19.9937 64.351 20.4575C63.9296 20.9213 63.3461 21.2692 62.6166 21.5011C61.9034 21.7164 60.9957 21.8324 59.8934 21.8324ZM59.8934 19.4139C60.4446 19.4139 60.8822 19.3808 61.2226 19.2979C61.563 19.2151 61.8386 19.0495 62.0331 18.8175C62.2276 18.5856 62.3735 18.2378 62.4383 17.8237C62.5194 17.393 62.5518 16.8463 62.5518 16.1506V14.4113C62.5518 13.7321 62.5194 13.1855 62.4383 12.7382C62.3573 12.3075 62.2276 11.9762 62.0331 11.7443C61.8386 11.5124 61.563 11.3468 61.2226 11.2639C60.8822 11.1811 60.4446 11.1314 59.8934 11.1314C59.3423 11.1314 58.9047 11.1645 58.548 11.2474C58.2077 11.3302 57.9321 11.4958 57.7376 11.7277C57.5431 11.9597 57.3972 12.3075 57.3323 12.7216C57.2513 13.1523 57.2189 13.699 57.2189 14.3947V16.134C57.2189 16.8132 57.2513 17.3598 57.3323 17.7905C57.4134 18.2212 57.5431 18.5525 57.7376 18.7844C57.9321 19.0163 58.2077 19.182 58.548 19.2814C58.9047 19.3642 59.3585 19.4139 59.8934 19.4139Z" fill="#1943DC"/>
<path d="M99.7684 8.9775C100.093 8.9775 100.482 8.99407 100.903 9.01063L100.433 11.4954C100.012 11.4788 99.5577 11.4788 99.0876 11.4622C98.6176 11.4622 98.1637 11.4457 97.7261 11.4457C97.1587 11.4457 96.7049 11.4954 96.3482 11.5782C95.9916 11.661 95.7161 11.8101 95.5054 12.042C95.2946 12.2739 95.165 12.5887 95.1001 12.9862C95.0353 13.3838 95.0029 13.9304 95.0029 14.5765V16.1501C95.0029 16.7962 95.0353 17.3262 95.1163 17.7238C95.1974 18.1214 95.327 18.4527 95.5378 18.6846C95.7485 18.9165 96.0241 19.0821 96.3969 19.1649C96.7535 19.2478 97.2073 19.2975 97.7747 19.2975C97.953 19.2975 98.1475 19.2975 98.3582 19.2975C98.5689 19.2975 98.7797 19.2975 99.039 19.2975C99.2822 19.2975 99.5739 19.2975 99.8981 19.2809C100.222 19.2809 100.595 19.2643 101.033 19.2478L100.563 21.7325C99.8495 21.7491 99.2659 21.7656 98.8445 21.7656C98.4231 21.7656 98.0178 21.7656 97.6288 21.7656C96.5914 21.7656 95.7323 21.6663 95.0191 21.4675C94.3058 21.2687 93.7223 20.954 93.2847 20.5067C92.847 20.0595 92.5228 19.4797 92.3445 18.7674C92.15 18.0385 92.0527 17.1606 92.0527 16.1004V14.6096C92.0527 13.566 92.15 12.6715 92.3607 11.9592C92.5714 11.2469 92.8794 10.6671 93.3333 10.2199C93.7709 9.77262 94.3545 9.45789 95.0677 9.25911C95.7809 9.06033 96.64 8.96094 97.645 8.96094L99.7684 8.9775Z" fill="#1943DC"/>
<path d="M105.895 8.96094V19.2146H111.715L111.245 21.6994H103.026V8.96094H105.895Z" fill="#1943DC"/>
<path d="M118.539 21.8324C117.453 21.8324 116.545 21.7164 115.816 21.5011C115.086 21.2857 114.519 20.9379 114.081 20.474C113.644 20.0102 113.336 19.4305 113.157 18.7182C112.979 18.0059 112.882 17.1611 112.882 16.1837V14.3616C112.882 13.4174 112.963 12.5891 113.141 11.8768C113.319 11.1645 113.611 10.5848 114.049 10.1209C114.487 9.65713 115.07 9.30927 115.783 9.07736C116.513 8.84545 117.42 8.72949 118.523 8.72949C119.609 8.72949 120.516 8.84545 121.23 9.06079C121.943 9.27614 122.526 9.624 122.964 10.0878C123.402 10.5516 123.71 11.1314 123.888 11.8437C124.066 12.556 124.164 13.4008 124.164 14.3781V16.2003C124.164 17.1611 124.083 17.9893 123.904 18.7016C123.726 19.4139 123.434 19.9937 122.997 20.4575C122.575 20.9213 121.992 21.2692 121.262 21.5011C120.549 21.7164 119.641 21.8324 118.539 21.8324ZM118.539 19.4139C119.09 19.4139 119.528 19.3808 119.868 19.2979C120.209 19.2151 120.484 19.0495 120.679 18.8175C120.873 18.5856 121.019 18.2378 121.084 17.8237C121.165 17.393 121.197 16.8463 121.197 16.1506V14.4113C121.197 13.7321 121.165 13.1855 121.084 12.7382C121.003 12.3075 120.873 11.9762 120.679 11.7443C120.484 11.5124 120.209 11.3468 119.868 11.2639C119.528 11.1811 119.09 11.1314 118.539 11.1314C117.988 11.1314 117.55 11.1645 117.194 11.2474C116.853 11.3302 116.578 11.4958 116.383 11.7277C116.189 11.9597 116.043 12.3075 115.978 12.7216C115.897 13.1523 115.864 13.699 115.864 14.3947V16.134C115.864 16.8132 115.897 17.3598 115.978 17.7905C116.059 18.2212 116.189 18.5525 116.383 18.7844C116.578 19.0163 116.853 19.182 117.194 19.2814C117.534 19.3642 117.988 19.4139 118.539 19.4139Z" fill="#1943DC"/>
<path d="M126.028 8.96094H128.897V16.498C128.897 17.0446 128.93 17.5085 128.995 17.8729C129.059 18.2373 129.173 18.5355 129.351 18.7508C129.53 18.9662 129.756 19.1153 130.048 19.2146C130.34 19.2975 130.729 19.3472 131.199 19.3472C131.669 19.3472 132.042 19.2975 132.35 19.2146C132.658 19.1318 132.885 18.9827 133.063 18.7508C133.242 18.5355 133.355 18.2373 133.436 17.8729C133.501 17.5085 133.533 17.0446 133.533 16.498V8.96094H136.386V16.4814C136.386 17.3925 136.305 18.1876 136.143 18.8336C135.981 19.4962 135.705 20.0429 135.3 20.4736C134.895 20.9043 134.376 21.2356 133.712 21.4343C133.047 21.6497 132.22 21.7491 131.215 21.7491C130.21 21.7491 129.367 21.6497 128.719 21.4343C128.055 21.219 127.536 20.9043 127.131 20.4736C126.725 20.0429 126.45 19.4962 126.288 18.8336C126.126 18.1711 126.045 17.3925 126.045 16.4814V8.96094H126.028Z" fill="#1943DC"/>
<path d="M138.526 8.96094H143.632C144.702 8.96094 145.593 9.07689 146.29 9.3088C147.004 9.54071 147.555 9.88857 147.976 10.369C148.398 10.8328 148.689 11.4291 148.851 12.1248C149.014 12.8206 149.111 13.6488 149.111 14.593V16.117C149.111 17.0446 149.03 17.8563 148.851 18.552C148.689 19.2478 148.398 19.8441 147.976 20.3245C147.555 20.8049 147.004 21.1693 146.307 21.4012C145.61 21.6331 144.734 21.7656 143.681 21.7656H138.51V8.96094H138.526ZM141.346 19.2809H143.421C143.924 19.2809 144.361 19.2312 144.702 19.1484C145.042 19.0656 145.334 18.8999 145.545 18.668C145.755 18.4361 145.917 18.1048 145.999 17.6907C146.096 17.2765 146.144 16.7465 146.144 16.1004V14.6096C146.144 13.9636 146.096 13.4335 145.999 13.0194C145.901 12.6052 145.755 12.2905 145.545 12.0586C145.334 11.8267 145.042 11.661 144.702 11.5782C144.361 11.4954 143.924 11.4457 143.421 11.4457H141.346V19.2809Z" fill="#1943DC"/>
<path d="M4.03613 28.4251L10.8603 14.9578L26.9725 7.37109L42.1932 22.4121L42.4364 28.8393L41.1072 29.6841L6.3703 29.7835L4.03613 28.4251Z" fill="white"/>
<path d="M40.313 14.3121C39.8105 6.32781 33.3267 0 25.3678 0C19.0299 0 13.5998 4.02528 11.4277 9.72363C11.0387 9.67393 10.6334 9.65737 10.2282 9.65737C4.58728 9.65737 0 14.3287 0 20.1098C0 23.5057 1.58853 26.5205 4.03616 28.4255L8.70449 23.4725L14.6209 17.1944L16.0312 18.6356L22.3042 11.4298L31.2032 20.4577L33.4077 18.5693L38.7569 24.6486L42.4364 28.823C44.3978 27.299 45.6621 24.8806 45.6621 22.1639C45.6621 18.5693 43.4414 15.5048 40.313 14.3121Z" fill="#1943DC"/>
<path d="M32.3699 22.1809L33.8774 25.262L22.6442 13.8984L23.6492 17.7084L21.8338 18.5532L26.6156 21.6674L24.1355 21.5183L23.4871 23.1582L19.8724 21.2367L20.7477 26.9682L14.6692 19.0998L14.3936 22.8766L13.1131 21.7171L6.40234 29.7842C7.60185 30.2812 8.8986 30.5628 10.2764 30.5628H24.3462H26.5021H37.5083C38.8213 30.5628 40.0532 30.248 41.1555 29.6848L33.456 20.7729L32.3699 22.1809Z" fill="#1943DC"/>
</svg>
