<svg width="150" height="98" viewBox="0 0 150 98" fill="none" xmlns="http://www.w3.org/2000/svg">
<path d="M0 0H34.3661V98H0V0Z" fill="white"/>
<path d="M34.0446 0H150V98H34.0446V0Z" fill="#0C590B"/>
<path d="M96.4286 72.1081C90.4903 72.1819 84.696 70.2624 79.9567 66.6513C75.2174 63.0402 71.8019 57.9423 70.2471 52.159C68.6923 46.3757 69.0864 40.2351 71.3674 34.7024C73.6484 29.1698 77.687 24.5589 82.8482 21.5946C78.9005 22.0471 75.102 23.3801 71.728 25.4969C68.354 27.6137 65.4889 30.4613 63.3403 33.8335C61.1918 37.2056 59.8136 41.0178 59.3057 44.9938C58.7978 48.9697 59.1728 53.0099 60.4037 56.8216C61.6345 60.6333 63.6903 64.1209 66.422 67.0318C69.1538 69.9428 72.4931 72.2041 76.1981 73.6518C79.903 75.0996 83.8807 75.6977 87.843 75.4026C91.8054 75.1076 95.653 73.9268 99.1072 71.946C98.2175 72.0446 97.3235 72.0987 96.4286 72.1081Z" fill="white"/>
<path d="M98.625 36.4324L104.116 34.6757L102.134 40.1351L105.482 44.8649L99.75 44.6757L96.3214 49.3243L94.7411 43.7568L89.2768 41.9189L94.0446 38.6757L94.0982 32.8649L98.625 36.4324Z" fill="white"/>
</svg>
