<?xml version="1.0" encoding="utf-8"?>
<!-- Generator: Adobe Illustrator 26.0.1, SVG Export Plug-In . SVG Version: 6.00 Build 0)  -->
<svg version="1.1" id="Layer_1" xmlns="http://www.w3.org/2000/svg" xmlns:xlink="http://www.w3.org/1999/xlink" x="0px" y="0px"
	 viewBox="0 0 64 64" style="enable-background:new 0 0 64 64;" xml:space="preserve">
<style type="text/css">
	.st0{fill:none;}
	.st1{fill:#020553;}
</style>
<g>
	<rect x="4.1" y="4.1" class="st0" width="56.7" height="56.7"/>
	<g>
		<polygon class="st1" points="25.3,31.4 23.1,33.7 29.3,39.9 41.9,27.3 39.7,25.1 29.3,35.5 		"/>
		<path class="st1" d="M32.5,7.3L13.6,14v8.4c0,15.5,7.4,29.2,18.9,35.3l0,0l0,0C44,51.6,51.4,37.9,51.4,22.4V14L32.5,7.3z
			 M48.3,22.4c0,7.1-1.7,13.9-4.8,19.7c-2.8,5.1-6.5,9.2-11,12c-4.5-2.8-8.2-6.9-11-12c-3.1-5.8-4.8-12.6-4.8-19.7v-6.2l15.8-5.6
			l15.8,5.6V22.4z"/>
	</g>
</g>
</svg>
