<svg viewBox="0 0 1065.69 538.03" xmlns="http://www.w3.org/2000/svg"><path d="m681.59 0h-82.33v82.25h82.33v82.32h82.25v-164.57z" fill="#020553"/><path d="m35.72 466.58a35.24 35.24 0 1 0 34.77 35.72v-.48a35 35 0 0 0 -34.77-35.24zm867.02-273.58c-89.53 0-165.63 69.34-165.63 172.4 0 99.8 71 172.39 178.43 172.39 61.39 0 111.27-29.81 137.49-66.75l-65.23-38.94c-9.59 12.31-35.17 32.41-72.26 32.41-44.77 0-80.58-23.34-92.1-67.41h240.46c14.71-129.62-63.3-204.1-161.16-204.1zm-79.3 140.64c9.6-42.13 40.93-67.4 80.58-67.4 43.5 0 72.27 24.63 80.58 67.4zm-414.06 203.78h81.22v-344.15h-81.22zm-143.26-204.49c-25.58-5.82-69.06-7.77-69.06-36.94 0-24.63 24.3-33.7 48-33.7 30.7 0 46.69 16.85 50.52 33.7l73.54-18.14c-13.42-57-68.41-84.91-124.06-84.91-76.12 0-127.27 40.83-127.27 103.05 0 56.39 32 86.84 94.65 99.81 38.37 8.43 85 7.13 85 38.24 0 22-19.18 34.35-53.07 34.35-47.33 0-60.12-22-62.68-35.64l-78 24.62c14.71 55.09 77.38 80.37 139.41 80.37 90.81 0 137.5-44.71 137.5-109.53 0-55.74-35.18-77.77-114.48-95.28zm375 67.05v-124.08h40.53v-83.08h-40.56v-68.71h-81.22v68.71h-40.69v83.08h40.69v137.69c0 68.05 33.26 124.44 116.4 124.44 16.63 0 25.57-1.94 33.89-4.54v-75.18a192 192 0 0 1 -19.18 1.3c-44.77.01-49.89-22.04-49.89-59.61zm-231.75-235.62h81.36v-82.44h-81.35z" fill="#020553"/></svg>