<?xml version="1.0" encoding="utf-8"?>
<!-- Generator: Adobe Illustrator 26.0.1, SVG Export Plug-In . SVG Version: 6.00 Build 0)  -->
<svg version="1.1" id="Layer_1" xmlns="http://www.w3.org/2000/svg" xmlns:xlink="http://www.w3.org/1999/xlink" x="0px" y="0px"
	 viewBox="0 0 43 36" style="enable-background:new 0 0 43 36;" xml:space="preserve">
<style type="text/css">
	.st0{fill:none;}
	.st1{fill:#020553;}
	.st2{fill:#D7E7FF;}
</style>
<g>
	<rect x="3.7" y="0.2" class="st0" width="35.5" height="35.5"/>
	<g>
		<path class="st1" d="M31.4,2.2c-3.3,0-5.9,2.6-5.9,5.9c0,0,0,0,0,0h0l0,5.9h5.9c0,0,0,0,0,0h0c3.3,0,5.9-2.6,5.9-5.9
			S34.6,2.2,31.4,2.2z M34.2,10.9c-0.7,0.7-1.7,1.2-2.8,1.2h-2v0h-2V8.1c0,0,0,0,0,0c0-1.1,0.4-2,1.2-2.8c0.7-0.7,1.7-1.2,2.8-1.2
			s2,0.4,2.8,1.2c0.7,0.7,1.2,1.7,1.2,2.8C35.3,9.2,34.9,10.2,34.2,10.9z"/>
		<path class="st1" d="M22.5,21.6c1.5-1.2,2.5-3,2.5-5.1c0-3.5-2.9-6.4-6.4-6.4c-3.5,0-6.4,2.9-6.4,6.4c0,2.1,1,3.9,2.5,5.1
			c-5.2,1.7-8.9,6.5-8.9,12.2h25.6C31.4,28.1,27.6,23.2,22.5,21.6z M15.4,19.7c-0.8-0.8-1.3-2-1.3-3.1s0.5-2.3,1.3-3.1
			c0.8-0.8,2-1.3,3.1-1.3c1.2,0,2.3,0.5,3.1,1.3c0.8,0.8,1.3,2,1.3,3.1s-0.5,2.3-1.3,3.1c-0.8,0.8-1.9,1.3-3.1,1.3c0,0,0,0,0,0
			c0,0,0,0,0,0C17.3,21,16.2,20.5,15.4,19.7z M29.2,31.8H7.9C8,31,8.2,30.3,8.5,29.6c0.5-1.3,1.3-2.5,2.3-3.4c1-1,2.2-1.8,3.4-2.3
			c1.3-0.6,2.7-0.8,4.2-0.9c0,0,0,0,0,0c0,0,0,0,0,0c1.5,0,2.9,0.3,4.2,0.9c1.3,0.5,2.5,1.3,3.4,2.3c1,1,1.8,2.2,2.3,3.4
			C28.8,30.3,29.1,31,29.2,31.8z"/>
	</g>
</g>
<path class="st2" d="M34.2,10.9c-0.7,0.7-1.7,1.2-2.8,1.2h-2v0h-2V8.1c0,0,0,0,0,0c0-1.1,0.4-2,1.2-2.8c0.7-0.7,1.7-1.2,2.8-1.2
	s2,0.4,2.8,1.2c0.7,0.7,1.2,1.7,1.2,2.8C35.3,9.2,34.9,10.2,34.2,10.9z"/>
</svg>
