<svg width="150" height="98" viewBox="0 0 150 98" fill="none" xmlns="http://www.w3.org/2000/svg">
<path d="M150 0.00088501H0V98H150V0.00088501Z" fill="#F0F0F0"/>
<path d="M84.375 0H65.625V39.8115H0V58.1862H65.625V97.9977H84.375V58.1862H150V39.8115H84.375V0Z" fill="#D80027"/>
<path d="M115.367 66.0419L150 84.8977V66.0419H115.367Z" fill="#0052B4"/>
<path d="M91.3043 66.0419L150 97.9977V88.9614L107.902 66.0419H91.3043Z" fill="#0052B4"/>
<path d="M134.365 97.9977L91.3043 74.5517V97.9977H134.365Z" fill="#0052B4"/>
<path d="M91.3043 66.0419L150 97.9977V88.9614L107.902 66.0419H91.3043Z" fill="#F0F0F0"/>
<path d="M91.3043 66.0419L150 97.9977V88.9614L107.902 66.0419H91.3043Z" fill="#D80027"/>
<path d="M26.4671 66.0413L0 80.4511V66.0413H26.4671Z" fill="#0052B4"/>
<path d="M58.6957 70.105V97.9974H7.46808L58.6957 70.105Z" fill="#0052B4"/>
<path d="M42.0976 66.0419L0 88.9614V97.9977L58.6957 66.0419H42.0976Z" fill="#D80027"/>
<path d="M34.6333 31.9558L0 13.1V31.9558H34.6333Z" fill="#0052B4"/>
<path d="M58.6957 31.9558L0 0V9.0363L42.0976 31.9558H58.6957Z" fill="#0052B4"/>
<path d="M15.6346 0L58.6957 23.446V0H15.6346Z" fill="#0052B4"/>
<path d="M58.6957 31.9558L0 0V9.0363L42.0976 31.9558H58.6957Z" fill="#F0F0F0"/>
<path d="M58.6957 31.9558L0 0V9.0363L42.0976 31.9558H58.6957Z" fill="#D80027"/>
<path d="M123.533 31.9564L150 17.5466V31.9564H123.533Z" fill="#0052B4"/>
<path d="M91.3043 27.8927V0.000274658H142.532L91.3043 27.8927Z" fill="#0052B4"/>
<path d="M107.902 31.9558L150 9.0363V0L91.3043 31.9558H107.902Z" fill="#D80027"/>
</svg>
