<svg width="150" height="98" viewBox="0 0 150 98" fill="none" xmlns="http://www.w3.org/2000/svg">
<path d="M147.413 98H2.58632C1.1581 98 0 96.8452 0 95.4209V2.57906C0 1.15485 1.1581 0 2.58632 0H147.414C148.842 0 150 1.15485 150 2.57906V95.4209C150 96.8454 148.842 98 147.413 98Z" fill="#F5F5F5"/>
<path d="M150 7.53882H0V2.57906C0 1.15485 1.1581 0 2.58632 0H147.414C148.842 0 150 1.15485 150 2.57906L150 7.53882Z" fill="#FF4B55"/>
<path d="M150 30.1538H0V37.6923H150V30.1538Z" fill="#FF4B55"/>
<path d="M150 15.0762H0V22.6147H150V15.0762Z" fill="#FF4B55"/>
<path d="M150 52.7694H2.58632C1.1581 52.7694 0 51.6146 0 50.1904V45.2306H150V52.7694Z" fill="#FF4B55"/>
<path d="M150 75.3867H0V82.9253H150V75.3867Z" fill="#FF4B55"/>
<path d="M147.413 98H2.58632C1.1581 98 0 96.8452 0 95.421V90.4615H150V95.4213C150 96.8455 148.842 98 147.413 98Z" fill="#FF4B55"/>
<path d="M150 60.3091H0V67.8476H150V60.3091Z" fill="#FF4B55"/>
<path d="M67.2412 0.000274658H2.58632C1.1581 0.000274658 0 1.15483 0 2.57904V50.19C0 51.6142 1.1581 52.7691 2.58632 52.7691H67.2415C68.6697 52.7691 69.8278 51.6142 69.8278 50.19V2.57904C69.8275 1.15483 68.6694 0.000274658 67.2412 0.000274658Z" fill="#41479B"/>
<path d="M7.26235 5.91953L7.83481 7.63151L9.64448 7.64524C9.87885 7.64728 9.97583 7.94527 9.78745 8.08404L8.33169 9.15621L8.87778 10.8767C8.94868 11.0993 8.69409 11.2839 8.50337 11.1478L7.0312 10.0987L5.55904 11.1481C5.36832 11.2839 5.11431 11.0996 5.18462 10.877L5.73072 9.15651L4.27496 8.08433C4.08658 7.94527 4.18355 7.64757 4.41793 7.64553L6.22759 7.6318L6.80005 5.91982C6.87388 5.69779 7.18794 5.69779 7.26235 5.91953Z" fill="#F5F5F5"/>
<path d="M7.26235 14.8749L7.83481 16.5869L9.64448 16.6006C9.87885 16.6026 9.97583 16.9006 9.78745 17.0394L8.33169 18.1116L8.87778 19.832C8.94868 20.0546 8.69409 20.2393 8.50337 20.1031L7.0312 19.054L5.55904 20.1034C5.36832 20.2393 5.11431 20.0549 5.18462 19.8323L5.73072 18.1119L4.27496 17.0397C4.08658 16.9006 4.18355 16.6029 4.41793 16.6009L6.22759 16.5871L6.80005 14.8752C6.87388 14.6534 7.18794 14.6534 7.26235 14.8749Z" fill="#F5F5F5"/>
<path d="M7.26235 23.8303L7.83481 25.5423L9.64448 25.556C9.87885 25.5581 9.97583 25.8561 9.78745 25.9948L8.33169 27.067L8.87778 28.7875C8.94868 29.0101 8.69409 29.1947 8.50337 29.0586L7.0312 28.0095L5.55904 29.0589C5.36832 29.1947 5.11431 29.0104 5.18462 28.7877L5.73072 27.0673L4.27496 25.9951C4.08658 25.8561 4.18355 25.5584 4.41793 25.5563L6.22759 25.5426L6.80005 23.8306C6.87388 23.6089 7.18794 23.6089 7.26235 23.8303Z" fill="#F5F5F5"/>
<path d="M7.26235 32.7861L7.83481 34.498L9.64448 34.5118C9.87885 34.5138 9.97583 34.8118 9.78745 34.9506L8.33169 36.0227L8.87778 37.7432C8.94868 37.9658 8.69409 38.1504 8.50337 38.0143L7.0312 36.9652L5.55904 38.0146C5.36832 38.1504 5.11431 37.9661 5.18462 37.7435L5.73072 36.023L4.27496 34.9508C4.08658 34.8118 4.18355 34.5141 4.41793 34.512L6.22759 34.4983L6.80005 32.7863C6.87388 32.5643 7.18794 32.5643 7.26235 32.7861Z" fill="#F5F5F5"/>
<path d="M7.26235 41.7415L7.83481 43.4535L9.64448 43.4672C9.87885 43.4692 9.97583 43.7672 9.78745 43.906L8.33169 44.9782L8.87778 46.6986C8.94868 46.9212 8.69409 47.1059 8.50337 46.9697L7.0312 45.9206L5.55904 46.97C5.36832 47.1059 5.11431 46.9215 5.18462 46.6989L5.73072 44.9785L4.27496 43.9063C4.08658 43.7672 4.18355 43.4695 4.41793 43.4675L6.22759 43.4538L6.80005 41.7418C6.87388 41.5195 7.18794 41.5195 7.26235 41.7415Z" fill="#F5F5F5"/>
<path d="M14.2329 10.3101L14.8054 12.0221L16.6151 12.0358C16.8494 12.0378 16.9464 12.3358 16.758 12.4746L15.3023 13.5468L15.8484 15.2672C15.9193 15.4898 15.6647 15.6745 15.4739 15.5383L14.0018 14.489L12.5296 15.5383C12.3389 15.6742 12.0849 15.4898 12.1552 15.2672L12.7013 13.5468L11.2455 12.4746C11.0572 12.3355 11.1541 12.0378 11.3885 12.0358L13.1982 12.0221L13.7706 10.3101C13.8442 10.0887 14.1588 10.0887 14.2329 10.3101Z" fill="#F5F5F5"/>
<path d="M14.2329 19.2658L14.8054 20.9778L16.6151 20.9915C16.8494 20.9936 16.9464 21.2916 16.758 21.4303L15.3023 22.5025L15.8484 24.223C15.9193 24.4456 15.6647 24.6302 15.4739 24.4941L14.0018 23.4447L12.5296 24.4941C12.3389 24.6299 12.0849 24.4459 12.1552 24.223L12.7013 22.5025L11.2455 21.4303C11.0572 21.2913 11.1541 20.9936 11.3885 20.9915L13.1982 20.9778L13.7706 19.2658C13.8442 19.0441 14.1588 19.0441 14.2329 19.2658Z" fill="#F5F5F5"/>
<path d="M14.2329 28.2213L14.8054 29.9332L16.6151 29.947C16.8494 29.949 16.9464 30.247 16.758 30.3858L15.3023 31.4579L15.8484 33.1784C15.9193 33.401 15.6647 33.5856 15.4739 33.4495L14.0018 32.4001L12.5296 33.4495C12.3389 33.5854 12.0849 33.401 12.1552 33.1784L12.7013 31.4579L11.2455 30.3858C11.0572 30.2467 11.1541 29.949 11.3885 29.947L13.1982 29.9332L13.7706 28.2213C13.8442 27.9995 14.1588 27.9995 14.2329 28.2213Z" fill="#F5F5F5"/>
<path d="M14.2329 37.1767L14.8054 38.8887L16.6151 38.9024C16.8494 38.9045 16.9464 39.2024 16.758 39.3412L15.3023 40.4134L15.8484 42.1338C15.9193 42.3565 15.6647 42.5411 15.4739 42.4049L14.0018 41.3556L12.5296 42.4049C12.3389 42.5408 12.0849 42.3565 12.1552 42.1338L12.7013 40.4134L11.2455 39.3412C11.0572 39.2022 11.1541 38.9045 11.3885 38.9024L13.1982 38.8887L13.7706 37.1767C13.8442 36.9553 14.1588 36.9553 14.2329 37.1767Z" fill="#F5F5F5"/>
<path d="M21.2035 5.91945L21.776 7.63142L23.5856 7.64515C23.82 7.6472 23.917 7.94518 23.7286 8.08395L22.2729 9.15613L22.8189 10.8766C22.8898 11.0992 22.6353 11.2838 22.4445 11.1477L20.9724 10.0983L19.5002 11.1477C19.3095 11.2835 19.0555 11.0992 19.1258 10.8766L19.6719 9.15613L18.2161 8.08395C18.0277 7.94489 18.1247 7.6472 18.3591 7.64515L20.1688 7.63142L20.7412 5.91945C20.815 5.69771 21.1294 5.69771 21.2035 5.91945Z" fill="#F5F5F5"/>
<path d="M21.2035 14.8749L21.776 16.5869L23.5856 16.6006C23.82 16.6026 23.917 16.9006 23.7286 17.0394L22.2729 18.1116L22.8189 19.832C22.8898 20.0546 22.6353 20.2393 22.4445 20.1031L20.9724 19.0537L19.5002 20.1031C19.3095 20.239 19.0555 20.0546 19.1258 19.832L19.6719 18.1116L18.2161 17.0394C18.0277 16.9003 18.1247 16.6026 18.3591 16.6006L20.1688 16.5869L20.7412 14.8749C20.815 14.6534 21.1294 14.6534 21.2035 14.8749Z" fill="#F5F5F5"/>
<path d="M21.2035 23.8303L21.776 25.5423L23.5856 25.556C23.82 25.5581 23.917 25.8561 23.7286 25.9948L22.2729 27.067L22.8189 28.7875C22.8898 29.0101 22.6353 29.1947 22.4445 29.0586L20.9724 28.0092L19.5002 29.0586C19.3095 29.1944 19.0555 29.0101 19.1258 28.7875L19.6719 27.067L18.2161 25.9948C18.0277 25.8558 18.1247 25.5581 18.3591 25.556L20.1688 25.5423L20.7412 23.8303C20.815 23.6089 21.1294 23.6089 21.2035 23.8303Z" fill="#F5F5F5"/>
<path d="M21.2035 32.7861L21.776 34.498L23.5856 34.5118C23.82 34.5138 23.917 34.8118 23.7286 34.9506L22.2729 36.0227L22.8189 37.7432C22.8898 37.9658 22.6353 38.1504 22.4445 38.0143L20.9724 36.9649L19.5002 38.0143C19.3095 38.1501 19.0555 37.9658 19.1258 37.7432L19.6719 36.0227L18.2161 34.9506C18.0277 34.8115 18.1247 34.5138 18.3591 34.5118L20.1688 34.498L20.7412 32.7861C20.815 32.5643 21.1294 32.5643 21.2035 32.7861Z" fill="#F5F5F5"/>
<path d="M21.2035 41.7415L21.776 43.4534L23.5856 43.4672C23.82 43.4692 23.917 43.7672 23.7286 43.906L22.2729 44.9782L22.8189 46.6986C22.8898 46.9212 22.6353 47.1059 22.4445 46.9697L20.9724 45.9203L19.5002 46.9697C19.3095 47.1056 19.0555 46.9212 19.1258 46.6986L19.6719 44.9782L18.2161 43.906C18.0277 43.7669 18.1247 43.4692 18.3591 43.4672L20.1688 43.4534L20.7412 41.7415C20.815 41.5194 21.1294 41.5194 21.2035 41.7415Z" fill="#F5F5F5"/>
<path d="M28.1744 10.3101L28.7469 12.0221L30.5565 12.0358C30.7909 12.0378 30.8879 12.3358 30.6995 12.4746L29.2437 13.5468L29.7898 15.2672C29.8607 15.4898 29.6061 15.6745 29.4154 15.5383L27.9433 14.489L26.4711 15.5383C26.2804 15.6742 26.0264 15.4898 26.0967 15.2672L26.6428 13.5468L25.187 12.4746C24.9986 12.3355 25.0956 12.0378 25.33 12.0358L27.1396 12.0221L27.7121 10.3101C27.7856 10.0887 28.1003 10.0887 28.1744 10.3101Z" fill="#F5F5F5"/>
<path d="M28.1744 19.2658L28.7469 20.9778L30.5565 20.9915C30.7909 20.9936 30.8879 21.2916 30.6995 21.4303L29.2437 22.5025L29.7898 24.223C29.8607 24.4456 29.6061 24.6302 29.4154 24.4941L27.9433 23.4447L26.4711 24.4941C26.2804 24.6299 26.0264 24.4459 26.0967 24.223L26.6428 22.5025L25.187 21.4303C24.9986 21.2913 25.0956 20.9936 25.33 20.9915L27.1396 20.9778L27.7121 19.2658C27.7856 19.0441 28.1003 19.0441 28.1744 19.2658Z" fill="#F5F5F5"/>
<path d="M28.1744 28.2213L28.7469 29.9332L30.5565 29.947C30.7909 29.949 30.8879 30.247 30.6995 30.3858L29.2437 31.4579L29.7898 33.1784C29.8607 33.401 29.6061 33.5856 29.4154 33.4495L27.9433 32.4001L26.4711 33.4495C26.2804 33.5854 26.0264 33.401 26.0967 33.1784L26.6428 31.4579L25.187 30.3858C24.9986 30.2467 25.0956 29.949 25.33 29.947L27.1396 29.9332L27.7121 28.2213C27.7856 27.9995 28.1003 27.9995 28.1744 28.2213Z" fill="#F5F5F5"/>
<path d="M28.1744 37.1767L28.7469 38.8887L30.5565 38.9024C30.7909 38.9045 30.8879 39.2024 30.6995 39.3412L29.2437 40.4134L29.7898 42.1338C29.8607 42.3565 29.6061 42.5411 29.4154 42.4049L27.9433 41.3556L26.4711 42.4049C26.2804 42.5408 26.0264 42.3565 26.0967 42.1338L26.6428 40.4134L25.187 39.3412C24.9986 39.2022 25.0956 38.9045 25.33 38.9024L27.1396 38.8887L27.7121 37.1767C27.7856 36.9553 28.1003 36.9553 28.1744 37.1767Z" fill="#F5F5F5"/>
<path d="M35.145 5.91945L35.7175 7.63142L37.5272 7.64515C37.7615 7.6472 37.8585 7.94518 37.6701 8.08395L36.2144 9.15613L36.7605 10.8766C36.8314 11.0992 36.5768 11.2838 36.386 11.1477L34.9136 10.0983L33.4414 11.1477C33.2507 11.2835 32.9967 11.0992 33.067 10.8766L33.6131 9.15613L32.1573 8.08395C31.969 7.94489 32.0659 7.6472 32.3003 7.64515L34.11 7.63142L34.6824 5.91945C34.7566 5.69771 35.0709 5.69771 35.145 5.91945Z" fill="#F5F5F5"/>
<path d="M35.145 14.8749L35.7175 16.5869L37.5272 16.6006C37.7615 16.6026 37.8585 16.9006 37.6701 17.0394L36.2144 18.1116L36.7605 19.832C36.8314 20.0546 36.5768 20.2393 36.386 20.1031L34.9136 19.0537L33.4414 20.1031C33.2507 20.239 32.9967 20.0546 33.067 19.832L33.6131 18.1116L32.1573 17.0394C31.969 16.9003 32.0659 16.6026 32.3003 16.6006L34.11 16.5869L34.6824 14.8749C34.7566 14.6534 35.0709 14.6534 35.145 14.8749Z" fill="#F5F5F5"/>
<path d="M35.145 23.8303L35.7175 25.5423L37.5272 25.556C37.7615 25.5581 37.8585 25.8561 37.6701 25.9948L36.2144 27.067L36.7605 28.7875C36.8314 29.0101 36.5768 29.1947 36.386 29.0586L34.9136 28.0092L33.4414 29.0586C33.2507 29.1944 32.9967 29.0101 33.067 28.7875L33.6131 27.067L32.1573 25.9948C31.969 25.8558 32.0659 25.5581 32.3003 25.556L34.11 25.5423L34.6824 23.8303C34.7566 23.6089 35.0709 23.6089 35.145 23.8303Z" fill="#F5F5F5"/>
<path d="M35.145 32.7861L35.7175 34.498L37.5272 34.5118C37.7615 34.5138 37.8585 34.8118 37.6701 34.9506L36.2144 36.0227L36.7605 37.7432C36.8314 37.9658 36.5768 38.1504 36.386 38.0143L34.9136 36.9649L33.4414 38.0143C33.2507 38.1501 32.9967 37.9658 33.067 37.7432L33.6131 36.0227L32.1573 34.9506C31.969 34.8115 32.0659 34.5138 32.3003 34.5118L34.11 34.498L34.6824 32.7861C34.7566 32.5643 35.0709 32.5643 35.145 32.7861Z" fill="#F5F5F5"/>
<path d="M35.145 41.7415L35.7175 43.4534L37.5272 43.4672C37.7615 43.4692 37.8585 43.7672 37.6701 43.906L36.2144 44.9782L36.7605 46.6986C36.8314 46.9212 36.5768 47.1059 36.386 46.9697L34.9136 45.9203L33.4414 46.9697C33.2507 47.1056 32.9967 46.9212 33.067 46.6986L33.6131 44.9782L32.1573 43.906C31.969 43.7669 32.0659 43.4692 32.3003 43.4672L34.11 43.4534L34.6824 41.7415C34.7566 41.5194 35.0709 41.5194 35.145 41.7415Z" fill="#F5F5F5"/>
<path d="M42.1156 10.3101L42.6881 12.0221L44.4978 12.0358C44.7321 12.0378 44.8291 12.3358 44.6407 12.4746L43.185 13.5468L43.7311 15.2672C43.802 15.4898 43.5474 15.6745 43.3566 15.5383L41.8845 14.489L40.4123 15.5383C40.2216 15.6742 39.9676 15.4898 40.0379 15.2672L40.584 13.5468L39.1282 12.4746C38.9399 12.3355 39.0368 12.0378 39.2712 12.0358L41.0809 12.0221L41.6533 10.3101C41.7274 10.0887 42.0415 10.0887 42.1156 10.3101Z" fill="#F5F5F5"/>
<path d="M42.1156 19.2658L42.6881 20.9778L44.4978 20.9915C44.7321 20.9936 44.8291 21.2916 44.6407 21.4303L43.185 22.5025L43.7311 24.223C43.802 24.4456 43.5474 24.6302 43.3566 24.4941L41.8845 23.4447L40.4123 24.4941C40.2216 24.6299 39.9676 24.4459 40.0379 24.223L40.584 22.5025L39.1282 21.4303C38.9399 21.2913 39.0368 20.9936 39.2712 20.9915L41.0809 20.9778L41.6533 19.2658C41.7274 19.0441 42.0415 19.0441 42.1156 19.2658Z" fill="#F5F5F5"/>
<path d="M42.1156 28.2213L42.6881 29.9332L44.4978 29.947C44.7321 29.949 44.8291 30.247 44.6407 30.3858L43.185 31.4579L43.7311 33.1784C43.802 33.401 43.5474 33.5856 43.3566 33.4495L41.8845 32.4001L40.4123 33.4495C40.2216 33.5854 39.9676 33.401 40.0379 33.1784L40.584 31.4579L39.1282 30.3858C38.9399 30.2467 39.0368 29.949 39.2712 29.947L41.0809 29.9332L41.6533 28.2213C41.7274 27.9995 42.0415 27.9995 42.1156 28.2213Z" fill="#F5F5F5"/>
<path d="M42.1156 37.1767L42.6881 38.8887L44.4978 38.9024C44.7321 38.9045 44.8291 39.2024 44.6407 39.3412L43.185 40.4134L43.7311 42.1338C43.802 42.3565 43.5474 42.5411 43.3566 42.4049L41.8845 41.3556L40.4123 42.4049C40.2216 42.5408 39.9676 42.3565 40.0379 42.1338L40.584 40.4134L39.1282 39.3412C38.9399 39.2022 39.0368 38.9045 39.2712 38.9024L41.0809 38.8887L41.6533 37.1767C41.7274 36.9553 42.0415 36.9553 42.1156 37.1767Z" fill="#F5F5F5"/>
<path d="M49.0865 5.91945L49.659 7.63142L51.4686 7.64515C51.703 7.6472 51.8 7.94518 51.6116 8.08395L50.1558 9.15613L50.7019 10.8766C50.7728 11.0992 50.5182 11.2838 50.3275 11.1477L48.8554 10.0983L47.3832 11.1477C47.1925 11.2835 46.9385 11.0992 47.0088 10.8766L47.5549 9.15613L46.0991 8.08395C45.9107 7.94489 46.0077 7.6472 46.2421 7.64515L48.0517 7.63142L48.6242 5.91945C48.6977 5.69771 49.0124 5.69771 49.0865 5.91945Z" fill="#F5F5F5"/>
<path d="M49.0865 14.8749L49.659 16.5869L51.4686 16.6006C51.703 16.6026 51.8 16.9006 51.6116 17.0394L50.1558 18.1116L50.7019 19.832C50.7728 20.0546 50.5182 20.2393 50.3275 20.1031L48.8554 19.0537L47.3832 20.1031C47.1925 20.239 46.9385 20.0546 47.0088 19.832L47.5549 18.1116L46.0991 17.0394C45.9107 16.9003 46.0077 16.6026 46.2421 16.6006L48.0517 16.5869L48.6242 14.8749C48.6977 14.6534 49.0124 14.6534 49.0865 14.8749Z" fill="#F5F5F5"/>
<path d="M49.0865 23.8303L49.659 25.5423L51.4686 25.556C51.703 25.5581 51.8 25.8561 51.6116 25.9948L50.1558 27.067L50.7019 28.7875C50.7728 29.0101 50.5182 29.1947 50.3275 29.0586L48.8554 28.0092L47.3832 29.0586C47.1925 29.1944 46.9385 29.0101 47.0088 28.7875L47.5549 27.067L46.0991 25.9948C45.9107 25.8558 46.0077 25.5581 46.2421 25.556L48.0517 25.5423L48.6242 23.8303C48.6977 23.6089 49.0124 23.6089 49.0865 23.8303Z" fill="#F5F5F5"/>
<path d="M49.0865 32.7861L49.659 34.498L51.4686 34.5118C51.703 34.5138 51.8 34.8118 51.6116 34.9506L50.1558 36.0227L50.7019 37.7432C50.7728 37.9658 50.5182 38.1504 50.3275 38.0143L48.8554 36.9649L47.3832 38.0143C47.1925 38.1501 46.9385 37.9658 47.0088 37.7432L47.5549 36.0227L46.0991 34.9506C45.9107 34.8115 46.0077 34.5138 46.2421 34.5118L48.0517 34.498L48.6242 32.7861C48.6977 32.5643 49.0124 32.5643 49.0865 32.7861Z" fill="#F5F5F5"/>
<path d="M49.0865 41.7415L49.659 43.4534L51.4686 43.4672C51.703 43.4692 51.8 43.7672 51.6116 43.906L50.1558 44.9782L50.7019 46.6986C50.7728 46.9212 50.5182 47.1059 50.3275 46.9697L48.8554 45.9203L47.3832 46.9697C47.1925 47.1056 46.9385 46.9212 47.0088 46.6986L47.5549 44.9782L46.0991 43.906C45.9107 43.7669 46.0077 43.4692 46.2421 43.4672L48.0517 43.4534L48.6242 41.7415C48.6977 41.5194 49.0124 41.5194 49.0865 41.7415Z" fill="#F5F5F5"/>
<path d="M56.0571 10.3101L56.6296 12.0221L58.4392 12.0358C58.6736 12.0378 58.7706 12.3358 58.5822 12.4746L57.1264 13.5468L57.6725 15.2672C57.7434 15.4898 57.4888 15.6745 57.2981 15.5383L55.8259 14.489L54.3538 15.5383C54.1631 15.6742 53.9091 15.4898 53.9794 15.2672L54.5255 13.5468L53.0697 12.4746C52.8813 12.3355 52.9783 12.0378 53.2127 12.0358L55.0223 12.0221L55.5948 10.3101C55.6686 10.0887 55.9833 10.0887 56.0571 10.3101Z" fill="#F5F5F5"/>
<path d="M56.0571 19.2658L56.6296 20.9778L58.4392 20.9915C58.6736 20.9936 58.7706 21.2916 58.5822 21.4303L57.1264 22.5025L57.6725 24.223C57.7434 24.4456 57.4888 24.6302 57.2981 24.4941L55.8259 23.4447L54.3538 24.4941C54.1631 24.6299 53.9091 24.4459 53.9794 24.223L54.5255 22.5025L53.0697 21.4303C52.8813 21.2913 52.9783 20.9936 53.2127 20.9915L55.0223 20.9778L55.5948 19.2658C55.6686 19.0441 55.9833 19.0441 56.0571 19.2658Z" fill="#F5F5F5"/>
<path d="M56.0571 28.2213L56.6296 29.9332L58.4392 29.947C58.6736 29.949 58.7706 30.247 58.5822 30.3858L57.1264 31.4579L57.6725 33.1784C57.7434 33.401 57.4888 33.5856 57.2981 33.4495L55.8259 32.4001L54.3538 33.4495C54.1631 33.5854 53.9091 33.401 53.9794 33.1784L54.5255 31.4579L53.0697 30.3858C52.8813 30.2467 52.9783 29.949 53.2127 29.947L55.0223 29.9332L55.5948 28.2213C55.6686 27.9995 55.9833 27.9995 56.0571 28.2213Z" fill="#F5F5F5"/>
<path d="M56.0571 37.1767L56.6296 38.8887L58.4392 38.9024C58.6736 38.9045 58.7706 39.2024 58.5822 39.3412L57.1264 40.4134L57.6725 42.1338C57.7434 42.3565 57.4888 42.5411 57.2981 42.4049L55.8259 41.3556L54.3538 42.4049C54.1631 42.5408 53.9091 42.3565 53.9794 42.1338L54.5255 40.4134L53.0697 39.3412C52.8813 39.2022 52.9783 38.9045 53.2127 38.9024L55.0223 38.8887L55.5948 37.1767C55.6686 36.9553 55.9833 36.9553 56.0571 37.1767Z" fill="#F5F5F5"/>
<path d="M63.028 5.91945L63.6004 7.63142L65.4101 7.64515C65.6445 7.6472 65.7415 7.94518 65.5531 8.08395L64.0973 9.15613L64.6434 10.8766C64.7143 11.0992 64.4597 11.2838 64.269 11.1477L62.7968 10.0983L61.3247 11.1477C61.1339 11.2835 60.8799 11.0992 60.9503 10.8766L61.4963 9.15613L60.0406 8.08395C59.8522 7.94489 59.9492 7.6472 60.1836 7.64515L61.9932 7.63142L62.5657 5.91945C62.6395 5.69771 62.9536 5.69771 63.028 5.91945Z" fill="#F5F5F5"/>
<path d="M63.028 14.8749L63.6004 16.5869L65.4101 16.6006C65.6445 16.6026 65.7415 16.9006 65.5531 17.0394L64.0973 18.1116L64.6434 19.832C64.7143 20.0546 64.4597 20.2393 64.269 20.1031L62.7968 19.0537L61.3247 20.1031C61.1339 20.239 60.8799 20.0546 60.9503 19.832L61.4963 18.1116L60.0406 17.0394C59.8522 16.9003 59.9492 16.6026 60.1836 16.6006L61.9932 16.5869L62.5657 14.8749C62.6395 14.6534 62.9536 14.6534 63.028 14.8749Z" fill="#F5F5F5"/>
<path d="M63.028 23.8303L63.6004 25.5423L65.4101 25.556C65.6445 25.5581 65.7415 25.8561 65.5531 25.9948L64.0973 27.067L64.6434 28.7875C64.7143 29.0101 64.4597 29.1947 64.269 29.0586L62.7968 28.0092L61.3247 29.0586C61.1339 29.1944 60.8799 29.0101 60.9503 28.7875L61.4963 27.067L60.0406 25.9948C59.8522 25.8558 59.9492 25.5581 60.1836 25.556L61.9932 25.5423L62.5657 23.8303C62.6395 23.6089 62.9536 23.6089 63.028 23.8303Z" fill="#F5F5F5"/>
<path d="M63.028 32.7861L63.6004 34.498L65.4101 34.5118C65.6445 34.5138 65.7415 34.8118 65.5531 34.9506L64.0973 36.0227L64.6434 37.7432C64.7143 37.9658 64.4597 38.1504 64.269 38.0143L62.7968 36.9649L61.3247 38.0143C61.1339 38.1501 60.8799 37.9658 60.9503 37.7432L61.4963 36.0227L60.0406 34.9506C59.8522 34.8115 59.9492 34.5138 60.1836 34.5118L61.9932 34.498L62.5657 32.7861C62.6395 32.5643 62.9536 32.5643 63.028 32.7861Z" fill="#F5F5F5"/>
<path d="M63.028 41.7415L63.6004 43.4534L65.4101 43.4672C65.6445 43.4692 65.7415 43.7672 65.5531 43.906L64.0973 44.9782L64.6434 46.6986C64.7143 46.9212 64.4597 47.1059 64.269 46.9697L62.7968 45.9203L61.3247 46.9697C61.1339 47.1056 60.8799 46.9212 60.9503 46.6986L61.4963 44.9782L60.0406 43.906C59.8522 43.7669 59.9492 43.4692 60.1836 43.4672L61.9932 43.4534L62.5657 41.7415C62.6395 41.5194 62.9536 41.5194 63.028 41.7415Z" fill="#F5F5F5"/>
</svg>
