<svg xmlns="http://www.w3.org/2000/svg" viewBox="0 0 238.43 143.56"><defs><style>.cls-1{fill:#020553;}</style></defs><title>logo.us_1</title><g id="Layer_2" data-name="Layer 2"><g id="Layer_1-2" data-name="Layer 1"><path class="cls-1" d="M208.52,1.48c15.27,3.16,24.33,13.1,26.21,28.6.41,3.43.56,6.89.84,10.56H211.93c-.18-1.8-.42-3.62-.53-5.46-.43-7-3.41-10.92-10.26-11.91a42.27,42.27,0,0,0-12.88.31,10.07,10.07,0,0,0-8.59,8.4c-1,5.62-.28,11,4.48,14.86a77.18,77.18,0,0,0,10.18,6.75c8.42,4.81,17.28,8.91,25.36,14.22,19.53,12.85,24.64,40.48,11.35,59a35.07,35.07,0,0,1-20.19,13.51,63.05,63.05,0,0,1-31.84.33c-14.89-3.73-24.44-14.44-26.46-29.62-.49-3.68-.62-7.41-.93-11.33H177c.2,2.21.25,4.49.63,6.71,1.94,11.34,8.09,15.86,19.85,14.73s18.66-10.94,15.88-22.35c-1.12-4.6-4.17-7.88-8-10.17-7-4.17-14.27-7.93-21.38-11.94-4.15-2.34-8.38-4.58-12.28-7.27-12.26-8.46-17.57-20.33-16.7-35.11C156.07,15.92,167.54,3.52,185.87.94,192.9-.57,200.51-.17,208.52,1.48Z"/><path class="cls-1" d="M66.7,87.61a64,64,0,0,0,1.62,13.91c2.84,12.32,11.31,18.25,23.94,17.25C104,117.85,110.49,112,112.7,100a82.75,82.75,0,0,0,1.41-14.45c.14-26.77.07-53.55.07-80.32,0-1.09,0-2.19,0-3.55h26.3c0,1,0,1.93,0,2.83q0,45.15,0,90.3a57.38,57.38,0,0,1-4.09,22.2c-5.32,12.83-14.6,21.42-28.13,24.52A79.93,79.93,0,0,1,71,141.19c-5.78-1.42-13.07-4.9-17.49-8.93,3.27-17.81.89-32.59-13.41-42.42l0-87.4c0-.16,0-.16,0-.67l26.4,0Z"/><path class="cls-1" d="M39.86,118.81c.81,9-6.87,19.89-19.93,20A19.93,19.93,0,1,1,20,99,19.56,19.56,0,0,1,39.86,118.81Z"/></g></g></svg>