<svg id="Layer_1" data-name="Layer 1" xmlns="http://www.w3.org/2000/svg" viewBox="0 0 650.16 378.7"><defs><style>.cls-1{fill:#020553;}</style></defs><title>logo.xyz</title><path class="cls-1" d="M718,145.73C718,96.15,677.66,53,628.08,53H231.39a92.25,92.25,0,0,0-87.45,120.91,93.1,93.1,0,0,0-46.26,24.59c-17.89,17.69-27.74,42.42-27.74,69.63,0,27.51,10.17,52.37,28.64,70C110.92,350,132.66,364,166.16,364H230a92.54,92.54,0,0,0,47.76-13.26,90.57,90.57,0,0,0,90.79,81,137.2,137.2,0,0,0,92-34.83c13.55-11.94,25.27-26.54,35.52-44.21a88.57,88.57,0,0,0,38,8.54h96.81A89.31,89.31,0,0,0,720.1,272ZM166.16,292.08c-14.74,0-23.15-7.36-23.15-22.8,0-15.79,8.41-23.5,23.15-23.5s22.8,7.71,22.8,23.5C189,284.71,180.89,292.08,166.16,292.08Zm162.75,0c-5.26,0-11.58-2.46-15.08-7.36-10.87-15.08-34.38-48.41-34.38-48.41s-23.5,33.32-34.37,48.41c-3.51,4.91-9.82,7.36-15.08,7.36A18.86,18.86,0,0,1,211,273.14c0-5.26,1.75-8.42,3.86-11.58l42.44-53.32-41-50.51a18.41,18.41,0,0,1-3.86-11.58,18.86,18.86,0,0,1,18.94-18.94,19.11,19.11,0,0,1,15.08,7.36l33,45.25,33-45.25a19.12,19.12,0,0,1,15.08-7.36,18.86,18.86,0,0,1,18.94,18.94,18.4,18.4,0,0,1-3.86,11.58l-41,50.51L344,261.56c2.11,3.16,3.86,6.31,3.86,11.58A18.86,18.86,0,0,1,328.9,292.08ZM506.38,153.53L441.14,300.84c-15.43,34.37-37.53,58.93-72.6,58.93-10.17,0-18.24-7.37-18.24-17.53s8.07-17.54,18.24-17.54c22.45,0,33-17.89,44.55-46.65l-54-124.52a19.61,19.61,0,0,1-1.4-7.37,18.86,18.86,0,0,1,18.94-18.94,18.47,18.47,0,0,1,17.54,11.92l38.59,97.51,38.58-97.51a18.48,18.48,0,0,1,17.54-11.92,18.86,18.86,0,0,1,18.94,18.94A19.65,19.65,0,0,1,506.38,153.53ZM630.89,289.27H534.08a16.32,16.32,0,0,1-16.13-16.13c0-4.91,1.75-7.72,3.86-10.52l41.8-56h0l26.46-35.48,7.13-9.56H537.94a15.78,15.78,0,1,1,0-31.57h90.14a16.95,16.95,0,0,1,13,27.71l-74,99.26h63.84A16.13,16.13,0,1,1,630.89,289.27Z" transform="translate(-69.93 -53.01)"/></svg>